<svg width="200" height="100" viewBox="0 0 200 100" fill="none" xmlns="http://www.w3.org/2000/svg">
<path d="M86.3257 64.3345H93.28V35.5987H86.3257V64.3345Z" fill="black"/>
<path fill-rule="evenodd" clip-rule="evenodd" d="M112.592 50.3204L112.622 50.3574V35.6001H119.896V64.3345H112.328L105.463 49.5423L105.433 49.5076L105.405 64.3345H98.0127V35.6001H105.522L112.592 50.3204Z" fill="black"/>
<path d="M150.78 64.3345H157.908V35.5987H150.78V64.3345Z" fill="black"/>
<path fill-rule="evenodd" clip-rule="evenodd" d="M184 64.3009L175.701 64.3345L171.232 51.2767L171.202 51.2408L167.288 64.3345H159.457L163.635 50.2845H171.144L171.114 50.0043L166.879 35.6001H175.439L184 64.3009Z" fill="black"/>
<path fill-rule="evenodd" clip-rule="evenodd" d="M144.965 40.2357C145.696 41.8636 145.988 43.7393 146.163 45.6497H139.473C139.179 44.2707 138.186 42.8547 137.019 42.5004C135.206 41.9342 133.19 42.2526 131.993 44.0577C130.211 46.8526 130.094 51.5591 131.35 54.7095C132.605 57.6805 135.324 58.3544 137.894 57.9653C138.538 57.787 139.18 57.6099 139.764 57.2915L139.794 54.7431L136.58 54.7095V48.2327H146.194V62.7054C142.511 65.0071 137.925 65.2538 133.483 64.8288C129.744 64.4039 125.741 61.6807 124.455 57.0796C122.847 51.2766 122.82 43.385 126.94 38.9621C130.212 35.3162 134.799 34.3969 139.299 35.3521C141.547 35.9182 143.855 37.5461 144.965 40.2357ZM40.4542 64.3345H31.7477L27.8619 51.0983L27.8333 51.0647L23.9178 64.3345H16L20.207 50.2844H27.5685L23.3338 35.5998H31.806L40.4542 64.3345ZM50.0382 56.8677L58.9789 56.9036V64.3345H42.821V35.5998H50.0382V56.8677ZM73.8797 35.6346C76.6547 35.9182 79.7518 36.6963 80.9792 40.1651C81.8558 42.8547 81.4763 46.2517 79.6065 48.2327L78.9632 49.0119C81.2421 50.3573 82.4112 53.1882 82.2936 56.2321C82.3529 59.276 80.5701 62.1774 78.2912 63.3445C76.2446 64.6204 73.6455 64.3009 71.162 64.3345H61.4614V35.5998L73.8797 35.6346ZM73.4409 42.6417C74.0842 42.7482 74.7562 43.4209 74.9015 44.2348C75.0487 45.1194 74.7266 45.9681 74.1129 46.4636C73.6168 46.8179 72.9734 46.8179 72.3607 46.782H68.299V42.6069L73.4409 42.6417ZM73.9963 52.6926C74.7266 52.7992 75.5162 53.1152 75.866 53.9662C76.1882 54.9562 76.0706 56.2321 75.3403 56.9742C74.7629 57.6029 74.4044 57.6481 73.8796 57.7523H68.299V52.6579L73.9963 52.6926Z" fill="black"/>
</svg>
