<svg width="200" height="100" viewBox="0 0 200 100" fill="none" xmlns="http://www.w3.org/2000/svg">
<path fill-rule="evenodd" clip-rule="evenodd" d="M120.839 64.1025C111.055 71.2121 96.8234 75 84.5486 75C67.3521 75 51.9346 68.7645 40.1936 58.3915C39.3041 57.5757 40.075 56.4685 41.2016 57.1095C53.8321 64.3356 69.4276 68.648 85.5567 68.648C96.4083 68.648 108.387 66.4335 119.416 61.8298C121.076 61.1887 122.44 62.937 120.839 64.1025Z" fill="#FF9900"/>
<path fill-rule="evenodd" clip-rule="evenodd" d="M124.931 59.4989C123.686 57.9254 116.629 58.7413 113.486 59.1492C112.537 59.2658 112.36 58.4499 113.249 57.8672C118.882 53.9627 128.074 55.1282 129.141 56.4103C130.208 57.6924 128.844 66.7833 123.567 71.0956C122.737 71.7366 121.966 71.387 122.322 70.5129C123.508 67.5991 126.176 61.1306 124.931 59.4989Z" fill="#FF9900"/>
<path fill-rule="evenodd" clip-rule="evenodd" d="M113.664 30.4778V26.69C113.664 26.1072 114.079 25.7576 114.613 25.7576H131.809C132.343 25.7576 132.818 26.1655 132.818 26.69V29.8951C132.818 30.4196 132.343 31.1189 131.513 32.2844L122.618 44.7552C125.939 44.6969 129.438 45.1631 132.402 46.7948C133.055 47.1445 133.233 47.7272 133.292 48.2517V52.2727C133.292 52.8554 132.699 53.4965 132.047 53.1468C126.769 50.4079 119.713 50.1165 113.901 53.2051C113.308 53.4965 112.656 52.9137 112.656 52.331V48.4848C112.656 47.9021 112.656 46.8531 113.308 45.9207L123.626 31.4102H114.672C114.139 31.4102 113.664 31.0023 113.664 30.4778ZM50.986 53.9626H45.7677C45.2933 53.9044 44.8783 53.5547 44.819 53.0885V26.7482C44.819 26.2238 45.2933 25.8158 45.827 25.8158H50.6895C51.2232 25.8158 51.579 26.2238 51.6382 26.69V30.1282H51.7568C53.0021 26.8065 55.4333 25.2331 58.6354 25.2331C61.8968 25.2331 63.9723 26.8065 65.3954 30.1282C66.6407 26.8065 69.5463 25.2331 72.6298 25.2331C74.8239 25.2331 77.1958 26.1072 78.6783 28.1468C80.3386 30.3613 79.9828 33.5664 79.9828 36.4219V53.0885C79.9828 53.613 79.5084 54.0209 78.9747 54.0209H73.8158C73.2821 53.9627 72.867 53.5547 72.867 53.0885V39.1025C72.867 37.9953 72.9856 35.1981 72.7484 34.1492C72.3333 32.4009 71.2067 31.8764 69.6649 31.8764C68.4197 31.8764 67.0558 32.6923 66.5221 34.0326C65.9884 35.3729 66.0477 37.5874 66.0477 39.1025V53.0885C66.0477 53.613 65.5733 54.0209 65.0396 54.0209H59.8214C59.2877 53.9627 58.8726 53.5547 58.8726 53.0885V39.1025C58.8726 36.1888 59.347 31.8182 55.6705 31.8182C51.9347 31.8182 52.0533 36.014 52.0533 39.1025V53.0885C51.994 53.5547 51.5789 53.9626 50.986 53.9626ZM147.642 25.2331C155.41 25.2331 159.62 31.7599 159.62 40.0932C159.62 48.1352 154.995 54.5454 147.642 54.5454C140.052 54.5454 135.901 48.0186 135.901 39.8601C135.842 31.6433 140.052 25.2331 147.642 25.2331ZM147.642 30.6527C143.788 30.6527 143.551 35.8391 143.551 39.0443C143.551 42.2494 143.491 49.1258 147.583 49.1258C151.615 49.1258 151.852 43.5897 151.852 40.2098C151.852 37.9953 151.734 35.3147 151.081 33.2168C150.488 31.352 149.302 30.6527 147.642 30.6527ZM169.642 53.9626H164.424C163.89 53.9044 163.475 53.4965 163.475 53.0303V26.6317C163.534 26.1655 163.949 25.7576 164.483 25.7576H169.345C169.82 25.7576 170.175 26.1072 170.294 26.5152V30.5361H170.413C171.895 26.9231 173.911 25.2331 177.528 25.2331C179.841 25.2331 182.154 26.0489 183.636 28.3217C185 30.4196 185 33.9743 185 36.5384V53.1468C184.941 53.613 184.526 53.9626 183.992 53.9626H178.774C178.299 53.9044 177.884 53.5547 177.825 53.1468V38.8112C177.825 35.8974 178.181 31.7016 174.564 31.7016C173.318 31.7016 172.132 32.5175 171.539 33.7995C170.828 35.4312 170.709 37.0046 170.709 38.8112V53.0303C170.65 53.5547 170.175 53.9626 169.642 53.9626ZM99.9663 41.3753C99.9663 43.3566 100.026 45.0466 99.0175 46.8531C98.1874 48.31 96.8828 49.1841 95.4004 49.1841C93.3842 49.1841 92.1982 47.669 92.1982 45.4545C92.1982 41.0839 96.1712 40.268 99.9663 40.268V41.3753ZM105.244 53.9044C104.888 54.1958 104.414 54.254 103.999 54.0209C102.279 52.6223 101.923 51.923 100.974 50.5827C98.1281 53.4382 96.0526 54.3123 92.3761 54.3123C87.9881 54.3123 84.5488 51.6317 84.5488 46.3286C84.5488 42.1328 86.8614 39.3356 90.1228 37.937C92.9691 36.7133 96.9421 36.4802 99.9663 36.1305V35.4895C99.9663 34.2657 100.085 32.8088 99.314 31.7599C98.6618 30.8275 97.4758 30.4196 96.4084 30.4196C94.3923 30.4196 92.6133 31.4102 92.1982 33.5081C92.0797 33.9743 91.7832 34.4405 91.3088 34.4405L86.2684 33.9161C85.8533 33.7995 85.379 33.5081 85.4976 32.8671C86.6835 26.8065 92.1982 25 97.1793 25C99.7291 25 103.05 25.641 105.066 27.5641C107.616 29.8951 107.379 33.0419 107.379 36.4219V44.4056C107.379 46.7948 108.387 47.8438 109.335 49.1841C109.691 49.6503 109.751 50.2331 109.335 50.5244C108.209 51.3986 106.311 53.0303 105.244 53.9044ZM31.4768 41.3753C31.4768 43.3566 31.5361 45.0466 30.5281 46.8531C29.6979 48.31 28.3933 49.1841 26.9109 49.1841C24.8947 49.1841 23.7088 47.669 23.7088 45.4545C23.7088 41.0839 27.6818 40.268 31.4768 40.268V41.3753ZM36.6951 53.9044C36.3393 54.1958 35.8649 54.254 35.4498 54.0209C33.7302 52.6223 33.3744 51.923 32.4256 50.5827C29.5793 53.4382 27.5039 54.3123 23.8274 54.3123C19.4393 54.3123 16 51.6317 16 46.3286C16 42.1328 18.3126 39.3356 21.574 37.937C24.4203 36.7133 28.3933 36.4802 31.4175 36.1305V35.4895C31.4175 34.2657 31.5361 32.8088 30.7653 31.7599C30.113 30.8275 28.927 30.4196 27.8596 30.4196C25.8435 30.4196 24.0646 31.4102 23.6495 33.5081C23.5309 33.9743 23.2344 34.4405 22.76 34.4405L17.7196 33.9161C17.3046 33.7995 16.8302 33.5081 16.9488 32.8671C18.1347 26.8065 23.6495 25 28.6305 25C31.1804 25 34.5011 25.641 36.5172 27.5641C39.067 29.8951 38.8298 33.0419 38.8298 36.4219V44.4056C38.8298 46.7948 39.8379 47.8438 40.7867 49.1841C41.1425 49.6503 41.2018 50.2331 40.7867 50.5244C39.66 51.3986 37.7625 53.0303 36.6951 53.9044Z" fill="black"/>
</svg>
