<svg width="1440" height="351" viewBox="0 0 1440 351" fill="none" xmlns="http://www.w3.org/2000/svg">
<rect y="1" width="1440" height="350" fill="#5F5EFB"/>
<mask id="mask0" mask-type="alpha" maskUnits="userSpaceOnUse" x="0" y="1" width="1440" height="350">
<rect y="1" width="1440" height="350" fill="#E3EBFF"/>
</mask>
<g mask="url(#mask0)">
<g filter="url(#filter0_d)">
<path d="M1274.5 135.5C1260.5 67 1282.5 16 1307 -13.5L1465 -2L1453 363.5C1361.67 367.667 1261.5 388.7 1261.5 371.5C1261.5 350 1298.5 336.5 1307 276.5C1315.5 216.5 1285.82 190.863 1274.5 135.5Z" fill="#4748EC"/>
</g>
<path d="M1283 -14C1275.33 12 1264.38 65.8761 1283 111C1309 174 1313.35 223.558 1289 288.5C1278.5 316.5 1278 350 1296.5 377.5" stroke="white" stroke-width="1.5" stroke-linecap="round" stroke-linejoin="round"/>
<path d="M1294.26 -14C1286.59 12 1275.63 65.8761 1294.26 111C1320.25 174 1324.61 223.558 1300.25 288.5C1289.75 316.5 1289.26 350 1307.76 377.5" stroke="white" stroke-width="1.5" stroke-linecap="round" stroke-linejoin="round"/>
<g filter="url(#filter1_d)">
<path d="M106.5 133.5C84.5 84.3 100 20.1667 125 -6L-51 -20L-26.5 359.5C60.5 367.667 232.299 397.32 192 382C131.5 359 191.796 281.903 169.5 236.5C148.416 193.564 134 195 106.5 133.5Z" fill="#4748EC"/>
</g>
<path d="M88.6961 -8C84.5294 23 68.5883 80.7081 103.196 115C136.5 148 160.5 196.5 151.5 259.5C145.683 300.217 174.5 352.5 183 360" stroke="white" stroke-width="1.5" stroke-linecap="round" stroke-linejoin="round"/>
<path d="M76.2954 -8C72.1287 23 56.1876 80.7081 90.7954 115C124.099 148 148.099 196.5 139.099 259.5C133.283 300.217 162.099 352.5 170.599 360" stroke="white" stroke-width="1.5" stroke-linecap="round" stroke-linejoin="round"/>
</g>
<path d="M1155 97.3482H1165.11V107.456" stroke="white" stroke-width="2.97799" stroke-linecap="round" stroke-linejoin="round"/>
<path d="M1162.15 90.201H1172.25V100.309" stroke="white" stroke-width="2.97799" stroke-linecap="round" stroke-linejoin="round"/>
<path d="M1169.29 83.0538H1179.4V93.1615" stroke="white" stroke-width="2.97799" stroke-linecap="round" stroke-linejoin="round"/>
<path d="M137.13 77.1563L159.819 52.0232C161.78 49.8512 164.771 48.923 167.617 49.6031L207.632 59.1643C210.682 59.893 210.71 64.2221 207.67 64.9907L140.092 82.0751C137.215 82.8023 135.142 79.3586 137.13 77.1563Z" fill="#FFC048"/>
<mask id="mask1" mask-type="alpha" maskUnits="userSpaceOnUse" x="143" y="56" width="75" height="34">
<path d="M144.63 84.6563L167.319 59.5232C169.28 57.3512 172.271 56.423 175.117 57.1031L215.132 66.6643C218.182 67.393 218.21 71.7221 215.17 72.4907L147.592 89.5751C144.715 90.3023 142.642 86.8586 144.63 84.6563Z" fill="#FFA801"/>
</mask>
<g mask="url(#mask1)">
<rect x="214" y="51" width="1.5" height="39" fill="#FFFEFE"/>
<rect x="210" y="51" width="1.5" height="39" fill="#FFFEFE"/>
<rect x="206" y="51" width="1.5" height="39" fill="#FFFEFE"/>
<rect x="202" y="51" width="1.5" height="39" fill="#FFFEFE"/>
<rect x="198" y="51" width="1.5" height="39" fill="#FFFEFE"/>
<rect x="194" y="51" width="1.5" height="39" fill="#FFFEFE"/>
<rect x="190" y="51" width="1.5" height="39" fill="#FFFEFE"/>
<rect x="186" y="52" width="1.5" height="39" fill="#FFFEFE"/>
<rect x="182" y="52" width="1.5" height="39" fill="#FFFEFE"/>
<rect x="178" y="52" width="1.5" height="39" fill="#FFFEFE"/>
<rect x="174" y="52" width="1.5" height="39" fill="#FFFEFE"/>
<rect x="170" y="52" width="1.5" height="39" fill="#FFFEFE"/>
<rect x="166" y="52" width="1.5" height="39" fill="#FFFEFE"/>
<rect x="162" y="52" width="1.5" height="39" fill="#FFFEFE"/>
<rect x="158" y="52" width="1.5" height="39" fill="#FFFEFE"/>
<rect x="154" y="57" width="1.5" height="39" fill="#FFFEFE"/>
<rect x="150" y="57" width="1.5" height="39" fill="#FFFEFE"/>
<rect x="146" y="57" width="1.5" height="39" fill="#FFFEFE"/>
</g>
<circle cx="1187" cy="281" r="1" fill="white"/>
<circle cx="1193" cy="281" r="1" fill="white"/>
<circle cx="1187" cy="287" r="1" fill="white"/>
<circle cx="1193" cy="287" r="1" fill="white"/>
<circle cx="1199" cy="281" r="1" fill="white"/>
<circle cx="1205" cy="281" r="1" fill="white"/>
<circle cx="1199" cy="287" r="1" fill="white"/>
<circle cx="1205" cy="287" r="1" fill="white"/>
<circle cx="1187" cy="293" r="1" fill="white"/>
<circle cx="1193" cy="293" r="1" fill="white"/>
<circle cx="1187" cy="299" r="1" fill="white"/>
<circle cx="1193" cy="299" r="1" fill="white"/>
<circle cx="1199" cy="293" r="1" fill="white"/>
<circle cx="1205" cy="293" r="1" fill="white"/>
<circle cx="1199" cy="299" r="1" fill="white"/>
<circle cx="1205" cy="299" r="1" fill="white"/>
<circle cx="1211" cy="281" r="1" fill="white"/>
<circle cx="1217" cy="281" r="1" fill="white"/>
<circle cx="1211" cy="287" r="1" fill="white"/>
<circle cx="1217" cy="287" r="1" fill="white"/>
<circle cx="1223" cy="281" r="1" fill="white"/>
<circle cx="1229" cy="281" r="1" fill="white"/>
<circle cx="1223" cy="287" r="1" fill="white"/>
<circle cx="1229" cy="287" r="1" fill="white"/>
<circle cx="1211" cy="293" r="1" fill="white"/>
<circle cx="1217" cy="293" r="1" fill="white"/>
<circle cx="1211" cy="299" r="1" fill="white"/>
<circle cx="1217" cy="299" r="1" fill="white"/>
<circle cx="1223" cy="293" r="1" fill="white"/>
<circle cx="1229" cy="293" r="1" fill="white"/>
<circle cx="1223" cy="299" r="1" fill="white"/>
<circle cx="1229" cy="299" r="1" fill="white"/>
<path d="M256 239L265.879 229.121C267.05 227.95 268.95 227.95 270.121 229.121L277.879 236.879C279.05 238.05 280.95 238.05 282.121 236.879L289.879 229.121C291.05 227.95 292.95 227.95 294.121 229.121L301.879 236.879C303.05 238.05 304.95 238.05 306.121 236.879L316 227" stroke="#0FBCF9" stroke-width="5" stroke-linecap="round" stroke-linejoin="round"/>
<path d="M256 224L265.879 214.121C267.05 212.95 268.95 212.95 270.121 214.121L277.879 221.879C279.05 223.05 280.95 223.05 282.121 221.879L289.879 214.121C291.05 212.95 292.95 212.95 294.121 214.121L301.879 221.879C303.05 223.05 304.95 223.05 306.121 221.879L316 212" stroke="white" stroke-width="5" stroke-linecap="round" stroke-linejoin="round"/>
<circle cx="1241.5" cy="107.5" r="4.5" fill="white"/>
<circle cx="1339.5" cy="171.5" r="4.5" fill="#FFC048"/>
<circle cx="1281" cy="260" r="3" fill="#0FBCF9"/>
<circle cx="120.5" cy="239.5" r="3.5" fill="#FFC048"/>
<circle cx="189.5" cy="321.5" r="2.5" fill="white"/>
<circle cx="161" cy="150" r="5" fill="#0FBCF9"/>
<circle cx="50.5" cy="90.5" r="6.5" fill="white"/>
<path d="M332.6 121.304C336.152 121.304 339.256 122.008 341.912 123.416C344.568 124.824 346.616 126.808 348.056 129.368C349.528 131.896 350.264 134.824 350.264 138.152C350.264 141.448 349.528 144.376 348.056 146.936C346.616 149.496 344.552 151.48 341.864 152.888C339.208 154.296 336.12 155 332.6 155H319.976V121.304H332.6ZM332.072 147.896C335.176 147.896 337.592 147.048 339.32 145.352C341.048 143.656 341.912 141.256 341.912 138.152C341.912 135.048 341.048 132.632 339.32 130.904C337.592 129.176 335.176 128.312 332.072 128.312H328.184V147.896H332.072ZM367.043 155.384C364.419 155.384 362.051 154.824 359.939 153.704C357.859 152.584 356.211 150.984 354.995 148.904C353.811 146.824 353.219 144.392 353.219 141.608C353.219 138.856 353.827 136.44 355.043 134.36C356.259 132.248 357.923 130.632 360.035 129.512C362.147 128.392 364.515 127.832 367.139 127.832C369.763 127.832 372.131 128.392 374.243 129.512C376.355 130.632 378.019 132.248 379.235 134.36C380.451 136.44 381.059 138.856 381.059 141.608C381.059 144.36 380.435 146.792 379.187 148.904C377.971 150.984 376.291 152.584 374.147 153.704C372.035 154.824 369.667 155.384 367.043 155.384ZM367.043 148.28C368.611 148.28 369.939 147.704 371.027 146.552C372.147 145.4 372.707 143.752 372.707 141.608C372.707 139.464 372.163 137.816 371.075 136.664C370.019 135.512 368.707 134.936 367.139 134.936C365.539 134.936 364.211 135.512 363.155 136.664C362.099 137.784 361.571 139.432 361.571 141.608C361.571 143.752 362.083 145.4 363.107 146.552C364.163 147.704 365.475 148.28 367.043 148.28ZM423.862 128.216L416.614 155H407.542L403.318 137.624L398.95 155H389.926L382.63 128.216H390.838L394.63 147.368L399.142 128.216H407.83L412.39 147.272L416.134 128.216H423.862ZM443.312 127.928C446.448 127.928 448.944 128.952 450.8 131C452.688 133.016 453.632 135.8 453.632 139.352V155H445.472V140.456C445.472 138.664 445.008 137.272 444.08 136.28C443.152 135.288 441.904 134.792 440.336 134.792C438.768 134.792 437.52 135.288 436.592 136.28C435.664 137.272 435.2 138.664 435.2 140.456V155H426.992V128.216H435.2V131.768C436.032 130.584 437.152 129.656 438.56 128.984C439.968 128.28 441.552 127.928 443.312 127.928ZM467.543 119.48V155H459.335V119.48H467.543ZM485.684 155.384C483.06 155.384 480.692 154.824 478.58 153.704C476.5 152.584 474.852 150.984 473.636 148.904C472.452 146.824 471.86 144.392 471.86 141.608C471.86 138.856 472.468 136.44 473.684 134.36C474.9 132.248 476.564 130.632 478.676 129.512C480.788 128.392 483.156 127.832 485.78 127.832C488.404 127.832 490.772 128.392 492.884 129.512C494.996 130.632 496.66 132.248 497.876 134.36C499.092 136.44 499.7 138.856 499.7 141.608C499.7 144.36 499.076 146.792 497.828 148.904C496.612 150.984 494.932 152.584 492.788 153.704C490.676 154.824 488.308 155.384 485.684 155.384ZM485.684 148.28C487.252 148.28 488.58 147.704 489.668 146.552C490.788 145.4 491.348 143.752 491.348 141.608C491.348 139.464 490.804 137.816 489.716 136.664C488.66 135.512 487.348 134.936 485.78 134.936C484.18 134.936 482.852 135.512 481.796 136.664C480.74 137.784 480.212 139.432 480.212 141.608C480.212 143.752 480.724 145.4 481.748 146.552C482.804 147.704 484.116 148.28 485.684 148.28ZM502.422 141.56C502.422 138.808 502.934 136.392 503.958 134.312C505.014 132.232 506.438 130.632 508.23 129.512C510.022 128.392 512.022 127.832 514.23 127.832C516.118 127.832 517.766 128.216 519.174 128.984C520.614 129.752 521.718 130.76 522.486 132.008V128.216H530.694V155H522.486V151.208C521.686 152.456 520.566 153.464 519.126 154.232C517.718 155 516.07 155.384 514.182 155.384C512.006 155.384 510.022 154.824 508.23 153.704C506.438 152.552 505.014 150.936 503.958 148.856C502.934 146.744 502.422 144.312 502.422 141.56ZM522.486 141.608C522.486 139.56 521.91 137.944 520.758 136.76C519.638 135.576 518.262 134.984 516.63 134.984C514.998 134.984 513.606 135.576 512.454 136.76C511.334 137.912 510.774 139.512 510.774 141.56C510.774 143.608 511.334 145.24 512.454 146.456C513.606 147.64 514.998 148.232 516.63 148.232C518.262 148.232 519.638 147.64 520.758 146.456C521.91 145.272 522.486 143.656 522.486 141.608ZM535 141.56C535 138.808 535.512 136.392 536.536 134.312C537.592 132.232 539.016 130.632 540.808 129.512C542.6 128.392 544.6 127.832 546.808 127.832C548.568 127.832 550.168 128.2 551.608 128.936C553.08 129.672 554.232 130.664 555.064 131.912V119.48H563.272V155H555.064V151.16C554.296 152.44 553.192 153.464 551.752 154.232C550.344 155 548.696 155.384 546.808 155.384C544.6 155.384 542.6 154.824 540.808 153.704C539.016 152.552 537.592 150.936 536.536 148.856C535.512 146.744 535 144.312 535 141.56ZM555.064 141.608C555.064 139.56 554.488 137.944 553.336 136.76C552.216 135.576 550.84 134.984 549.208 134.984C547.576 134.984 546.184 135.576 545.032 136.76C543.912 137.912 543.352 139.512 543.352 141.56C543.352 143.608 543.912 145.24 545.032 146.456C546.184 147.64 547.576 148.232 549.208 148.232C550.84 148.232 552.216 147.64 553.336 146.456C554.488 145.272 555.064 143.656 555.064 141.608ZM587.446 121.304V141.464C587.446 143.48 587.942 145.032 588.934 146.12C589.926 147.208 591.382 147.752 593.302 147.752C595.222 147.752 596.694 147.208 597.718 146.12C598.742 145.032 599.254 143.48 599.254 141.464V121.304H607.462V141.416C607.462 144.424 606.822 146.968 605.542 149.048C604.262 151.128 602.534 152.696 600.358 153.752C598.214 154.808 595.814 155.336 593.158 155.336C590.502 155.336 588.118 154.824 586.006 153.8C583.926 152.744 582.278 151.176 581.062 149.096C579.846 146.984 579.238 144.424 579.238 141.416V121.304H587.446ZM621.434 121.304V155H613.226V121.304H621.434ZM657.09 155L645.762 140.12V155H637.554V121.304H645.762V136.088L656.994 121.304H666.642L653.586 137.816L667.122 155H657.09ZM675.151 125.432C673.711 125.432 672.527 125.016 671.599 124.184C670.703 123.32 670.255 122.264 670.255 121.016C670.255 119.736 670.703 118.68 671.599 117.848C672.527 116.984 673.711 116.552 675.151 116.552C676.559 116.552 677.711 116.984 678.607 117.848C679.535 118.68 679.999 119.736 679.999 121.016C679.999 122.264 679.535 123.32 678.607 124.184C677.711 125.016 676.559 125.432 675.151 125.432ZM679.231 128.216V155H671.023V128.216H679.231ZM700.107 148.04V155H695.931C692.955 155 690.635 154.28 688.971 152.84C687.307 151.368 686.475 148.984 686.475 145.688V135.032H683.211V128.216H686.475V121.688H694.683V128.216H700.059V135.032H694.683V145.784C694.683 146.584 694.875 147.16 695.259 147.512C695.643 147.864 696.283 148.04 697.179 148.04H700.107ZM713.219 141.56C713.219 138.808 713.731 136.392 714.755 134.312C715.811 132.232 717.235 130.632 719.027 129.512C720.819 128.392 722.819 127.832 725.027 127.832C726.915 127.832 728.563 128.216 729.971 128.984C731.411 129.752 732.515 130.76 733.283 132.008V128.216H741.491V155H733.283V151.208C732.483 152.456 731.363 153.464 729.923 154.232C728.515 155 726.867 155.384 724.979 155.384C722.803 155.384 720.819 154.824 719.027 153.704C717.235 152.552 715.811 150.936 714.755 148.856C713.731 146.744 713.219 144.312 713.219 141.56ZM733.283 141.608C733.283 139.56 732.707 137.944 731.555 136.76C730.435 135.576 729.059 134.984 727.427 134.984C725.795 134.984 724.403 135.576 723.251 136.76C722.131 137.912 721.571 139.512 721.571 141.56C721.571 143.608 722.131 145.24 723.251 146.456C724.403 147.64 725.795 148.232 727.427 148.232C729.059 148.232 730.435 147.64 731.555 146.456C732.707 145.272 733.283 143.656 733.283 141.608ZM763.749 127.928C766.885 127.928 769.381 128.952 771.237 131C773.125 133.016 774.069 135.8 774.069 139.352V155H765.909V140.456C765.909 138.664 765.445 137.272 764.517 136.28C763.589 135.288 762.341 134.792 760.773 134.792C759.205 134.792 757.957 135.288 757.029 136.28C756.101 137.272 755.637 138.664 755.637 140.456V155H747.429V128.216H755.637V131.768C756.469 130.584 757.589 129.656 758.997 128.984C760.405 128.28 761.989 127.928 763.749 127.928ZM778.141 141.56C778.141 138.808 778.653 136.392 779.677 134.312C780.733 132.232 782.157 130.632 783.949 129.512C785.741 128.392 787.741 127.832 789.949 127.832C791.709 127.832 793.309 128.2 794.749 128.936C796.221 129.672 797.373 130.664 798.205 131.912V119.48H806.413V155H798.205V151.16C797.437 152.44 796.333 153.464 794.893 154.232C793.485 155 791.837 155.384 789.949 155.384C787.741 155.384 785.741 154.824 783.949 153.704C782.157 152.552 780.733 150.936 779.677 148.856C778.653 146.744 778.141 144.312 778.141 141.56ZM798.205 141.608C798.205 139.56 797.629 137.944 796.477 136.76C795.357 135.576 793.981 134.984 792.349 134.984C790.717 134.984 789.325 135.576 788.173 136.76C787.053 137.912 786.493 139.512 786.493 141.56C786.493 143.608 787.053 145.24 788.173 146.456C789.325 147.64 790.717 148.232 792.349 148.232C793.981 148.232 795.357 147.64 796.477 146.456C797.629 145.272 798.205 143.656 798.205 141.608ZM834.715 155.336C832.251 155.336 830.043 154.936 828.091 154.136C826.139 153.336 824.571 152.152 823.387 150.584C822.235 149.016 821.627 147.128 821.563 144.92H830.299C830.427 146.168 830.859 147.128 831.595 147.8C832.331 148.44 833.291 148.76 834.475 148.76C835.691 148.76 836.651 148.488 837.355 147.944C838.059 147.368 838.411 146.584 838.411 145.592C838.411 144.76 838.123 144.072 837.547 143.528C837.003 142.984 836.315 142.536 835.483 142.184C834.683 141.832 833.531 141.432 832.027 140.984C829.851 140.312 828.075 139.64 826.699 138.968C825.323 138.296 824.139 137.304 823.147 135.992C822.155 134.68 821.659 132.968 821.659 130.856C821.659 127.72 822.795 125.272 825.067 123.512C827.339 121.72 830.299 120.824 833.947 120.824C837.659 120.824 840.651 121.72 842.923 123.512C845.195 125.272 846.411 127.736 846.571 130.904H837.691C837.627 129.816 837.227 128.968 836.491 128.36C835.755 127.72 834.811 127.4 833.659 127.4C832.667 127.4 831.867 127.672 831.259 128.216C830.651 128.728 830.347 129.48 830.347 130.472C830.347 131.56 830.859 132.408 831.883 133.016C832.907 133.624 834.507 134.28 836.683 134.984C838.859 135.72 840.619 136.424 841.963 137.096C843.339 137.768 844.523 138.744 845.515 140.024C846.507 141.304 847.003 142.952 847.003 144.968C847.003 146.888 846.507 148.632 845.515 150.2C844.555 151.768 843.147 153.016 841.291 153.944C839.435 154.872 837.243 155.336 834.715 155.336ZM864.246 155.384C861.622 155.384 859.254 154.824 857.142 153.704C855.062 152.584 853.414 150.984 852.198 148.904C851.014 146.824 850.422 144.392 850.422 141.608C850.422 138.856 851.03 136.44 852.246 134.36C853.462 132.248 855.126 130.632 857.238 129.512C859.35 128.392 861.718 127.832 864.342 127.832C866.966 127.832 869.334 128.392 871.446 129.512C873.558 130.632 875.222 132.248 876.438 134.36C877.654 136.44 878.262 138.856 878.262 141.608C878.262 144.36 877.638 146.792 876.39 148.904C875.174 150.984 873.494 152.584 871.35 153.704C869.238 154.824 866.87 155.384 864.246 155.384ZM864.246 148.28C865.814 148.28 867.142 147.704 868.23 146.552C869.35 145.4 869.91 143.752 869.91 141.608C869.91 139.464 869.366 137.816 868.278 136.664C867.222 135.512 865.91 134.936 864.342 134.936C862.742 134.936 861.414 135.512 860.358 136.664C859.302 137.784 858.774 139.432 858.774 141.608C858.774 143.752 859.286 145.4 860.31 146.552C861.366 147.704 862.678 148.28 864.246 148.28ZM909.065 128.216V155H900.857V151.352C900.025 152.536 898.889 153.496 897.449 154.232C896.041 154.936 894.473 155.288 892.745 155.288C890.697 155.288 888.889 154.84 887.321 153.944C885.753 153.016 884.537 151.688 883.673 149.96C882.809 148.232 882.377 146.2 882.377 143.864V128.216H890.537V142.76C890.537 144.552 891.001 145.944 891.929 146.936C892.857 147.928 894.105 148.424 895.673 148.424C897.273 148.424 898.537 147.928 899.465 146.936C900.393 145.944 900.857 144.552 900.857 142.76V128.216H909.065ZM923.168 132.68C924.128 131.208 925.328 130.056 926.768 129.224C928.208 128.36 929.808 127.928 931.568 127.928V136.616H929.312C927.264 136.616 925.728 137.064 924.704 137.96C923.68 138.824 923.168 140.36 923.168 142.568V155H914.96V128.216H923.168V132.68ZM933.86 141.608C933.86 138.824 934.42 136.392 935.54 134.312C936.692 132.232 938.276 130.632 940.292 129.512C942.34 128.392 944.676 127.832 947.3 127.832C950.66 127.832 953.46 128.712 955.7 130.472C957.972 132.232 959.46 134.712 960.164 137.912H951.428C950.692 135.864 949.268 134.84 947.156 134.84C945.652 134.84 944.452 135.432 943.556 136.616C942.66 137.768 942.212 139.432 942.212 141.608C942.212 143.784 942.66 145.464 943.556 146.648C944.452 147.8 945.652 148.376 947.156 148.376C949.268 148.376 950.692 147.352 951.428 145.304H960.164C959.46 148.44 957.972 150.904 955.7 152.696C953.428 154.488 950.628 155.384 947.3 155.384C944.676 155.384 942.34 154.824 940.292 153.704C938.276 152.584 936.692 150.984 935.54 148.904C934.42 146.824 933.86 144.392 933.86 141.608ZM989.802 141.176C989.802 141.944 989.754 142.744 989.658 143.576H971.082C971.21 145.24 971.738 146.52 972.666 147.416C973.626 148.28 974.794 148.712 976.17 148.712C978.218 148.712 979.642 147.848 980.442 146.12H989.178C988.73 147.88 987.914 149.464 986.73 150.872C985.578 152.28 984.122 153.384 982.362 154.184C980.602 154.984 978.634 155.384 976.458 155.384C973.834 155.384 971.498 154.824 969.45 153.704C967.402 152.584 965.802 150.984 964.65 148.904C963.498 146.824 962.922 144.392 962.922 141.608C962.922 138.824 963.482 136.392 964.602 134.312C965.754 132.232 967.354 130.632 969.402 129.512C971.45 128.392 973.802 127.832 976.458 127.832C979.05 127.832 981.354 128.376 983.37 129.464C985.386 130.552 986.954 132.104 988.074 134.12C989.226 136.136 989.802 138.488 989.802 141.176ZM981.402 139.016C981.402 137.608 980.922 136.488 979.962 135.656C979.002 134.824 977.802 134.408 976.362 134.408C974.986 134.408 973.818 134.808 972.858 135.608C971.93 136.408 971.354 137.544 971.13 139.016H981.402ZM1002.67 141.608C1002.67 138.824 1003.23 136.392 1004.35 134.312C1005.5 132.232 1007.09 130.632 1009.1 129.512C1011.15 128.392 1013.49 127.832 1016.11 127.832C1019.47 127.832 1022.27 128.712 1024.51 130.472C1026.78 132.232 1028.27 134.712 1028.98 137.912H1020.24C1019.5 135.864 1018.08 134.84 1015.97 134.84C1014.46 134.84 1013.26 135.432 1012.37 136.616C1011.47 137.768 1011.02 139.432 1011.02 141.608C1011.02 143.784 1011.47 145.464 1012.37 146.648C1013.26 147.8 1014.46 148.376 1015.97 148.376C1018.08 148.376 1019.5 147.352 1020.24 145.304H1028.98C1028.27 148.44 1026.78 150.904 1024.51 152.696C1022.24 154.488 1019.44 155.384 1016.11 155.384C1013.49 155.384 1011.15 154.824 1009.1 153.704C1007.09 152.584 1005.5 150.984 1004.35 148.904C1003.23 146.824 1002.67 144.392 1002.67 141.608ZM1045.56 155.384C1042.93 155.384 1040.57 154.824 1038.45 153.704C1036.37 152.584 1034.73 150.984 1033.51 148.904C1032.33 146.824 1031.73 144.392 1031.73 141.608C1031.73 138.856 1032.34 136.44 1033.56 134.36C1034.77 132.248 1036.44 130.632 1038.55 129.512C1040.66 128.392 1043.03 127.832 1045.65 127.832C1048.28 127.832 1050.65 128.392 1052.76 129.512C1054.87 130.632 1056.53 132.248 1057.75 134.36C1058.97 136.44 1059.57 138.856 1059.57 141.608C1059.57 144.36 1058.95 146.792 1057.7 148.904C1056.49 150.984 1054.81 152.584 1052.66 153.704C1050.55 154.824 1048.18 155.384 1045.56 155.384ZM1045.56 148.28C1047.13 148.28 1048.45 147.704 1049.54 146.552C1050.66 145.4 1051.22 143.752 1051.22 141.608C1051.22 139.464 1050.68 137.816 1049.59 136.664C1048.53 135.512 1047.22 134.936 1045.65 134.936C1044.05 134.936 1042.73 135.512 1041.67 136.664C1040.61 137.784 1040.09 139.432 1040.09 141.608C1040.09 143.752 1040.6 145.4 1041.62 146.552C1042.68 147.704 1043.99 148.28 1045.56 148.28ZM1062.3 141.56C1062.3 138.808 1062.81 136.392 1063.83 134.312C1064.89 132.232 1066.31 130.632 1068.11 129.512C1069.9 128.392 1071.9 127.832 1074.11 127.832C1075.87 127.832 1077.47 128.2 1078.91 128.936C1080.38 129.672 1081.53 130.664 1082.36 131.912V119.48H1090.57V155H1082.36V151.16C1081.59 152.44 1080.49 153.464 1079.05 154.232C1077.64 155 1075.99 155.384 1074.11 155.384C1071.9 155.384 1069.9 154.824 1068.11 153.704C1066.31 152.552 1064.89 150.936 1063.83 148.856C1062.81 146.744 1062.3 144.312 1062.3 141.56ZM1082.36 141.608C1082.36 139.56 1081.79 137.944 1080.63 136.76C1079.51 135.576 1078.14 134.984 1076.51 134.984C1074.87 134.984 1073.48 135.576 1072.33 136.76C1071.21 137.912 1070.65 139.512 1070.65 141.56C1070.65 143.608 1071.21 145.24 1072.33 146.456C1073.48 147.64 1074.87 148.232 1076.51 148.232C1078.14 148.232 1079.51 147.64 1080.63 146.456C1081.79 145.272 1082.36 143.656 1082.36 141.608ZM1121.76 141.176C1121.76 141.944 1121.71 142.744 1121.61 143.576H1103.04C1103.16 145.24 1103.69 146.52 1104.62 147.416C1105.58 148.28 1106.75 148.712 1108.12 148.712C1110.17 148.712 1111.6 147.848 1112.4 146.12H1121.13C1120.68 147.88 1119.87 149.464 1118.68 150.872C1117.53 152.28 1116.08 153.384 1114.32 154.184C1112.56 154.984 1110.59 155.384 1108.41 155.384C1105.79 155.384 1103.45 154.824 1101.4 153.704C1099.36 152.584 1097.76 150.984 1096.6 148.904C1095.45 146.824 1094.88 144.392 1094.88 141.608C1094.88 138.824 1095.44 136.392 1096.56 134.312C1097.71 132.232 1099.31 130.632 1101.36 129.512C1103.4 128.392 1105.76 127.832 1108.41 127.832C1111 127.832 1113.31 128.376 1115.32 129.464C1117.34 130.552 1118.91 132.104 1120.03 134.12C1121.18 136.136 1121.76 138.488 1121.76 141.176ZM1113.36 139.016C1113.36 137.608 1112.88 136.488 1111.92 135.656C1110.96 134.824 1109.76 134.408 1108.32 134.408C1106.94 134.408 1105.77 134.808 1104.81 135.608C1103.88 136.408 1103.31 137.544 1103.08 139.016H1113.36Z" fill="white"/>
<path d="M466.977 210.52H471.857V212H465.157V198.06H466.977V210.52ZM478.6 212.18C477.573 212.18 476.64 211.947 475.8 211.48C474.973 211.013 474.32 210.353 473.84 209.5C473.373 208.633 473.14 207.633 473.14 206.5C473.14 205.38 473.38 204.393 473.86 203.54C474.353 202.673 475.02 202.013 475.86 201.56C476.7 201.093 477.64 200.86 478.68 200.86C479.72 200.86 480.66 201.093 481.5 201.56C482.34 202.013 483 202.667 483.48 203.52C483.973 204.373 484.22 205.367 484.22 206.5C484.22 207.633 483.967 208.633 483.46 209.5C482.967 210.353 482.293 211.013 481.44 211.48C480.587 211.947 479.64 212.18 478.6 212.18ZM478.6 210.58C479.253 210.58 479.867 210.427 480.44 210.12C481.013 209.813 481.473 209.353 481.82 208.74C482.18 208.127 482.36 207.38 482.36 206.5C482.36 205.62 482.187 204.873 481.84 204.26C481.493 203.647 481.04 203.193 480.48 202.9C479.92 202.593 479.313 202.44 478.66 202.44C477.993 202.44 477.38 202.593 476.82 202.9C476.273 203.193 475.833 203.647 475.5 204.26C475.167 204.873 475 205.62 475 206.5C475 207.393 475.16 208.147 475.48 208.76C475.813 209.373 476.253 209.833 476.8 210.14C477.347 210.433 477.947 210.58 478.6 210.58ZM488.463 202.82C488.783 202.193 489.236 201.707 489.823 201.36C490.423 201.013 491.15 200.84 492.003 200.84V202.72H491.523C489.483 202.72 488.463 203.827 488.463 206.04V212H486.643V201.04H488.463V202.82ZM504.134 206.1C504.134 206.447 504.114 206.813 504.074 207.2H495.314C495.381 208.28 495.747 209.127 496.414 209.74C497.094 210.34 497.914 210.64 498.874 210.64C499.661 210.64 500.314 210.46 500.834 210.1C501.367 209.727 501.741 209.233 501.954 208.62H503.914C503.621 209.673 503.034 210.533 502.154 211.2C501.274 211.853 500.181 212.18 498.874 212.18C497.834 212.18 496.901 211.947 496.074 211.48C495.261 211.013 494.621 210.353 494.154 209.5C493.687 208.633 493.454 207.633 493.454 206.5C493.454 205.367 493.681 204.373 494.134 203.52C494.587 202.667 495.221 202.013 496.034 201.56C496.861 201.093 497.807 200.86 498.874 200.86C499.914 200.86 500.834 201.087 501.634 201.54C502.434 201.993 503.047 202.62 503.474 203.42C503.914 204.207 504.134 205.1 504.134 206.1ZM502.254 205.72C502.254 205.027 502.101 204.433 501.794 203.94C501.487 203.433 501.067 203.053 500.534 202.8C500.014 202.533 499.434 202.4 498.794 202.4C497.874 202.4 497.087 202.693 496.434 203.28C495.794 203.867 495.427 204.68 495.334 205.72H502.254ZM519.746 200.84C520.6 200.84 521.36 201.02 522.026 201.38C522.693 201.727 523.22 202.253 523.606 202.96C523.993 203.667 524.186 204.527 524.186 205.54V212H522.386V205.8C522.386 204.707 522.113 203.873 521.566 203.3C521.033 202.713 520.306 202.42 519.386 202.42C518.44 202.42 517.686 202.727 517.126 203.34C516.566 203.94 516.286 204.813 516.286 205.96V212H514.486V205.8C514.486 204.707 514.213 203.873 513.666 203.3C513.133 202.713 512.406 202.42 511.486 202.42C510.54 202.42 509.786 202.727 509.226 203.34C508.666 203.94 508.386 204.813 508.386 205.96V212H506.566V201.04H508.386V202.62C508.746 202.047 509.226 201.607 509.826 201.3C510.44 200.993 511.113 200.84 511.846 200.84C512.766 200.84 513.58 201.047 514.286 201.46C514.993 201.873 515.52 202.48 515.866 203.28C516.173 202.507 516.68 201.907 517.386 201.48C518.093 201.053 518.88 200.84 519.746 200.84ZM533.504 199.26C533.157 199.26 532.864 199.14 532.624 198.9C532.384 198.66 532.264 198.367 532.264 198.02C532.264 197.673 532.384 197.38 532.624 197.14C532.864 196.9 533.157 196.78 533.504 196.78C533.837 196.78 534.117 196.9 534.344 197.14C534.584 197.38 534.704 197.673 534.704 198.02C534.704 198.367 534.584 198.66 534.344 198.9C534.117 199.14 533.837 199.26 533.504 199.26ZM534.384 201.04V212H532.564V201.04H534.384ZM539.336 203.06C539.696 202.433 540.229 201.913 540.936 201.5C541.656 201.073 542.489 200.86 543.436 200.86C544.409 200.86 545.289 201.093 546.076 201.56C546.876 202.027 547.502 202.687 547.956 203.54C548.409 204.38 548.636 205.36 548.636 206.48C548.636 207.587 548.409 208.573 547.956 209.44C547.502 210.307 546.876 210.98 546.076 211.46C545.289 211.94 544.409 212.18 543.436 212.18C542.502 212.18 541.676 211.973 540.956 211.56C540.249 211.133 539.709 210.607 539.336 209.98V217.2H537.516V201.04H539.336V203.06ZM546.776 206.48C546.776 205.653 546.609 204.933 546.276 204.32C545.942 203.707 545.489 203.24 544.916 202.92C544.356 202.6 543.736 202.44 543.056 202.44C542.389 202.44 541.769 202.607 541.196 202.94C540.636 203.26 540.182 203.733 539.836 204.36C539.502 204.973 539.336 205.687 539.336 206.5C539.336 207.327 539.502 208.053 539.836 208.68C540.182 209.293 540.636 209.767 541.196 210.1C541.769 210.42 542.389 210.58 543.056 210.58C543.736 210.58 544.356 210.42 544.916 210.1C545.489 209.767 545.942 209.293 546.276 208.68C546.609 208.053 546.776 207.32 546.776 206.48ZM554.941 212.18C554.101 212.18 553.348 212.04 552.681 211.76C552.015 211.467 551.488 211.067 551.101 210.56C550.715 210.04 550.501 209.447 550.461 208.78H552.341C552.395 209.327 552.648 209.773 553.101 210.12C553.568 210.467 554.175 210.64 554.921 210.64C555.615 210.64 556.161 210.487 556.561 210.18C556.961 209.873 557.161 209.487 557.161 209.02C557.161 208.54 556.948 208.187 556.521 207.96C556.095 207.72 555.435 207.487 554.541 207.26C553.728 207.047 553.061 206.833 552.541 206.62C552.035 206.393 551.595 206.067 551.221 205.64C550.861 205.2 550.681 204.627 550.681 203.92C550.681 203.36 550.848 202.847 551.181 202.38C551.515 201.913 551.988 201.547 552.601 201.28C553.215 201 553.915 200.86 554.701 200.86C555.915 200.86 556.895 201.167 557.641 201.78C558.388 202.393 558.788 203.233 558.841 204.3H557.021C556.981 203.727 556.748 203.267 556.321 202.92C555.908 202.573 555.348 202.4 554.641 202.4C553.988 202.4 553.468 202.54 553.081 202.82C552.695 203.1 552.501 203.467 552.501 203.92C552.501 204.28 552.615 204.58 552.841 204.82C553.081 205.047 553.375 205.233 553.721 205.38C554.081 205.513 554.575 205.667 555.201 205.84C555.988 206.053 556.628 206.267 557.121 206.48C557.615 206.68 558.035 206.987 558.381 207.4C558.741 207.813 558.928 208.353 558.941 209.02C558.941 209.62 558.775 210.16 558.441 210.64C558.108 211.12 557.635 211.5 557.021 211.78C556.421 212.047 555.728 212.18 554.941 212.18ZM571.26 201.04V212H569.44V210.38C569.094 210.94 568.607 211.38 567.98 211.7C567.367 212.007 566.687 212.16 565.94 212.16C565.087 212.16 564.32 211.987 563.64 211.64C562.96 211.28 562.42 210.747 562.02 210.04C561.634 209.333 561.44 208.473 561.44 207.46V201.04H563.24V207.22C563.24 208.3 563.514 209.133 564.06 209.72C564.607 210.293 565.354 210.58 566.3 210.58C567.274 210.58 568.04 210.28 568.6 209.68C569.16 209.08 569.44 208.207 569.44 207.06V201.04H571.26ZM587.543 200.84C588.397 200.84 589.157 201.02 589.823 201.38C590.49 201.727 591.017 202.253 591.403 202.96C591.79 203.667 591.983 204.527 591.983 205.54V212H590.183V205.8C590.183 204.707 589.91 203.873 589.363 203.3C588.83 202.713 588.103 202.42 587.183 202.42C586.237 202.42 585.483 202.727 584.923 203.34C584.363 203.94 584.083 204.813 584.083 205.96V212H582.283V205.8C582.283 204.707 582.01 203.873 581.463 203.3C580.93 202.713 580.203 202.42 579.283 202.42C578.337 202.42 577.583 202.727 577.023 203.34C576.463 203.94 576.183 204.813 576.183 205.96V212H574.363V201.04H576.183V202.62C576.543 202.047 577.023 201.607 577.623 201.3C578.237 200.993 578.91 200.84 579.643 200.84C580.563 200.84 581.377 201.047 582.083 201.46C582.79 201.873 583.317 202.48 583.663 203.28C583.97 202.507 584.477 201.907 585.183 201.48C585.89 201.053 586.677 200.84 587.543 200.84ZM599.681 206.48C599.681 205.36 599.908 204.38 600.361 203.54C600.814 202.687 601.434 202.027 602.221 201.56C603.021 201.093 603.914 200.86 604.901 200.86C605.754 200.86 606.548 201.06 607.281 201.46C608.014 201.847 608.574 202.36 608.961 203V197.2H610.801V212H608.961V209.94C608.601 210.593 608.068 211.133 607.361 211.56C606.654 211.973 605.828 212.18 604.881 212.18C603.908 212.18 603.021 211.94 602.221 211.46C601.434 210.98 600.814 210.307 600.361 209.44C599.908 208.573 599.681 207.587 599.681 206.48ZM608.961 206.5C608.961 205.673 608.794 204.953 608.461 204.34C608.128 203.727 607.674 203.26 607.101 202.94C606.541 202.607 605.921 202.44 605.241 202.44C604.561 202.44 603.941 202.6 603.381 202.92C602.821 203.24 602.374 203.707 602.041 204.32C601.708 204.933 601.541 205.653 601.541 206.48C601.541 207.32 601.708 208.053 602.041 208.68C602.374 209.293 602.821 209.767 603.381 210.1C603.941 210.42 604.561 210.58 605.241 210.58C605.921 210.58 606.541 210.42 607.101 210.1C607.674 209.767 608.128 209.293 608.461 208.68C608.794 208.053 608.961 207.327 608.961 206.5ZM618.687 212.18C617.66 212.18 616.727 211.947 615.887 211.48C615.06 211.013 614.407 210.353 613.927 209.5C613.46 208.633 613.227 207.633 613.227 206.5C613.227 205.38 613.467 204.393 613.947 203.54C614.44 202.673 615.107 202.013 615.947 201.56C616.787 201.093 617.727 200.86 618.767 200.86C619.807 200.86 620.747 201.093 621.587 201.56C622.427 202.013 623.087 202.667 623.567 203.52C624.06 204.373 624.307 205.367 624.307 206.5C624.307 207.633 624.053 208.633 623.547 209.5C623.053 210.353 622.38 211.013 621.527 211.48C620.673 211.947 619.727 212.18 618.687 212.18ZM618.687 210.58C619.34 210.58 619.953 210.427 620.527 210.12C621.1 209.813 621.56 209.353 621.907 208.74C622.267 208.127 622.447 207.38 622.447 206.5C622.447 205.62 622.273 204.873 621.927 204.26C621.58 203.647 621.127 203.193 620.567 202.9C620.007 202.593 619.4 202.44 618.747 202.44C618.08 202.44 617.467 202.593 616.907 202.9C616.36 203.193 615.92 203.647 615.587 204.26C615.253 204.873 615.087 205.62 615.087 206.5C615.087 207.393 615.247 208.147 615.567 208.76C615.9 209.373 616.34 209.833 616.887 210.14C617.433 210.433 618.033 210.58 618.687 210.58ZM628.55 197.2V212H626.73V197.2H628.55ZM636.461 212.18C635.435 212.18 634.501 211.947 633.661 211.48C632.835 211.013 632.181 210.353 631.701 209.5C631.235 208.633 631.001 207.633 631.001 206.5C631.001 205.38 631.241 204.393 631.721 203.54C632.215 202.673 632.881 202.013 633.721 201.56C634.561 201.093 635.501 200.86 636.541 200.86C637.581 200.86 638.521 201.093 639.361 201.56C640.201 202.013 640.861 202.667 641.341 203.52C641.835 204.373 642.081 205.367 642.081 206.5C642.081 207.633 641.828 208.633 641.321 209.5C640.828 210.353 640.155 211.013 639.301 211.48C638.448 211.947 637.501 212.18 636.461 212.18ZM636.461 210.58C637.115 210.58 637.728 210.427 638.301 210.12C638.875 209.813 639.335 209.353 639.681 208.74C640.041 208.127 640.221 207.38 640.221 206.5C640.221 205.62 640.048 204.873 639.701 204.26C639.355 203.647 638.901 203.193 638.341 202.9C637.781 202.593 637.175 202.44 636.521 202.44C635.855 202.44 635.241 202.593 634.681 202.9C634.135 203.193 633.695 203.647 633.361 204.26C633.028 204.873 632.861 205.62 632.861 206.5C632.861 207.393 633.021 208.147 633.341 208.76C633.675 209.373 634.115 209.833 634.661 210.14C635.208 210.433 635.808 210.58 636.461 210.58ZM646.324 202.82C646.644 202.193 647.098 201.707 647.684 201.36C648.284 201.013 649.011 200.84 649.864 200.84V202.72H649.384C647.344 202.72 646.324 203.827 646.324 206.04V212H644.504V201.04H646.324V202.82ZM661.237 212.18C660.397 212.18 659.644 212.04 658.977 211.76C658.311 211.467 657.784 211.067 657.397 210.56C657.011 210.04 656.797 209.447 656.757 208.78H658.637C658.691 209.327 658.944 209.773 659.397 210.12C659.864 210.467 660.471 210.64 661.217 210.64C661.911 210.64 662.457 210.487 662.857 210.18C663.257 209.873 663.457 209.487 663.457 209.02C663.457 208.54 663.244 208.187 662.817 207.96C662.391 207.72 661.731 207.487 660.837 207.26C660.024 207.047 659.357 206.833 658.837 206.62C658.331 206.393 657.891 206.067 657.517 205.64C657.157 205.2 656.977 204.627 656.977 203.92C656.977 203.36 657.144 202.847 657.477 202.38C657.811 201.913 658.284 201.547 658.897 201.28C659.511 201 660.211 200.86 660.997 200.86C662.211 200.86 663.191 201.167 663.937 201.78C664.684 202.393 665.084 203.233 665.137 204.3H663.317C663.277 203.727 663.044 203.267 662.617 202.92C662.204 202.573 661.644 202.4 660.937 202.4C660.284 202.4 659.764 202.54 659.377 202.82C658.991 203.1 658.797 203.467 658.797 203.92C658.797 204.28 658.911 204.58 659.137 204.82C659.377 205.047 659.671 205.233 660.017 205.38C660.377 205.513 660.871 205.667 661.497 205.84C662.284 206.053 662.924 206.267 663.417 206.48C663.911 206.68 664.331 206.987 664.677 207.4C665.037 207.813 665.224 208.353 665.237 209.02C665.237 209.62 665.071 210.16 664.737 210.64C664.404 211.12 663.931 211.5 663.317 211.78C662.717 212.047 662.024 212.18 661.237 212.18ZM668.777 199.26C668.43 199.26 668.137 199.14 667.897 198.9C667.657 198.66 667.537 198.367 667.537 198.02C667.537 197.673 667.657 197.38 667.897 197.14C668.137 196.9 668.43 196.78 668.777 196.78C669.11 196.78 669.39 196.9 669.617 197.14C669.857 197.38 669.977 197.673 669.977 198.02C669.977 198.367 669.857 198.66 669.617 198.9C669.39 199.14 669.11 199.26 668.777 199.26ZM669.657 201.04V212H667.837V201.04H669.657ZM675.008 202.54V209C675.008 209.533 675.122 209.913 675.348 210.14C675.575 210.353 675.968 210.46 676.528 210.46H677.868V212H676.228C675.215 212 674.455 211.767 673.948 211.3C673.442 210.833 673.188 210.067 673.188 209V202.54H671.768V201.04H673.188V198.28H675.008V201.04H677.868V202.54H675.008ZM684.786 206.48C684.786 205.36 685.012 204.38 685.466 203.54C685.919 202.687 686.539 202.027 687.326 201.56C688.126 201.093 689.012 200.86 689.986 200.86C690.946 200.86 691.779 201.067 692.486 201.48C693.192 201.893 693.719 202.413 694.066 203.04V201.04H695.906V212H694.066V209.96C693.706 210.6 693.166 211.133 692.446 211.56C691.739 211.973 690.912 212.18 689.966 212.18C688.992 212.18 688.112 211.94 687.326 211.46C686.539 210.98 685.919 210.307 685.466 209.44C685.012 208.573 684.786 207.587 684.786 206.48ZM694.066 206.5C694.066 205.673 693.899 204.953 693.566 204.34C693.232 203.727 692.779 203.26 692.206 202.94C691.646 202.607 691.026 202.44 690.346 202.44C689.666 202.44 689.046 202.6 688.486 202.92C687.926 203.24 687.479 203.707 687.146 204.32C686.812 204.933 686.646 205.653 686.646 206.48C686.646 207.32 686.812 208.053 687.146 208.68C687.479 209.293 687.926 209.767 688.486 210.1C689.046 210.42 689.666 210.58 690.346 210.58C691.026 210.58 691.646 210.42 692.206 210.1C692.779 209.767 693.232 209.293 693.566 208.68C693.899 208.053 694.066 207.327 694.066 206.5ZM712.191 200.84C713.045 200.84 713.805 201.02 714.471 201.38C715.138 201.727 715.665 202.253 716.051 202.96C716.438 203.667 716.631 204.527 716.631 205.54V212H714.831V205.8C714.831 204.707 714.558 203.873 714.011 203.3C713.478 202.713 712.751 202.42 711.831 202.42C710.885 202.42 710.131 202.727 709.571 203.34C709.011 203.94 708.731 204.813 708.731 205.96V212H706.931V205.8C706.931 204.707 706.658 203.873 706.111 203.3C705.578 202.713 704.851 202.42 703.931 202.42C702.985 202.42 702.231 202.727 701.671 203.34C701.111 203.94 700.831 204.813 700.831 205.96V212H699.011V201.04H700.831V202.62C701.191 202.047 701.671 201.607 702.271 201.3C702.885 200.993 703.558 200.84 704.291 200.84C705.211 200.84 706.025 201.047 706.731 201.46C707.438 201.873 707.965 202.48 708.311 203.28C708.618 202.507 709.125 201.907 709.831 201.48C710.538 201.053 711.325 200.84 712.191 200.84ZM729.647 206.1C729.647 206.447 729.627 206.813 729.587 207.2H720.827C720.893 208.28 721.26 209.127 721.927 209.74C722.607 210.34 723.427 210.64 724.387 210.64C725.173 210.64 725.827 210.46 726.347 210.1C726.88 209.727 727.253 209.233 727.467 208.62H729.427C729.133 209.673 728.547 210.533 727.667 211.2C726.787 211.853 725.693 212.18 724.387 212.18C723.347 212.18 722.413 211.947 721.587 211.48C720.773 211.013 720.133 210.353 719.667 209.5C719.2 208.633 718.967 207.633 718.967 206.5C718.967 205.367 719.193 204.373 719.647 203.52C720.1 202.667 720.733 202.013 721.547 201.56C722.373 201.093 723.32 200.86 724.387 200.86C725.427 200.86 726.347 201.087 727.147 201.54C727.947 201.993 728.56 202.62 728.987 203.42C729.427 204.207 729.647 205.1 729.647 206.1ZM727.767 205.72C727.767 205.027 727.613 204.433 727.307 203.94C727 203.433 726.58 203.053 726.047 202.8C725.527 202.533 724.947 202.4 724.307 202.4C723.387 202.4 722.6 202.693 721.947 203.28C721.307 203.867 720.94 204.68 720.847 205.72H727.767ZM734.299 202.54V209C734.299 209.533 734.412 209.913 734.639 210.14C734.866 210.353 735.259 210.46 735.819 210.46H737.159V212H735.519C734.506 212 733.746 211.767 733.239 211.3C732.732 210.833 732.479 210.067 732.479 209V202.54H731.059V201.04H732.479V198.28H734.299V201.04H737.159V202.54H734.299ZM741.274 209.48L739.034 214.86H737.814L739.274 209.48H741.274ZM748.071 206.5C748.071 205.367 748.298 204.38 748.751 203.54C749.204 202.687 749.831 202.027 750.631 201.56C751.444 201.093 752.371 200.86 753.411 200.86C754.758 200.86 755.864 201.187 756.731 201.84C757.611 202.493 758.191 203.4 758.471 204.56H756.511C756.324 203.893 755.958 203.367 755.411 202.98C754.878 202.593 754.211 202.4 753.411 202.4C752.371 202.4 751.531 202.76 750.891 203.48C750.251 204.187 749.931 205.193 749.931 206.5C749.931 207.82 750.251 208.84 750.891 209.56C751.531 210.28 752.371 210.64 753.411 210.64C754.211 210.64 754.878 210.453 755.411 210.08C755.944 209.707 756.311 209.173 756.511 208.48H758.471C758.178 209.6 757.591 210.5 756.711 211.18C755.831 211.847 754.731 212.18 753.411 212.18C752.371 212.18 751.444 211.947 750.631 211.48C749.831 211.013 749.204 210.353 748.751 209.5C748.298 208.647 748.071 207.647 748.071 206.5ZM765.71 212.18C764.683 212.18 763.75 211.947 762.91 211.48C762.083 211.013 761.43 210.353 760.95 209.5C760.483 208.633 760.25 207.633 760.25 206.5C760.25 205.38 760.49 204.393 760.97 203.54C761.463 202.673 762.13 202.013 762.97 201.56C763.81 201.093 764.75 200.86 765.79 200.86C766.83 200.86 767.77 201.093 768.61 201.56C769.45 202.013 770.11 202.667 770.59 203.52C771.083 204.373 771.33 205.367 771.33 206.5C771.33 207.633 771.076 208.633 770.57 209.5C770.076 210.353 769.403 211.013 768.55 211.48C767.696 211.947 766.75 212.18 765.71 212.18ZM765.71 210.58C766.363 210.58 766.976 210.427 767.55 210.12C768.123 209.813 768.583 209.353 768.93 208.74C769.29 208.127 769.47 207.38 769.47 206.5C769.47 205.62 769.296 204.873 768.95 204.26C768.603 203.647 768.15 203.193 767.59 202.9C767.03 202.593 766.423 202.44 765.77 202.44C765.103 202.44 764.49 202.593 763.93 202.9C763.383 203.193 762.943 203.647 762.61 204.26C762.276 204.873 762.11 205.62 762.11 206.5C762.11 207.393 762.27 208.147 762.59 208.76C762.923 209.373 763.363 209.833 763.91 210.14C764.456 210.433 765.056 210.58 765.71 210.58ZM779.092 200.84C780.426 200.84 781.506 201.247 782.332 202.06C783.159 202.86 783.572 204.02 783.572 205.54V212H781.772V205.8C781.772 204.707 781.499 203.873 780.952 203.3C780.406 202.713 779.659 202.42 778.712 202.42C777.752 202.42 776.986 202.72 776.412 203.32C775.852 203.92 775.572 204.793 775.572 205.94V212H773.752V201.04H775.572V202.6C775.932 202.04 776.419 201.607 777.032 201.3C777.659 200.993 778.346 200.84 779.092 200.84ZM790.455 212.18C789.615 212.18 788.862 212.04 788.195 211.76C787.529 211.467 787.002 211.067 786.615 210.56C786.229 210.04 786.015 209.447 785.975 208.78H787.855C787.909 209.327 788.162 209.773 788.615 210.12C789.082 210.467 789.689 210.64 790.435 210.64C791.129 210.64 791.675 210.487 792.075 210.18C792.475 209.873 792.675 209.487 792.675 209.02C792.675 208.54 792.462 208.187 792.035 207.96C791.609 207.72 790.949 207.487 790.055 207.26C789.242 207.047 788.575 206.833 788.055 206.62C787.549 206.393 787.109 206.067 786.735 205.64C786.375 205.2 786.195 204.627 786.195 203.92C786.195 203.36 786.362 202.847 786.695 202.38C787.029 201.913 787.502 201.547 788.115 201.28C788.729 201 789.429 200.86 790.215 200.86C791.429 200.86 792.409 201.167 793.155 201.78C793.902 202.393 794.302 203.233 794.355 204.3H792.535C792.495 203.727 792.262 203.267 791.835 202.92C791.422 202.573 790.862 202.4 790.155 202.4C789.502 202.4 788.982 202.54 788.595 202.82C788.209 203.1 788.015 203.467 788.015 203.92C788.015 204.28 788.129 204.58 788.355 204.82C788.595 205.047 788.889 205.233 789.235 205.38C789.595 205.513 790.089 205.667 790.715 205.84C791.502 206.053 792.142 206.267 792.635 206.48C793.129 206.68 793.549 206.987 793.895 207.4C794.255 207.813 794.442 208.353 794.455 209.02C794.455 209.62 794.289 210.16 793.955 210.64C793.622 211.12 793.149 211.5 792.535 211.78C791.935 212.047 791.242 212.18 790.455 212.18ZM807.055 206.1C807.055 206.447 807.035 206.813 806.995 207.2H798.235C798.301 208.28 798.668 209.127 799.335 209.74C800.015 210.34 800.835 210.64 801.795 210.64C802.581 210.64 803.235 210.46 803.755 210.1C804.288 209.727 804.661 209.233 804.875 208.62H806.835C806.541 209.673 805.955 210.533 805.075 211.2C804.195 211.853 803.101 212.18 801.795 212.18C800.755 212.18 799.821 211.947 798.995 211.48C798.181 211.013 797.541 210.353 797.075 209.5C796.608 208.633 796.375 207.633 796.375 206.5C796.375 205.367 796.601 204.373 797.055 203.52C797.508 202.667 798.141 202.013 798.955 201.56C799.781 201.093 800.728 200.86 801.795 200.86C802.835 200.86 803.755 201.087 804.555 201.54C805.355 201.993 805.968 202.62 806.395 203.42C806.835 204.207 807.055 205.1 807.055 206.1ZM805.175 205.72C805.175 205.027 805.021 204.433 804.715 203.94C804.408 203.433 803.988 203.053 803.455 202.8C802.935 202.533 802.355 202.4 801.715 202.4C800.795 202.4 800.008 202.693 799.355 203.28C798.715 203.867 798.348 204.68 798.255 205.72H805.175ZM808.807 206.5C808.807 205.367 809.034 204.38 809.487 203.54C809.94 202.687 810.567 202.027 811.367 201.56C812.18 201.093 813.107 200.86 814.147 200.86C815.494 200.86 816.6 201.187 817.467 201.84C818.347 202.493 818.927 203.4 819.207 204.56H817.247C817.06 203.893 816.694 203.367 816.147 202.98C815.614 202.593 814.947 202.4 814.147 202.4C813.107 202.4 812.267 202.76 811.627 203.48C810.987 204.187 810.667 205.193 810.667 206.5C810.667 207.82 810.987 208.84 811.627 209.56C812.267 210.28 813.107 210.64 814.147 210.64C814.947 210.64 815.614 210.453 816.147 210.08C816.68 209.707 817.047 209.173 817.247 208.48H819.207C818.914 209.6 818.327 210.5 817.447 211.18C816.567 211.847 815.467 212.18 814.147 212.18C813.107 212.18 812.18 211.947 811.367 211.48C810.567 211.013 809.94 210.353 809.487 209.5C809.034 208.647 808.807 207.647 808.807 206.5ZM823.885 202.54V209C823.885 209.533 823.999 209.913 824.225 210.14C824.452 210.353 824.845 210.46 825.405 210.46H826.745V212H825.105C824.092 212 823.332 211.767 822.825 211.3C822.319 210.833 822.065 210.067 822.065 209V202.54H820.645V201.04H822.065V198.28H823.885V201.04H826.745V202.54H823.885ZM838.981 206.1C838.981 206.447 838.961 206.813 838.921 207.2H830.161C830.227 208.28 830.594 209.127 831.261 209.74C831.941 210.34 832.761 210.64 833.721 210.64C834.507 210.64 835.161 210.46 835.681 210.1C836.214 209.727 836.587 209.233 836.801 208.62H838.761C838.467 209.673 837.881 210.533 837.001 211.2C836.121 211.853 835.027 212.18 833.721 212.18C832.681 212.18 831.747 211.947 830.921 211.48C830.107 211.013 829.467 210.353 829.001 209.5C828.534 208.633 828.301 207.633 828.301 206.5C828.301 205.367 828.527 204.373 828.981 203.52C829.434 202.667 830.067 202.013 830.881 201.56C831.707 201.093 832.654 200.86 833.721 200.86C834.761 200.86 835.681 201.087 836.481 201.54C837.281 201.993 837.894 202.62 838.321 203.42C838.761 204.207 838.981 205.1 838.981 206.1ZM837.101 205.72C837.101 205.027 836.947 204.433 836.641 203.94C836.334 203.433 835.914 203.053 835.381 202.8C834.861 202.533 834.281 202.4 833.641 202.4C832.721 202.4 831.934 202.693 831.281 203.28C830.641 203.867 830.274 204.68 830.181 205.72H837.101ZM843.633 202.54V209C843.633 209.533 843.746 209.913 843.973 210.14C844.2 210.353 844.593 210.46 845.153 210.46H846.493V212H844.853C843.84 212 843.08 211.767 842.573 211.3C842.066 210.833 841.813 210.067 841.813 209V202.54H840.393V201.04H841.813V198.28H843.633V201.04H846.493V202.54H843.633ZM858.448 201.04V212H856.628V210.38C856.281 210.94 855.795 211.38 855.168 211.7C854.555 212.007 853.875 212.16 853.128 212.16C852.275 212.16 851.508 211.987 850.828 211.64C850.148 211.28 849.608 210.747 849.208 210.04C848.821 209.333 848.628 208.473 848.628 207.46V201.04H850.428V207.22C850.428 208.3 850.701 209.133 851.248 209.72C851.795 210.293 852.541 210.58 853.488 210.58C854.461 210.58 855.228 210.28 855.788 209.68C856.348 209.08 856.628 208.207 856.628 207.06V201.04H858.448ZM863.371 202.82C863.691 202.193 864.144 201.707 864.731 201.36C865.331 201.013 866.058 200.84 866.911 200.84V202.72H866.431C864.391 202.72 863.371 203.827 863.371 206.04V212H861.551V201.04H863.371V202.82ZM873.724 206.48C873.724 205.36 873.951 204.38 874.404 203.54C874.857 202.687 875.477 202.027 876.264 201.56C877.064 201.093 877.951 200.86 878.924 200.86C879.884 200.86 880.717 201.067 881.424 201.48C882.131 201.893 882.657 202.413 883.004 203.04V201.04H884.844V212H883.004V209.96C882.644 210.6 882.104 211.133 881.384 211.56C880.677 211.973 879.851 212.18 878.904 212.18C877.931 212.18 877.051 211.94 876.264 211.46C875.477 210.98 874.857 210.307 874.404 209.44C873.951 208.573 873.724 207.587 873.724 206.48ZM883.004 206.5C883.004 205.673 882.837 204.953 882.504 204.34C882.171 203.727 881.717 203.26 881.144 202.94C880.584 202.607 879.964 202.44 879.284 202.44C878.604 202.44 877.984 202.6 877.424 202.92C876.864 203.24 876.417 203.707 876.084 204.32C875.751 204.933 875.584 205.653 875.584 206.48C875.584 207.32 875.751 208.053 876.084 208.68C876.417 209.293 876.864 209.767 877.424 210.1C877.984 210.42 878.604 210.58 879.284 210.58C879.964 210.58 880.584 210.42 881.144 210.1C881.717 209.767 882.171 209.293 882.504 208.68C882.837 208.053 883.004 207.327 883.004 206.5ZM887.27 206.48C887.27 205.36 887.496 204.38 887.95 203.54C888.403 202.687 889.023 202.027 889.81 201.56C890.61 201.093 891.503 200.86 892.49 200.86C893.343 200.86 894.136 201.06 894.87 201.46C895.603 201.847 896.163 202.36 896.55 203V197.2H898.39V212H896.55V209.94C896.19 210.593 895.656 211.133 894.95 211.56C894.243 211.973 893.416 212.18 892.47 212.18C891.496 212.18 890.61 211.94 889.81 211.46C889.023 210.98 888.403 210.307 887.95 209.44C887.496 208.573 887.27 207.587 887.27 206.48ZM896.55 206.5C896.55 205.673 896.383 204.953 896.05 204.34C895.716 203.727 895.263 203.26 894.69 202.94C894.13 202.607 893.51 202.44 892.83 202.44C892.15 202.44 891.53 202.6 890.97 202.92C890.41 203.24 889.963 203.707 889.63 204.32C889.296 204.933 889.13 205.653 889.13 206.48C889.13 207.32 889.296 208.053 889.63 208.68C889.963 209.293 890.41 209.767 890.97 210.1C891.53 210.42 892.15 210.58 892.83 210.58C893.51 210.58 894.13 210.42 894.69 210.1C895.263 209.767 895.716 209.293 896.05 208.68C896.383 208.053 896.55 207.327 896.55 206.5ZM902.435 199.26C902.089 199.26 901.795 199.14 901.555 198.9C901.315 198.66 901.195 198.367 901.195 198.02C901.195 197.673 901.315 197.38 901.555 197.14C901.795 196.9 902.089 196.78 902.435 196.78C902.769 196.78 903.049 196.9 903.275 197.14C903.515 197.38 903.635 197.673 903.635 198.02C903.635 198.367 903.515 198.66 903.275 198.9C903.049 199.14 902.769 199.26 902.435 199.26ZM903.315 201.04V212H901.495V201.04H903.315ZM908.267 203.06C908.627 202.433 909.161 201.913 909.867 201.5C910.587 201.073 911.421 200.86 912.367 200.86C913.341 200.86 914.221 201.093 915.007 201.56C915.807 202.027 916.434 202.687 916.887 203.54C917.341 204.38 917.567 205.36 917.567 206.48C917.567 207.587 917.341 208.573 916.887 209.44C916.434 210.307 915.807 210.98 915.007 211.46C914.221 211.94 913.341 212.18 912.367 212.18C911.434 212.18 910.607 211.973 909.887 211.56C909.181 211.133 908.641 210.607 908.267 209.98V217.2H906.447V201.04H908.267V203.06ZM915.707 206.48C915.707 205.653 915.541 204.933 915.207 204.32C914.874 203.707 914.421 203.24 913.847 202.92C913.287 202.6 912.667 202.44 911.987 202.44C911.321 202.44 910.701 202.607 910.127 202.94C909.567 203.26 909.114 203.733 908.767 204.36C908.434 204.973 908.267 205.687 908.267 206.5C908.267 207.327 908.434 208.053 908.767 208.68C909.114 209.293 909.567 209.767 910.127 210.1C910.701 210.42 911.321 210.58 911.987 210.58C912.667 210.58 913.287 210.42 913.847 210.1C914.421 209.767 914.874 209.293 915.207 208.68C915.541 208.053 915.707 207.32 915.707 206.48ZM920.933 199.26C920.586 199.26 920.293 199.14 920.053 198.9C919.813 198.66 919.693 198.367 919.693 198.02C919.693 197.673 919.813 197.38 920.053 197.14C920.293 196.9 920.586 196.78 920.933 196.78C921.266 196.78 921.546 196.9 921.773 197.14C922.013 197.38 922.133 197.673 922.133 198.02C922.133 198.367 922.013 198.66 921.773 198.9C921.546 199.14 921.266 199.26 920.933 199.26ZM921.813 201.04V212H919.993V201.04H921.813ZM928.825 212.18C927.985 212.18 927.231 212.04 926.565 211.76C925.898 211.467 925.371 211.067 924.985 210.56C924.598 210.04 924.385 209.447 924.345 208.78H926.225C926.278 209.327 926.531 209.773 926.985 210.12C927.451 210.467 928.058 210.64 928.805 210.64C929.498 210.64 930.045 210.487 930.445 210.18C930.845 209.873 931.045 209.487 931.045 209.02C931.045 208.54 930.831 208.187 930.405 207.96C929.978 207.72 929.318 207.487 928.425 207.26C927.611 207.047 926.945 206.833 926.425 206.62C925.918 206.393 925.478 206.067 925.105 205.64C924.745 205.2 924.565 204.627 924.565 203.92C924.565 203.36 924.731 202.847 925.065 202.38C925.398 201.913 925.871 201.547 926.485 201.28C927.098 201 927.798 200.86 928.585 200.86C929.798 200.86 930.778 201.167 931.525 201.78C932.271 202.393 932.671 203.233 932.725 204.3H930.905C930.865 203.727 930.631 203.267 930.205 202.92C929.791 202.573 929.231 202.4 928.525 202.4C927.871 202.4 927.351 202.54 926.965 202.82C926.578 203.1 926.385 203.467 926.385 203.92C926.385 204.28 926.498 204.58 926.725 204.82C926.965 205.047 927.258 205.233 927.605 205.38C927.965 205.513 928.458 205.667 929.085 205.84C929.871 206.053 930.511 206.267 931.005 206.48C931.498 206.68 931.918 206.987 932.265 207.4C932.625 207.813 932.811 208.353 932.825 209.02C932.825 209.62 932.658 210.16 932.325 210.64C931.991 211.12 931.518 211.5 930.905 211.78C930.305 212.047 929.611 212.18 928.825 212.18ZM934.744 206.5C934.744 205.367 934.971 204.38 935.424 203.54C935.877 202.687 936.504 202.027 937.304 201.56C938.117 201.093 939.044 200.86 940.084 200.86C941.431 200.86 942.537 201.187 943.404 201.84C944.284 202.493 944.864 203.4 945.144 204.56H943.184C942.997 203.893 942.631 203.367 942.084 202.98C941.551 202.593 940.884 202.4 940.084 202.4C939.044 202.4 938.204 202.76 937.564 203.48C936.924 204.187 936.604 205.193 936.604 206.5C936.604 207.82 936.924 208.84 937.564 209.56C938.204 210.28 939.044 210.64 940.084 210.64C940.884 210.64 941.551 210.453 942.084 210.08C942.617 209.707 942.984 209.173 943.184 208.48H945.144C944.851 209.6 944.264 210.5 943.384 211.18C942.504 211.847 941.404 212.18 940.084 212.18C939.044 212.18 938.117 211.947 937.304 211.48C936.504 211.013 935.877 210.353 935.424 209.5C934.971 208.647 934.744 207.647 934.744 206.5ZM948.542 199.26C948.196 199.26 947.902 199.14 947.662 198.9C947.422 198.66 947.302 198.367 947.302 198.02C947.302 197.673 947.422 197.38 947.662 197.14C947.902 196.9 948.196 196.78 948.542 196.78C948.876 196.78 949.156 196.9 949.382 197.14C949.622 197.38 949.742 197.673 949.742 198.02C949.742 198.367 949.622 198.66 949.382 198.9C949.156 199.14 948.876 199.26 948.542 199.26ZM949.422 201.04V212H947.602V201.04H949.422ZM957.894 200.84C959.228 200.84 960.308 201.247 961.134 202.06C961.961 202.86 962.374 204.02 962.374 205.54V212H960.574V205.8C960.574 204.707 960.301 203.873 959.754 203.3C959.208 202.713 958.461 202.42 957.514 202.42C956.554 202.42 955.788 202.72 955.214 203.32C954.654 203.92 954.374 204.793 954.374 205.94V212H952.554V201.04H954.374V202.6C954.734 202.04 955.221 201.607 955.834 201.3C956.461 200.993 957.148 200.84 957.894 200.84ZM969.897 200.86C970.844 200.86 971.671 201.067 972.377 201.48C973.097 201.893 973.631 202.413 973.977 203.04V201.04H975.817V212.24C975.817 213.24 975.604 214.127 975.177 214.9C974.751 215.687 974.137 216.3 973.337 216.74C972.551 217.18 971.631 217.4 970.577 217.4C969.137 217.4 967.937 217.06 966.977 216.38C966.017 215.7 965.451 214.773 965.277 213.6H967.077C967.277 214.267 967.691 214.8 968.317 215.2C968.944 215.613 969.697 215.82 970.577 215.82C971.577 215.82 972.391 215.507 973.017 214.88C973.657 214.253 973.977 213.373 973.977 212.24V209.94C973.617 210.58 973.084 211.113 972.377 211.54C971.671 211.967 970.844 212.18 969.897 212.18C968.924 212.18 968.037 211.94 967.237 211.46C966.451 210.98 965.831 210.307 965.377 209.44C964.924 208.573 964.697 207.587 964.697 206.48C964.697 205.36 964.924 204.38 965.377 203.54C965.831 202.687 966.451 202.027 967.237 201.56C968.037 201.093 968.924 200.86 969.897 200.86ZM973.977 206.5C973.977 205.673 973.811 204.953 973.477 204.34C973.144 203.727 972.691 203.26 972.117 202.94C971.557 202.607 970.937 202.44 970.257 202.44C969.577 202.44 968.957 202.6 968.397 202.92C967.837 203.24 967.391 203.707 967.057 204.32C966.724 204.933 966.557 205.653 966.557 206.48C966.557 207.32 966.724 208.053 967.057 208.68C967.391 209.293 967.837 209.767 968.397 210.1C968.957 210.42 969.577 210.58 970.257 210.58C970.937 210.58 971.557 210.42 972.117 210.1C972.691 209.767 973.144 209.293 973.477 208.68C973.811 208.053 973.977 207.327 973.977 206.5ZM606.855 236.1C606.855 236.447 606.835 236.813 606.795 237.2H598.035C598.102 238.28 598.468 239.127 599.135 239.74C599.815 240.34 600.635 240.64 601.595 240.64C602.382 240.64 603.035 240.46 603.555 240.1C604.088 239.727 604.462 239.233 604.675 238.62H606.635C606.342 239.673 605.755 240.533 604.875 241.2C603.995 241.853 602.902 242.18 601.595 242.18C600.555 242.18 599.622 241.947 598.795 241.48C597.982 241.013 597.342 240.353 596.875 239.5C596.408 238.633 596.175 237.633 596.175 236.5C596.175 235.367 596.402 234.373 596.855 233.52C597.308 232.667 597.942 232.013 598.755 231.56C599.582 231.093 600.528 230.86 601.595 230.86C602.635 230.86 603.555 231.087 604.355 231.54C605.155 231.993 605.768 232.62 606.195 233.42C606.635 234.207 606.855 235.1 606.855 236.1ZM604.975 235.72C604.975 235.027 604.822 234.433 604.515 233.94C604.208 233.433 603.788 233.053 603.255 232.8C602.735 232.533 602.155 232.4 601.515 232.4C600.595 232.4 599.808 232.693 599.155 233.28C598.515 233.867 598.148 234.68 598.055 235.72H604.975ZM611.107 227.2V242H609.287V227.2H611.107ZM615.179 229.26C614.833 229.26 614.539 229.14 614.299 228.9C614.059 228.66 613.939 228.367 613.939 228.02C613.939 227.673 614.059 227.38 614.299 227.14C614.539 226.9 614.833 226.78 615.179 226.78C615.513 226.78 615.793 226.9 616.019 227.14C616.259 227.38 616.379 227.673 616.379 228.02C616.379 228.367 616.259 228.66 616.019 228.9C615.793 229.14 615.513 229.26 615.179 229.26ZM616.059 231.04V242H614.239V231.04H616.059ZM621.411 232.54V239C621.411 239.533 621.525 239.913 621.751 240.14C621.978 240.353 622.371 240.46 622.931 240.46H624.271V242H622.631C621.618 242 620.858 241.767 620.351 241.3C619.845 240.833 619.591 240.067 619.591 239V232.54H618.171V231.04H619.591V228.28H621.411V231.04H624.271V232.54H621.411ZM636.288 242.14C635.368 242.14 634.542 241.98 633.808 241.66C633.088 241.327 632.522 240.873 632.108 240.3C631.695 239.713 631.482 239.04 631.468 238.28H633.408C633.475 238.933 633.742 239.487 634.208 239.94C634.688 240.38 635.382 240.6 636.288 240.6C637.155 240.6 637.835 240.387 638.328 239.96C638.835 239.52 639.088 238.96 639.088 238.28C639.088 237.747 638.942 237.313 638.648 236.98C638.355 236.647 637.988 236.393 637.548 236.22C637.108 236.047 636.515 235.86 635.768 235.66C634.848 235.42 634.108 235.18 633.548 234.94C633.002 234.7 632.528 234.327 632.128 233.82C631.742 233.3 631.548 232.607 631.548 231.74C631.548 230.98 631.742 230.307 632.128 229.72C632.515 229.133 633.055 228.68 633.748 228.36C634.455 228.04 635.262 227.88 636.168 227.88C637.475 227.88 638.542 228.207 639.368 228.86C640.208 229.513 640.682 230.38 640.788 231.46H638.788C638.722 230.927 638.442 230.46 637.948 230.06C637.455 229.647 636.802 229.44 635.988 229.44C635.228 229.44 634.608 229.64 634.128 230.04C633.648 230.427 633.408 230.973 633.408 231.68C633.408 232.187 633.548 232.6 633.828 232.92C634.122 233.24 634.475 233.487 634.888 233.66C635.315 233.82 635.908 234.007 636.668 234.22C637.588 234.473 638.328 234.727 638.888 234.98C639.448 235.22 639.928 235.6 640.328 236.12C640.728 236.627 640.928 237.32 640.928 238.2C640.928 238.88 640.748 239.52 640.388 240.12C640.028 240.72 639.495 241.207 638.788 241.58C638.082 241.953 637.248 242.14 636.288 242.14ZM653.637 236.1C653.637 236.447 653.617 236.813 653.577 237.2H644.817C644.883 238.28 645.25 239.127 645.917 239.74C646.597 240.34 647.417 240.64 648.377 240.64C649.163 240.64 649.817 240.46 650.337 240.1C650.87 239.727 651.243 239.233 651.457 238.62H653.417C653.123 239.673 652.537 240.533 651.657 241.2C650.777 241.853 649.683 242.18 648.377 242.18C647.337 242.18 646.403 241.947 645.577 241.48C644.763 241.013 644.123 240.353 643.657 239.5C643.19 238.633 642.957 237.633 642.957 236.5C642.957 235.367 643.183 234.373 643.637 233.52C644.09 232.667 644.723 232.013 645.537 231.56C646.363 231.093 647.31 230.86 648.377 230.86C649.417 230.86 650.337 231.087 651.137 231.54C651.937 231.993 652.55 232.62 652.977 233.42C653.417 234.207 653.637 235.1 653.637 236.1ZM651.757 235.72C651.757 235.027 651.603 234.433 651.297 233.94C650.99 233.433 650.57 233.053 650.037 232.8C649.517 232.533 648.937 232.4 648.297 232.4C647.377 232.4 646.59 232.693 645.937 233.28C645.297 233.867 644.93 234.68 644.837 235.72H651.757ZM655.389 236.48C655.389 235.36 655.616 234.38 656.069 233.54C656.522 232.687 657.142 232.027 657.929 231.56C658.729 231.093 659.622 230.86 660.609 230.86C661.462 230.86 662.256 231.06 662.989 231.46C663.722 231.847 664.282 232.36 664.669 233V227.2H666.509V242H664.669V239.94C664.309 240.593 663.776 241.133 663.069 241.56C662.362 241.973 661.536 242.18 660.589 242.18C659.616 242.18 658.729 241.94 657.929 241.46C657.142 240.98 656.522 240.307 656.069 239.44C655.616 238.573 655.389 237.587 655.389 236.48ZM664.669 236.5C664.669 235.673 664.502 234.953 664.169 234.34C663.836 233.727 663.382 233.26 662.809 232.94C662.249 232.607 661.629 232.44 660.949 232.44C660.269 232.44 659.649 232.6 659.089 232.92C658.529 233.24 658.082 233.707 657.749 234.32C657.416 234.933 657.249 235.653 657.249 236.48C657.249 237.32 657.416 238.053 657.749 238.68C658.082 239.293 658.529 239.767 659.089 240.1C659.649 240.42 660.269 240.58 660.949 240.58C661.629 240.58 662.249 240.42 662.809 240.1C663.382 239.767 663.836 239.293 664.169 238.68C664.502 238.053 664.669 237.327 664.669 236.5ZM676.797 233.06C677.157 232.433 677.69 231.913 678.397 231.5C679.117 231.073 679.95 230.86 680.897 230.86C681.87 230.86 682.75 231.093 683.537 231.56C684.337 232.027 684.963 232.687 685.417 233.54C685.87 234.38 686.097 235.36 686.097 236.48C686.097 237.587 685.87 238.573 685.417 239.44C684.963 240.307 684.337 240.98 683.537 241.46C682.75 241.94 681.87 242.18 680.897 242.18C679.963 242.18 679.137 241.973 678.417 241.56C677.71 241.133 677.17 240.607 676.797 239.98V247.2H674.977V231.04H676.797V233.06ZM684.237 236.48C684.237 235.653 684.07 234.933 683.737 234.32C683.403 233.707 682.95 233.24 682.377 232.92C681.817 232.6 681.197 232.44 680.517 232.44C679.85 232.44 679.23 232.607 678.657 232.94C678.097 233.26 677.643 233.733 677.297 234.36C676.963 234.973 676.797 235.687 676.797 236.5C676.797 237.327 676.963 238.053 677.297 238.68C677.643 239.293 678.097 239.767 678.657 240.1C679.23 240.42 679.85 240.58 680.517 240.58C681.197 240.58 681.817 240.42 682.377 240.1C682.95 239.767 683.403 239.293 683.737 238.68C684.07 238.053 684.237 237.32 684.237 236.48ZM690.342 232.82C690.662 232.193 691.116 231.707 691.702 231.36C692.302 231.013 693.029 230.84 693.882 230.84V232.72H693.402C691.362 232.72 690.342 233.827 690.342 236.04V242H688.522V231.04H690.342V232.82ZM695.333 236.48C695.333 235.36 695.56 234.38 696.013 233.54C696.467 232.687 697.087 232.027 697.873 231.56C698.673 231.093 699.56 230.86 700.533 230.86C701.493 230.86 702.327 231.067 703.033 231.48C703.74 231.893 704.267 232.413 704.613 233.04V231.04H706.453V242H704.613V239.96C704.253 240.6 703.713 241.133 702.993 241.56C702.287 241.973 701.46 242.18 700.513 242.18C699.54 242.18 698.66 241.94 697.873 241.46C697.087 240.98 696.467 240.307 696.013 239.44C695.56 238.573 695.333 237.587 695.333 236.48ZM704.613 236.5C704.613 235.673 704.447 234.953 704.113 234.34C703.78 233.727 703.327 233.26 702.753 232.94C702.193 232.607 701.573 232.44 700.893 232.44C700.213 232.44 699.593 232.6 699.033 232.92C698.473 233.24 698.027 233.707 697.693 234.32C697.36 234.933 697.193 235.653 697.193 236.48C697.193 237.32 697.36 238.053 697.693 238.68C698.027 239.293 698.473 239.767 699.033 240.1C699.593 240.42 700.213 240.58 700.893 240.58C701.573 240.58 702.193 240.42 702.753 240.1C703.327 239.767 703.78 239.293 704.113 238.68C704.447 238.053 704.613 237.327 704.613 236.5ZM719.559 236.1C719.559 236.447 719.539 236.813 719.499 237.2H710.739C710.805 238.28 711.172 239.127 711.839 239.74C712.519 240.34 713.339 240.64 714.299 240.64C715.085 240.64 715.739 240.46 716.259 240.1C716.792 239.727 717.165 239.233 717.379 238.62H719.339C719.045 239.673 718.459 240.533 717.579 241.2C716.699 241.853 715.605 242.18 714.299 242.18C713.259 242.18 712.325 241.947 711.499 241.48C710.685 241.013 710.045 240.353 709.579 239.5C709.112 238.633 708.879 237.633 708.879 236.5C708.879 235.367 709.105 234.373 709.559 233.52C710.012 232.667 710.645 232.013 711.459 231.56C712.285 231.093 713.232 230.86 714.299 230.86C715.339 230.86 716.259 231.087 717.059 231.54C717.859 231.993 718.472 232.62 718.899 233.42C719.339 234.207 719.559 235.1 719.559 236.1ZM717.679 235.72C717.679 235.027 717.525 234.433 717.219 233.94C716.912 233.433 716.492 233.053 715.959 232.8C715.439 232.533 714.859 232.4 714.219 232.4C713.299 232.4 712.512 232.693 711.859 233.28C711.219 233.867 710.852 234.68 710.759 235.72H717.679ZM725.871 242.18C725.031 242.18 724.278 242.04 723.611 241.76C722.945 241.467 722.418 241.067 722.031 240.56C721.645 240.04 721.431 239.447 721.391 238.78H723.271C723.325 239.327 723.578 239.773 724.031 240.12C724.498 240.467 725.105 240.64 725.851 240.64C726.545 240.64 727.091 240.487 727.491 240.18C727.891 239.873 728.091 239.487 728.091 239.02C728.091 238.54 727.878 238.187 727.451 237.96C727.025 237.72 726.365 237.487 725.471 237.26C724.658 237.047 723.991 236.833 723.471 236.62C722.965 236.393 722.525 236.067 722.151 235.64C721.791 235.2 721.611 234.627 721.611 233.92C721.611 233.36 721.778 232.847 722.111 232.38C722.445 231.913 722.918 231.547 723.531 231.28C724.145 231 724.845 230.86 725.631 230.86C726.845 230.86 727.825 231.167 728.571 231.78C729.318 232.393 729.718 233.233 729.771 234.3H727.951C727.911 233.727 727.678 233.267 727.251 232.92C726.838 232.573 726.278 232.4 725.571 232.4C724.918 232.4 724.398 232.54 724.011 232.82C723.625 233.1 723.431 233.467 723.431 233.92C723.431 234.28 723.545 234.58 723.771 234.82C724.011 235.047 724.305 235.233 724.651 235.38C725.011 235.513 725.505 235.667 726.131 235.84C726.918 236.053 727.558 236.267 728.051 236.48C728.545 236.68 728.965 236.987 729.311 237.4C729.671 237.813 729.858 238.353 729.871 239.02C729.871 239.62 729.705 240.16 729.371 240.64C729.038 241.12 728.565 241.5 727.951 241.78C727.351 242.047 726.658 242.18 725.871 242.18ZM742.47 236.1C742.47 236.447 742.45 236.813 742.41 237.2H733.65C733.717 238.28 734.084 239.127 734.75 239.74C735.43 240.34 736.25 240.64 737.21 240.64C737.997 240.64 738.65 240.46 739.17 240.1C739.704 239.727 740.077 239.233 740.29 238.62H742.25C741.957 239.673 741.37 240.533 740.49 241.2C739.61 241.853 738.517 242.18 737.21 242.18C736.17 242.18 735.237 241.947 734.41 241.48C733.597 241.013 732.957 240.353 732.49 239.5C732.024 238.633 731.79 237.633 731.79 236.5C731.79 235.367 732.017 234.373 732.47 233.52C732.924 232.667 733.557 232.013 734.37 231.56C735.197 231.093 736.144 230.86 737.21 230.86C738.25 230.86 739.17 231.087 739.97 231.54C740.77 231.993 741.384 232.62 741.81 233.42C742.25 234.207 742.47 235.1 742.47 236.1ZM740.59 235.72C740.59 235.027 740.437 234.433 740.13 233.94C739.824 233.433 739.404 233.053 738.87 232.8C738.35 232.533 737.77 232.4 737.13 232.4C736.21 232.4 735.424 232.693 734.77 233.28C734.13 233.867 733.764 234.68 733.67 235.72H740.59ZM750.243 230.84C751.576 230.84 752.656 231.247 753.483 232.06C754.309 232.86 754.723 234.02 754.723 235.54V242H752.923V235.8C752.923 234.707 752.649 233.873 752.103 233.3C751.556 232.713 750.809 232.42 749.863 232.42C748.903 232.42 748.136 232.72 747.563 233.32C747.003 233.92 746.723 234.793 746.723 235.94V242H744.903V231.04H746.723V232.6C747.083 232.04 747.569 231.607 748.183 231.3C748.809 230.993 749.496 230.84 750.243 230.84ZM759.946 232.54V239C759.946 239.533 760.059 239.913 760.286 240.14C760.512 240.353 760.906 240.46 761.466 240.46H762.806V242H761.166C760.152 242 759.392 241.767 758.886 241.3C758.379 240.833 758.126 240.067 758.126 239V232.54H756.706V231.04H758.126V228.28H759.946V231.04H762.806V232.54H759.946ZM780.123 231.04V242H778.303V240.38C777.956 240.94 777.47 241.38 776.843 241.7C776.23 242.007 775.55 242.16 774.803 242.16C773.95 242.16 773.183 241.987 772.503 241.64C771.823 241.28 771.283 240.747 770.883 240.04C770.496 239.333 770.303 238.473 770.303 237.46V231.04H772.103V237.22C772.103 238.3 772.376 239.133 772.923 239.72C773.47 240.293 774.216 240.58 775.163 240.58C776.136 240.58 776.903 240.28 777.463 239.68C778.023 239.08 778.303 238.207 778.303 237.06V231.04H780.123ZM785.046 227.2V242H783.226V227.2H785.046ZM790.398 232.54V239C790.398 239.533 790.511 239.913 790.738 240.14C790.964 240.353 791.358 240.46 791.918 240.46H793.258V242H791.618C790.604 242 789.844 241.767 789.338 241.3C788.831 240.833 788.578 240.067 788.578 239V232.54H787.158V231.04H788.578V228.28H790.398V231.04H793.258V232.54H790.398ZM797.313 232.82C797.633 232.193 798.086 231.707 798.673 231.36C799.273 231.013 800 230.84 800.853 230.84V232.72H800.373C798.333 232.72 797.313 233.827 797.313 236.04V242H795.493V231.04H797.313V232.82ZM803.924 229.26C803.577 229.26 803.284 229.14 803.044 228.9C802.804 228.66 802.684 228.367 802.684 228.02C802.684 227.673 802.804 227.38 803.044 227.14C803.284 226.9 803.577 226.78 803.924 226.78C804.257 226.78 804.537 226.9 804.764 227.14C805.004 227.38 805.124 227.673 805.124 228.02C805.124 228.367 805.004 228.66 804.764 228.9C804.537 229.14 804.257 229.26 803.924 229.26ZM804.804 231.04V242H802.984V231.04H804.804ZM807.256 236.5C807.256 235.367 807.482 234.38 807.936 233.54C808.389 232.687 809.016 232.027 809.816 231.56C810.629 231.093 811.556 230.86 812.596 230.86C813.942 230.86 815.049 231.187 815.916 231.84C816.796 232.493 817.376 233.4 817.656 234.56H815.696C815.509 233.893 815.142 233.367 814.596 232.98C814.062 232.593 813.396 232.4 812.596 232.4C811.556 232.4 810.716 232.76 810.076 233.48C809.436 234.187 809.116 235.193 809.116 236.5C809.116 237.82 809.436 238.84 810.076 239.56C810.716 240.28 811.556 240.64 812.596 240.64C813.396 240.64 814.062 240.453 814.596 240.08C815.129 239.707 815.496 239.173 815.696 238.48H817.656C817.362 239.6 816.776 240.5 815.896 241.18C815.016 241.847 813.916 242.18 812.596 242.18C811.556 242.18 810.629 241.947 809.816 241.48C809.016 241.013 808.389 240.353 807.936 239.5C807.482 238.647 807.256 237.647 807.256 236.5ZM830.114 236.1C830.114 236.447 830.094 236.813 830.054 237.2H821.294C821.361 238.28 821.727 239.127 822.394 239.74C823.074 240.34 823.894 240.64 824.854 240.64C825.641 240.64 826.294 240.46 826.814 240.1C827.347 239.727 827.721 239.233 827.934 238.62H829.894C829.601 239.673 829.014 240.533 828.134 241.2C827.254 241.853 826.161 242.18 824.854 242.18C823.814 242.18 822.881 241.947 822.054 241.48C821.241 241.013 820.601 240.353 820.134 239.5C819.667 238.633 819.434 237.633 819.434 236.5C819.434 235.367 819.661 234.373 820.114 233.52C820.567 232.667 821.201 232.013 822.014 231.56C822.841 231.093 823.787 230.86 824.854 230.86C825.894 230.86 826.814 231.087 827.614 231.54C828.414 231.993 829.027 232.62 829.454 233.42C829.894 234.207 830.114 235.1 830.114 236.1ZM828.234 235.72C828.234 235.027 828.081 234.433 827.774 233.94C827.467 233.433 827.047 233.053 826.514 232.8C825.994 232.533 825.414 232.4 824.774 232.4C823.854 232.4 823.067 232.693 822.414 233.28C821.774 233.867 821.407 234.68 821.314 235.72H828.234ZM836.426 242.18C835.586 242.18 834.833 242.04 834.166 241.76C833.5 241.467 832.973 241.067 832.586 240.56C832.2 240.04 831.986 239.447 831.946 238.78H833.826C833.88 239.327 834.133 239.773 834.586 240.12C835.053 240.467 835.66 240.64 836.406 240.64C837.1 240.64 837.646 240.487 838.046 240.18C838.446 239.873 838.646 239.487 838.646 239.02C838.646 238.54 838.433 238.187 838.006 237.96C837.58 237.72 836.92 237.487 836.026 237.26C835.213 237.047 834.546 236.833 834.026 236.62C833.52 236.393 833.08 236.067 832.706 235.64C832.346 235.2 832.166 234.627 832.166 233.92C832.166 233.36 832.333 232.847 832.666 232.38C833 231.913 833.473 231.547 834.086 231.28C834.7 231 835.4 230.86 836.186 230.86C837.4 230.86 838.38 231.167 839.126 231.78C839.873 232.393 840.273 233.233 840.326 234.3H838.506C838.466 233.727 838.233 233.267 837.806 232.92C837.393 232.573 836.833 232.4 836.126 232.4C835.473 232.4 834.953 232.54 834.566 232.82C834.18 233.1 833.986 233.467 833.986 233.92C833.986 234.28 834.1 234.58 834.326 234.82C834.566 235.047 834.86 235.233 835.206 235.38C835.566 235.513 836.06 235.667 836.686 235.84C837.473 236.053 838.113 236.267 838.606 236.48C839.1 236.68 839.52 236.987 839.866 237.4C840.226 237.813 840.413 238.353 840.426 239.02C840.426 239.62 840.26 240.16 839.926 240.64C839.593 241.12 839.12 241.5 838.506 241.78C837.906 242.047 837.213 242.18 836.426 242.18ZM843.606 242.12C843.259 242.12 842.966 242 842.726 241.76C842.486 241.52 842.366 241.227 842.366 240.88C842.366 240.533 842.486 240.24 842.726 240C842.966 239.76 843.259 239.64 843.606 239.64C843.939 239.64 844.219 239.76 844.446 240C844.686 240.24 844.806 240.533 844.806 240.88C844.806 241.227 844.686 241.52 844.446 241.76C844.219 242 843.939 242.12 843.606 242.12Z" fill="white"/>
<line x1="349.739" y1="91.5734" x2="403.739" y2="58.5734" stroke="url(#paint0_linear)"/>
<line x1="981.739" y1="277.573" x2="1035.74" y2="244.573" stroke="url(#paint1_linear)"/>
<line x1="1141.74" y1="33.5734" x2="1195.74" y2="0.573361" stroke="url(#paint2_linear)"/>
<line x1="275.739" y1="293.573" x2="329.739" y2="260.573" stroke="url(#paint3_linear)"/>
<line x1="875.739" y1="66.5734" x2="929.739" y2="33.5734" stroke="url(#paint4_linear)"/>
<defs>
<filter id="filter0_d" x="1226.5" y="-23.5" width="263.5" height="451.665" filterUnits="userSpaceOnUse" color-interpolation-filters="sRGB">
<feFlood flood-opacity="0" result="BackgroundImageFix"/>
<feColorMatrix in="SourceAlpha" type="matrix" values="0 0 0 0 0 0 0 0 0 0 0 0 0 0 0 0 0 0 127 0"/>
<feOffset dx="-5" dy="20"/>
<feGaussianBlur stdDeviation="15"/>
<feColorMatrix type="matrix" values="0 0 0 0 0 0 0 0 0 0 0 0 0 0 0 0 0 0 0.25 0"/>
<feBlend mode="normal" in2="BackgroundImageFix" result="effect1_dropShadow"/>
<feBlend mode="normal" in="SourceGraphic" in2="effect1_dropShadow" result="shape"/>
</filter>
<filter id="filter1_d" x="-76" y="-40" width="309.027" height="466.327" filterUnits="userSpaceOnUse" color-interpolation-filters="sRGB">
<feFlood flood-opacity="0" result="BackgroundImageFix"/>
<feColorMatrix in="SourceAlpha" type="matrix" values="0 0 0 0 0 0 0 0 0 0 0 0 0 0 0 0 0 0 127 0"/>
<feOffset dx="5" dy="10"/>
<feGaussianBlur stdDeviation="15"/>
<feColorMatrix type="matrix" values="0 0 0 0 0 0 0 0 0 0 0 0 0 0 0 0 0 0 0.25 0"/>
<feBlend mode="normal" in2="BackgroundImageFix" result="effect1_dropShadow"/>
<feBlend mode="normal" in="SourceGraphic" in2="effect1_dropShadow" result="shape"/>
</filter>
<linearGradient id="paint0_linear" x1="350" y1="92" x2="404" y2="59" gradientUnits="userSpaceOnUse">
<stop stop-color="white"/>
<stop offset="1" stop-color="white" stop-opacity="0"/>
</linearGradient>
<linearGradient id="paint1_linear" x1="982" y1="278" x2="1036" y2="245" gradientUnits="userSpaceOnUse">
<stop stop-color="white"/>
<stop offset="1" stop-color="white" stop-opacity="0"/>
</linearGradient>
<linearGradient id="paint2_linear" x1="1142" y1="34" x2="1196" y2="1" gradientUnits="userSpaceOnUse">
<stop stop-color="white"/>
<stop offset="1" stop-color="white" stop-opacity="0"/>
</linearGradient>
<linearGradient id="paint3_linear" x1="276" y1="294" x2="330" y2="261" gradientUnits="userSpaceOnUse">
<stop stop-color="white"/>
<stop offset="1" stop-color="white" stop-opacity="0"/>
</linearGradient>
<linearGradient id="paint4_linear" x1="876" y1="67" x2="930" y2="34" gradientUnits="userSpaceOnUse">
<stop stop-color="white"/>
<stop offset="1" stop-color="white" stop-opacity="0"/>
</linearGradient>
</defs>
</svg>
