<svg width="1440" height="354" viewBox="0 0 1440 354" fill="none" xmlns="http://www.w3.org/2000/svg">
<rect width="1440" height="354" fill="#5F5EFB"/>
<mask id="mask0" mask-type="alpha" maskUnits="userSpaceOnUse" x="0" y="0" width="1440" height="350">
<rect width="1440" height="350" fill="#5F5EFB"/>
</mask>
<g mask="url(#mask0)">
<line x1="1155.3" y1="228.732" x2="1244.84" y2="166.039" stroke="url(#paint0_linear)" stroke-width="1.5" stroke-linecap="round"/>
<line x1="222.184" y1="87.5087" x2="311.719" y2="24.8158" stroke="url(#paint1_linear)" stroke-width="1.5" stroke-linecap="round"/>
<line x1="195.184" y1="91.5087" x2="284.719" y2="28.8158" stroke="url(#paint2_linear)" stroke-width="1.5" stroke-linecap="round"/>
<line x1="879.184" y1="324.509" x2="968.719" y2="261.816" stroke="url(#paint3_linear)" stroke-width="1.5" stroke-linecap="round"/>
<line x1="630.184" y1="47.5087" x2="719.719" y2="-15.1842" stroke="url(#paint4_linear)" stroke-width="1.5" stroke-linecap="round"/>
<line x1="308.184" y1="284.509" x2="397.719" y2="221.816" stroke="url(#paint5_linear)" stroke-width="1.5" stroke-linecap="round"/>
<line x1="1144.18" y1="260.509" x2="1233.72" y2="197.816" stroke="url(#paint6_linear)" stroke-width="1.5" stroke-linecap="round"/>
<g filter="url(#filter0_d)">
<path d="M112.5 219C66.1 179.8 -8.5 202.667 -40 219V364C171 364.167 591.2 364.4 584 364L583.819 363.99C574.114 363.453 505.554 359.66 436.5 307C381.395 264.978 313.5 256.5 263.5 267.5C213.5 278.5 170.5 268 112.5 219Z" fill="#4748EC"/>
</g>
<path d="M-3 225C26 203 93.9496 188.376 142.5 220C197 255.5 240.822 286.245 314.5 275.5C410.5 261.5 479.5 350 597 356" stroke="white" stroke-width="1.5"/>
<g filter="url(#filter1_d)">
<path d="M1151.5 39C1067 54 1020 9.5 948.5 -9.5L1467.5 -22.5C1467.5 45 1444 184.157 1444 178.957C1444 172.457 1428 135 1384 137.957C1351.26 140.157 1316 100 1290.5 76C1265 52 1214.09 27.889 1151.5 39Z" fill="#4748EC"/>
</g>
<path d="M946 -1C976.833 12.5 1044 37.5 1095.5 32.5C1149.04 27.3017 1190.49 16.7832 1232 51C1269 81.5 1308 127.861 1359 125.5C1413 123 1440.5 166 1444.5 184" stroke="white" stroke-width="1.5"/>
<path d="M335.16 154L328.152 141.28H326.184V154H317.976V120.304H331.752C334.408 120.304 336.664 120.768 338.52 121.696C340.408 122.624 341.816 123.904 342.744 125.536C343.672 127.136 344.136 128.928 344.136 130.912C344.136 133.152 343.496 135.152 342.216 136.912C340.968 138.672 339.112 139.92 336.648 140.656L344.424 154H335.16ZM326.184 135.472H331.272C332.776 135.472 333.896 135.104 334.632 134.368C335.4 133.632 335.784 132.592 335.784 131.248C335.784 129.968 335.4 128.96 334.632 128.224C333.896 127.488 332.776 127.12 331.272 127.12H326.184V135.472ZM374.536 140.176C374.536 140.944 374.489 141.744 374.393 142.576H355.817C355.945 144.24 356.473 145.52 357.401 146.416C358.361 147.28 359.529 147.712 360.905 147.712C362.953 147.712 364.377 146.848 365.177 145.12H373.913C373.465 146.88 372.649 148.464 371.465 149.872C370.313 151.28 368.857 152.384 367.097 153.184C365.337 153.984 363.369 154.384 361.193 154.384C358.569 154.384 356.233 153.824 354.185 152.704C352.137 151.584 350.537 149.984 349.385 147.904C348.233 145.824 347.657 143.392 347.657 140.608C347.657 137.824 348.217 135.392 349.337 133.312C350.489 131.232 352.089 129.632 354.137 128.512C356.185 127.392 358.537 126.832 361.193 126.832C363.785 126.832 366.089 127.376 368.105 128.464C370.121 129.552 371.689 131.104 372.809 133.12C373.961 135.136 374.536 137.488 374.536 140.176ZM366.137 138.016C366.137 136.608 365.657 135.488 364.697 134.656C363.737 133.824 362.537 133.408 361.097 133.408C359.721 133.408 358.553 133.808 357.593 134.608C356.665 135.408 356.089 136.544 355.865 138.016H366.137ZM377.235 140.656C377.235 138 377.779 135.632 378.867 133.552C379.987 131.472 381.475 129.856 383.331 128.704C385.219 127.52 387.267 126.928 389.475 126.928C391.171 126.928 392.691 127.232 394.035 127.84C395.379 128.416 396.467 129.232 397.299 130.288V127.216H405.507V166.768H397.299V150.64C396.371 151.76 395.235 152.656 393.891 153.328C392.579 154 391.075 154.336 389.379 154.336C387.203 154.336 385.187 153.76 383.331 152.608C381.475 151.456 379.987 149.84 378.867 147.76C377.779 145.68 377.235 143.312 377.235 140.656ZM397.299 140.608C397.299 139.168 397.011 137.968 396.435 137.008C395.891 136.016 395.171 135.28 394.275 134.8C393.379 134.288 392.435 134.032 391.443 134.032C390.483 134.032 389.555 134.288 388.659 134.8C387.763 135.28 387.027 136.016 386.451 137.008C385.875 138 385.587 139.216 385.587 140.656C385.587 142.096 385.875 143.312 386.451 144.304C387.027 145.264 387.763 146 388.659 146.512C389.555 146.992 390.483 147.232 391.443 147.232C392.403 147.232 393.331 146.992 394.227 146.512C395.155 146 395.891 145.248 396.435 144.256C397.011 143.264 397.299 142.048 397.299 140.608ZM437.893 127.216V154H429.685V150.352C428.853 151.536 427.717 152.496 426.277 153.232C424.869 153.936 423.301 154.288 421.573 154.288C419.525 154.288 417.717 153.84 416.149 152.944C414.581 152.016 413.365 150.688 412.501 148.96C411.637 147.232 411.205 145.2 411.205 142.864V127.216H419.365V141.76C419.365 143.552 419.829 144.944 420.757 145.936C421.685 146.928 422.933 147.424 424.501 147.424C426.101 147.424 427.365 146.928 428.293 145.936C429.221 144.944 429.685 143.552 429.685 141.76V127.216H437.893ZM469.036 140.176C469.036 140.944 468.989 141.744 468.893 142.576H450.317C450.445 144.24 450.973 145.52 451.901 146.416C452.861 147.28 454.029 147.712 455.405 147.712C457.453 147.712 458.877 146.848 459.677 145.12H468.413C467.965 146.88 467.149 148.464 465.965 149.872C464.813 151.28 463.357 152.384 461.597 153.184C459.837 153.984 457.869 154.384 455.693 154.384C453.069 154.384 450.733 153.824 448.685 152.704C446.637 151.584 445.037 149.984 443.885 147.904C442.733 145.824 442.157 143.392 442.157 140.608C442.157 137.824 442.717 135.392 443.837 133.312C444.989 131.232 446.589 129.632 448.637 128.512C450.685 127.392 453.037 126.832 455.693 126.832C458.285 126.832 460.589 127.376 462.605 128.464C464.621 129.552 466.189 131.104 467.309 133.12C468.461 135.136 469.036 137.488 469.036 140.176ZM460.637 138.016C460.637 136.608 460.157 135.488 459.197 134.656C458.237 133.824 457.037 133.408 455.597 133.408C454.221 133.408 453.053 133.808 452.093 134.608C451.165 135.408 450.589 136.544 450.365 138.016H460.637ZM484.263 154.384C481.927 154.384 479.847 153.984 478.023 153.184C476.199 152.384 474.759 151.296 473.703 149.92C472.647 148.512 472.055 146.944 471.927 145.216H480.039C480.135 146.144 480.567 146.896 481.335 147.472C482.103 148.048 483.047 148.336 484.167 148.336C485.191 148.336 485.975 148.144 486.519 147.76C487.095 147.344 487.383 146.816 487.383 146.176C487.383 145.408 486.983 144.848 486.183 144.496C485.383 144.112 484.087 143.696 482.295 143.248C480.375 142.8 478.775 142.336 477.495 141.856C476.215 141.344 475.111 140.56 474.183 139.504C473.255 138.416 472.791 136.96 472.791 135.136C472.791 133.6 473.207 132.208 474.039 130.96C474.903 129.68 476.151 128.672 477.783 127.936C479.447 127.2 481.415 126.832 483.687 126.832C487.047 126.832 489.687 127.664 491.607 129.328C493.559 130.992 494.679 133.2 494.967 135.952H487.383C487.255 135.024 486.839 134.288 486.135 133.744C485.463 133.2 484.567 132.928 483.447 132.928C482.487 132.928 481.751 133.12 481.239 133.504C480.727 133.856 480.471 134.352 480.471 134.992C480.471 135.76 480.871 136.336 481.671 136.72C482.503 137.104 483.783 137.488 485.511 137.872C487.495 138.384 489.111 138.896 490.359 139.408C491.607 139.888 492.695 140.688 493.623 141.808C494.583 142.896 495.079 144.368 495.111 146.224C495.111 147.792 494.663 149.2 493.767 150.448C492.903 151.664 491.639 152.624 489.975 153.328C488.343 154.032 486.439 154.384 484.263 154.384ZM515.06 147.04V154H510.884C507.908 154 505.588 153.28 503.924 151.84C502.26 150.368 501.428 147.984 501.428 144.688V134.032H498.164V127.216H501.428V120.688H509.636V127.216H515.012V134.032H509.636V144.784C509.636 145.584 509.828 146.16 510.212 146.512C510.596 146.864 511.236 147.04 512.132 147.04H515.06ZM528.172 140.56C528.172 137.808 528.684 135.392 529.708 133.312C530.764 131.232 532.188 129.632 533.98 128.512C535.772 127.392 537.772 126.832 539.98 126.832C541.868 126.832 543.516 127.216 544.924 127.984C546.364 128.752 547.468 129.76 548.236 131.008V127.216H556.444V154H548.236V150.208C547.436 151.456 546.316 152.464 544.876 153.232C543.468 154 541.82 154.384 539.932 154.384C537.756 154.384 535.772 153.824 533.98 152.704C532.188 151.552 530.764 149.936 529.708 147.856C528.684 145.744 528.172 143.312 528.172 140.56ZM548.236 140.608C548.236 138.56 547.66 136.944 546.508 135.76C545.388 134.576 544.012 133.984 542.38 133.984C540.748 133.984 539.356 134.576 538.204 135.76C537.084 136.912 536.524 138.512 536.524 140.56C536.524 142.608 537.084 144.24 538.204 145.456C539.356 146.64 540.748 147.232 542.38 147.232C544.012 147.232 545.388 146.64 546.508 145.456C547.66 144.272 548.236 142.656 548.236 140.608ZM578.702 126.928C581.838 126.928 584.334 127.952 586.19 130C588.078 132.016 589.022 134.8 589.022 138.352V154H580.862V139.456C580.862 137.664 580.398 136.272 579.47 135.28C578.542 134.288 577.294 133.792 575.726 133.792C574.158 133.792 572.91 134.288 571.982 135.28C571.054 136.272 570.59 137.664 570.59 139.456V154H562.382V127.216H570.59V130.768C571.422 129.584 572.542 128.656 573.95 127.984C575.358 127.28 576.942 126.928 578.702 126.928ZM622.086 127.216L605.286 166.72H596.454L602.598 153.088L591.702 127.216H600.87L607.062 143.968L613.206 127.216H622.086ZM639.982 147.04V154H635.806C632.83 154 630.51 153.28 628.846 151.84C627.182 150.368 626.35 147.984 626.35 144.688V134.032H623.086V127.216H626.35V120.688H634.558V127.216H639.934V134.032H634.558V144.784C634.558 145.584 634.75 146.16 635.134 146.512C635.518 146.864 636.158 147.04 637.054 147.04H639.982ZM661.018 126.928C664.09 126.928 666.554 127.952 668.41 130C670.266 132.016 671.194 134.8 671.194 138.352V154H663.034V139.456C663.034 137.664 662.57 136.272 661.642 135.28C660.714 134.288 659.466 133.792 657.898 133.792C656.33 133.792 655.082 134.288 654.154 135.28C653.226 136.272 652.762 137.664 652.762 139.456V154H644.554V118.48H652.762V130.816C653.594 129.632 654.73 128.688 656.17 127.984C657.61 127.28 659.226 126.928 661.018 126.928ZM681.026 124.432C679.586 124.432 678.402 124.016 677.474 123.184C676.578 122.32 676.13 121.264 676.13 120.016C676.13 118.736 676.578 117.68 677.474 116.848C678.402 115.984 679.586 115.552 681.026 115.552C682.434 115.552 683.586 115.984 684.482 116.848C685.41 117.68 685.874 118.736 685.874 120.016C685.874 121.264 685.41 122.32 684.482 123.184C683.586 124.016 682.434 124.432 681.026 124.432ZM685.106 127.216V154H676.898V127.216H685.106ZM707.374 126.928C710.51 126.928 713.006 127.952 714.862 130C716.75 132.016 717.694 134.8 717.694 138.352V154H709.534V139.456C709.534 137.664 709.07 136.272 708.142 135.28C707.214 134.288 705.966 133.792 704.398 133.792C702.83 133.792 701.582 134.288 700.654 135.28C699.726 136.272 699.262 137.664 699.262 139.456V154H691.054V127.216H699.262V130.768C700.094 129.584 701.214 128.656 702.622 127.984C704.03 127.28 705.614 126.928 707.374 126.928ZM739.766 154L731.606 142.768V154H723.398V118.48H731.606V138.112L739.718 127.216H749.846L738.71 140.656L749.942 154H739.766ZM801.69 127.216L794.442 154H785.37L781.146 136.624L776.778 154H767.754L760.458 127.216H768.666L772.458 146.368L776.97 127.216H785.658L790.218 146.272L793.962 127.216H801.69ZM821.284 126.928C824.356 126.928 826.82 127.952 828.676 130C830.532 132.016 831.46 134.8 831.46 138.352V154H823.3V139.456C823.3 137.664 822.836 136.272 821.908 135.28C820.98 134.288 819.732 133.792 818.164 133.792C816.596 133.792 815.348 134.288 814.42 135.28C813.492 136.272 813.028 137.664 813.028 139.456V154H804.82V118.48H813.028V130.816C813.86 129.632 814.996 128.688 816.436 127.984C817.876 127.28 819.492 126.928 821.284 126.928ZM835.532 140.56C835.532 137.808 836.044 135.392 837.068 133.312C838.124 131.232 839.548 129.632 841.34 128.512C843.132 127.392 845.132 126.832 847.34 126.832C849.228 126.832 850.876 127.216 852.284 127.984C853.724 128.752 854.828 129.76 855.596 131.008V127.216H863.804V154H855.596V150.208C854.796 151.456 853.676 152.464 852.236 153.232C850.828 154 849.18 154.384 847.292 154.384C845.116 154.384 843.132 153.824 841.34 152.704C839.548 151.552 838.124 149.936 837.068 147.856C836.044 145.744 835.532 143.312 835.532 140.56ZM855.596 140.608C855.596 138.56 855.02 136.944 853.868 135.76C852.748 134.576 851.372 133.984 849.74 133.984C848.108 133.984 846.716 134.576 845.564 135.76C844.444 136.912 843.884 138.512 843.884 140.56C843.884 142.608 844.444 144.24 845.564 145.456C846.716 146.64 848.108 147.232 849.74 147.232C851.372 147.232 852.748 146.64 853.868 145.456C855.02 144.272 855.596 142.656 855.596 140.608ZM884.67 147.04V154H880.494C877.518 154 875.198 153.28 873.534 151.84C871.87 150.368 871.038 147.984 871.038 144.688V134.032H867.774V127.216H871.038V120.688H879.246V127.216H884.622V134.032H879.246V144.784C879.246 145.584 879.438 146.16 879.822 146.512C880.206 146.864 880.846 147.04 881.742 147.04H884.67ZM926.774 127.216L909.974 166.72H901.142L907.286 153.088L896.389 127.216H905.558L911.75 143.968L917.894 127.216H926.774ZM941.934 154.384C939.31 154.384 936.942 153.824 934.83 152.704C932.75 151.584 931.102 149.984 929.886 147.904C928.702 145.824 928.11 143.392 928.11 140.608C928.11 137.856 928.718 135.44 929.934 133.36C931.15 131.248 932.814 129.632 934.926 128.512C937.038 127.392 939.406 126.832 942.03 126.832C944.654 126.832 947.022 127.392 949.134 128.512C951.246 129.632 952.91 131.248 954.126 133.36C955.342 135.44 955.95 137.856 955.95 140.608C955.95 143.36 955.326 145.792 954.078 147.904C952.862 149.984 951.182 151.584 949.038 152.704C946.926 153.824 944.558 154.384 941.934 154.384ZM941.934 147.28C943.502 147.28 944.83 146.704 945.918 145.552C947.038 144.4 947.598 142.752 947.598 140.608C947.598 138.464 947.054 136.816 945.966 135.664C944.91 134.512 943.598 133.936 942.03 133.936C940.43 133.936 939.102 134.512 938.046 135.664C936.99 136.784 936.462 138.432 936.462 140.608C936.462 142.752 936.974 144.4 937.998 145.552C939.054 146.704 940.366 147.28 941.934 147.28ZM986.752 127.216V154H978.544V150.352C977.712 151.536 976.576 152.496 975.136 153.232C973.728 153.936 972.16 154.288 970.432 154.288C968.384 154.288 966.576 153.84 965.008 152.944C963.44 152.016 962.224 150.688 961.36 148.96C960.496 147.232 960.064 145.2 960.064 142.864V127.216H968.224V141.76C968.224 143.552 968.688 144.944 969.616 145.936C970.544 146.928 971.792 147.424 973.36 147.424C974.96 147.424 976.224 146.928 977.152 145.936C978.08 144.944 978.544 143.552 978.544 141.76V127.216H986.752ZM1041.27 127.216L1034.02 154H1024.95L1020.72 136.624L1016.36 154H1007.33L1000.04 127.216H1008.24L1012.04 146.368L1016.55 127.216H1025.24L1029.8 146.272L1033.54 127.216H1041.27ZM1042.77 140.56C1042.77 137.808 1043.28 135.392 1044.3 133.312C1045.36 131.232 1046.78 129.632 1048.57 128.512C1050.37 127.392 1052.37 126.832 1054.57 126.832C1056.46 126.832 1058.11 127.216 1059.52 127.984C1060.96 128.752 1062.06 129.76 1062.83 131.008V127.216H1071.04V154H1062.83V150.208C1062.03 151.456 1060.91 152.464 1059.47 153.232C1058.06 154 1056.41 154.384 1054.53 154.384C1052.35 154.384 1050.37 153.824 1048.57 152.704C1046.78 151.552 1045.36 149.936 1044.3 147.856C1043.28 145.744 1042.77 143.312 1042.77 140.56ZM1062.83 140.608C1062.83 138.56 1062.25 136.944 1061.1 135.76C1059.98 134.576 1058.61 133.984 1056.97 133.984C1055.34 133.984 1053.95 134.576 1052.8 135.76C1051.68 136.912 1051.12 138.512 1051.12 140.56C1051.12 142.608 1051.68 144.24 1052.8 145.456C1053.95 146.64 1055.34 147.232 1056.97 147.232C1058.61 147.232 1059.98 146.64 1061.1 145.456C1062.25 144.272 1062.83 142.656 1062.83 140.608ZM1093.3 126.928C1096.43 126.928 1098.93 127.952 1100.78 130C1102.67 132.016 1103.62 134.8 1103.62 138.352V154H1095.46V139.456C1095.46 137.664 1094.99 136.272 1094.06 135.28C1093.14 134.288 1091.89 133.792 1090.32 133.792C1088.75 133.792 1087.5 134.288 1086.58 135.28C1085.65 136.272 1085.18 137.664 1085.18 139.456V154H1076.98V127.216H1085.18V130.768C1086.02 129.584 1087.14 128.656 1088.54 127.984C1089.95 127.28 1091.54 126.928 1093.3 126.928ZM1124.25 147.04V154H1120.07C1117.1 154 1114.78 153.28 1113.11 151.84C1111.45 150.368 1110.62 147.984 1110.62 144.688V134.032H1107.35V127.216H1110.62V120.688H1118.82V127.216H1124.2V134.032H1118.82V144.784C1118.82 145.584 1119.02 146.16 1119.4 146.512C1119.78 146.864 1120.42 147.04 1121.32 147.04H1124.25Z" fill="white"/>
<path d="M489.956 211L486.636 205.3H484.436V211H482.616V197.06H487.116C488.169 197.06 489.056 197.24 489.776 197.6C490.509 197.96 491.056 198.447 491.416 199.06C491.776 199.673 491.956 200.373 491.956 201.16C491.956 202.12 491.676 202.967 491.116 203.7C490.569 204.433 489.742 204.92 488.636 205.16L492.136 211H489.956ZM484.436 203.84H487.116C488.102 203.84 488.842 203.6 489.336 203.12C489.829 202.627 490.076 201.973 490.076 201.16C490.076 200.333 489.829 199.693 489.336 199.24C488.856 198.787 488.116 198.56 487.116 198.56H484.436V203.84ZM504.814 205.1C504.814 205.447 504.794 205.813 504.754 206.2H495.994C496.06 207.28 496.427 208.127 497.094 208.74C497.774 209.34 498.594 209.64 499.554 209.64C500.34 209.64 500.994 209.46 501.514 209.1C502.047 208.727 502.42 208.233 502.634 207.62H504.594C504.3 208.673 503.714 209.533 502.834 210.2C501.954 210.853 500.86 211.18 499.554 211.18C498.514 211.18 497.58 210.947 496.754 210.48C495.94 210.013 495.3 209.353 494.834 208.5C494.367 207.633 494.134 206.633 494.134 205.5C494.134 204.367 494.36 203.373 494.814 202.52C495.267 201.667 495.9 201.013 496.714 200.56C497.54 200.093 498.487 199.86 499.554 199.86C500.594 199.86 501.514 200.087 502.314 200.54C503.114 200.993 503.727 201.62 504.154 202.42C504.594 203.207 504.814 204.1 504.814 205.1ZM502.934 204.72C502.934 204.027 502.78 203.433 502.474 202.94C502.167 202.433 501.747 202.053 501.214 201.8C500.694 201.533 500.114 201.4 499.474 201.4C498.554 201.4 497.767 201.693 497.114 202.28C496.474 202.867 496.107 203.68 496.014 204.72H502.934ZM506.566 205.48C506.566 204.36 506.793 203.38 507.246 202.54C507.699 201.687 508.319 201.027 509.106 200.56C509.906 200.093 510.799 199.86 511.786 199.86C512.733 199.86 513.559 200.073 514.266 200.5C514.986 200.913 515.513 201.427 515.846 202.04V200.04H517.686V216.2H515.846V208.98C515.499 209.593 514.966 210.113 514.246 210.54C513.526 210.967 512.686 211.18 511.726 211.18C510.766 211.18 509.893 210.94 509.106 210.46C508.319 209.98 507.699 209.307 507.246 208.44C506.793 207.573 506.566 206.587 506.566 205.48ZM515.846 205.5C515.846 204.673 515.679 203.953 515.346 203.34C515.013 202.727 514.559 202.26 513.986 201.94C513.426 201.607 512.806 201.44 512.126 201.44C511.446 201.44 510.826 201.6 510.266 201.92C509.706 202.24 509.259 202.707 508.926 203.32C508.593 203.933 508.426 204.653 508.426 205.48C508.426 206.32 508.593 207.053 508.926 207.68C509.259 208.293 509.706 208.767 510.266 209.1C510.826 209.42 511.446 209.58 512.126 209.58C512.806 209.58 513.426 209.42 513.986 209.1C514.559 208.767 515.013 208.293 515.346 207.68C515.679 207.053 515.846 206.327 515.846 205.5ZM530.511 200.04V211H528.691V209.38C528.345 209.94 527.858 210.38 527.231 210.7C526.618 211.007 525.938 211.16 525.191 211.16C524.338 211.16 523.571 210.987 522.891 210.64C522.211 210.28 521.671 209.747 521.271 209.04C520.885 208.333 520.691 207.473 520.691 206.46V200.04H522.491V206.22C522.491 207.3 522.765 208.133 523.311 208.72C523.858 209.293 524.605 209.58 525.551 209.58C526.525 209.58 527.291 209.28 527.851 208.68C528.411 208.08 528.691 207.207 528.691 206.06V200.04H530.511ZM543.614 205.1C543.614 205.447 543.594 205.813 543.554 206.2H534.794C534.861 207.28 535.228 208.127 535.894 208.74C536.574 209.34 537.394 209.64 538.354 209.64C539.141 209.64 539.794 209.46 540.314 209.1C540.848 208.727 541.221 208.233 541.434 207.62H543.394C543.101 208.673 542.514 209.533 541.634 210.2C540.754 210.853 539.661 211.18 538.354 211.18C537.314 211.18 536.381 210.947 535.554 210.48C534.741 210.013 534.101 209.353 533.634 208.5C533.168 207.633 532.934 206.633 532.934 205.5C532.934 204.367 533.161 203.373 533.614 202.52C534.068 201.667 534.701 201.013 535.514 200.56C536.341 200.093 537.288 199.86 538.354 199.86C539.394 199.86 540.314 200.087 541.114 200.54C541.914 200.993 542.528 201.62 542.954 202.42C543.394 203.207 543.614 204.1 543.614 205.1ZM541.734 204.72C541.734 204.027 541.581 203.433 541.274 202.94C540.968 202.433 540.548 202.053 540.014 201.8C539.494 201.533 538.914 201.4 538.274 201.4C537.354 201.4 536.568 201.693 535.914 202.28C535.274 202.867 534.908 203.68 534.814 204.72H541.734ZM549.927 211.18C549.087 211.18 548.333 211.04 547.667 210.76C547 210.467 546.473 210.067 546.087 209.56C545.7 209.04 545.487 208.447 545.447 207.78H547.327C547.38 208.327 547.633 208.773 548.087 209.12C548.553 209.467 549.16 209.64 549.907 209.64C550.6 209.64 551.147 209.487 551.547 209.18C551.947 208.873 552.147 208.487 552.147 208.02C552.147 207.54 551.933 207.187 551.507 206.96C551.08 206.72 550.42 206.487 549.527 206.26C548.713 206.047 548.047 205.833 547.527 205.62C547.02 205.393 546.58 205.067 546.207 204.64C545.847 204.2 545.667 203.627 545.667 202.92C545.667 202.36 545.833 201.847 546.167 201.38C546.5 200.913 546.973 200.547 547.587 200.28C548.2 200 548.9 199.86 549.687 199.86C550.9 199.86 551.88 200.167 552.627 200.78C553.373 201.393 553.773 202.233 553.827 203.3H552.007C551.967 202.727 551.733 202.267 551.307 201.92C550.893 201.573 550.333 201.4 549.627 201.4C548.973 201.4 548.453 201.54 548.067 201.82C547.68 202.1 547.487 202.467 547.487 202.92C547.487 203.28 547.6 203.58 547.827 203.82C548.067 204.047 548.36 204.233 548.707 204.38C549.067 204.513 549.56 204.667 550.187 204.84C550.973 205.053 551.613 205.267 552.107 205.48C552.6 205.68 553.02 205.987 553.367 206.4C553.727 206.813 553.913 207.353 553.927 208.02C553.927 208.62 553.76 209.16 553.427 209.64C553.093 210.12 552.62 210.5 552.007 210.78C551.407 211.047 550.713 211.18 549.927 211.18ZM558.746 201.54V208C558.746 208.533 558.859 208.913 559.086 209.14C559.313 209.353 559.706 209.46 560.266 209.46H561.606V211H559.966C558.953 211 558.193 210.767 557.686 210.3C557.179 209.833 556.926 209.067 556.926 208V201.54H555.506V200.04H556.926V197.28H558.746V200.04H561.606V201.54H558.746ZM570.983 197.06V205.88C570.983 207.12 571.283 208.04 571.883 208.64C572.497 209.24 573.343 209.54 574.423 209.54C575.49 209.54 576.323 209.24 576.923 208.64C577.537 208.04 577.843 207.12 577.843 205.88V197.06H579.663V205.86C579.663 207.02 579.43 208 578.963 208.8C578.497 209.587 577.863 210.173 577.063 210.56C576.277 210.947 575.39 211.14 574.403 211.14C573.417 211.14 572.523 210.947 571.723 210.56C570.937 210.173 570.31 209.587 569.843 208.8C569.39 208 569.163 207.02 569.163 205.86V197.06H570.983ZM583.669 198.26C583.323 198.26 583.029 198.14 582.789 197.9C582.549 197.66 582.429 197.367 582.429 197.02C582.429 196.673 582.549 196.38 582.789 196.14C583.029 195.9 583.323 195.78 583.669 195.78C584.003 195.78 584.283 195.9 584.509 196.14C584.749 196.38 584.869 196.673 584.869 197.02C584.869 197.367 584.749 197.66 584.509 197.9C584.283 198.14 584.003 198.26 583.669 198.26ZM584.549 200.04V211H582.729V200.04H584.549ZM599.163 211L594.863 206.16V211H593.043V196.2H594.863V204.9L599.083 200.04H601.623L596.463 205.5L601.643 211H599.163ZM604.306 198.26C603.96 198.26 603.666 198.14 603.426 197.9C603.186 197.66 603.066 197.367 603.066 197.02C603.066 196.673 603.186 196.38 603.426 196.14C603.666 195.9 603.96 195.78 604.306 195.78C604.64 195.78 604.92 195.9 605.146 196.14C605.386 196.38 605.506 196.673 605.506 197.02C605.506 197.367 605.386 197.66 605.146 197.9C604.92 198.14 604.64 198.26 604.306 198.26ZM605.186 200.04V211H603.366V200.04H605.186ZM610.538 201.54V208C610.538 208.533 610.651 208.913 610.878 209.14C611.105 209.353 611.498 209.46 612.058 209.46H613.398V211H611.758C610.745 211 609.985 210.767 609.478 210.3C608.971 209.833 608.718 209.067 608.718 208V201.54H607.298V200.04H608.718V197.28H610.538V200.04H613.398V201.54H610.538ZM617.513 208.48L615.273 213.86H614.053L615.513 208.48H617.513ZM626.81 197.06V211H624.99V197.06H626.81ZM631.762 196.2V211H629.942V196.2H631.762ZM644.614 200.04V211H642.794V209.38C642.447 209.94 641.96 210.38 641.334 210.7C640.72 211.007 640.04 211.16 639.294 211.16C638.44 211.16 637.674 210.987 636.994 210.64C636.314 210.28 635.774 209.747 635.374 209.04C634.987 208.333 634.794 207.473 634.794 206.46V200.04H636.594V206.22C636.594 207.3 636.867 208.133 637.414 208.72C637.96 209.293 638.707 209.58 639.654 209.58C640.627 209.58 641.394 209.28 641.954 208.68C642.514 208.08 642.794 207.207 642.794 206.06V200.04H644.614ZM651.597 211.18C650.757 211.18 650.003 211.04 649.337 210.76C648.67 210.467 648.143 210.067 647.757 209.56C647.37 209.04 647.157 208.447 647.117 207.78H648.997C649.05 208.327 649.303 208.773 649.757 209.12C650.223 209.467 650.83 209.64 651.577 209.64C652.27 209.64 652.817 209.487 653.217 209.18C653.617 208.873 653.817 208.487 653.817 208.02C653.817 207.54 653.603 207.187 653.177 206.96C652.75 206.72 652.09 206.487 651.197 206.26C650.383 206.047 649.717 205.833 649.197 205.62C648.69 205.393 648.25 205.067 647.877 204.64C647.517 204.2 647.337 203.627 647.337 202.92C647.337 202.36 647.503 201.847 647.837 201.38C648.17 200.913 648.643 200.547 649.257 200.28C649.87 200 650.57 199.86 651.357 199.86C652.57 199.86 653.55 200.167 654.297 200.78C655.043 201.393 655.443 202.233 655.497 203.3H653.677C653.637 202.727 653.403 202.267 652.977 201.92C652.563 201.573 652.003 201.4 651.297 201.4C650.643 201.4 650.123 201.54 649.737 201.82C649.35 202.1 649.157 202.467 649.157 202.92C649.157 203.28 649.27 203.58 649.497 203.82C649.737 204.047 650.03 204.233 650.377 204.38C650.737 204.513 651.23 204.667 651.857 204.84C652.643 205.053 653.283 205.267 653.777 205.48C654.27 205.68 654.69 205.987 655.037 206.4C655.397 206.813 655.583 207.353 655.597 208.02C655.597 208.62 655.43 209.16 655.097 209.64C654.763 210.12 654.29 210.5 653.677 210.78C653.077 211.047 652.383 211.18 651.597 211.18ZM660.416 201.54V208C660.416 208.533 660.529 208.913 660.756 209.14C660.983 209.353 661.376 209.46 661.936 209.46H663.276V211H661.636C660.623 211 659.863 210.767 659.356 210.3C658.849 209.833 658.596 209.067 658.596 208V201.54H657.176V200.04H658.596V197.28H660.416V200.04H663.276V201.54H660.416ZM667.331 201.82C667.651 201.193 668.105 200.707 668.691 200.36C669.291 200.013 670.018 199.84 670.871 199.84V201.72H670.391C668.351 201.72 667.331 202.827 667.331 205.04V211H665.511V200.04H667.331V201.82ZM672.322 205.48C672.322 204.36 672.549 203.38 673.002 202.54C673.455 201.687 674.075 201.027 674.862 200.56C675.662 200.093 676.549 199.86 677.522 199.86C678.482 199.86 679.315 200.067 680.022 200.48C680.729 200.893 681.255 201.413 681.602 202.04V200.04H683.442V211H681.602V208.96C681.242 209.6 680.702 210.133 679.982 210.56C679.275 210.973 678.449 211.18 677.502 211.18C676.529 211.18 675.649 210.94 674.862 210.46C674.075 209.98 673.455 209.307 673.002 208.44C672.549 207.573 672.322 206.587 672.322 205.48ZM681.602 205.5C681.602 204.673 681.435 203.953 681.102 203.34C680.769 202.727 680.315 202.26 679.742 201.94C679.182 201.607 678.562 201.44 677.882 201.44C677.202 201.44 676.582 201.6 676.022 201.92C675.462 202.24 675.015 202.707 674.682 203.32C674.349 203.933 674.182 204.653 674.182 205.48C674.182 206.32 674.349 207.053 674.682 207.68C675.015 208.293 675.462 208.767 676.022 209.1C676.582 209.42 677.202 209.58 677.882 209.58C678.562 209.58 679.182 209.42 679.742 209.1C680.315 208.767 680.769 208.293 681.102 207.68C681.435 207.053 681.602 206.327 681.602 205.5ZM688.768 201.54V208C688.768 208.533 688.881 208.913 689.108 209.14C689.334 209.353 689.728 209.46 690.288 209.46H691.628V211H689.988C688.974 211 688.214 210.767 687.708 210.3C687.201 209.833 686.948 209.067 686.948 208V201.54H685.528V200.04H686.948V197.28H688.768V200.04H691.628V201.54H688.768ZM694.803 198.26C694.456 198.26 694.163 198.14 693.923 197.9C693.683 197.66 693.563 197.367 693.563 197.02C693.563 196.673 693.683 196.38 693.923 196.14C694.163 195.9 694.456 195.78 694.803 195.78C695.136 195.78 695.416 195.9 695.643 196.14C695.883 196.38 696.003 196.673 696.003 197.02C696.003 197.367 695.883 197.66 695.643 197.9C695.416 198.14 695.136 198.26 694.803 198.26ZM695.683 200.04V211H693.863V200.04H695.683ZM703.595 211.18C702.568 211.18 701.635 210.947 700.795 210.48C699.968 210.013 699.315 209.353 698.835 208.5C698.368 207.633 698.135 206.633 698.135 205.5C698.135 204.38 698.375 203.393 698.855 202.54C699.348 201.673 700.015 201.013 700.855 200.56C701.695 200.093 702.635 199.86 703.675 199.86C704.715 199.86 705.655 200.093 706.495 200.56C707.335 201.013 707.995 201.667 708.475 202.52C708.968 203.373 709.215 204.367 709.215 205.5C709.215 206.633 708.961 207.633 708.455 208.5C707.961 209.353 707.288 210.013 706.435 210.48C705.581 210.947 704.635 211.18 703.595 211.18ZM703.595 209.58C704.248 209.58 704.861 209.427 705.435 209.12C706.008 208.813 706.468 208.353 706.815 207.74C707.175 207.127 707.355 206.38 707.355 205.5C707.355 204.62 707.181 203.873 706.835 203.26C706.488 202.647 706.035 202.193 705.475 201.9C704.915 201.593 704.308 201.44 703.655 201.44C702.988 201.44 702.375 201.593 701.815 201.9C701.268 202.193 700.828 202.647 700.495 203.26C700.161 203.873 699.995 204.62 699.995 205.5C699.995 206.393 700.155 207.147 700.475 207.76C700.808 208.373 701.248 208.833 701.795 209.14C702.341 209.433 702.941 209.58 703.595 209.58ZM716.978 199.84C718.311 199.84 719.391 200.247 720.218 201.06C721.044 201.86 721.458 203.02 721.458 204.54V211H719.658V204.8C719.658 203.707 719.384 202.873 718.838 202.3C718.291 201.713 717.544 201.42 716.598 201.42C715.638 201.42 714.871 201.72 714.298 202.32C713.738 202.92 713.458 203.793 713.458 204.94V211H711.638V200.04H713.458V201.6C713.818 201.04 714.304 200.607 714.918 200.3C715.544 199.993 716.231 199.84 716.978 199.84ZM726.341 208.48L724.101 213.86H722.881L724.341 208.48H726.341ZM738.238 211.14C737.318 211.14 736.491 210.98 735.758 210.66C735.038 210.327 734.471 209.873 734.058 209.3C733.644 208.713 733.431 208.04 733.418 207.28H735.358C735.424 207.933 735.691 208.487 736.158 208.94C736.638 209.38 737.331 209.6 738.238 209.6C739.104 209.6 739.784 209.387 740.278 208.96C740.784 208.52 741.038 207.96 741.038 207.28C741.038 206.747 740.891 206.313 740.598 205.98C740.304 205.647 739.938 205.393 739.498 205.22C739.058 205.047 738.464 204.86 737.718 204.66C736.798 204.42 736.058 204.18 735.498 203.94C734.951 203.7 734.478 203.327 734.078 202.82C733.691 202.3 733.498 201.607 733.498 200.74C733.498 199.98 733.691 199.307 734.078 198.72C734.464 198.133 735.004 197.68 735.698 197.36C736.404 197.04 737.211 196.88 738.118 196.88C739.424 196.88 740.491 197.207 741.318 197.86C742.158 198.513 742.631 199.38 742.738 200.46H740.738C740.671 199.927 740.391 199.46 739.898 199.06C739.404 198.647 738.751 198.44 737.938 198.44C737.178 198.44 736.558 198.64 736.078 199.04C735.598 199.427 735.358 199.973 735.358 200.68C735.358 201.187 735.498 201.6 735.778 201.92C736.071 202.24 736.424 202.487 736.838 202.66C737.264 202.82 737.858 203.007 738.618 203.22C739.538 203.473 740.278 203.727 740.838 203.98C741.398 204.22 741.878 204.6 742.278 205.12C742.678 205.627 742.878 206.32 742.878 207.2C742.878 207.88 742.698 208.52 742.338 209.12C741.978 209.72 741.444 210.207 740.738 210.58C740.031 210.953 739.198 211.14 738.238 211.14ZM750.366 211.18C749.339 211.18 748.406 210.947 747.566 210.48C746.739 210.013 746.086 209.353 745.606 208.5C745.139 207.633 744.906 206.633 744.906 205.5C744.906 204.38 745.146 203.393 745.626 202.54C746.119 201.673 746.786 201.013 747.626 200.56C748.466 200.093 749.406 199.86 750.446 199.86C751.486 199.86 752.426 200.093 753.266 200.56C754.106 201.013 754.766 201.667 755.246 202.52C755.739 203.373 755.986 204.367 755.986 205.5C755.986 206.633 755.733 207.633 755.226 208.5C754.733 209.353 754.059 210.013 753.206 210.48C752.353 210.947 751.406 211.18 750.366 211.18ZM750.366 209.58C751.019 209.58 751.633 209.427 752.206 209.12C752.779 208.813 753.239 208.353 753.586 207.74C753.946 207.127 754.126 206.38 754.126 205.5C754.126 204.62 753.953 203.873 753.606 203.26C753.259 202.647 752.806 202.193 752.246 201.9C751.686 201.593 751.079 201.44 750.426 201.44C749.759 201.44 749.146 201.593 748.586 201.9C748.039 202.193 747.599 202.647 747.266 203.26C746.933 203.873 746.766 204.62 746.766 205.5C746.766 206.393 746.926 207.147 747.246 207.76C747.579 208.373 748.019 208.833 748.566 209.14C749.113 209.433 749.713 209.58 750.366 209.58ZM768.129 200.04V211H766.309V209.38C765.962 209.94 765.476 210.38 764.849 210.7C764.236 211.007 763.556 211.16 762.809 211.16C761.956 211.16 761.189 210.987 760.509 210.64C759.829 210.28 759.289 209.747 758.889 209.04C758.502 208.333 758.309 207.473 758.309 206.46V200.04H760.109V206.22C760.109 207.3 760.382 208.133 760.929 208.72C761.476 209.293 762.222 209.58 763.169 209.58C764.142 209.58 764.909 209.28 765.469 208.68C766.029 208.08 766.309 207.207 766.309 206.06V200.04H768.129ZM773.052 201.82C773.372 201.193 773.825 200.707 774.412 200.36C775.012 200.013 775.738 199.84 776.592 199.84V201.72H776.112C774.072 201.72 773.052 202.827 773.052 205.04V211H771.232V200.04H773.052V201.82ZM778.043 205.5C778.043 204.367 778.269 203.38 778.723 202.54C779.176 201.687 779.803 201.027 780.603 200.56C781.416 200.093 782.343 199.86 783.383 199.86C784.729 199.86 785.836 200.187 786.703 200.84C787.583 201.493 788.163 202.4 788.443 203.56H786.483C786.296 202.893 785.929 202.367 785.383 201.98C784.849 201.593 784.183 201.4 783.383 201.4C782.343 201.4 781.503 201.76 780.863 202.48C780.223 203.187 779.903 204.193 779.903 205.5C779.903 206.82 780.223 207.84 780.863 208.56C781.503 209.28 782.343 209.64 783.383 209.64C784.183 209.64 784.849 209.453 785.383 209.08C785.916 208.707 786.283 208.173 786.483 207.48H788.443C788.149 208.6 787.563 209.5 786.683 210.18C785.803 210.847 784.703 211.18 783.383 211.18C782.343 211.18 781.416 210.947 780.603 210.48C779.803 210.013 779.176 209.353 778.723 208.5C778.269 207.647 778.043 206.647 778.043 205.5ZM800.901 205.1C800.901 205.447 800.881 205.813 800.841 206.2H792.081C792.148 207.28 792.514 208.127 793.181 208.74C793.861 209.34 794.681 209.64 795.641 209.64C796.428 209.64 797.081 209.46 797.601 209.1C798.134 208.727 798.508 208.233 798.721 207.62H800.681C800.388 208.673 799.801 209.533 798.921 210.2C798.041 210.853 796.948 211.18 795.641 211.18C794.601 211.18 793.668 210.947 792.841 210.48C792.028 210.013 791.388 209.353 790.921 208.5C790.454 207.633 790.221 206.633 790.221 205.5C790.221 204.367 790.448 203.373 790.901 202.52C791.354 201.667 791.988 201.013 792.801 200.56C793.628 200.093 794.574 199.86 795.641 199.86C796.681 199.86 797.601 200.087 798.401 200.54C799.201 200.993 799.814 201.62 800.241 202.42C800.681 203.207 800.901 204.1 800.901 205.1ZM799.021 204.72C799.021 204.027 798.868 203.433 798.561 202.94C798.254 202.433 797.834 202.053 797.301 201.8C796.781 201.533 796.201 201.4 795.561 201.4C794.641 201.4 793.854 201.693 793.201 202.28C792.561 202.867 792.194 203.68 792.101 204.72H799.021ZM808.016 205.5C808.016 204.367 808.242 203.38 808.696 202.54C809.149 201.687 809.776 201.027 810.576 200.56C811.389 200.093 812.316 199.86 813.356 199.86C814.702 199.86 815.809 200.187 816.676 200.84C817.556 201.493 818.136 202.4 818.416 203.56H816.456C816.269 202.893 815.902 202.367 815.356 201.98C814.822 201.593 814.156 201.4 813.356 201.4C812.316 201.4 811.476 201.76 810.836 202.48C810.196 203.187 809.876 204.193 809.876 205.5C809.876 206.82 810.196 207.84 810.836 208.56C811.476 209.28 812.316 209.64 813.356 209.64C814.156 209.64 814.822 209.453 815.356 209.08C815.889 208.707 816.256 208.173 816.456 207.48H818.416C818.122 208.6 817.536 209.5 816.656 210.18C815.776 210.847 814.676 211.18 813.356 211.18C812.316 211.18 811.389 210.947 810.576 210.48C809.776 210.013 809.149 209.353 808.696 208.5C808.242 207.647 808.016 206.647 808.016 205.5ZM825.654 211.18C824.627 211.18 823.694 210.947 822.854 210.48C822.027 210.013 821.374 209.353 820.894 208.5C820.427 207.633 820.194 206.633 820.194 205.5C820.194 204.38 820.434 203.393 820.914 202.54C821.407 201.673 822.074 201.013 822.914 200.56C823.754 200.093 824.694 199.86 825.734 199.86C826.774 199.86 827.714 200.093 828.554 200.56C829.394 201.013 830.054 201.667 830.534 202.52C831.027 203.373 831.274 204.367 831.274 205.5C831.274 206.633 831.021 207.633 830.514 208.5C830.021 209.353 829.347 210.013 828.494 210.48C827.641 210.947 826.694 211.18 825.654 211.18ZM825.654 209.58C826.307 209.58 826.921 209.427 827.494 209.12C828.067 208.813 828.527 208.353 828.874 207.74C829.234 207.127 829.414 206.38 829.414 205.5C829.414 204.62 829.241 203.873 828.894 203.26C828.547 202.647 828.094 202.193 827.534 201.9C826.974 201.593 826.367 201.44 825.714 201.44C825.047 201.44 824.434 201.593 823.874 201.9C823.327 202.193 822.887 202.647 822.554 203.26C822.221 203.873 822.054 204.62 822.054 205.5C822.054 206.393 822.214 207.147 822.534 207.76C822.867 208.373 823.307 208.833 823.854 209.14C824.401 209.433 825.001 209.58 825.654 209.58ZM833.017 205.48C833.017 204.36 833.244 203.38 833.697 202.54C834.15 201.687 834.77 201.027 835.557 200.56C836.357 200.093 837.25 199.86 838.237 199.86C839.09 199.86 839.884 200.06 840.617 200.46C841.35 200.847 841.91 201.36 842.297 202V196.2H844.137V211H842.297V208.94C841.937 209.593 841.404 210.133 840.697 210.56C839.99 210.973 839.164 211.18 838.217 211.18C837.244 211.18 836.357 210.94 835.557 210.46C834.77 209.98 834.15 209.307 833.697 208.44C833.244 207.573 833.017 206.587 833.017 205.48ZM842.297 205.5C842.297 204.673 842.13 203.953 841.797 203.34C841.464 202.727 841.01 202.26 840.437 201.94C839.877 201.607 839.257 201.44 838.577 201.44C837.897 201.44 837.277 201.6 836.717 201.92C836.157 202.24 835.71 202.707 835.377 203.32C835.044 203.933 834.877 204.653 834.877 205.48C834.877 206.32 835.044 207.053 835.377 207.68C835.71 208.293 836.157 208.767 836.717 209.1C837.277 209.42 837.897 209.58 838.577 209.58C839.257 209.58 839.877 209.42 840.437 209.1C841.01 208.767 841.464 208.293 841.797 207.68C842.13 207.053 842.297 206.327 842.297 205.5ZM857.243 205.1C857.243 205.447 857.223 205.813 857.183 206.2H848.423C848.489 207.28 848.856 208.127 849.523 208.74C850.203 209.34 851.023 209.64 851.983 209.64C852.769 209.64 853.423 209.46 853.943 209.1C854.476 208.727 854.849 208.233 855.063 207.62H857.023C856.729 208.673 856.143 209.533 855.263 210.2C854.383 210.853 853.289 211.18 851.983 211.18C850.943 211.18 850.009 210.947 849.183 210.48C848.369 210.013 847.729 209.353 847.263 208.5C846.796 207.633 846.563 206.633 846.563 205.5C846.563 204.367 846.789 203.373 847.243 202.52C847.696 201.667 848.329 201.013 849.143 200.56C849.969 200.093 850.916 199.86 851.983 199.86C853.023 199.86 853.943 200.087 854.743 200.54C855.543 200.993 856.156 201.62 856.583 202.42C857.023 203.207 857.243 204.1 857.243 205.1ZM855.363 204.72C855.363 204.027 855.209 203.433 854.903 202.94C854.596 202.433 854.176 202.053 853.643 201.8C853.123 201.533 852.543 201.4 851.903 201.4C850.983 201.4 850.196 201.693 849.543 202.28C848.903 202.867 848.536 203.68 848.443 204.72H855.363ZM879.637 200.04L876.217 211H874.337L871.697 202.3L869.057 211H867.177L863.737 200.04H865.597L868.117 209.24L870.837 200.04H872.697L875.357 209.26L877.837 200.04H879.637ZM886.913 199.84C887.74 199.84 888.487 200.02 889.153 200.38C889.82 200.727 890.34 201.253 890.713 201.96C891.1 202.667 891.293 203.527 891.293 204.54V211H889.493V204.8C889.493 203.707 889.22 202.873 888.673 202.3C888.127 201.713 887.38 201.42 886.433 201.42C885.473 201.42 884.707 201.72 884.133 202.32C883.573 202.92 883.293 203.793 883.293 204.94V211H881.473V196.2H883.293V201.6C883.653 201.04 884.147 200.607 884.773 200.3C885.413 199.993 886.127 199.84 886.913 199.84ZM893.616 205.48C893.616 204.36 893.843 203.38 894.296 202.54C894.749 201.687 895.369 201.027 896.156 200.56C896.956 200.093 897.843 199.86 898.816 199.86C899.776 199.86 900.609 200.067 901.316 200.48C902.023 200.893 902.549 201.413 902.896 202.04V200.04H904.736V211H902.896V208.96C902.536 209.6 901.996 210.133 901.276 210.56C900.569 210.973 899.743 211.18 898.796 211.18C897.823 211.18 896.943 210.94 896.156 210.46C895.369 209.98 894.749 209.307 894.296 208.44C893.843 207.573 893.616 206.587 893.616 205.48ZM902.896 205.5C902.896 204.673 902.729 203.953 902.396 203.34C902.063 202.727 901.609 202.26 901.036 201.94C900.476 201.607 899.856 201.44 899.176 201.44C898.496 201.44 897.876 201.6 897.316 201.92C896.756 202.24 896.309 202.707 895.976 203.32C895.643 203.933 895.476 204.653 895.476 205.48C895.476 206.32 895.643 207.053 895.976 207.68C896.309 208.293 896.756 208.767 897.316 209.1C897.876 209.42 898.496 209.58 899.176 209.58C899.856 209.58 900.476 209.42 901.036 209.1C901.609 208.767 902.063 208.293 902.396 207.68C902.729 207.053 902.896 206.327 902.896 205.5ZM910.062 201.54V208C910.062 208.533 910.175 208.913 910.402 209.14C910.628 209.353 911.022 209.46 911.582 209.46H912.922V211H911.282C910.268 211 909.508 210.767 909.002 210.3C908.495 209.833 908.242 209.067 908.242 208V201.54H906.822V200.04H908.242V197.28H910.062V200.04H912.922V201.54H910.062ZM929.959 200.04L923.359 216.16H921.479L923.639 210.88L919.219 200.04H921.239L924.679 208.92L928.079 200.04H929.959ZM936.599 211.18C935.572 211.18 934.639 210.947 933.799 210.48C932.972 210.013 932.319 209.353 931.839 208.5C931.372 207.633 931.139 206.633 931.139 205.5C931.139 204.38 931.379 203.393 931.859 202.54C932.352 201.673 933.019 201.013 933.859 200.56C934.699 200.093 935.639 199.86 936.679 199.86C937.719 199.86 938.659 200.093 939.499 200.56C940.339 201.013 940.999 201.667 941.479 202.52C941.972 203.373 942.219 204.367 942.219 205.5C942.219 206.633 941.965 207.633 941.459 208.5C940.965 209.353 940.292 210.013 939.439 210.48C938.585 210.947 937.639 211.18 936.599 211.18ZM936.599 209.58C937.252 209.58 937.865 209.427 938.439 209.12C939.012 208.813 939.472 208.353 939.819 207.74C940.179 207.127 940.359 206.38 940.359 205.5C940.359 204.62 940.185 203.873 939.839 203.26C939.492 202.647 939.039 202.193 938.479 201.9C937.919 201.593 937.312 201.44 936.659 201.44C935.992 201.44 935.379 201.593 934.819 201.9C934.272 202.193 933.832 202.647 933.499 203.26C933.165 203.873 932.999 204.62 932.999 205.5C932.999 206.393 933.159 207.147 933.479 207.76C933.812 208.373 934.252 208.833 934.799 209.14C935.345 209.433 935.945 209.58 936.599 209.58ZM954.362 200.04V211H952.542V209.38C952.195 209.94 951.708 210.38 951.082 210.7C950.468 211.007 949.788 211.16 949.042 211.16C948.188 211.16 947.422 210.987 946.742 210.64C946.062 210.28 945.522 209.747 945.122 209.04C944.735 208.333 944.542 207.473 944.542 206.46V200.04H946.342V206.22C946.342 207.3 946.615 208.133 947.162 208.72C947.708 209.293 948.455 209.58 949.402 209.58C950.375 209.58 951.142 209.28 951.702 208.68C952.262 208.08 952.542 207.207 952.542 206.06V200.04H954.362ZM605.915 230.04L602.495 241H600.615L597.975 232.3L595.335 241H593.455L590.015 230.04H591.875L594.395 239.24L597.115 230.04H598.975L601.635 239.26L604.115 230.04H605.915ZM607.072 235.48C607.072 234.36 607.298 233.38 607.752 232.54C608.205 231.687 608.825 231.027 609.612 230.56C610.412 230.093 611.298 229.86 612.272 229.86C613.232 229.86 614.065 230.067 614.772 230.48C615.478 230.893 616.005 231.413 616.352 232.04V230.04H618.192V241H616.352V238.96C615.992 239.6 615.452 240.133 614.732 240.56C614.025 240.973 613.198 241.18 612.252 241.18C611.278 241.18 610.398 240.94 609.612 240.46C608.825 239.98 608.205 239.307 607.752 238.44C607.298 237.573 607.072 236.587 607.072 235.48ZM616.352 235.5C616.352 234.673 616.185 233.953 615.852 233.34C615.518 232.727 615.065 232.26 614.492 231.94C613.932 231.607 613.312 231.44 612.632 231.44C611.952 231.44 611.332 231.6 610.772 231.92C610.212 232.24 609.765 232.707 609.432 233.32C609.098 233.933 608.932 234.653 608.932 235.48C608.932 236.32 609.098 237.053 609.432 237.68C609.765 238.293 610.212 238.767 610.772 239.1C611.332 239.42 611.952 239.58 612.632 239.58C613.312 239.58 613.932 239.42 614.492 239.1C615.065 238.767 615.518 238.293 615.852 237.68C616.185 237.053 616.352 236.327 616.352 235.5ZM626.637 229.84C627.971 229.84 629.051 230.247 629.877 231.06C630.704 231.86 631.117 233.02 631.117 234.54V241H629.317V234.8C629.317 233.707 629.044 232.873 628.497 232.3C627.951 231.713 627.204 231.42 626.257 231.42C625.297 231.42 624.531 231.72 623.957 232.32C623.397 232.92 623.117 233.793 623.117 234.94V241H621.297V230.04H623.117V231.6C623.477 231.04 623.964 230.607 624.577 230.3C625.204 229.993 625.891 229.84 626.637 229.84ZM636.34 231.54V238C636.34 238.533 636.454 238.913 636.68 239.14C636.907 239.353 637.3 239.46 637.86 239.46H639.2V241H637.56C636.547 241 635.787 240.767 635.28 240.3C634.774 239.833 634.52 239.067 634.52 238V231.54H633.1V230.04H634.52V227.28H636.34V230.04H639.2V231.54H636.34ZM651.257 231.54H648.957V241H647.137V231.54H645.717V230.04H647.137V229.26C647.137 228.033 647.451 227.14 648.077 226.58C648.717 226.007 649.737 225.72 651.137 225.72V227.24C650.337 227.24 649.771 227.4 649.437 227.72C649.117 228.027 648.957 228.54 648.957 229.26V230.04H651.257V231.54ZM658.189 241.18C657.163 241.18 656.229 240.947 655.389 240.48C654.563 240.013 653.909 239.353 653.429 238.5C652.963 237.633 652.729 236.633 652.729 235.5C652.729 234.38 652.969 233.393 653.449 232.54C653.943 231.673 654.609 231.013 655.449 230.56C656.289 230.093 657.229 229.86 658.269 229.86C659.309 229.86 660.249 230.093 661.089 230.56C661.929 231.013 662.589 231.667 663.069 232.52C663.563 233.373 663.809 234.367 663.809 235.5C663.809 236.633 663.556 237.633 663.049 238.5C662.556 239.353 661.883 240.013 661.029 240.48C660.176 240.947 659.229 241.18 658.189 241.18ZM658.189 239.58C658.843 239.58 659.456 239.427 660.029 239.12C660.603 238.813 661.063 238.353 661.409 237.74C661.769 237.127 661.949 236.38 661.949 235.5C661.949 234.62 661.776 233.873 661.429 233.26C661.083 232.647 660.629 232.193 660.069 231.9C659.509 231.593 658.903 231.44 658.249 231.44C657.583 231.44 656.969 231.593 656.409 231.9C655.863 232.193 655.423 232.647 655.089 233.26C654.756 233.873 654.589 234.62 654.589 235.5C654.589 236.393 654.749 237.147 655.069 237.76C655.403 238.373 655.843 238.833 656.389 239.14C656.936 239.433 657.536 239.58 658.189 239.58ZM668.052 231.82C668.372 231.193 668.826 230.707 669.412 230.36C670.012 230.013 670.739 229.84 671.592 229.84V231.72H671.112C669.072 231.72 668.052 232.827 668.052 235.04V241H666.232V230.04H668.052V231.82ZM688.525 230.04L681.925 246.16H680.045L682.205 240.88L677.785 230.04H679.805L683.245 238.92L686.645 230.04H688.525ZM695.165 241.18C694.138 241.18 693.205 240.947 692.365 240.48C691.538 240.013 690.885 239.353 690.405 238.5C689.938 237.633 689.705 236.633 689.705 235.5C689.705 234.38 689.945 233.393 690.425 232.54C690.918 231.673 691.585 231.013 692.425 230.56C693.265 230.093 694.205 229.86 695.245 229.86C696.285 229.86 697.225 230.093 698.065 230.56C698.905 231.013 699.565 231.667 700.045 232.52C700.538 233.373 700.785 234.367 700.785 235.5C700.785 236.633 700.532 237.633 700.025 238.5C699.532 239.353 698.858 240.013 698.005 240.48C697.152 240.947 696.205 241.18 695.165 241.18ZM695.165 239.58C695.818 239.58 696.432 239.427 697.005 239.12C697.578 238.813 698.038 238.353 698.385 237.74C698.745 237.127 698.925 236.38 698.925 235.5C698.925 234.62 698.752 233.873 698.405 233.26C698.058 232.647 697.605 232.193 697.045 231.9C696.485 231.593 695.878 231.44 695.225 231.44C694.558 231.44 693.945 231.593 693.385 231.9C692.838 232.193 692.398 232.647 692.065 233.26C691.732 233.873 691.565 234.62 691.565 235.5C691.565 236.393 691.725 237.147 692.045 237.76C692.378 238.373 692.818 238.833 693.365 239.14C693.912 239.433 694.512 239.58 695.165 239.58ZM712.928 230.04V241H711.108V239.38C710.761 239.94 710.275 240.38 709.648 240.7C709.035 241.007 708.355 241.16 707.608 241.16C706.755 241.16 705.988 240.987 705.308 240.64C704.628 240.28 704.088 239.747 703.688 239.04C703.301 238.333 703.108 237.473 703.108 236.46V230.04H704.908V236.22C704.908 237.3 705.181 238.133 705.728 238.72C706.275 239.293 707.021 239.58 707.968 239.58C708.941 239.58 709.708 239.28 710.268 238.68C710.828 238.08 711.108 237.207 711.108 236.06V230.04H712.928ZM717.851 231.82C718.171 231.193 718.624 230.707 719.211 230.36C719.811 230.013 720.538 229.84 721.391 229.84V231.72H720.911C718.871 231.72 717.851 232.827 717.851 235.04V241H716.031V230.04H717.851V231.82ZM730.704 232.08C731.077 231.427 731.624 230.893 732.344 230.48C733.064 230.067 733.884 229.86 734.804 229.86C735.79 229.86 736.677 230.093 737.464 230.56C738.25 231.027 738.87 231.687 739.324 232.54C739.777 233.38 740.004 234.36 740.004 235.48C740.004 236.587 739.777 237.573 739.324 238.44C738.87 239.307 738.244 239.98 737.444 240.46C736.657 240.94 735.777 241.18 734.804 241.18C733.857 241.18 733.024 240.973 732.304 240.56C731.597 240.147 731.064 239.62 730.704 238.98V241H728.884V226.2H730.704V232.08ZM738.144 235.48C738.144 234.653 737.977 233.933 737.644 233.32C737.31 232.707 736.857 232.24 736.284 231.92C735.724 231.6 735.104 231.44 734.424 231.44C733.757 231.44 733.137 231.607 732.564 231.94C732.004 232.26 731.55 232.733 731.204 233.36C730.87 233.973 730.704 234.687 730.704 235.5C730.704 236.327 730.87 237.053 731.204 237.68C731.55 238.293 732.004 238.767 732.564 239.1C733.137 239.42 733.757 239.58 734.424 239.58C735.104 239.58 735.724 239.42 736.284 239.1C736.857 238.767 737.31 238.293 737.644 237.68C737.977 237.053 738.144 236.32 738.144 235.48ZM752.429 235.1C752.429 235.447 752.409 235.813 752.369 236.2H743.609C743.676 237.28 744.043 238.127 744.709 238.74C745.389 239.34 746.209 239.64 747.169 239.64C747.956 239.64 748.609 239.46 749.129 239.1C749.663 238.727 750.036 238.233 750.249 237.62H752.209C751.916 238.673 751.329 239.533 750.449 240.2C749.569 240.853 748.476 241.18 747.169 241.18C746.129 241.18 745.196 240.947 744.369 240.48C743.556 240.013 742.916 239.353 742.449 238.5C741.983 237.633 741.749 236.633 741.749 235.5C741.749 234.367 741.976 233.373 742.429 232.52C742.883 231.667 743.516 231.013 744.329 230.56C745.156 230.093 746.103 229.86 747.169 229.86C748.209 229.86 749.129 230.087 749.929 230.54C750.729 230.993 751.343 231.62 751.769 232.42C752.209 233.207 752.429 234.1 752.429 235.1ZM750.549 234.72C750.549 234.027 750.396 233.433 750.089 232.94C749.783 232.433 749.363 232.053 748.829 231.8C748.309 231.533 747.729 231.4 747.089 231.4C746.169 231.4 745.383 231.693 744.729 232.28C744.089 232.867 743.723 233.68 743.629 234.72H750.549ZM758.742 241.18C757.902 241.18 757.148 241.04 756.482 240.76C755.815 240.467 755.288 240.067 754.902 239.56C754.515 239.04 754.302 238.447 754.262 237.78H756.142C756.195 238.327 756.448 238.773 756.902 239.12C757.368 239.467 757.975 239.64 758.722 239.64C759.415 239.64 759.962 239.487 760.362 239.18C760.762 238.873 760.962 238.487 760.962 238.02C760.962 237.54 760.748 237.187 760.322 236.96C759.895 236.72 759.235 236.487 758.342 236.26C757.528 236.047 756.862 235.833 756.342 235.62C755.835 235.393 755.395 235.067 755.022 234.64C754.662 234.2 754.482 233.627 754.482 232.92C754.482 232.36 754.648 231.847 754.982 231.38C755.315 230.913 755.788 230.547 756.402 230.28C757.015 230 757.715 229.86 758.502 229.86C759.715 229.86 760.695 230.167 761.442 230.78C762.188 231.393 762.588 232.233 762.642 233.3H760.822C760.782 232.727 760.548 232.267 760.122 231.92C759.708 231.573 759.148 231.4 758.442 231.4C757.788 231.4 757.268 231.54 756.882 231.82C756.495 232.1 756.302 232.467 756.302 232.92C756.302 233.28 756.415 233.58 756.642 233.82C756.882 234.047 757.175 234.233 757.522 234.38C757.882 234.513 758.375 234.667 759.002 234.84C759.788 235.053 760.428 235.267 760.922 235.48C761.415 235.68 761.835 235.987 762.182 236.4C762.542 236.813 762.728 237.353 762.742 238.02C762.742 238.62 762.575 239.16 762.242 239.64C761.908 240.12 761.435 240.5 760.822 240.78C760.222 241.047 759.528 241.18 758.742 241.18ZM767.561 231.54V238C767.561 238.533 767.674 238.913 767.901 239.14C768.128 239.353 768.521 239.46 769.081 239.46H770.421V241H768.781C767.768 241 767.008 240.767 766.501 240.3C765.994 239.833 765.741 239.067 765.741 238V231.54H764.321V230.04H765.741V227.28H767.561V230.04H770.421V231.54H767.561ZM779.838 232.06C780.198 231.433 780.732 230.913 781.438 230.5C782.158 230.073 782.992 229.86 783.938 229.86C784.912 229.86 785.792 230.093 786.578 230.56C787.378 231.027 788.005 231.687 788.458 232.54C788.912 233.38 789.138 234.36 789.138 235.48C789.138 236.587 788.912 237.573 788.458 238.44C788.005 239.307 787.378 239.98 786.578 240.46C785.792 240.94 784.912 241.18 783.938 241.18C783.005 241.18 782.178 240.973 781.458 240.56C780.752 240.133 780.212 239.607 779.838 238.98V246.2H778.018V230.04H779.838V232.06ZM787.278 235.48C787.278 234.653 787.112 233.933 786.778 233.32C786.445 232.707 785.992 232.24 785.418 231.92C784.858 231.6 784.238 231.44 783.558 231.44C782.892 231.44 782.272 231.607 781.698 231.94C781.138 232.26 780.685 232.733 780.338 233.36C780.005 233.973 779.838 234.687 779.838 235.5C779.838 236.327 780.005 237.053 780.338 237.68C780.685 238.293 781.138 238.767 781.698 239.1C782.272 239.42 782.892 239.58 783.558 239.58C784.238 239.58 784.858 239.42 785.418 239.1C785.992 238.767 786.445 238.293 786.778 237.68C787.112 237.053 787.278 236.32 787.278 235.48ZM793.384 231.82C793.704 231.193 794.157 230.707 794.744 230.36C795.344 230.013 796.071 229.84 796.924 229.84V231.72H796.444C794.404 231.72 793.384 232.827 793.384 235.04V241H791.564V230.04H793.384V231.82ZM803.835 241.18C802.808 241.18 801.875 240.947 801.035 240.48C800.208 240.013 799.555 239.353 799.075 238.5C798.608 237.633 798.375 236.633 798.375 235.5C798.375 234.38 798.615 233.393 799.095 232.54C799.588 231.673 800.255 231.013 801.095 230.56C801.935 230.093 802.875 229.86 803.915 229.86C804.955 229.86 805.895 230.093 806.735 230.56C807.575 231.013 808.235 231.667 808.715 232.52C809.208 233.373 809.455 234.367 809.455 235.5C809.455 236.633 809.201 237.633 808.695 238.5C808.201 239.353 807.528 240.013 806.675 240.48C805.821 240.947 804.875 241.18 803.835 241.18ZM803.835 239.58C804.488 239.58 805.101 239.427 805.675 239.12C806.248 238.813 806.708 238.353 807.055 237.74C807.415 237.127 807.595 236.38 807.595 235.5C807.595 234.62 807.421 233.873 807.075 233.26C806.728 232.647 806.275 232.193 805.715 231.9C805.155 231.593 804.548 231.44 803.895 231.44C803.228 231.44 802.615 231.593 802.055 231.9C801.508 232.193 801.068 232.647 800.735 233.26C800.401 233.873 800.235 234.62 800.235 235.5C800.235 236.393 800.395 237.147 800.715 237.76C801.048 238.373 801.488 238.833 802.035 239.14C802.581 239.433 803.181 239.58 803.835 239.58ZM812.858 228.26C812.511 228.26 812.218 228.14 811.978 227.9C811.751 227.66 811.638 227.367 811.638 227.02C811.638 226.673 811.751 226.38 811.978 226.14C812.218 225.9 812.511 225.78 812.858 225.78C813.204 225.78 813.491 225.9 813.718 226.14C813.958 226.38 814.078 226.673 814.078 227.02C814.078 227.367 813.958 227.66 813.718 227.9C813.491 228.14 813.204 228.26 812.858 228.26ZM813.758 243.38C813.758 244.353 813.511 245.067 813.018 245.52C812.524 245.973 811.804 246.2 810.858 246.2H809.798V244.66H810.558C811.064 244.66 811.418 244.56 811.618 244.36C811.831 244.16 811.938 243.82 811.938 243.34V230.04H813.758V243.38ZM826.869 235.1C826.869 235.447 826.849 235.813 826.809 236.2H818.049C818.115 237.28 818.482 238.127 819.149 238.74C819.829 239.34 820.649 239.64 821.609 239.64C822.395 239.64 823.049 239.46 823.569 239.1C824.102 238.727 824.475 238.233 824.689 237.62H826.649C826.355 238.673 825.769 239.533 824.889 240.2C824.009 240.853 822.915 241.18 821.609 241.18C820.569 241.18 819.635 240.947 818.809 240.48C817.995 240.013 817.355 239.353 816.889 238.5C816.422 237.633 816.189 236.633 816.189 235.5C816.189 234.367 816.415 233.373 816.869 232.52C817.322 231.667 817.955 231.013 818.769 230.56C819.595 230.093 820.542 229.86 821.609 229.86C822.649 229.86 823.569 230.087 824.369 230.54C825.169 230.993 825.782 231.62 826.209 232.42C826.649 233.207 826.869 234.1 826.869 235.1ZM824.989 234.72C824.989 234.027 824.835 233.433 824.529 232.94C824.222 232.433 823.802 232.053 823.269 231.8C822.749 231.533 822.169 231.4 821.529 231.4C820.609 231.4 819.822 231.693 819.169 232.28C818.529 232.867 818.162 233.68 818.069 234.72H824.989ZM828.621 235.5C828.621 234.367 828.848 233.38 829.301 232.54C829.754 231.687 830.381 231.027 831.181 230.56C831.994 230.093 832.921 229.86 833.961 229.86C835.308 229.86 836.414 230.187 837.281 230.84C838.161 231.493 838.741 232.4 839.021 233.56H837.061C836.874 232.893 836.508 232.367 835.961 231.98C835.428 231.593 834.761 231.4 833.961 231.4C832.921 231.4 832.081 231.76 831.441 232.48C830.801 233.187 830.481 234.193 830.481 235.5C830.481 236.82 830.801 237.84 831.441 238.56C832.081 239.28 832.921 239.64 833.961 239.64C834.761 239.64 835.428 239.453 835.961 239.08C836.494 238.707 836.861 238.173 837.061 237.48H839.021C838.728 238.6 838.141 239.5 837.261 240.18C836.381 240.847 835.281 241.18 833.961 241.18C832.921 241.18 831.994 240.947 831.181 240.48C830.381 240.013 829.754 239.353 829.301 238.5C828.848 237.647 828.621 236.647 828.621 235.5ZM843.699 231.54V238C843.699 238.533 843.813 238.913 844.039 239.14C844.266 239.353 844.659 239.46 845.219 239.46H846.559V241H844.919C843.906 241 843.146 240.767 842.639 240.3C842.133 239.833 841.879 239.067 841.879 238V231.54H840.459V230.04H841.879V227.28H843.699V230.04H846.559V231.54H843.699Z" fill="white"/>
</g>
<defs>
<filter id="filter0_d" x="-63" y="158.356" width="670.091" height="212.865" filterUnits="userSpaceOnUse" color-interpolation-filters="sRGB">
<feFlood flood-opacity="0" result="BackgroundImageFix"/>
<feColorMatrix in="SourceAlpha" type="matrix" values="0 0 0 0 0 0 0 0 0 0 0 0 0 0 0 0 0 0 127 0"/>
<feOffset dy="-16"/>
<feGaussianBlur stdDeviation="11.5"/>
<feColorMatrix type="matrix" values="0 0 0 0 0.21816 0 0 0 0 0.22204 0 0 0 0 0.858333 0 0 0 0.3 0"/>
<feBlend mode="normal" in2="BackgroundImageFix" result="effect1_dropShadow"/>
<feBlend mode="normal" in="SourceGraphic" in2="effect1_dropShadow" result="shape"/>
</filter>
<filter id="filter1_d" x="924.5" y="-42.5" width="567" height="249.599" filterUnits="userSpaceOnUse" color-interpolation-filters="sRGB">
<feFlood flood-opacity="0" result="BackgroundImageFix"/>
<feColorMatrix in="SourceAlpha" type="matrix" values="0 0 0 0 0 0 0 0 0 0 0 0 0 0 0 0 0 0 127 0"/>
<feOffset dy="4"/>
<feGaussianBlur stdDeviation="12"/>
<feColorMatrix type="matrix" values="0 0 0 0 0 0 0 0 0 0 0 0 0 0 0 0 0 0 0.16 0"/>
<feBlend mode="normal" in2="BackgroundImageFix" result="effect1_dropShadow"/>
<feBlend mode="normal" in="SourceGraphic" in2="effect1_dropShadow" result="shape"/>
</filter>
<linearGradient id="paint0_linear" x1="1155" y1="230" x2="1246" y2="166" gradientUnits="userSpaceOnUse">
<stop stop-color="white"/>
<stop offset="1" stop-color="white" stop-opacity="0"/>
</linearGradient>
<linearGradient id="paint1_linear" x1="221.882" y1="88.7765" x2="312.882" y2="24.7765" gradientUnits="userSpaceOnUse">
<stop stop-color="white"/>
<stop offset="1" stop-color="white" stop-opacity="0"/>
</linearGradient>
<linearGradient id="paint2_linear" x1="194.882" y1="92.7765" x2="285.882" y2="28.7765" gradientUnits="userSpaceOnUse">
<stop stop-color="white"/>
<stop offset="1" stop-color="white" stop-opacity="0"/>
</linearGradient>
<linearGradient id="paint3_linear" x1="878.882" y1="325.777" x2="969.882" y2="261.777" gradientUnits="userSpaceOnUse">
<stop stop-color="white"/>
<stop offset="1" stop-color="white" stop-opacity="0"/>
</linearGradient>
<linearGradient id="paint4_linear" x1="629.882" y1="48.7765" x2="720.882" y2="-15.2235" gradientUnits="userSpaceOnUse">
<stop stop-color="white"/>
<stop offset="1" stop-color="white" stop-opacity="0"/>
</linearGradient>
<linearGradient id="paint5_linear" x1="307.882" y1="285.777" x2="398.882" y2="221.777" gradientUnits="userSpaceOnUse">
<stop stop-color="white"/>
<stop offset="1" stop-color="white" stop-opacity="0"/>
</linearGradient>
<linearGradient id="paint6_linear" x1="1143.88" y1="261.777" x2="1234.88" y2="197.777" gradientUnits="userSpaceOnUse">
<stop stop-color="white"/>
<stop offset="1" stop-color="white" stop-opacity="0"/>
</linearGradient>
</defs>
</svg>
