<svg width="1210" height="39" viewBox="0 0 1210 39" fill="none" xmlns="http://www.w3.org/2000/svg">
<path d="M507.451 14.0115C508.325 12.1821 509.696 10.6349 511.406 9.5459C513.08 8.50013 515.019 7.95731 516.993 7.98207C518.549 7.96388 520.088 8.31495 521.483 9.0065C522.773 9.63463 523.874 10.5906 524.678 11.7787V0.204879H532.321V33.2747H524.678V29.6997C523.938 30.9148 522.879 31.9039 521.617 32.5597C520.189 33.2973 518.599 33.6653 516.993 33.6301C515.016 33.6537 513.076 33.1032 511.406 32.0454C509.694 30.937 508.324 29.3732 507.451 27.5296C506.495 25.4046 506 23.1009 506 20.7706C506 18.4403 506.495 16.1365 507.451 14.0115ZM523.093 16.2945C522.594 15.7732 521.995 15.358 521.332 15.0735C520.668 14.789 519.954 14.6412 519.233 14.6389C518.511 14.6365 517.796 14.7797 517.131 15.0599C516.466 15.34 515.864 15.7514 515.362 16.2694C514.303 17.3565 513.773 18.8534 513.773 20.7601C513.773 22.6668 514.303 24.179 515.362 25.2968C515.859 25.8229 516.458 26.2419 517.123 26.5283C517.788 26.8147 518.504 26.9624 519.227 26.9624C519.951 26.9624 520.667 26.8147 521.332 26.5283C521.997 26.2419 522.596 25.8229 523.093 25.2968C524.152 24.1985 524.681 22.6946 524.678 20.7852C524.675 18.8757 524.147 17.3788 523.093 16.2945ZM561.231 22.6375H543.937C544.059 24.1902 544.558 25.3749 545.434 26.1916C546.311 27.0106 547.475 27.4521 548.674 27.4209C550.581 27.4209 551.906 26.6167 552.651 25.0083H560.787C560.376 26.6334 559.604 28.1453 558.529 29.4321C557.42 30.759 556.021 31.8133 554.44 32.5137C552.709 33.2772 550.834 33.658 548.942 33.6301C546.67 33.6728 544.425 33.1346 542.419 32.0663C540.528 31.0407 538.975 29.4879 537.949 27.5965C536.84 25.5084 536.285 23.1701 536.339 20.8061C536.286 18.4433 536.832 16.1055 537.928 14.0115C538.941 12.1201 540.486 10.5675 542.373 9.5459C544.387 8.52553 546.612 7.98998 548.869 7.982C551.127 7.97401 553.356 8.49379 555.377 9.49989C557.232 10.4904 558.761 11.9962 559.78 13.8359C560.871 15.8501 561.417 18.1144 561.364 20.4047C561.364 21.151 561.319 21.8966 561.231 22.6375ZM553.545 18.3935C553.571 17.8053 553.464 17.2188 553.232 16.6775C553.001 16.1361 552.65 15.6537 552.207 15.2659C551.274 14.4786 550.083 14.0645 548.862 14.1035C547.682 14.0685 546.53 14.4655 545.622 15.2199C544.704 16.0393 544.123 17.1702 543.991 18.3935H553.545ZM569.723 32.5137C568.146 31.8557 566.766 30.8014 565.717 29.453C564.741 28.1981 564.159 26.6819 564.045 25.0961H571.596C571.634 25.5108 571.762 25.9123 571.969 26.2731C572.177 26.634 572.461 26.9457 572.8 27.1868C573.566 27.7415 574.494 28.0255 575.439 27.9938C576.216 28.0404 576.989 27.8446 577.651 27.4335C577.893 27.2774 578.092 27.0624 578.228 26.8087C578.365 26.555 578.435 26.2708 578.432 25.9826C578.435 25.6345 578.329 25.2943 578.128 25.0095C577.928 24.7247 577.644 24.5094 577.316 24.3937C576.142 23.9161 574.931 23.5357 573.695 23.2564C572.177 22.9184 570.684 22.4783 569.225 21.9392C568.03 21.4773 566.968 20.7259 566.135 19.7524C565.271 18.7517 564.839 17.4039 564.839 15.7091C564.828 14.3148 565.24 12.9499 566.022 11.7954C566.896 10.552 568.105 9.58322 569.51 9.00231C571.242 8.2815 573.107 7.93252 574.983 7.97791C578.11 7.97791 580.576 8.75145 582.38 10.2985C584.189 11.8631 585.306 14.0804 585.486 16.4659H578.437C578.392 16.0656 578.268 15.6781 578.073 15.3258C577.878 14.9734 577.615 14.6631 577.299 14.4129C576.573 13.8823 575.689 13.614 574.791 13.6519C574.068 13.6059 573.349 13.7857 572.733 14.1662C572.5 14.318 572.31 14.5266 572.179 14.7724C572.049 15.0182 571.984 15.293 571.989 15.5711C571.991 15.9237 572.102 16.267 572.306 16.5543C572.51 16.8416 572.798 17.059 573.131 17.1768C574.274 17.655 575.464 18.015 576.68 18.2513C578.213 18.6286 579.721 19.0977 581.196 19.6563C582.385 20.1388 583.436 20.9072 584.257 21.8932C585.135 22.9218 585.589 24.2989 585.62 26.0244C585.639 27.4267 585.208 28.7982 584.391 29.938C583.488 31.1488 582.266 32.0841 580.862 32.6392C579.165 33.3252 577.347 33.6595 575.518 33.6218C573.53 33.6583 571.557 33.281 569.723 32.5137ZM626.425 31.8782C624.497 30.859 622.902 29.3095 621.826 27.4126C620.718 25.3236 620.139 22.995 620.139 20.6305C620.139 18.2659 620.718 15.9374 621.826 13.8484C622.915 11.9385 624.529 10.3802 626.476 9.35774C628.528 8.32945 630.792 7.79404 633.088 7.79404C635.384 7.79404 637.648 8.32945 639.701 9.35774C641.648 10.379 643.262 11.9376 644.351 13.8484C645.472 15.9287 646.058 18.2549 646.058 20.618C646.058 22.9811 645.472 25.3072 644.351 27.3875C643.242 29.3004 641.612 30.8581 639.651 31.8782C637.606 32.9292 635.334 33.4605 633.036 33.4253C630.738 33.4714 628.464 32.9394 626.425 31.8782ZM636.749 25.1881C637.773 24.1135 638.288 22.5832 638.288 20.5887C638.288 18.5942 637.79 17.0597 636.791 15.9893C636.316 15.4856 635.743 15.0843 635.107 14.81C634.472 14.5357 633.787 14.3942 633.094 14.3942C632.402 14.3942 631.717 14.5357 631.082 14.81C630.446 15.0843 629.873 15.4856 629.398 15.9893C628.411 17.0457 627.919 18.5872 627.922 20.6138C627.922 22.6124 628.407 24.1428 629.373 25.2132C629.826 25.7311 630.387 26.1435 631.016 26.4216C631.645 26.6997 632.327 26.8367 633.015 26.823C633.717 26.8285 634.413 26.6857 635.056 26.404C635.7 26.1223 636.277 25.7079 636.749 25.1881ZM650.062 13.7941C650.937 11.9634 652.307 10.4148 654.018 9.32428C655.693 8.28089 657.631 7.73829 659.604 7.76048C661.161 7.74166 662.701 8.09428 664.095 8.78909C665.384 9.41573 666.485 10.3703 667.289 11.5571V0H674.932V33.0698H667.289V29.4948C666.549 30.7099 665.491 31.699 664.228 32.3549C662.801 33.0938 661.211 33.4619 659.604 33.4253C657.628 33.4483 655.687 32.8978 654.018 31.8405C652.306 30.7326 650.937 29.1705 650.062 27.3289C649.06 25.2141 648.563 22.8951 648.611 20.5552C648.562 18.2246 649.059 15.9148 650.062 13.8108V13.7941ZM665.704 16.0729C665.205 15.5516 664.606 15.1364 663.943 14.8519C663.28 14.5674 662.566 14.4196 661.844 14.4173C661.122 14.4149 660.408 14.5581 659.743 14.8383C659.077 15.1184 658.476 15.5298 657.973 16.0478C656.915 17.1349 656.388 18.636 656.388 20.5385C656.388 22.441 656.915 23.9588 657.973 25.0752C658.469 25.6023 659.067 26.0228 659.731 26.311C660.394 26.5992 661.11 26.7491 661.833 26.7514C662.557 26.7538 663.273 26.6086 663.939 26.3247C664.605 26.0408 665.205 25.6242 665.704 25.1003C666.764 23.9853 667.292 22.48 667.289 20.5845C667.286 18.689 666.758 17.1907 665.704 16.0896V16.0729ZM703.846 22.4159H686.556C686.674 23.9686 687.173 25.1533 688.053 25.97C688.93 26.7893 690.094 27.2309 691.294 27.1993C693.196 27.1993 694.526 26.3923 695.27 24.7867H703.403C702.991 26.4118 702.22 27.9237 701.145 29.2105C700.036 30.5374 698.637 31.5917 697.056 32.2921C695.331 33.0592 693.461 33.4457 691.574 33.4253C689.301 33.4685 687.054 32.9302 685.047 31.8615C683.157 30.8361 681.604 29.285 680.577 27.3958C679.525 25.2869 678.975 22.9628 678.971 20.6058C678.968 18.2488 679.51 15.923 680.556 13.8108C681.569 11.9171 683.116 10.3628 685.005 9.34099C687.019 8.32063 689.244 7.7851 691.502 7.77712C693.759 7.76913 695.988 8.28891 698.009 9.29501C699.863 10.2856 701.391 11.7915 702.408 13.631C703.501 15.6448 704.048 17.9092 703.997 20.1998C703.989 20.9463 703.938 21.6918 703.846 22.4326V22.4159ZM696.173 18.1886C696.2 17.6003 696.093 17.0137 695.861 16.4722C695.63 15.9308 695.279 15.4484 694.835 15.061C693.902 14.2737 692.711 13.8596 691.49 13.8986C690.31 13.8636 689.158 14.2606 688.25 15.015C687.332 15.8344 686.751 16.9653 686.619 18.1886H696.173Z" fill="#3F79B6"/>
<path d="M613.384 2.34577L604.988 20.1706L613.196 37.5732C613.344 37.8843 613.576 38.1475 613.867 38.3324C614.158 38.5173 614.494 38.6164 614.839 38.6185L624.038 38.6519L615.525 20.1706L624.059 1.68512H614.442C614.221 1.68582 614.006 1.74804 613.819 1.86476C613.632 1.98148 613.481 2.14808 613.384 2.34577Z" fill="#3F79B6"/>
<path d="M605.536 27.5672C604.612 27.5925 603.693 27.4219 602.84 27.0666C601.987 26.7113 601.218 26.1794 600.585 25.5059C599.932 24.8066 599.423 23.9854 599.087 23.0893C598.752 22.1933 598.596 21.2398 598.629 20.2834C598.557 18.2917 599.273 16.3519 600.623 14.8854C601.266 14.1919 602.049 13.6439 602.921 13.2783C603.793 12.9126 604.733 12.7378 605.678 12.7655C606.114 12.7638 606.549 12.8016 606.979 12.8784L611.085 4.02657C609.404 3.52957 607.66 3.28301 605.908 3.29484C601.083 3.29484 597.026 4.92832 593.736 8.1953C590.447 11.4623 588.801 15.4931 588.798 20.2876C588.798 25.0515 590.412 29.0391 593.64 32.2503C596.868 35.4615 600.879 37.0671 605.674 37.0671C607.471 37.0825 609.262 36.8446 610.993 36.3605L606.811 27.4794C606.389 27.5391 605.963 27.5685 605.536 27.5672Z" fill="#3F79B6"/>
<line x1="724" y1="21.25" x2="1210" y2="21.25" stroke="#0984E3" stroke-width="1.5"/>
<line y1="21.25" x2="486" y2="21.25" stroke="#0984E3" stroke-width="1.5"/>
</svg>
