<svg width="182" height="145" viewBox="0 0 182 145" fill="none" xmlns="http://www.w3.org/2000/svg">
<g filter="url(#filter0_d)">
<path d="M84.9068 105.785L81.5936 83.9178C81.3512 82.3178 83.0507 81.1358 84.4664 81.9198L103.14 92.2619C104.621 93.0825 104.424 95.2718 102.82 95.8148L93.5037 98.968C93.0614 99.1177 92.6875 99.4211 92.45 99.823L88.5136 106.485C87.5805 108.064 85.1816 107.598 84.9068 105.785Z" fill="#FF3F34"/>
<path d="M84.9068 105.785L81.5936 83.9178C81.3512 82.3178 83.0507 81.1358 84.4664 81.9198L103.14 92.2619C104.621 93.0825 104.424 95.2718 102.82 95.8148L93.5037 98.968C93.0614 99.1177 92.6875 99.4211 92.45 99.823L88.5136 106.485C87.5805 108.064 85.1816 107.598 84.9068 105.785Z" stroke="white" stroke-width="1.3" stroke-linecap="round" stroke-linejoin="round"/>
</g>
<g filter="url(#filter1_d)">
<rect x="100.5" y="106" width="72.8" height="26" fill="#FF3F34"/>
</g>
<path d="M125.089 114.687C125.955 114.687 126.712 114.858 127.359 115.201C128.006 115.545 128.506 116.028 128.857 116.652C129.215 117.268 129.395 117.982 129.395 118.793C129.395 119.597 129.215 120.31 128.857 120.934C128.506 121.558 128.002 122.042 127.347 122.385C126.7 122.728 125.947 122.9 125.089 122.9H122.012V114.687H125.089ZM124.96 121.168C125.717 121.168 126.306 120.962 126.727 120.548C127.148 120.135 127.359 119.55 127.359 118.793C127.359 118.037 127.148 117.448 126.727 117.027C126.306 116.605 125.717 116.395 124.96 116.395H124.013V121.168H124.96ZM131.519 115.693C131.168 115.693 130.879 115.591 130.653 115.389C130.435 115.178 130.326 114.921 130.326 114.616C130.326 114.304 130.435 114.047 130.653 113.844C130.879 113.634 131.168 113.528 131.519 113.528C131.862 113.528 132.143 113.634 132.361 113.844C132.588 114.047 132.701 114.304 132.701 114.616C132.701 114.921 132.588 115.178 132.361 115.389C132.143 115.591 131.862 115.693 131.519 115.693ZM132.514 116.371V122.9H130.513V116.371H132.514ZM133.566 119.624C133.566 118.953 133.69 118.364 133.94 117.857C134.197 117.35 134.545 116.96 134.981 116.687C135.418 116.414 135.906 116.278 136.444 116.278C136.873 116.278 137.263 116.368 137.614 116.547C137.973 116.726 138.253 116.968 138.456 117.272V114.242H140.457V122.9H138.456V121.964C138.269 122.276 138 122.526 137.649 122.713C137.306 122.9 136.904 122.994 136.444 122.994C135.906 122.994 135.418 122.857 134.981 122.584C134.545 122.303 134.197 121.909 133.94 121.402C133.69 120.888 133.566 120.295 133.566 119.624ZM138.456 119.636C138.456 119.137 138.316 118.743 138.035 118.454C137.762 118.165 137.427 118.021 137.029 118.021C136.631 118.021 136.292 118.165 136.011 118.454C135.738 118.735 135.601 119.125 135.601 119.624C135.601 120.123 135.738 120.521 136.011 120.817C136.292 121.106 136.631 121.25 137.029 121.25C137.427 121.25 137.762 121.106 138.035 120.817C138.316 120.529 138.456 120.135 138.456 119.636ZM142.911 115.693C142.56 115.693 142.271 115.591 142.045 115.389C141.826 115.178 141.717 114.921 141.717 114.616C141.717 114.304 141.826 114.047 142.045 113.844C142.271 113.634 142.56 113.528 142.911 113.528C143.254 113.528 143.535 113.634 143.753 113.844C143.979 114.047 144.092 114.304 144.092 114.616C144.092 114.921 143.979 115.178 143.753 115.389C143.535 115.591 143.254 115.693 142.911 115.693ZM143.905 116.371V122.9H141.904V116.371H143.905ZM149.333 116.301C150.097 116.301 150.706 116.551 151.158 117.05C151.618 117.541 151.848 118.22 151.848 119.086V122.9H149.859V119.355C149.859 118.918 149.746 118.579 149.52 118.337C149.294 118.095 148.99 117.974 148.608 117.974C148.225 117.974 147.921 118.095 147.695 118.337C147.469 118.579 147.356 118.918 147.356 119.355V122.9H145.355V116.371H147.356V117.237C147.558 116.949 147.831 116.722 148.175 116.559C148.518 116.387 148.904 116.301 149.333 116.301Z" fill="white"/>
<g clip-path="url(#clip0)">
<path d="M72 36C72 16.1177 55.8823 0 36 0C16.1177 0 0 16.1177 0 36C0 55.8823 16.1177 72 36 72C55.8823 72 72 55.8823 72 36Z" fill="#68DBF2"/>
<path d="M20.25 47.25C23.3566 47.25 25.875 44.7316 25.875 41.625C25.875 38.5184 23.3566 36 20.25 36C17.1434 36 14.625 38.5184 14.625 41.625C14.625 44.7316 17.1434 47.25 20.25 47.25Z" fill="#EAC0B3"/>
<path d="M20.25 46.125H39.375V74.1038C39.375 74.1038 35.2766 76.5 29.8125 76.5C24.3484 76.5 20.25 72.5884 20.25 72.5884V46.125Z" fill="#EAC0B3"/>
<path d="M39.1623 59.751C39.1623 65.8091 38.1836 65.2354 31.8127 65.2354C25.4418 65.2354 22.5022 60.3247 22.5022 54.2666C22.5022 48.2096 22.2603 42.75 27.4016 42.75C41.94 43.2855 39.1623 53.6929 39.1623 59.751Z" fill="#C99688"/>
<path d="M51.6217 40.6125C51.6217 50.6497 50.0625 62.9921 37.6875 62.9921C25.3125 62.9921 19.6065 50.6497 19.6065 40.6125C16.875 28.6875 17.4375 14.625 36 14.625C54.5625 14.625 51.6217 30.5741 51.6217 40.6125Z" fill="#F5D0C5"/>
<path d="M42.75 46.125H41.625C41.0037 46.125 40.5 46.6287 40.5 47.25C40.5 47.8713 41.0037 48.375 41.625 48.375H42.75C43.3713 48.375 43.875 47.8713 43.875 47.25C43.875 46.6287 43.3713 46.125 42.75 46.125Z" fill="#EAC0B3"/>
<path d="M42.75 67.5H18C12.4081 67.5 7.875 72.0331 7.875 77.625V83.25C7.875 88.8419 12.4081 93.375 18 93.375H42.75C48.3419 93.375 52.875 88.8419 52.875 83.25V77.625C52.875 72.0331 48.3419 67.5 42.75 67.5Z" fill="#E05A33"/>
<path fill-rule="evenodd" clip-rule="evenodd" d="M32.5856 29.4761C38.8969 31.572 47.6483 34.4767 56.8125 25.3125C61.3125 20.8125 41.0625 1.6875 24.75 12.375C12.0004 14.2639 12.7282 21.9037 13.2907 27.7987C13.3987 28.9271 13.5 29.9902 13.5 30.9375C13.5 31.5371 13.5787 31.986 13.725 32.3078C13.5735 33.5326 13.4984 34.7658 13.5 36C13.5 37.1935 13.9741 38.3381 14.818 39.182C15.6619 40.0259 16.8065 40.5 18 40.5C19.1935 40.5 20.3381 40.0259 21.182 39.182C22.0259 38.3381 22.5 37.1935 22.5 36C23.187 36.0001 23.865 35.8429 24.4818 35.5404C25.0987 35.2379 25.6381 34.7982 26.0587 34.255C26.4793 33.7118 26.7699 33.0795 26.9083 32.4065C27.0467 31.7336 27.0292 31.0379 26.8571 30.3727L27 30.375C28.377 30.375 29.6089 29.7562 30.4346 28.7831C31.1141 28.9879 31.833 29.2264 32.5856 29.4761Z" fill="#1B0B47"/>
<path d="M34.0526 45.6052C36.705 45.6052 38.8552 43.455 38.8552 40.8026C38.8552 38.1502 36.705 36 34.0526 36C31.4002 36 29.25 38.1502 29.25 40.8026C29.25 43.455 31.4002 45.6052 34.0526 45.6052Z" stroke="black" stroke-width="2"/>
<path d="M49.8026 45.6052C52.455 45.6052 54.6052 43.455 54.6052 40.8026C54.6052 38.1502 52.455 36 49.8026 36C47.1502 36 45 38.1502 45 40.8026C45 43.455 47.1502 45.6052 49.8026 45.6052Z" stroke="black" stroke-width="2"/>
<path d="M38.2331 39.492L46.1081 39.375" stroke="black" stroke-width="2"/>
<path d="M31.5 51.75C31.5 50.8549 31.8556 49.9965 32.4885 49.3635C33.1214 48.7306 33.9799 48.375 34.875 48.375H45C45.8951 48.375 46.7535 48.7306 47.3865 49.3635C48.0194 49.9965 48.375 50.8549 48.375 51.75H31.5Z" fill="#1B0B47"/>
</g>
<defs>
<filter id="filter0_d" x="73.1199" y="78.4199" width="39.4752" height="42.6747" filterUnits="userSpaceOnUse" color-interpolation-filters="sRGB">
<feFlood flood-opacity="0" result="BackgroundImageFix"/>
<feColorMatrix in="SourceAlpha" type="matrix" values="0 0 0 0 0 0 0 0 0 0 0 0 0 0 0 0 0 0 127 0"/>
<feOffset dy="5.2"/>
<feGaussianBlur stdDeviation="3.9"/>
<feColorMatrix type="matrix" values="0 0 0 0 0 0 0 0 0 0 0 0 0 0 0 0 0 0 0.15 0"/>
<feBlend mode="normal" in2="BackgroundImageFix" result="effect1_dropShadow"/>
<feBlend mode="normal" in="SourceGraphic" in2="effect1_dropShadow" result="shape"/>
</filter>
<filter id="filter1_d" x="92.7" y="103.4" width="88.4" height="41.6" filterUnits="userSpaceOnUse" color-interpolation-filters="sRGB">
<feFlood flood-opacity="0" result="BackgroundImageFix"/>
<feColorMatrix in="SourceAlpha" type="matrix" values="0 0 0 0 0 0 0 0 0 0 0 0 0 0 0 0 0 0 127 0"/>
<feOffset dy="5.2"/>
<feGaussianBlur stdDeviation="3.9"/>
<feColorMatrix type="matrix" values="0 0 0 0 0 0 0 0 0 0 0 0 0 0 0 0 0 0 0.15 0"/>
<feBlend mode="normal" in2="BackgroundImageFix" result="effect1_dropShadow"/>
<feBlend mode="normal" in="SourceGraphic" in2="effect1_dropShadow" result="shape"/>
</filter>
<clipPath id="clip0">
<rect width="72" height="72" rx="36" fill="white"/>
</clipPath>
</defs>
</svg>
