<svg width="200" height="100" viewBox="0 0 200 100" fill="none" xmlns="http://www.w3.org/2000/svg">
<path d="M40.5193 45.9783C39.1996 45.9783 38.1577 47.2138 38.1577 48.7519C38.1577 50.29 39.2227 51.5255 40.5193 51.5255C41.839 51.5255 42.8809 50.29 42.8809 48.7519C42.8809 47.2138 41.8159 45.9783 40.5193 45.9783ZM32.0684 45.9783C30.7486 45.9783 29.7067 47.2138 29.7067 48.7519C29.7067 50.29 30.7718 51.5255 32.0684 51.5255C33.3881 51.5255 34.43 50.29 34.43 48.7519C34.4531 47.2138 33.3881 45.9783 32.0684 45.9783Z" fill="#7289DA"/>
<path d="M51.7718 25H20.7464C18.1301 25 16 27.3197 16 30.1689V63.9561C16 66.8053 18.1301 69.1251 20.7464 69.1251H47.0022L45.7751 64.5108L48.7387 67.4861L51.5402 70.2849L56.5413 75V30.1689C56.5182 27.3197 54.3881 25 51.7718 25ZM42.8346 57.6525C42.8346 57.6525 42.0011 56.5683 41.3065 55.6354C44.3396 54.7025 45.4972 52.6601 45.4972 52.6601C44.548 53.3409 43.645 53.82 42.8346 54.1478C41.677 54.6773 40.5656 55.005 39.4774 55.232C37.2547 55.6858 35.2172 55.5598 33.4807 55.2068C32.161 54.9294 31.0265 54.5512 30.0772 54.1225C29.5447 53.8956 28.9658 53.6183 28.387 53.2653C28.3175 53.2148 28.2481 53.1896 28.1786 53.1392C28.1323 53.114 28.1092 53.0888 28.086 53.0888C27.6692 52.8366 27.4377 52.6601 27.4377 52.6601C27.4377 52.6601 28.5491 54.652 31.4895 55.6102C30.7949 56.5683 29.9383 57.6778 29.9383 57.6778C24.8214 57.5013 22.8765 53.8704 22.8765 53.8704C22.8765 45.827 26.2106 39.2965 26.2106 39.2965C29.5447 36.5986 32.6935 36.6742 32.6935 36.6742L32.925 36.9768C28.7574 38.2627 26.8589 40.2547 26.8589 40.2547C26.8589 40.2547 27.3682 39.9521 28.2249 39.5487C30.7023 38.3636 32.6703 38.061 33.4807 37.9602C33.6196 37.9349 33.7354 37.9097 33.8743 37.9097C35.2867 37.708 36.8842 37.6576 38.5513 37.8593C40.7508 38.1367 43.1125 38.8427 45.5204 40.2547C45.5204 40.2547 43.6913 38.3636 39.7552 37.0777L40.0794 36.6742C40.0794 36.6742 43.2514 36.5986 46.5623 39.2965C46.5623 39.2965 49.8964 45.827 49.8964 53.8704C49.8964 53.8452 47.9515 57.476 42.8346 57.6525ZM77.796 35.7917H70.1092V45.1967L75.226 50.2143V41.0867H77.9581C79.6946 41.0867 80.5513 41.9945 80.5513 43.4569V50.4413C80.5513 51.9037 79.7409 52.887 77.9581 52.887H70.086V58.2073H77.7729C81.8942 58.2325 85.7608 55.9884 85.7608 50.8447V43.3308C85.7839 38.0862 81.9173 35.7917 77.796 35.7917ZM118.083 50.8447V43.1291C118.083 40.3555 122.667 39.7252 124.056 42.4987L128.293 40.6329C126.626 36.649 123.593 35.4892 121.069 35.4892C116.948 35.4892 112.873 38.0862 112.873 43.1291V50.8447C112.873 55.938 116.948 58.4846 120.977 58.4846C123.57 58.4846 126.673 57.0978 128.386 53.467L123.848 51.1977C122.737 54.299 118.083 53.5426 118.083 50.8447ZM104.075 44.1881C102.477 43.8099 101.412 43.1795 101.343 42.0953C101.436 39.4982 105.117 39.3974 107.27 41.8936L110.674 39.0444C108.544 36.2204 106.136 35.4639 103.658 35.4639C99.8842 35.4639 96.226 37.7837 96.226 42.171C96.226 46.4322 99.2359 48.7267 102.547 49.2814C104.237 49.5335 106.112 50.2648 106.066 51.5255C105.927 53.9208 101.389 53.7948 99.3286 51.0716L96.0408 54.4251C97.9625 57.1231 100.579 58.4846 103.033 58.4846C106.807 58.4846 110.998 56.1145 111.16 51.7776C111.391 46.3061 107.733 44.9193 104.075 44.1881ZM88.5623 58.1821H93.7486V35.7917H88.5623V58.1821ZM176.012 35.7917H168.325V45.1967L173.442 50.2143V41.0867H176.174C177.911 41.0867 178.767 41.9945 178.767 43.4569V50.4413C178.767 51.9037 177.957 52.887 176.174 52.887H168.302V58.2073H176.012C180.133 58.2325 184 55.9884 184 50.8447V43.3308C184 38.0862 180.133 35.7917 176.012 35.7917ZM138.295 35.4892C134.035 35.4892 129.798 38.0106 129.798 43.1795V50.8195C129.798 55.938 134.058 58.5098 138.342 58.5098C142.602 58.5098 146.839 55.938 146.839 50.8195V43.1795C146.839 38.0358 142.556 35.4892 138.295 35.4892ZM141.63 50.8195C141.63 52.4332 139.963 53.2653 138.319 53.2653C136.652 53.2653 134.985 52.4836 134.985 50.8195V43.1795C134.985 41.5406 136.605 40.6581 138.226 40.6581C139.916 40.6581 141.63 41.4397 141.63 43.1795V50.8195ZM165.454 43.1795C165.338 37.9349 162.051 35.8169 157.814 35.8169H149.594V58.2073H154.85V51.0968H155.776L160.546 58.2073H167.029L161.426 50.5169C163.903 49.6596 165.454 47.3147 165.454 43.1795ZM157.906 46.2052H154.85V41.0867H157.906C161.171 41.0867 161.171 46.2052 157.906 46.2052Z" fill="#7289DA"/>
</svg>
