<svg width="1354" height="1194" viewBox="0 0 1354 1194" fill="none" xmlns="http://www.w3.org/2000/svg">
<circle cx="2" cy="866" r="2" fill="#E3EBFF"/>
<circle cx="56" cy="866" r="2" fill="#E3EBFF"/>
<circle cx="2" cy="920" r="2" fill="#E3EBFF"/>
<circle cx="56" cy="920" r="2" fill="#E3EBFF"/>
<circle cx="2" cy="974" r="2" fill="#E3EBFF"/>
<circle cx="56" cy="974" r="2" fill="#E3EBFF"/>
<circle cx="2" cy="1028" r="2" fill="#E3EBFF"/>
<circle cx="56" cy="1028" r="2" fill="#E3EBFF"/>
<circle cx="110" cy="866" r="2" fill="#E3EBFF"/>
<circle cx="164" cy="866" r="2" fill="#E3EBFF"/>
<circle cx="110" cy="920" r="2" fill="#E3EBFF"/>
<circle cx="164" cy="920" r="2" fill="#E3EBFF"/>
<circle cx="110" cy="974" r="2" fill="#E3EBFF"/>
<circle cx="164" cy="974" r="2" fill="#E3EBFF"/>
<circle cx="110" cy="1028" r="2" fill="#E3EBFF"/>
<circle cx="164" cy="1028" r="2" fill="#E3EBFF"/>
<circle cx="2" cy="1082" r="2" fill="#E3EBFF"/>
<circle cx="56" cy="1082" r="2" fill="#E3EBFF"/>
<circle cx="2" cy="1136" r="2" fill="#E3EBFF"/>
<circle cx="56" cy="1136" r="2" fill="#E3EBFF"/>
<circle cx="2" cy="1190" r="2" fill="#E3EBFF"/>
<circle cx="56" cy="1190" r="2" fill="#E3EBFF"/>
<circle cx="110" cy="1082" r="2" fill="#E3EBFF"/>
<circle cx="164" cy="1082" r="2" fill="#E3EBFF"/>
<circle cx="110" cy="1136" r="2" fill="#E3EBFF"/>
<circle cx="164" cy="1136" r="2" fill="#E3EBFF"/>
<circle cx="110" cy="1190" r="2" fill="#E3EBFF"/>
<circle cx="164" cy="1190" r="2" fill="#E3EBFF"/>
<circle cx="218" cy="866" r="2" fill="#E3EBFF"/>
<circle cx="272" cy="866" r="2" fill="#E3EBFF"/>
<circle cx="218" cy="920" r="2" fill="#E3EBFF"/>
<circle cx="272" cy="920" r="2" fill="#E3EBFF"/>
<circle cx="218" cy="974" r="2" fill="#E3EBFF"/>
<circle cx="272" cy="974" r="2" fill="#E3EBFF"/>
<circle cx="218" cy="1028" r="2" fill="#E3EBFF"/>
<circle cx="272" cy="1028" r="2" fill="#E3EBFF"/>
<circle cx="326" cy="866" r="2" fill="#E3EBFF"/>
<circle cx="380" cy="866" r="2" fill="#E3EBFF"/>
<circle cx="326" cy="920" r="2" fill="#E3EBFF"/>
<circle cx="380" cy="920" r="2" fill="#E3EBFF"/>
<circle cx="326" cy="974" r="2" fill="#E3EBFF"/>
<circle cx="380" cy="974" r="2" fill="#E3EBFF"/>
<circle cx="326" cy="1028" r="2" fill="#E3EBFF"/>
<circle cx="380" cy="1028" r="2" fill="#E3EBFF"/>
<circle cx="218" cy="1082" r="2" fill="#E3EBFF"/>
<circle cx="272" cy="1082" r="2" fill="#E3EBFF"/>
<circle cx="218" cy="1136" r="2" fill="#E3EBFF"/>
<circle cx="272" cy="1136" r="2" fill="#E3EBFF"/>
<circle cx="218" cy="1190" r="2" fill="#E3EBFF"/>
<circle cx="272" cy="1190" r="2" fill="#E3EBFF"/>
<circle cx="326" cy="1082" r="2" fill="#E3EBFF"/>
<circle cx="380" cy="1082" r="2" fill="#E3EBFF"/>
<circle cx="326" cy="1136" r="2" fill="#E3EBFF"/>
<circle cx="380" cy="1136" r="2" fill="#E3EBFF"/>
<circle cx="326" cy="1190" r="2" fill="#E3EBFF"/>
<circle cx="380" cy="1190" r="2" fill="#E3EBFF"/>
<circle cx="434" cy="866" r="2" fill="#E3EBFF"/>
<circle cx="488" cy="866" r="2" fill="#E3EBFF"/>
<circle cx="434" cy="920" r="2" fill="#E3EBFF"/>
<circle cx="488" cy="920" r="2" fill="#E3EBFF"/>
<circle cx="434" cy="974" r="2" fill="#E3EBFF"/>
<circle cx="488" cy="974" r="2" fill="#E3EBFF"/>
<circle cx="434" cy="1028" r="2" fill="#E3EBFF"/>
<circle cx="488" cy="1028" r="2" fill="#E3EBFF"/>
<circle cx="542" cy="866" r="2" fill="#E3EBFF"/>
<circle cx="596" cy="866" r="2" fill="#E3EBFF"/>
<circle cx="542" cy="920" r="2" fill="#E3EBFF"/>
<circle cx="596" cy="920" r="2" fill="#E3EBFF"/>
<circle cx="542" cy="974" r="2" fill="#E3EBFF"/>
<circle cx="596" cy="974" r="2" fill="#E3EBFF"/>
<circle cx="542" cy="1028" r="2" fill="#E3EBFF"/>
<circle cx="596" cy="1028" r="2" fill="#E3EBFF"/>
<circle cx="434" cy="1082" r="2" fill="#E3EBFF"/>
<circle cx="488" cy="1082" r="2" fill="#E3EBFF"/>
<circle cx="434" cy="1136" r="2" fill="#E3EBFF"/>
<circle cx="488" cy="1136" r="2" fill="#E3EBFF"/>
<circle cx="434" cy="1190" r="2" fill="#E3EBFF"/>
<circle cx="488" cy="1190" r="2" fill="#E3EBFF"/>
<circle cx="542" cy="1082" r="2" fill="#E3EBFF"/>
<circle cx="596" cy="1082" r="2" fill="#E3EBFF"/>
<circle cx="542" cy="1136" r="2" fill="#E3EBFF"/>
<circle cx="596" cy="1136" r="2" fill="#E3EBFF"/>
<circle cx="542" cy="1190" r="2" fill="#E3EBFF"/>
<circle cx="596" cy="1190" r="2" fill="#E3EBFF"/>
<circle cx="650" cy="866" r="2" fill="#E3EBFF"/>
<circle cx="704" cy="866" r="2" fill="#E3EBFF"/>
<circle cx="650" cy="920" r="2" fill="#E3EBFF"/>
<circle cx="704" cy="920" r="2" fill="#E3EBFF"/>
<circle cx="650" cy="974" r="2" fill="#E3EBFF"/>
<circle cx="704" cy="974" r="2" fill="#E3EBFF"/>
<circle cx="650" cy="1028" r="2" fill="#E3EBFF"/>
<circle cx="704" cy="1028" r="2" fill="#E3EBFF"/>
<circle cx="758" cy="866" r="2" fill="#E3EBFF"/>
<circle cx="812" cy="866" r="2" fill="#E3EBFF"/>
<circle cx="758" cy="920" r="2" fill="#E3EBFF"/>
<circle cx="812" cy="920" r="2" fill="#E3EBFF"/>
<circle cx="758" cy="974" r="2" fill="#E3EBFF"/>
<circle cx="812" cy="974" r="2" fill="#E3EBFF"/>
<circle cx="758" cy="1028" r="2" fill="#E3EBFF"/>
<circle cx="812" cy="1028" r="2" fill="#E3EBFF"/>
<circle cx="650" cy="1082" r="2" fill="#E3EBFF"/>
<circle cx="704" cy="1082" r="2" fill="#E3EBFF"/>
<circle cx="650" cy="1136" r="2" fill="#E3EBFF"/>
<circle cx="704" cy="1136" r="2" fill="#E3EBFF"/>
<circle cx="650" cy="1190" r="2" fill="#E3EBFF"/>
<circle cx="704" cy="1190" r="2" fill="#E3EBFF"/>
<circle cx="758" cy="1082" r="2" fill="#E3EBFF"/>
<circle cx="812" cy="1082" r="2" fill="#E3EBFF"/>
<circle cx="758" cy="1136" r="2" fill="#E3EBFF"/>
<circle cx="812" cy="1136" r="2" fill="#E3EBFF"/>
<circle cx="758" cy="1190" r="2" fill="#E3EBFF"/>
<circle cx="812" cy="1190" r="2" fill="#E3EBFF"/>
<circle cx="866" cy="866" r="2" fill="#E3EBFF"/>
<circle cx="920" cy="866" r="2" fill="#E3EBFF"/>
<circle cx="866" cy="920" r="2" fill="#E3EBFF"/>
<circle cx="920" cy="920" r="2" fill="#E3EBFF"/>
<circle cx="866" cy="974" r="2" fill="#E3EBFF"/>
<circle cx="920" cy="974" r="2" fill="#E3EBFF"/>
<circle cx="866" cy="1028" r="2" fill="#E3EBFF"/>
<circle cx="920" cy="1028" r="2" fill="#E3EBFF"/>
<circle cx="974" cy="866" r="2" fill="#E3EBFF"/>
<circle cx="1028" cy="866" r="2" fill="#E3EBFF"/>
<circle cx="974" cy="920" r="2" fill="#E3EBFF"/>
<circle cx="1028" cy="920" r="2" fill="#E3EBFF"/>
<circle cx="974" cy="974" r="2" fill="#E3EBFF"/>
<circle cx="1028" cy="974" r="2" fill="#E3EBFF"/>
<circle cx="974" cy="1028" r="2" fill="#E3EBFF"/>
<circle cx="1028" cy="1028" r="2" fill="#E3EBFF"/>
<circle cx="866" cy="1082" r="2" fill="#E3EBFF"/>
<circle cx="920" cy="1082" r="2" fill="#E3EBFF"/>
<circle cx="866" cy="1136" r="2" fill="#E3EBFF"/>
<circle cx="920" cy="1136" r="2" fill="#E3EBFF"/>
<circle cx="866" cy="1190" r="2" fill="#E3EBFF"/>
<circle cx="920" cy="1190" r="2" fill="#E3EBFF"/>
<circle cx="974" cy="1082" r="2" fill="#E3EBFF"/>
<circle cx="1028" cy="1082" r="2" fill="#E3EBFF"/>
<circle cx="974" cy="1136" r="2" fill="#E3EBFF"/>
<circle cx="1028" cy="1136" r="2" fill="#E3EBFF"/>
<circle cx="974" cy="1190" r="2" fill="#E3EBFF"/>
<circle cx="1028" cy="1190" r="2" fill="#E3EBFF"/>
<circle cx="1082" cy="866" r="2" fill="#E3EBFF"/>
<circle cx="1136" cy="866" r="2" fill="#E3EBFF"/>
<circle cx="1082" cy="920" r="2" fill="#E3EBFF"/>
<circle cx="1136" cy="920" r="2" fill="#E3EBFF"/>
<circle cx="1082" cy="974" r="2" fill="#E3EBFF"/>
<circle cx="1136" cy="974" r="2" fill="#E3EBFF"/>
<circle cx="1082" cy="1028" r="2" fill="#E3EBFF"/>
<circle cx="1136" cy="1028" r="2" fill="#E3EBFF"/>
<circle cx="1190" cy="866" r="2" fill="#E3EBFF"/>
<circle cx="1244" cy="866" r="2" fill="#E3EBFF"/>
<circle cx="1190" cy="920" r="2" fill="#E3EBFF"/>
<circle cx="1244" cy="920" r="2" fill="#E3EBFF"/>
<circle cx="1190" cy="974" r="2" fill="#E3EBFF"/>
<circle cx="1244" cy="974" r="2" fill="#E3EBFF"/>
<circle cx="1190" cy="1028" r="2" fill="#E3EBFF"/>
<circle cx="1244" cy="1028" r="2" fill="#E3EBFF"/>
<circle cx="1082" cy="1082" r="2" fill="#E3EBFF"/>
<circle cx="1136" cy="1082" r="2" fill="#E3EBFF"/>
<circle cx="1082" cy="1136" r="2" fill="#E3EBFF"/>
<circle cx="1136" cy="1136" r="2" fill="#E3EBFF"/>
<circle cx="1082" cy="1190" r="2" fill="#E3EBFF"/>
<circle cx="1136" cy="1190" r="2" fill="#E3EBFF"/>
<circle cx="1190" cy="1082" r="2" fill="#E3EBFF"/>
<circle cx="1244" cy="1082" r="2" fill="#E3EBFF"/>
<circle cx="1190" cy="1136" r="2" fill="#E3EBFF"/>
<circle cx="1244" cy="1136" r="2" fill="#E3EBFF"/>
<circle cx="1190" cy="1190" r="2" fill="#E3EBFF"/>
<circle cx="1244" cy="1190" r="2" fill="#E3EBFF"/>
<circle cx="1298" cy="866" r="2" fill="#E3EBFF"/>
<circle cx="1352" cy="866" r="2" fill="#E3EBFF"/>
<circle cx="1298" cy="920" r="2" fill="#E3EBFF"/>
<circle cx="1352" cy="920" r="2" fill="#E3EBFF"/>
<circle cx="1298" cy="974" r="2" fill="#E3EBFF"/>
<circle cx="1352" cy="974" r="2" fill="#E3EBFF"/>
<circle cx="1298" cy="1028" r="2" fill="#E3EBFF"/>
<circle cx="1352" cy="1028" r="2" fill="#E3EBFF"/>
<circle cx="1298" cy="1082" r="2" fill="#E3EBFF"/>
<circle cx="1352" cy="1082" r="2" fill="#E3EBFF"/>
<circle cx="1298" cy="1136" r="2" fill="#E3EBFF"/>
<circle cx="1352" cy="1136" r="2" fill="#E3EBFF"/>
<circle cx="1298" cy="1190" r="2" fill="#E3EBFF"/>
<circle cx="1352" cy="1190" r="2" fill="#E3EBFF"/>
<circle cx="2" cy="2" r="2" fill="#E3EBFF"/>
<circle cx="56" cy="2" r="2" fill="#E3EBFF"/>
<circle cx="2" cy="56" r="2" fill="#E3EBFF"/>
<circle cx="56" cy="56" r="2" fill="#E3EBFF"/>
<circle cx="2" cy="110" r="2" fill="#E3EBFF"/>
<circle cx="56" cy="110" r="2" fill="#E3EBFF"/>
<circle cx="2" cy="164" r="2" fill="#E3EBFF"/>
<circle cx="56" cy="164" r="2" fill="#E3EBFF"/>
<circle cx="110" cy="2" r="2" fill="#E3EBFF"/>
<circle cx="164" cy="2" r="2" fill="#E3EBFF"/>
<circle cx="110" cy="56" r="2" fill="#E3EBFF"/>
<circle cx="164" cy="56" r="2" fill="#E3EBFF"/>
<circle cx="110" cy="110" r="2" fill="#E3EBFF"/>
<circle cx="164" cy="110" r="2" fill="#E3EBFF"/>
<circle cx="110" cy="164" r="2" fill="#E3EBFF"/>
<circle cx="164" cy="164" r="2" fill="#E3EBFF"/>
<circle cx="2" cy="218" r="2" fill="#E3EBFF"/>
<circle cx="56" cy="218" r="2" fill="#E3EBFF"/>
<circle cx="2" cy="272" r="2" fill="#E3EBFF"/>
<circle cx="56" cy="272" r="2" fill="#E3EBFF"/>
<circle cx="2" cy="326" r="2" fill="#E3EBFF"/>
<circle cx="56" cy="326" r="2" fill="#E3EBFF"/>
<circle cx="2" cy="380" r="2" fill="#E3EBFF"/>
<circle cx="56" cy="380" r="2" fill="#E3EBFF"/>
<circle cx="110" cy="218" r="2" fill="#E3EBFF"/>
<circle cx="164" cy="218" r="2" fill="#E3EBFF"/>
<circle cx="110" cy="272" r="2" fill="#E3EBFF"/>
<circle cx="164" cy="272" r="2" fill="#E3EBFF"/>
<circle cx="110" cy="326" r="2" fill="#E3EBFF"/>
<circle cx="164" cy="326" r="2" fill="#E3EBFF"/>
<circle cx="110" cy="380" r="2" fill="#E3EBFF"/>
<circle cx="164" cy="380" r="2" fill="#E3EBFF"/>
<circle cx="218" cy="2" r="2" fill="#E3EBFF"/>
<circle cx="272" cy="2" r="2" fill="#E3EBFF"/>
<circle cx="218" cy="56" r="2" fill="#E3EBFF"/>
<circle cx="272" cy="56" r="2" fill="#E3EBFF"/>
<circle cx="218" cy="110" r="2" fill="#E3EBFF"/>
<circle cx="272" cy="110" r="2" fill="#E3EBFF"/>
<circle cx="218" cy="164" r="2" fill="#E3EBFF"/>
<circle cx="272" cy="164" r="2" fill="#E3EBFF"/>
<circle cx="326" cy="2" r="2" fill="#E3EBFF"/>
<circle cx="380" cy="2" r="2" fill="#E3EBFF"/>
<circle cx="326" cy="56" r="2" fill="#E3EBFF"/>
<circle cx="380" cy="56" r="2" fill="#E3EBFF"/>
<circle cx="326" cy="110" r="2" fill="#E3EBFF"/>
<circle cx="380" cy="110" r="2" fill="#E3EBFF"/>
<circle cx="326" cy="164" r="2" fill="#E3EBFF"/>
<circle cx="380" cy="164" r="2" fill="#E3EBFF"/>
<circle cx="218" cy="218" r="2" fill="#E3EBFF"/>
<circle cx="272" cy="218" r="2" fill="#E3EBFF"/>
<circle cx="218" cy="272" r="2" fill="#E3EBFF"/>
<circle cx="272" cy="272" r="2" fill="#E3EBFF"/>
<circle cx="218" cy="326" r="2" fill="#E3EBFF"/>
<circle cx="272" cy="326" r="2" fill="#E3EBFF"/>
<circle cx="218" cy="380" r="2" fill="#E3EBFF"/>
<circle cx="272" cy="380" r="2" fill="#E3EBFF"/>
<circle cx="326" cy="218" r="2" fill="#E3EBFF"/>
<circle cx="380" cy="218" r="2" fill="#E3EBFF"/>
<circle cx="326" cy="272" r="2" fill="#E3EBFF"/>
<circle cx="380" cy="272" r="2" fill="#E3EBFF"/>
<circle cx="326" cy="326" r="2" fill="#E3EBFF"/>
<circle cx="380" cy="326" r="2" fill="#E3EBFF"/>
<circle cx="326" cy="380" r="2" fill="#E3EBFF"/>
<circle cx="380" cy="380" r="2" fill="#E3EBFF"/>
<circle cx="2" cy="434" r="2" fill="#E3EBFF"/>
<circle cx="56" cy="434" r="2" fill="#E3EBFF"/>
<circle cx="2" cy="488" r="2" fill="#E3EBFF"/>
<circle cx="56" cy="488" r="2" fill="#E3EBFF"/>
<circle cx="2" cy="542" r="2" fill="#E3EBFF"/>
<circle cx="56" cy="542" r="2" fill="#E3EBFF"/>
<circle cx="2" cy="596" r="2" fill="#E3EBFF"/>
<circle cx="56" cy="596" r="2" fill="#E3EBFF"/>
<circle cx="110" cy="434" r="2" fill="#E3EBFF"/>
<circle cx="164" cy="434" r="2" fill="#E3EBFF"/>
<circle cx="110" cy="488" r="2" fill="#E3EBFF"/>
<circle cx="164" cy="488" r="2" fill="#E3EBFF"/>
<circle cx="110" cy="542" r="2" fill="#E3EBFF"/>
<circle cx="164" cy="542" r="2" fill="#E3EBFF"/>
<circle cx="110" cy="596" r="2" fill="#E3EBFF"/>
<circle cx="164" cy="596" r="2" fill="#E3EBFF"/>
<circle cx="2" cy="650" r="2" fill="#E3EBFF"/>
<circle cx="56" cy="650" r="2" fill="#E3EBFF"/>
<circle cx="2" cy="704" r="2" fill="#E3EBFF"/>
<circle cx="56" cy="704" r="2" fill="#E3EBFF"/>
<circle cx="2" cy="758" r="2" fill="#E3EBFF"/>
<circle cx="56" cy="758" r="2" fill="#E3EBFF"/>
<circle cx="2" cy="812" r="2" fill="#E3EBFF"/>
<circle cx="56" cy="812" r="2" fill="#E3EBFF"/>
<circle cx="110" cy="650" r="2" fill="#E3EBFF"/>
<circle cx="164" cy="650" r="2" fill="#E3EBFF"/>
<circle cx="110" cy="704" r="2" fill="#E3EBFF"/>
<circle cx="164" cy="704" r="2" fill="#E3EBFF"/>
<circle cx="110" cy="758" r="2" fill="#E3EBFF"/>
<circle cx="164" cy="758" r="2" fill="#E3EBFF"/>
<circle cx="110" cy="812" r="2" fill="#E3EBFF"/>
<circle cx="164" cy="812" r="2" fill="#E3EBFF"/>
<circle cx="218" cy="434" r="2" fill="#E3EBFF"/>
<circle cx="272" cy="434" r="2" fill="#E3EBFF"/>
<circle cx="218" cy="488" r="2" fill="#E3EBFF"/>
<circle cx="272" cy="488" r="2" fill="#E3EBFF"/>
<circle cx="218" cy="542" r="2" fill="#E3EBFF"/>
<circle cx="272" cy="542" r="2" fill="#E3EBFF"/>
<circle cx="218" cy="596" r="2" fill="#E3EBFF"/>
<circle cx="272" cy="596" r="2" fill="#E3EBFF"/>
<circle cx="326" cy="434" r="2" fill="#E3EBFF"/>
<circle cx="380" cy="434" r="2" fill="#E3EBFF"/>
<circle cx="326" cy="488" r="2" fill="#E3EBFF"/>
<circle cx="380" cy="488" r="2" fill="#E3EBFF"/>
<circle cx="326" cy="542" r="2" fill="#E3EBFF"/>
<circle cx="380" cy="542" r="2" fill="#E3EBFF"/>
<circle cx="326" cy="596" r="2" fill="#E3EBFF"/>
<circle cx="380" cy="596" r="2" fill="#E3EBFF"/>
<circle cx="218" cy="650" r="2" fill="#E3EBFF"/>
<circle cx="272" cy="650" r="2" fill="#E3EBFF"/>
<circle cx="218" cy="704" r="2" fill="#E3EBFF"/>
<circle cx="272" cy="704" r="2" fill="#E3EBFF"/>
<circle cx="218" cy="758" r="2" fill="#E3EBFF"/>
<circle cx="272" cy="758" r="2" fill="#E3EBFF"/>
<circle cx="218" cy="812" r="2" fill="#E3EBFF"/>
<circle cx="272" cy="812" r="2" fill="#E3EBFF"/>
<circle cx="326" cy="650" r="2" fill="#E3EBFF"/>
<circle cx="380" cy="650" r="2" fill="#E3EBFF"/>
<circle cx="326" cy="704" r="2" fill="#E3EBFF"/>
<circle cx="380" cy="704" r="2" fill="#E3EBFF"/>
<circle cx="326" cy="758" r="2" fill="#E3EBFF"/>
<circle cx="380" cy="758" r="2" fill="#E3EBFF"/>
<circle cx="326" cy="812" r="2" fill="#E3EBFF"/>
<circle cx="380" cy="812" r="2" fill="#E3EBFF"/>
<circle cx="434" cy="2" r="2" fill="#E3EBFF"/>
<circle cx="488" cy="2" r="2" fill="#E3EBFF"/>
<circle cx="434" cy="56" r="2" fill="#E3EBFF"/>
<circle cx="488" cy="56" r="2" fill="#E3EBFF"/>
<circle cx="434" cy="110" r="2" fill="#E3EBFF"/>
<circle cx="488" cy="110" r="2" fill="#E3EBFF"/>
<circle cx="434" cy="164" r="2" fill="#E3EBFF"/>
<circle cx="488" cy="164" r="2" fill="#E3EBFF"/>
<circle cx="542" cy="2" r="2" fill="#E3EBFF"/>
<circle cx="596" cy="2" r="2" fill="#E3EBFF"/>
<circle cx="542" cy="56" r="2" fill="#E3EBFF"/>
<circle cx="596" cy="56" r="2" fill="#E3EBFF"/>
<circle cx="542" cy="110" r="2" fill="#E3EBFF"/>
<circle cx="596" cy="110" r="2" fill="#E3EBFF"/>
<circle cx="542" cy="164" r="2" fill="#E3EBFF"/>
<circle cx="596" cy="164" r="2" fill="#E3EBFF"/>
<circle cx="434" cy="218" r="2" fill="#E3EBFF"/>
<circle cx="488" cy="218" r="2" fill="#E3EBFF"/>
<circle cx="434" cy="272" r="2" fill="#E3EBFF"/>
<circle cx="488" cy="272" r="2" fill="#E3EBFF"/>
<circle cx="434" cy="326" r="2" fill="#E3EBFF"/>
<circle cx="488" cy="326" r="2" fill="#E3EBFF"/>
<circle cx="434" cy="380" r="2" fill="#E3EBFF"/>
<circle cx="488" cy="380" r="2" fill="#E3EBFF"/>
<circle cx="542" cy="218" r="2" fill="#E3EBFF"/>
<circle cx="596" cy="218" r="2" fill="#E3EBFF"/>
<circle cx="542" cy="272" r="2" fill="#E3EBFF"/>
<circle cx="596" cy="272" r="2" fill="#E3EBFF"/>
<circle cx="542" cy="326" r="2" fill="#E3EBFF"/>
<circle cx="596" cy="326" r="2" fill="#E3EBFF"/>
<circle cx="542" cy="380" r="2" fill="#E3EBFF"/>
<circle cx="596" cy="380" r="2" fill="#E3EBFF"/>
<circle cx="650" cy="2" r="2" fill="#E3EBFF"/>
<circle cx="704" cy="2" r="2" fill="#E3EBFF"/>
<circle cx="650" cy="56" r="2" fill="#E3EBFF"/>
<circle cx="704" cy="56" r="2" fill="#E3EBFF"/>
<circle cx="650" cy="110" r="2" fill="#E3EBFF"/>
<circle cx="704" cy="110" r="2" fill="#E3EBFF"/>
<circle cx="650" cy="164" r="2" fill="#E3EBFF"/>
<circle cx="704" cy="164" r="2" fill="#E3EBFF"/>
<circle cx="758" cy="2" r="2" fill="#E3EBFF"/>
<circle cx="812" cy="2" r="2" fill="#E3EBFF"/>
<circle cx="758" cy="56" r="2" fill="#E3EBFF"/>
<circle cx="812" cy="56" r="2" fill="#E3EBFF"/>
<circle cx="758" cy="110" r="2" fill="#E3EBFF"/>
<circle cx="812" cy="110" r="2" fill="#E3EBFF"/>
<circle cx="758" cy="164" r="2" fill="#E3EBFF"/>
<circle cx="812" cy="164" r="2" fill="#E3EBFF"/>
<circle cx="650" cy="218" r="2" fill="#E3EBFF"/>
<circle cx="704" cy="218" r="2" fill="#E3EBFF"/>
<circle cx="650" cy="272" r="2" fill="#E3EBFF"/>
<circle cx="704" cy="272" r="2" fill="#E3EBFF"/>
<circle cx="650" cy="326" r="2" fill="#E3EBFF"/>
<circle cx="704" cy="326" r="2" fill="#E3EBFF"/>
<circle cx="650" cy="380" r="2" fill="#E3EBFF"/>
<circle cx="704" cy="380" r="2" fill="#E3EBFF"/>
<circle cx="758" cy="218" r="2" fill="#E3EBFF"/>
<circle cx="812" cy="218" r="2" fill="#E3EBFF"/>
<circle cx="758" cy="272" r="2" fill="#E3EBFF"/>
<circle cx="812" cy="272" r="2" fill="#E3EBFF"/>
<circle cx="758" cy="326" r="2" fill="#E3EBFF"/>
<circle cx="812" cy="326" r="2" fill="#E3EBFF"/>
<circle cx="758" cy="380" r="2" fill="#E3EBFF"/>
<circle cx="812" cy="380" r="2" fill="#E3EBFF"/>
<circle cx="434" cy="434" r="2" fill="#E3EBFF"/>
<circle cx="488" cy="434" r="2" fill="#E3EBFF"/>
<circle cx="434" cy="488" r="2" fill="#E3EBFF"/>
<circle cx="488" cy="488" r="2" fill="#E3EBFF"/>
<circle cx="434" cy="542" r="2" fill="#E3EBFF"/>
<circle cx="488" cy="542" r="2" fill="#E3EBFF"/>
<circle cx="434" cy="596" r="2" fill="#E3EBFF"/>
<circle cx="488" cy="596" r="2" fill="#E3EBFF"/>
<circle cx="542" cy="434" r="2" fill="#E3EBFF"/>
<circle cx="596" cy="434" r="2" fill="#E3EBFF"/>
<circle cx="542" cy="488" r="2" fill="#E3EBFF"/>
<circle cx="596" cy="488" r="2" fill="#E3EBFF"/>
<circle cx="542" cy="542" r="2" fill="#E3EBFF"/>
<circle cx="596" cy="542" r="2" fill="#E3EBFF"/>
<circle cx="542" cy="596" r="2" fill="#E3EBFF"/>
<circle cx="596" cy="596" r="2" fill="#E3EBFF"/>
<circle cx="434" cy="650" r="2" fill="#E3EBFF"/>
<circle cx="488" cy="650" r="2" fill="#E3EBFF"/>
<circle cx="434" cy="704" r="2" fill="#E3EBFF"/>
<circle cx="488" cy="704" r="2" fill="#E3EBFF"/>
<circle cx="434" cy="758" r="2" fill="#E3EBFF"/>
<circle cx="488" cy="758" r="2" fill="#E3EBFF"/>
<circle cx="434" cy="812" r="2" fill="#E3EBFF"/>
<circle cx="488" cy="812" r="2" fill="#E3EBFF"/>
<circle cx="542" cy="650" r="2" fill="#E3EBFF"/>
<circle cx="596" cy="650" r="2" fill="#E3EBFF"/>
<circle cx="542" cy="704" r="2" fill="#E3EBFF"/>
<circle cx="596" cy="704" r="2" fill="#E3EBFF"/>
<circle cx="542" cy="758" r="2" fill="#E3EBFF"/>
<circle cx="596" cy="758" r="2" fill="#E3EBFF"/>
<circle cx="542" cy="812" r="2" fill="#E3EBFF"/>
<circle cx="596" cy="812" r="2" fill="#E3EBFF"/>
<circle cx="650" cy="434" r="2" fill="#E3EBFF"/>
<circle cx="704" cy="434" r="2" fill="#E3EBFF"/>
<circle cx="650" cy="488" r="2" fill="#E3EBFF"/>
<circle cx="704" cy="488" r="2" fill="#E3EBFF"/>
<circle cx="650" cy="542" r="2" fill="#E3EBFF"/>
<circle cx="704" cy="542" r="2" fill="#E3EBFF"/>
<circle cx="650" cy="596" r="2" fill="#E3EBFF"/>
<circle cx="704" cy="596" r="2" fill="#E3EBFF"/>
<circle cx="758" cy="434" r="2" fill="#E3EBFF"/>
<circle cx="812" cy="434" r="2" fill="#E3EBFF"/>
<circle cx="758" cy="488" r="2" fill="#E3EBFF"/>
<circle cx="812" cy="488" r="2" fill="#E3EBFF"/>
<circle cx="758" cy="542" r="2" fill="#E3EBFF"/>
<circle cx="812" cy="542" r="2" fill="#E3EBFF"/>
<circle cx="758" cy="596" r="2" fill="#E3EBFF"/>
<circle cx="812" cy="596" r="2" fill="#E3EBFF"/>
<circle cx="650" cy="650" r="2" fill="#E3EBFF"/>
<circle cx="704" cy="650" r="2" fill="#E3EBFF"/>
<circle cx="650" cy="704" r="2" fill="#E3EBFF"/>
<circle cx="704" cy="704" r="2" fill="#E3EBFF"/>
<circle cx="650" cy="758" r="2" fill="#E3EBFF"/>
<circle cx="704" cy="758" r="2" fill="#E3EBFF"/>
<circle cx="650" cy="812" r="2" fill="#E3EBFF"/>
<circle cx="704" cy="812" r="2" fill="#E3EBFF"/>
<circle cx="758" cy="650" r="2" fill="#E3EBFF"/>
<circle cx="812" cy="650" r="2" fill="#E3EBFF"/>
<circle cx="758" cy="704" r="2" fill="#E3EBFF"/>
<circle cx="812" cy="704" r="2" fill="#E3EBFF"/>
<circle cx="758" cy="758" r="2" fill="#E3EBFF"/>
<circle cx="812" cy="758" r="2" fill="#E3EBFF"/>
<circle cx="758" cy="812" r="2" fill="#E3EBFF"/>
<circle cx="812" cy="812" r="2" fill="#E3EBFF"/>
<circle cx="866" cy="2" r="2" fill="#E3EBFF"/>
<circle cx="920" cy="2" r="2" fill="#E3EBFF"/>
<circle cx="866" cy="56" r="2" fill="#E3EBFF"/>
<circle cx="920" cy="56" r="2" fill="#E3EBFF"/>
<circle cx="866" cy="110" r="2" fill="#E3EBFF"/>
<circle cx="920" cy="110" r="2" fill="#E3EBFF"/>
<circle cx="866" cy="164" r="2" fill="#E3EBFF"/>
<circle cx="920" cy="164" r="2" fill="#E3EBFF"/>
<circle cx="974" cy="2" r="2" fill="#E3EBFF"/>
<circle cx="1028" cy="2" r="2" fill="#E3EBFF"/>
<circle cx="974" cy="56" r="2" fill="#E3EBFF"/>
<circle cx="1028" cy="56" r="2" fill="#E3EBFF"/>
<circle cx="974" cy="110" r="2" fill="#E3EBFF"/>
<circle cx="1028" cy="110" r="2" fill="#E3EBFF"/>
<circle cx="974" cy="164" r="2" fill="#E3EBFF"/>
<circle cx="1028" cy="164" r="2" fill="#E3EBFF"/>
<circle cx="866" cy="218" r="2" fill="#E3EBFF"/>
<circle cx="920" cy="218" r="2" fill="#E3EBFF"/>
<circle cx="866" cy="272" r="2" fill="#E3EBFF"/>
<circle cx="920" cy="272" r="2" fill="#E3EBFF"/>
<circle cx="866" cy="326" r="2" fill="#E3EBFF"/>
<circle cx="920" cy="326" r="2" fill="#E3EBFF"/>
<circle cx="866" cy="380" r="2" fill="#E3EBFF"/>
<circle cx="920" cy="380" r="2" fill="#E3EBFF"/>
<circle cx="974" cy="218" r="2" fill="#E3EBFF"/>
<circle cx="1028" cy="218" r="2" fill="#E3EBFF"/>
<circle cx="974" cy="272" r="2" fill="#E3EBFF"/>
<circle cx="1028" cy="272" r="2" fill="#E3EBFF"/>
<circle cx="974" cy="326" r="2" fill="#E3EBFF"/>
<circle cx="1028" cy="326" r="2" fill="#E3EBFF"/>
<circle cx="974" cy="380" r="2" fill="#E3EBFF"/>
<circle cx="1028" cy="380" r="2" fill="#E3EBFF"/>
<circle cx="1082" cy="2" r="2" fill="#E3EBFF"/>
<circle cx="1136" cy="2" r="2" fill="#E3EBFF"/>
<circle cx="1082" cy="56" r="2" fill="#E3EBFF"/>
<circle cx="1136" cy="56" r="2" fill="#E3EBFF"/>
<circle cx="1082" cy="110" r="2" fill="#E3EBFF"/>
<circle cx="1136" cy="110" r="2" fill="#E3EBFF"/>
<circle cx="1082" cy="164" r="2" fill="#E3EBFF"/>
<circle cx="1136" cy="164" r="2" fill="#E3EBFF"/>
<circle cx="1190" cy="2" r="2" fill="#E3EBFF"/>
<circle cx="1244" cy="2" r="2" fill="#E3EBFF"/>
<circle cx="1190" cy="56" r="2" fill="#E3EBFF"/>
<circle cx="1244" cy="56" r="2" fill="#E3EBFF"/>
<circle cx="1190" cy="110" r="2" fill="#E3EBFF"/>
<circle cx="1244" cy="110" r="2" fill="#E3EBFF"/>
<circle cx="1190" cy="164" r="2" fill="#E3EBFF"/>
<circle cx="1244" cy="164" r="2" fill="#E3EBFF"/>
<circle cx="1082" cy="218" r="2" fill="#E3EBFF"/>
<circle cx="1136" cy="218" r="2" fill="#E3EBFF"/>
<circle cx="1082" cy="272" r="2" fill="#E3EBFF"/>
<circle cx="1136" cy="272" r="2" fill="#E3EBFF"/>
<circle cx="1082" cy="326" r="2" fill="#E3EBFF"/>
<circle cx="1136" cy="326" r="2" fill="#E3EBFF"/>
<circle cx="1082" cy="380" r="2" fill="#E3EBFF"/>
<circle cx="1136" cy="380" r="2" fill="#E3EBFF"/>
<circle cx="1190" cy="218" r="2" fill="#E3EBFF"/>
<circle cx="1244" cy="218" r="2" fill="#E3EBFF"/>
<circle cx="1190" cy="272" r="2" fill="#E3EBFF"/>
<circle cx="1244" cy="272" r="2" fill="#E3EBFF"/>
<circle cx="1190" cy="326" r="2" fill="#E3EBFF"/>
<circle cx="1244" cy="326" r="2" fill="#E3EBFF"/>
<circle cx="1190" cy="380" r="2" fill="#E3EBFF"/>
<circle cx="1244" cy="380" r="2" fill="#E3EBFF"/>
<circle cx="866" cy="434" r="2" fill="#E3EBFF"/>
<circle cx="920" cy="434" r="2" fill="#E3EBFF"/>
<circle cx="866" cy="488" r="2" fill="#E3EBFF"/>
<circle cx="920" cy="488" r="2" fill="#E3EBFF"/>
<circle cx="866" cy="542" r="2" fill="#E3EBFF"/>
<circle cx="920" cy="542" r="2" fill="#E3EBFF"/>
<circle cx="866" cy="596" r="2" fill="#E3EBFF"/>
<circle cx="920" cy="596" r="2" fill="#E3EBFF"/>
<circle cx="974" cy="434" r="2" fill="#E3EBFF"/>
<circle cx="1028" cy="434" r="2" fill="#E3EBFF"/>
<circle cx="974" cy="488" r="2" fill="#E3EBFF"/>
<circle cx="1028" cy="488" r="2" fill="#E3EBFF"/>
<circle cx="974" cy="542" r="2" fill="#E3EBFF"/>
<circle cx="1028" cy="542" r="2" fill="#E3EBFF"/>
<circle cx="974" cy="596" r="2" fill="#E3EBFF"/>
<circle cx="1028" cy="596" r="2" fill="#E3EBFF"/>
<circle cx="866" cy="650" r="2" fill="#E3EBFF"/>
<circle cx="920" cy="650" r="2" fill="#E3EBFF"/>
<circle cx="866" cy="704" r="2" fill="#E3EBFF"/>
<circle cx="920" cy="704" r="2" fill="#E3EBFF"/>
<circle cx="866" cy="758" r="2" fill="#E3EBFF"/>
<circle cx="920" cy="758" r="2" fill="#E3EBFF"/>
<circle cx="866" cy="812" r="2" fill="#E3EBFF"/>
<circle cx="920" cy="812" r="2" fill="#E3EBFF"/>
<circle cx="974" cy="650" r="2" fill="#E3EBFF"/>
<circle cx="1028" cy="650" r="2" fill="#E3EBFF"/>
<circle cx="974" cy="704" r="2" fill="#E3EBFF"/>
<circle cx="1028" cy="704" r="2" fill="#E3EBFF"/>
<circle cx="974" cy="758" r="2" fill="#E3EBFF"/>
<circle cx="1028" cy="758" r="2" fill="#E3EBFF"/>
<circle cx="974" cy="812" r="2" fill="#E3EBFF"/>
<circle cx="1028" cy="812" r="2" fill="#E3EBFF"/>
<circle cx="1082" cy="434" r="2" fill="#E3EBFF"/>
<circle cx="1136" cy="434" r="2" fill="#E3EBFF"/>
<circle cx="1082" cy="488" r="2" fill="#E3EBFF"/>
<circle cx="1136" cy="488" r="2" fill="#E3EBFF"/>
<circle cx="1082" cy="542" r="2" fill="#E3EBFF"/>
<circle cx="1136" cy="542" r="2" fill="#E3EBFF"/>
<circle cx="1082" cy="596" r="2" fill="#E3EBFF"/>
<circle cx="1136" cy="596" r="2" fill="#E3EBFF"/>
<circle cx="1190" cy="434" r="2" fill="#E3EBFF"/>
<circle cx="1244" cy="434" r="2" fill="#E3EBFF"/>
<circle cx="1190" cy="488" r="2" fill="#E3EBFF"/>
<circle cx="1244" cy="488" r="2" fill="#E3EBFF"/>
<circle cx="1190" cy="542" r="2" fill="#E3EBFF"/>
<circle cx="1244" cy="542" r="2" fill="#E3EBFF"/>
<circle cx="1190" cy="596" r="2" fill="#E3EBFF"/>
<circle cx="1244" cy="596" r="2" fill="#E3EBFF"/>
<circle cx="1082" cy="650" r="2" fill="#E3EBFF"/>
<circle cx="1136" cy="650" r="2" fill="#E3EBFF"/>
<circle cx="1082" cy="704" r="2" fill="#E3EBFF"/>
<circle cx="1136" cy="704" r="2" fill="#E3EBFF"/>
<circle cx="1082" cy="758" r="2" fill="#E3EBFF"/>
<circle cx="1136" cy="758" r="2" fill="#E3EBFF"/>
<circle cx="1082" cy="812" r="2" fill="#E3EBFF"/>
<circle cx="1136" cy="812" r="2" fill="#E3EBFF"/>
<circle cx="1190" cy="650" r="2" fill="#E3EBFF"/>
<circle cx="1244" cy="650" r="2" fill="#E3EBFF"/>
<circle cx="1190" cy="704" r="2" fill="#E3EBFF"/>
<circle cx="1244" cy="704" r="2" fill="#E3EBFF"/>
<circle cx="1190" cy="758" r="2" fill="#E3EBFF"/>
<circle cx="1244" cy="758" r="2" fill="#E3EBFF"/>
<circle cx="1190" cy="812" r="2" fill="#E3EBFF"/>
<circle cx="1244" cy="812" r="2" fill="#E3EBFF"/>
<circle cx="1298" cy="2" r="2" fill="#E3EBFF"/>
<circle cx="1352" cy="2" r="2" fill="#E3EBFF"/>
<circle cx="1298" cy="56" r="2" fill="#E3EBFF"/>
<circle cx="1352" cy="56" r="2" fill="#E3EBFF"/>
<circle cx="1298" cy="110" r="2" fill="#E3EBFF"/>
<circle cx="1352" cy="110" r="2" fill="#E3EBFF"/>
<circle cx="1298" cy="164" r="2" fill="#E3EBFF"/>
<circle cx="1352" cy="164" r="2" fill="#E3EBFF"/>
<circle cx="1298" cy="218" r="2" fill="#E3EBFF"/>
<circle cx="1352" cy="218" r="2" fill="#E3EBFF"/>
<circle cx="1298" cy="272" r="2" fill="#E3EBFF"/>
<circle cx="1352" cy="272" r="2" fill="#E3EBFF"/>
<circle cx="1298" cy="326" r="2" fill="#E3EBFF"/>
<circle cx="1352" cy="326" r="2" fill="#E3EBFF"/>
<circle cx="1298" cy="380" r="2" fill="#E3EBFF"/>
<circle cx="1352" cy="380" r="2" fill="#E3EBFF"/>
<circle cx="1298" cy="434" r="2" fill="#E3EBFF"/>
<circle cx="1352" cy="434" r="2" fill="#E3EBFF"/>
<circle cx="1298" cy="488" r="2" fill="#E3EBFF"/>
<circle cx="1352" cy="488" r="2" fill="#E3EBFF"/>
<circle cx="1298" cy="542" r="2" fill="#E3EBFF"/>
<circle cx="1352" cy="542" r="2" fill="#E3EBFF"/>
<circle cx="1298" cy="596" r="2" fill="#E3EBFF"/>
<circle cx="1352" cy="596" r="2" fill="#E3EBFF"/>
<circle cx="1298" cy="650" r="2" fill="#E3EBFF"/>
<circle cx="1352" cy="650" r="2" fill="#E3EBFF"/>
<circle cx="1298" cy="704" r="2" fill="#E3EBFF"/>
<circle cx="1352" cy="704" r="2" fill="#E3EBFF"/>
<circle cx="1298" cy="758" r="2" fill="#E3EBFF"/>
<circle cx="1352" cy="758" r="2" fill="#E3EBFF"/>
<circle cx="1298" cy="812" r="2" fill="#E3EBFF"/>
<circle cx="1352" cy="812" r="2" fill="#E3EBFF"/>
</svg>
