<svg width="48" height="48" viewBox="0 0 48 48" fill="none" xmlns="http://www.w3.org/2000/svg">
<path d="M0 24C0 10.7452 10.7452 0 24 0C37.2548 0 48 10.7452 48 24C48 37.2548 37.2548 48 24 48C10.7452 48 0 37.2548 0 24Z" fill="#1E272E"/>
<path d="M24 28.9188C23.8274 28.9188 23.6547 28.8645 23.5091 28.7557L14.9219 22.342V34.6641H33.0781V22.342L24.4909 28.7558C24.3453 28.8645 24.1726 28.9188 24 28.9188Z" fill="#F4F1FF"/>
<path d="M13.2812 21.117L10 18.6663V32.2034C10 33.5604 11.104 34.6644 12.4609 34.6644H13.2812V21.117Z" fill="#F4F1FF"/>
<path d="M34.7188 21.1167V34.6641H35.5391C36.896 34.6641 38 33.5602 38 32.2032V18.666L34.7188 21.1167Z" fill="#F4F1FF"/>
<path d="M34.173 13.3359H13.827L24 20.9257L34.173 13.3359Z" fill="#F4F1FF"/>
<path d="M36.5962 13.575L24.4905 22.6067C24.345 22.7153 24.1725 22.7695 24 22.7695C23.8275 22.7695 23.655 22.7153 23.5095 22.6067L11.4038 13.575C10.5744 13.9712 10 14.8181 10 15.7968V16.718C10.1158 16.7411 10.2285 16.7888 10.3294 16.8642L24 27.0746L37.6706 16.8642C37.7715 16.7889 37.8842 16.7411 38 16.718V15.7968C38 14.8181 37.4256 13.9711 36.5962 13.575Z" fill="#F4F1FF"/>
</svg>
