<svg width="200" height="100" viewBox="0 0 200 100" fill="none" xmlns="http://www.w3.org/2000/svg">
<path d="M178.304 45.6891C178.308 45.8669 178.4 46.2048 178.998 46.2048C179.321 46.2048 179.682 46.129 179.682 45.793C179.682 45.5441 179.434 45.4767 179.089 45.3981L178.737 45.3176C178.208 45.1987 177.699 45.0818 177.699 44.3818C177.699 44.0261 177.894 43.3991 178.958 43.3991C179.959 43.3991 180.23 44.0402 180.233 44.4304H179.577C179.558 44.2882 179.505 43.9513 178.907 43.9513C178.646 43.9513 178.336 44.0439 178.336 44.3322C178.336 44.5811 178.546 44.6344 178.682 44.6644L179.481 44.8562C179.928 44.962 180.339 45.1407 180.339 45.7125C180.339 46.6708 179.335 46.756 179.048 46.756C177.853 46.756 177.648 46.0859 177.648 45.6901H178.304V45.6891ZM184 46.6708H183.361V44.0084H183.351L182.74 46.6708H182.07L181.474 44.0084H181.463V46.6708H180.825V43.4852H181.825L182.416 45.9961H182.426L183.01 43.4852H184V46.6708ZM133.373 58.2461C132.454 58.8506 131.431 59.2081 130.332 59.2081C128.756 59.2081 127.437 58.5315 127.437 56.9977C127.437 54.7891 129.635 54.3249 131.759 54.3249C132.31 54.3249 132.822 54.3586 133.373 54.3961V58.2461ZM138.171 62.2383V49.9378C138.171 45.4458 135.095 43.022 130.259 43.022C127.876 43.022 125.789 43.5564 124.176 44.4482L124.213 48.0848C125.347 47.3708 127.181 46.6586 129.415 46.6586C131.65 46.6586 133.372 47.5495 133.372 49.9031V51.436C132.678 51.3658 131.98 51.3305 131.282 51.3303C126.668 51.3303 122.454 52.7902 122.454 57.3552C122.454 60.5285 124.983 62.7025 128.425 62.7025C130.404 62.7025 132.234 61.9201 133.628 60.8149H133.665V62.2383H138.171ZM154.083 62.2383V50.4029C154.083 50.0098 154.047 49.5101 153.937 49.118C153.571 47.513 151.958 46.8355 150.42 46.8355C149.138 46.8355 148.002 47.1574 146.94 47.835V62.2383H142.106V43.4843H146.647V44.9114H146.686C148.297 43.7323 150.091 43.0211 152.18 43.0211C154.964 43.0211 157.639 44.2311 158.518 46.8346C158.849 47.762 158.885 48.7605 158.885 49.7225V62.2374H154.083V62.2383ZM107.552 43.4852V55.3216C107.552 55.7146 107.588 56.2144 107.698 56.6065C108.065 58.2105 109.676 58.888 111.215 58.888C112.497 58.888 113.633 58.5671 114.695 57.8904V43.4852H119.53V62.2392H114.988V60.814H114.951C113.339 61.9922 111.543 62.7034 109.454 62.7034C106.67 62.7034 103.995 61.4925 103.116 58.889C102.787 57.9625 102.75 56.964 102.75 56.0019V43.4852H107.552ZM74.8989 49.7394C74.8989 49.9855 74.8989 50.2335 74.8614 50.4422H67.4264C67.4264 48.0175 68.5428 46.0466 71.2891 46.0466C73.5324 46.0466 74.8989 47.6319 74.8989 49.7394ZM79.4846 51.1721C79.4846 45.7322 75.7989 43.022 71.3948 43.022C65.734 43.022 62.5531 47.2763 62.5531 52.6872C62.5531 58.6953 65.91 62.7015 72.2978 62.7015C74.395 62.7015 76.596 62.3824 78.4692 61.5093L78.3625 57.9962C77.0307 58.7711 75.2239 59.1884 73.6709 59.1884C69.6611 59.1884 67.4274 57.357 67.4274 53.3938H79.3039C79.4481 52.6872 79.4846 51.9142 79.4846 51.1721ZM168.927 62.6941C164.173 62.6941 162.837 60.3302 162.837 56.3023V46.6708H160.302L160.295 43.4852H162.837V40.0292L167.55 38.7256V43.4852H172.884V46.6708H167.55V56.3679C167.55 58.0336 168.128 59.2418 170.272 59.2418C171.29 59.2418 172.447 58.9564 173.242 58.4604L173.322 61.8499C172.05 62.4105 170.308 62.6941 168.927 62.6941ZM93.8699 43.4852V44.7402C92.3602 43.6471 90.6957 43.022 88.962 43.022C86.3975 43.022 81.5597 44.627 81.5597 52.5787V53.1467C81.5597 61.0985 86.3975 62.7015 88.962 62.7015C90.7938 62.7015 92.5535 62.0249 94.1276 60.814H94.1642V70.2649H98.8086V43.4852H93.8699ZM93.8699 57.8895C93.1757 58.3892 92.0746 58.9236 90.7938 58.9236C88.0466 58.9236 86.6532 56.3201 86.6532 52.8622C86.6532 49.4044 88.0456 46.8018 90.7938 46.8018C92.0746 46.8018 93.1757 47.3362 93.8699 47.835V57.8895Z" fill="#3B4095"/>
<path d="M37.8635 29.5264C37.8395 29.5358 37.8203 29.5451 37.7943 29.5461C37.748 29.5474 37.7031 29.5309 37.6691 29.5003C37.6351 29.4697 37.6148 29.4273 37.6126 29.3823C37.6134 29.346 37.6247 29.3106 37.6453 29.2803C38.6011 27.885 39.8271 26.8116 41.1223 26.1387C43.2744 25.0111 45.3331 24.7135 46.8428 25.3002C47.99 25.7466 48.7294 26.6871 49.0323 28.0909C49.9323 32.2441 46.5322 38.677 41.6002 42.1358C40.1983 43.1306 38.7934 43.8015 37.501 44.1366C37.4866 44.1366 37.4741 44.1422 37.4693 44.1422C37.4227 44.1447 37.3769 44.1293 37.3419 44.0991C37.307 44.069 37.2857 44.0266 37.2827 43.9812C37.2827 43.9372 37.3068 43.8951 37.3308 43.8605C40.4281 40.5261 43.8782 35.2602 43.3455 31.5871C43.0426 29.4796 41.6714 28.5747 39.1107 29.1296C38.6836 29.2252 38.2662 29.358 37.8635 29.5264Z" fill="#E0912F"/>
<path d="M42.6811 60.8991C32.1902 50.7332 30.0584 35.7572 38.0135 26.3783C38.0356 26.3467 38.046 26.3088 38.043 26.2708C38.04 26.2328 38.0238 26.1968 37.9971 26.1689C37.9705 26.1409 37.9348 26.1226 37.896 26.117C37.8573 26.1114 37.8177 26.1187 37.7837 26.1378C35.6051 27.4027 33.6739 29.0331 32.0796 30.9536C24.0581 40.5748 25.9774 55.2973 36.1471 64.7379C38.3434 63.8367 40.5733 62.5518 42.6811 60.8991Z" fill="#CF4037"/>
<path d="M52.8681 45.2774C52.3303 44.5719 51.6605 43.9715 50.894 43.5077C50.8668 43.4917 50.8353 43.4839 50.8036 43.4853C50.7093 43.4853 50.6353 43.5555 50.6353 43.6565C50.6353 43.6818 50.6401 43.6996 50.6468 43.7211C52.7363 48.2907 49.4535 55.5855 42.6801 60.9001C40.5723 62.5528 38.3424 63.8377 36.1462 64.7379C30.5151 67.0447 25.0966 66.8155 22.4686 63.6926C20.0541 60.8318 20.5733 56.2649 23.3821 51.7776C23.4041 51.7511 23.4163 51.7181 23.4167 51.6841C23.4165 51.6619 23.4117 51.6399 23.4027 51.6195C23.3937 51.5991 23.3807 51.5806 23.3643 51.5652C23.348 51.5497 23.3287 51.5375 23.3074 51.5293C23.2862 51.5211 23.2636 51.5171 23.2408 51.5175C23.2179 51.5171 23.1952 51.5216 23.1743 51.5307C23.1533 51.5397 23.1347 51.5531 23.1196 51.5699C15.7654 58.4576 12.8913 66.8304 16.653 71.6237C20.9916 77.1507 32.6152 75.733 42.6195 68.4597C52.6219 61.178 57.2077 50.8025 52.8681 45.2774Z" fill="#E0912F"/>
<path d="M63.1599 70.2648C63.2522 70.2705 63.3301 70.3388 63.3301 70.4295C63.3301 70.4885 63.308 70.5362 63.2628 70.5634C61.1646 72.1028 58.5491 72.7925 55.8519 72.7719C51.8853 72.7373 47.8169 71.8239 43.9811 70.0318C43.9917 70.0168 44.0119 70.0112 44.0283 69.9981C45.7923 68.7125 47.4418 67.2843 48.9593 65.7289C53.4816 68.4428 58.4078 69.9672 63.1599 70.2648Z" fill="#CF4037"/>
</svg>
