<svg width="89" height="89" viewBox="0 0 89 89" fill="none" xmlns="http://www.w3.org/2000/svg">
<g clip-path="url(#clip0)">
<path d="M89 44.5C89 19.9233 69.0767 0 44.5 0C19.9233 0 0 19.9233 0 44.5C0 69.0767 19.9233 89 44.5 89C69.0767 89 89 69.0767 89 44.5Z" fill="#6F6FFB"/>
<path d="M25.0312 58.4062C28.8714 58.4062 31.9844 55.2932 31.9844 51.4531C31.9844 47.613 28.8714 44.5 25.0312 44.5C21.1911 44.5 18.0781 47.613 18.0781 51.4531C18.0781 55.2932 21.1911 58.4062 25.0312 58.4062Z" fill="#F0BD70"/>
<path d="M25.0312 57.0156H48.6719V91.6005C48.6719 91.6005 43.6058 94.5625 36.8516 94.5625C30.0973 94.5625 25.0312 89.7273 25.0312 89.7273V57.0156Z" fill="#F0BD70"/>
<path d="M48.6718 74.9102C48.6718 82.7728 47.4453 82.0274 39.4701 82.0274C31.4948 82.0274 27.8152 75.6542 27.8152 67.7916C27.8152 59.929 27.5121 52.8438 33.9479 52.8438C52.1484 53.5391 48.6718 67.0476 48.6718 74.9102Z" fill="#E9B05B"/>
<path d="M63.8099 50.2016C63.8099 62.6087 68.9358 77.8653 46.5856 77.8653C24.2355 77.8653 24.2355 62.6087 24.2355 50.2016C20.8591 35.4609 21.5544 18.0781 44.4997 18.0781C67.445 18.0781 63.8099 37.793 63.8099 50.2016Z" fill="#FFCB7E"/>
<path d="M52.8438 57.0156H51.4531C50.6851 57.0156 50.0625 57.6382 50.0625 58.4062C50.0625 59.1743 50.6851 59.7969 51.4531 59.7969H52.8438C53.6118 59.7969 54.2344 59.1743 54.2344 58.4062C54.2344 57.6382 53.6118 57.0156 52.8438 57.0156Z" fill="#F0BD70"/>
<path d="M52.8438 83.4375H22.25C15.3378 83.4375 9.73438 89.0409 9.73438 95.9531V102.906C9.73438 109.818 15.3378 115.422 22.25 115.422H52.8438C59.7559 115.422 65.3594 109.818 65.3594 102.906V95.9531C65.3594 89.0409 59.7559 83.4375 52.8438 83.4375Z" fill="#E05A33"/>
<path fill-rule="evenodd" clip-rule="evenodd" d="M63.9243 45.1716C65.0785 44.5203 65.9622 43.478 66.416 42.2328C66.8698 40.9875 66.864 39.6212 66.3996 38.3798C67.669 37.7678 68.6589 36.6968 69.1691 35.3832C69.6793 34.0695 69.6719 32.6112 69.1484 31.3027C68.6249 29.9943 67.6242 28.9334 66.3486 28.3343C65.073 27.7352 63.6176 27.6427 62.2764 28.0753C64.2469 33.1845 64.1023 39.5035 63.9243 45.1716Z" fill="#47280B"/>
<path fill-rule="evenodd" clip-rule="evenodd" d="M50.4755 31.6506C49.2083 32.7646 47.5779 33.3778 45.8906 33.375C44.3518 33.3775 42.8559 32.8671 41.6395 31.9246C40.7369 32.8269 39.6651 33.5423 38.4856 34.0298C37.306 34.5173 36.0419 34.7674 34.7656 34.7656C33.802 34.7663 32.8436 34.6238 31.9218 34.3429C31.5593 34.7396 31.1416 35.0819 30.6814 35.3594C31.2288 36.0108 31.6195 36.7791 31.8234 37.6052C32.0273 38.4313 32.039 39.2932 31.8575 40.1245C31.6761 40.9558 31.3063 41.7344 30.7767 42.4004C30.2471 43.0664 29.5717 43.602 28.8026 43.966C29.0322 44.2804 29.1691 44.6528 29.198 45.041C29.2269 45.4292 29.1466 45.8178 28.9662 46.1627C28.7858 46.5076 28.5124 46.7952 28.177 46.9929C27.8417 47.1906 27.4577 47.2904 27.0685 47.2812C26.3868 48.4674 25.2919 49.3607 23.993 49.7904C22.6942 50.2202 21.2825 50.1562 20.0279 49.6107C18.7732 49.0652 17.7636 48.0765 17.192 46.8335C16.6205 45.5905 16.527 44.1805 16.9295 42.873C16.4113 42.357 16.0002 41.7437 15.7201 41.0683C15.4399 40.3929 15.296 39.6687 15.2969 38.9375C15.2969 37.3995 15.9213 36.0074 16.9295 35.002C16.6609 34.1235 16.614 33.1922 16.7931 32.2912C16.9722 31.3902 17.3716 30.5476 17.9558 29.8386C17.2323 28.5639 16.806 27.1423 16.7085 25.6798C16.611 24.2173 16.8448 22.7517 17.3926 21.3922C17.9405 20.0327 18.7881 18.8144 19.8723 17.8281C20.9565 16.8418 22.2494 16.113 23.6545 15.696C23.5823 14.6966 23.7813 13.6962 24.2306 12.8006C24.6799 11.905 25.3627 11.1473 26.207 10.6077C27.0513 10.0681 28.0257 9.76661 29.0272 9.73502C30.0287 9.70344 31.0201 9.94296 31.8968 10.4283C32.7511 8.94828 33.9801 7.71937 35.4602 6.8652C36.9403 6.01103 38.6192 5.56172 40.3281 5.56249C42.2375 5.56249 44.0189 6.11178 45.5221 7.06297C46.5547 5.95063 47.8507 5.11611 49.2906 4.63634C50.7305 4.15656 52.2681 4.04698 53.7615 4.31768C55.2549 4.58837 56.6561 5.23065 57.836 6.18529C59.016 7.13994 59.9366 8.37625 60.5131 9.78025C61.2487 9.87561 61.9579 10.1172 62.5988 10.4907C63.2397 10.8642 63.7995 11.3621 64.2451 11.9552C64.6907 12.5483 65.0132 13.2245 65.1936 13.9441C65.374 14.6636 65.4086 15.412 65.2954 16.1451C67.875 18.0559 69.5313 21.0151 69.5313 24.3359C69.5313 30.0959 64.55 34.7656 58.4063 34.7656C55.301 34.7656 52.4933 33.5725 50.4755 31.6506Z" fill="#47280B"/>
<path d="M40.2295 63.9688C40.2295 63.5999 40.376 63.2462 40.6368 62.9854C40.8976 62.7246 41.2513 62.5781 41.6201 62.5781H54.3346C54.7034 62.5781 55.0571 62.7246 55.3179 62.9854C55.5787 63.2462 55.7252 63.5999 55.7252 63.9688C55.7252 65.8128 54.9927 67.5814 53.6887 68.8854C52.3847 70.1893 50.6162 70.9219 48.7721 70.9219H47.1826C45.3385 70.9219 43.57 70.1893 42.266 68.8854C40.9621 67.5814 40.2295 65.8128 40.2295 63.9688Z" fill="#66253C"/>
<path fill-rule="evenodd" clip-rule="evenodd" d="M51.1123 70.5186C50.3612 70.7865 49.5694 70.9229 48.7719 70.9219H47.1824C45.3865 70.9219 43.6602 70.227 42.3652 68.9827C41.0701 67.7385 40.3067 66.0414 40.2349 64.2469C41.2973 63.8492 42.8743 63.8951 44.4304 63.941C44.9254 63.9549 45.4177 63.9688 45.8905 63.9688C48.9638 63.9688 51.453 66.1479 51.453 68.836C51.453 69.427 51.3321 69.9944 51.1123 70.5186Z" fill="#B03E67"/>
<path d="M41.7188 62.5781H55.625V63.9688C55.625 64.3376 55.4785 64.6913 55.2177 64.9521C54.9569 65.2129 54.6032 65.3594 54.2344 65.3594H43.1094C42.7406 65.3594 42.3868 65.2129 42.1261 64.9521C41.8653 64.6913 41.7188 64.3376 41.7188 63.9688V62.5781Z" fill="white"/>
<path d="M45.8906 52.1484C45.8906 50.9964 44.9567 50.0625 43.8047 50.0625C42.6527 50.0625 41.7188 50.9964 41.7188 52.1484V53.5391C41.7188 54.6911 42.6527 55.625 43.8047 55.625C44.9567 55.625 45.8906 54.6911 45.8906 53.5391V52.1484Z" fill="#1B0B47"/>
<path d="M59.7969 52.1484C59.7969 50.9964 58.863 50.0625 57.7109 50.0625C56.5589 50.0625 55.625 50.9964 55.625 52.1484V53.5391C55.625 54.6911 56.5589 55.625 57.7109 55.625C58.863 55.625 59.7969 54.6911 59.7969 53.5391V52.1484Z" fill="#1B0B47"/>
<path d="M38.2422 54.2344H35.4609C34.3089 54.2344 33.375 55.1683 33.375 56.3203C33.375 57.4723 34.3089 58.4062 35.4609 58.4062H38.2422C39.3942 58.4062 40.3281 57.4723 40.3281 56.3203C40.3281 55.1683 39.3942 54.2344 38.2422 54.2344Z" fill="#FF859B"/>
<path d="M63.2734 54.2344H61.8828C60.7308 54.2344 59.7969 55.1683 59.7969 56.3203C59.7969 57.4723 60.7308 58.4062 61.8828 58.4062H63.2734C64.4255 58.4062 65.3594 57.4723 65.3594 56.3203C65.3594 55.1683 64.4255 54.2344 63.2734 54.2344Z" fill="#FF859B"/>
</g>
<defs>
<clipPath id="clip0">
<rect width="89" height="89" rx="44.5" fill="white"/>
</clipPath>
</defs>
</svg>
