<svg width="105" height="105" viewBox="0 0 105 105" fill="none" xmlns="http://www.w3.org/2000/svg">
<g filter="url(#filter0_d)">
<g clip-path="url(#clip0)">
<path d="M97 47.5C97 22.9233 77.0767 3 52.5 3C27.9233 3 8 22.9233 8 47.5C8 72.0767 27.9233 92 52.5 92C77.0767 92 97 72.0767 97 47.5Z" fill="#68DBF2"/>
<path d="M33.0312 61.4062C36.8714 61.4062 39.9844 58.2932 39.9844 54.4531C39.9844 50.613 36.8714 47.5 33.0312 47.5C29.1911 47.5 26.0781 50.613 26.0781 54.4531C26.0781 58.2932 29.1911 61.4062 33.0312 61.4062Z" fill="#EAC0B3"/>
<path d="M33.0312 60.0156H56.6719V94.6005C56.6719 94.6005 51.6058 97.5625 44.8516 97.5625C38.0973 97.5625 33.0312 92.7273 33.0312 92.7273V60.0156Z" fill="#EAC0B3"/>
<path d="M56.409 76.8589C56.409 84.3474 55.1991 83.6382 47.324 83.6382C39.4489 83.6382 35.8152 77.5681 35.8152 70.0796C35.8152 62.5925 35.5162 55.8438 41.8714 55.8438C59.8424 56.5057 56.409 69.3704 56.409 76.8589Z" fill="#C99688"/>
<path d="M71.8104 53.2016C71.8104 65.6087 69.883 80.8653 54.5861 80.8653C39.2893 80.8653 32.236 65.6087 32.236 53.2016C28.8596 38.4609 29.5549 21.0781 52.5002 21.0781C75.4455 21.0781 71.8104 40.793 71.8104 53.2016Z" fill="#F5D0C5"/>
<path d="M60.8438 60.0156H59.4531C58.6851 60.0156 58.0625 60.6382 58.0625 61.4062C58.0625 62.1743 58.6851 62.7969 59.4531 62.7969H60.8438C61.6118 62.7969 62.2344 62.1743 62.2344 61.4062C62.2344 60.6382 61.6118 60.0156 60.8438 60.0156Z" fill="#EAC0B3"/>
<path d="M60.8438 86.4375H30.25C23.3378 86.4375 17.7344 92.0409 17.7344 98.9531V105.906C17.7344 112.818 23.3378 118.422 30.25 118.422H60.8438C67.7559 118.422 73.3594 112.818 73.3594 105.906V98.9531C73.3594 92.0409 67.7559 86.4375 60.8438 86.4375Z" fill="#E05A33"/>
<path fill-rule="evenodd" clip-rule="evenodd" d="M48.2795 39.4358C56.0809 42.0265 66.8985 45.6171 78.2266 34.2891C83.7891 28.7266 58.7578 5.08594 38.5938 18.2969C22.8338 20.6317 23.7335 30.0755 24.4289 37.3623C24.5624 38.7571 24.6875 40.0713 24.6875 41.2422C24.6875 41.9834 24.7849 42.5383 24.9656 42.936C24.7784 44.4501 24.6855 45.9744 24.6875 47.5C24.6875 48.9753 25.2736 50.3901 26.3167 51.4333C27.3599 52.4765 28.7747 53.0625 30.25 53.0625C31.7253 53.0625 33.1401 52.4765 34.1833 51.4333C35.2265 50.3901 35.8125 48.9753 35.8125 47.5C36.6618 47.5001 37.4997 47.3058 38.2622 46.9319C39.0248 46.558 39.6915 46.0145 40.2114 45.343C40.7314 44.6715 41.0906 43.8899 41.2617 43.0581C41.4328 42.2262 41.4111 41.3663 41.1984 40.5441L41.375 40.5469C43.0771 40.5469 44.5999 39.782 45.6206 38.5791C46.4605 38.8322 47.3491 39.1271 48.2795 39.4358Z" fill="#1B0B47"/>
<path d="M50.0928 59.3732C53.3715 59.3732 56.0294 56.7153 56.0294 53.4366C56.0294 50.1579 53.3715 47.5 50.0928 47.5C46.8141 47.5 44.1562 50.1579 44.1562 53.4366C44.1562 56.7153 46.8141 59.3732 50.0928 59.3732Z" stroke="black" stroke-width="2.47222"/>
<path d="M69.5616 59.3732C72.8403 59.3732 75.4982 56.7153 75.4982 53.4366C75.4982 50.1579 72.8403 47.5 69.5616 47.5C66.2829 47.5 63.625 50.1579 63.625 53.4366C63.625 56.7153 66.2829 59.3732 69.5616 59.3732Z" stroke="black" stroke-width="2.47222"/>
<path d="M55.2603 51.8165L64.9946 51.6719" stroke="black" stroke-width="2.47222"/>
<path d="M46.9375 66.9688C46.9375 65.8623 47.377 64.8012 48.1594 64.0188C48.9418 63.2364 50.0029 62.7969 51.1094 62.7969H63.625C64.7314 62.7969 65.7926 63.2364 66.575 64.0188C67.3573 64.8012 67.7969 65.8623 67.7969 66.9688H46.9375Z" fill="#1B0B47"/>
</g>
</g>
<defs>
<filter id="filter0_d" x="0.583333" y="0.527777" width="103.833" height="103.833" filterUnits="userSpaceOnUse" color-interpolation-filters="sRGB">
<feFlood flood-opacity="0" result="BackgroundImageFix"/>
<feColorMatrix in="SourceAlpha" type="matrix" values="0 0 0 0 0 0 0 0 0 0 0 0 0 0 0 0 0 0 127 0"/>
<feOffset dy="4.94444"/>
<feGaussianBlur stdDeviation="3.70833"/>
<feColorMatrix type="matrix" values="0 0 0 0 0 0 0 0 0 0 0 0 0 0 0 0 0 0 0.15 0"/>
<feBlend mode="normal" in2="BackgroundImageFix" result="effect1_dropShadow"/>
<feBlend mode="normal" in="SourceGraphic" in2="effect1_dropShadow" result="shape"/>
</filter>
<clipPath id="clip0">
<rect x="8" y="3" width="89" height="89" rx="44.5" fill="white"/>
</clipPath>
</defs>
</svg>
