<svg width="154" height="178" viewBox="0 0 154 178" fill="none" xmlns="http://www.w3.org/2000/svg">
<g filter="url(#filter0_d)">
<path d="M48.2877 134.764L44.6515 110.765C44.3854 109.009 46.2507 107.711 47.8044 108.572L68.2983 119.922C69.9244 120.823 69.7082 123.226 67.9475 123.822L57.7229 127.282C57.2375 127.447 56.8272 127.78 56.5665 128.221L52.2462 135.532C51.2221 137.265 48.5893 136.754 48.2877 134.764Z" fill="#7D5FFF"/>
<path d="M48.2877 134.764L44.6515 110.765C44.3854 109.009 46.2507 107.711 47.8044 108.572L68.2983 119.922C69.9244 120.823 69.7082 123.226 67.9475 123.822L57.7229 127.282C57.2375 127.447 56.8272 127.78 56.5665 128.221L52.2462 135.532C51.2221 137.265 48.5893 136.754 48.2877 134.764Z" stroke="white" stroke-width="1.42676" stroke-linecap="round" stroke-linejoin="round"/>
</g>
<g filter="url(#filter1_d)">
<rect x="65.4014" y="135" width="79.8986" height="28.5352" fill="#7D5FFF"/>
</g>
<path d="M94.7414 144.266V146.025H91.0689V147.926H93.8169V149.633H91.0689V153.28H88.8731V144.266H94.7414ZM95.4589 149.685C95.4589 148.949 95.5959 148.302 95.8698 147.746C96.1523 147.189 96.5332 146.761 97.0126 146.462C97.492 146.162 98.0271 146.012 98.6177 146.012C99.1228 146.012 99.5637 146.115 99.9403 146.321C100.326 146.526 100.621 146.796 100.826 147.13V146.115H103.022V153.28H100.826V152.266C100.612 152.6 100.313 152.869 99.9275 153.075C99.5508 153.28 99.11 153.383 98.6049 153.383C98.0228 153.383 97.492 153.233 97.0126 152.934C96.5332 152.625 96.1523 152.193 95.8698 151.637C95.5959 151.072 95.4589 150.421 95.4589 149.685ZM100.826 149.698C100.826 149.15 100.672 148.717 100.364 148.401C100.064 148.084 99.6964 147.926 99.2598 147.926C98.8232 147.926 98.4508 148.084 98.1426 148.401C97.843 148.709 97.6932 149.137 97.6932 149.685C97.6932 150.233 97.843 150.669 98.1426 150.995C98.4508 151.311 98.8232 151.47 99.2598 151.47C99.6964 151.47 100.064 151.311 100.364 150.995C100.672 150.678 100.826 150.246 100.826 149.698ZM111.686 146.115V153.28H109.49V152.304C109.268 152.621 108.964 152.878 108.579 153.075C108.202 153.263 107.782 153.357 107.32 153.357C106.772 153.357 106.289 153.237 105.869 152.998C105.45 152.75 105.124 152.394 104.893 151.932C104.662 151.47 104.546 150.926 104.546 150.301V146.115H106.729V150.006C106.729 150.485 106.854 150.858 107.102 151.123C107.35 151.388 107.684 151.521 108.103 151.521C108.531 151.521 108.87 151.388 109.118 151.123C109.366 150.858 109.49 150.485 109.49 150.006V146.115H111.686ZM115.318 151.47H118.425V153.28H112.865V151.534L115.844 147.926H112.891V146.115H118.361V147.861L115.318 151.47ZM120.738 145.37C120.353 145.37 120.036 145.259 119.788 145.036C119.548 144.805 119.428 144.523 119.428 144.189C119.428 143.847 119.548 143.564 119.788 143.341C120.036 143.11 120.353 142.995 120.738 142.995C121.114 142.995 121.423 143.11 121.662 143.341C121.911 143.564 122.035 143.847 122.035 144.189C122.035 144.523 121.911 144.805 121.662 145.036C121.423 145.259 121.114 145.37 120.738 145.37ZM121.829 146.115V153.28H119.633V146.115H121.829Z" fill="white"/>
<g clip-path="url(#clip0)">
<path d="M80 40C80 17.9086 62.0914 0 40 0C17.9086 0 0 17.9086 0 40C0 62.0914 17.9086 80 40 80C62.0914 80 80 62.0914 80 40Z" fill="#6F6FFB"/>
<path d="M22.5 52.5C25.9518 52.5 28.75 49.7018 28.75 46.25C28.75 42.7982 25.9518 40 22.5 40C19.0482 40 16.25 42.7982 16.25 46.25C16.25 49.7018 19.0482 52.5 22.5 52.5Z" fill="#FFCB7E"/>
<path d="M22.5 51.25H43.75V82.3375C43.75 82.3375 39.1962 85 33.125 85C27.0538 85 22.5 80.6538 22.5 80.6538V51.25Z" fill="#FFCB7E"/>
<path d="M43.75 67.335C43.75 74.4025 42.6475 73.7325 35.4787 73.7325C28.31 73.7325 25.0025 68.0037 25.0025 60.9362C25.0025 53.8688 24.73 47.5 30.515 47.5C46.875 48.125 43.75 60.2675 43.75 67.335Z" fill="#FFCB7E"/>
<path d="M57.3575 45.125C57.3575 56.2775 61.965 69.9912 41.875 69.9912C21.785 69.9912 21.785 56.2775 21.785 45.125C18.75 31.875 19.375 16.25 40 16.25C60.625 16.25 57.3575 33.9712 57.3575 45.125Z" fill="#FFCB7E"/>
<path d="M47.5 51.25H46.25C45.5596 51.25 45 51.8096 45 52.5C45 53.1904 45.5596 53.75 46.25 53.75H47.5C48.1904 53.75 48.75 53.1904 48.75 52.5C48.75 51.8096 48.1904 51.25 47.5 51.25Z" fill="#FFCB7E"/>
<path d="M47.5 75H20C13.7868 75 8.75 80.0368 8.75 86.25V92.5C8.75 98.7132 13.7868 103.75 20 103.75H47.5C53.7132 103.75 58.75 98.7132 58.75 92.5V86.25C58.75 80.0368 53.7132 75 47.5 75Z" fill="#E05A33"/>
<path d="M25.8412 35.275V42.7987C25.8412 43.75 25 45 24.375 45.625C23.75 46.25 21.875 47.5 20.8125 47.5C19.7525 47.5 16.3887 46.9362 14.78 44.6787C13.1712 42.4225 13.6637 30.5262 14.78 27.7537C15.895 24.9812 20.0087 19.1438 25.8425 14.6888C30.0675 11.4613 35.4237 8.7925 41.9312 8.0075C73.1062 4.245 61.5225 26.2325 57.5 31.875C50.625 29.375 45.625 28.75 36.6037 29.9775C27.5825 31.2062 26.5837 32.455 25.8412 35.2763V35.275Z" fill="#1B0B47"/>
<path d="M36.1613 57.5C36.1613 57.1685 36.293 56.8505 36.5274 56.6161C36.7618 56.3817 37.0798 56.25 37.4113 56.25H48.84C49.1716 56.25 49.4895 56.3817 49.7239 56.6161C49.9583 56.8505 50.09 57.1685 50.09 57.5C50.09 59.1576 49.4316 60.7473 48.2594 61.9194C47.0873 63.0915 45.4976 63.75 43.84 63.75H42.4113C40.7537 63.75 39.164 63.0915 37.9919 61.9194C36.8198 60.7473 36.1613 59.1576 36.1613 57.5Z" fill="#66253C"/>
<path fill-rule="evenodd" clip-rule="evenodd" d="M45.9437 63.3875C45.2685 63.6283 44.5568 63.751 43.8399 63.75H42.4112C40.7969 63.75 39.2452 63.1254 38.0811 62.007C36.917 60.8885 36.2308 59.3631 36.1662 57.75C37.1212 57.3925 38.5387 57.4338 39.9374 57.475C40.3824 57.4875 40.8249 57.5 41.2499 57.5C44.0124 57.5 46.25 59.4588 46.25 61.875C46.25 62.4063 46.1412 62.9163 45.9437 63.3875Z" fill="#B03E67"/>
<path d="M37.5 56.25H50V57.5C50 57.8315 49.8683 58.1495 49.6339 58.3839C49.3995 58.6183 49.0815 58.75 48.75 58.75H38.75C38.4185 58.75 38.1005 58.6183 37.8661 58.3839C37.6317 58.1495 37.5 57.8315 37.5 57.5V56.25Z" fill="white"/>
<path d="M40 56.625C40 56.5255 40.0395 56.4302 40.1098 56.3598C40.1802 56.2895 40.2755 56.25 40.375 56.25H42.125C42.2245 56.25 42.3198 56.2895 42.3902 56.3598C42.4605 56.4302 42.5 56.5255 42.5 56.625V59.625C42.5 59.7245 42.4605 59.8198 42.3902 59.8902C42.3198 59.9605 42.2245 60 42.125 60H40.375C40.2755 60 40.1802 59.9605 40.1098 59.8902C40.0395 59.8198 40 59.7245 40 59.625V56.625Z" fill="#B03E67"/>
<path d="M37.5 46.875C37.5 46.3777 37.6975 45.9008 38.0492 45.5492C38.4008 45.1975 38.8777 45 39.375 45C39.8723 45 40.3492 45.1975 40.7008 45.5492C41.0525 45.9008 41.25 46.3777 41.25 46.875V48.4088C41.25 48.5963 41.0975 48.75 40.9088 48.75H37.8413C37.7507 48.75 37.6639 48.714 37.5999 48.6501C37.536 48.5861 37.5 48.4993 37.5 48.4088V46.875ZM50 46.875C50 46.3777 50.1975 45.9008 50.5492 45.5492C50.9008 45.1975 51.3777 45 51.875 45C52.3723 45 52.8492 45.1975 53.2008 45.5492C53.5525 45.9008 53.75 46.3777 53.75 46.875V48.4088C53.75 48.5963 53.5975 48.75 53.4088 48.75H50.3412C50.2507 48.75 50.1639 48.714 50.0999 48.6501C50.036 48.5861 50 48.4993 50 48.4088V46.875Z" fill="#1B0B47"/>
<path d="M37.8362 50.6725C40.7834 50.6725 43.1725 48.2834 43.1725 45.3363C43.1725 42.3891 40.7834 40 37.8362 40C34.8891 40 32.5 42.3891 32.5 45.3363C32.5 48.2834 34.8891 50.6725 37.8362 50.6725Z" stroke="white" stroke-width="2"/>
<path d="M55.3363 50.6725C58.2834 50.6725 60.6725 48.2834 60.6725 45.3363C60.6725 42.3891 58.2834 40 55.3363 40C52.3891 40 50 42.3891 50 45.3363C50 48.2834 52.3891 50.6725 55.3363 50.6725Z" stroke="white" stroke-width="2"/>
<path d="M42.4812 43.88L51.2312 43.75" stroke="white" stroke-width="2"/>
<path d="M35 57.5C35 56.5054 35.3951 55.5516 36.0983 54.8484C36.8016 54.1451 37.7554 53.75 38.75 53.75H50C50.9946 53.75 51.9484 54.1451 52.6516 54.8484C53.3549 55.5516 53.75 56.5054 53.75 57.5H35Z" fill="#1B0B47"/>
</g>
<defs>
<filter id="filter0_d" x="35.3515" y="104.731" width="43.3243" height="46.8358" filterUnits="userSpaceOnUse" color-interpolation-filters="sRGB">
<feFlood flood-opacity="0" result="BackgroundImageFix"/>
<feColorMatrix in="SourceAlpha" type="matrix" values="0 0 0 0 0 0 0 0 0 0 0 0 0 0 0 0 0 0 127 0"/>
<feOffset dy="5.70704"/>
<feGaussianBlur stdDeviation="4.28028"/>
<feColorMatrix type="matrix" values="0 0 0 0 0 0 0 0 0 0 0 0 0 0 0 0 0 0 0.15 0"/>
<feBlend mode="normal" in2="BackgroundImageFix" result="effect1_dropShadow"/>
<feBlend mode="normal" in="SourceGraphic" in2="effect1_dropShadow" result="shape"/>
</filter>
<filter id="filter1_d" x="56.8408" y="132.146" width="97.0197" height="45.6563" filterUnits="userSpaceOnUse" color-interpolation-filters="sRGB">
<feFlood flood-opacity="0" result="BackgroundImageFix"/>
<feColorMatrix in="SourceAlpha" type="matrix" values="0 0 0 0 0 0 0 0 0 0 0 0 0 0 0 0 0 0 127 0"/>
<feOffset dy="5.70704"/>
<feGaussianBlur stdDeviation="4.28028"/>
<feColorMatrix type="matrix" values="0 0 0 0 0 0 0 0 0 0 0 0 0 0 0 0 0 0 0.15 0"/>
<feBlend mode="normal" in2="BackgroundImageFix" result="effect1_dropShadow"/>
<feBlend mode="normal" in="SourceGraphic" in2="effect1_dropShadow" result="shape"/>
</filter>
<clipPath id="clip0">
<rect width="80" height="80" rx="40" fill="white"/>
</clipPath>
</defs>
</svg>
