<svg width="56" height="56" viewBox="0 0 56 56" fill="none" xmlns="http://www.w3.org/2000/svg">
<g filter="url(#filter0_d)">
<circle cx="28" cy="26" r="20" fill="white"/>
</g>
<g clip-path="url(#clip0)">
<path d="M24.5021 41C26.9861 41 29.0021 38.984 29.0021 36.5V32H24.5021C22.0181 32 20.0021 34.016 20.0021 36.5C20.0021 38.984 22.0181 41 24.5021 41Z" fill="#0ACF83"/>
<path d="M20.0021 27.5C20.0021 25.016 22.0181 23 24.5021 23H29.0021V32H24.5021C22.0181 32 20.0021 29.984 20.0021 27.5Z" fill="#A259FF"/>
<path d="M20.0034 18.5C20.0034 16.016 22.0194 14 24.5034 14H29.0034V23H24.5034C22.0194 23 20.0034 20.984 20.0034 18.5Z" fill="#F24E1E"/>
<path d="M29.0022 14H33.5022C35.9862 14 38.0022 16.016 38.0022 18.5C38.0022 20.984 35.9862 23 33.5022 23H29.0022V14Z" fill="#FF7262"/>
<path d="M38.0022 27.5C38.0022 29.984 35.9862 32 33.5022 32C31.0182 32 29.0022 29.984 29.0022 27.5C29.0022 25.016 31.0182 23 33.5022 23C35.9862 23 38.0022 25.016 38.0022 27.5Z" fill="#1ABCFE"/>
</g>
<defs>
<filter id="filter0_d" x="0" y="0" width="56" height="56" filterUnits="userSpaceOnUse" color-interpolation-filters="sRGB">
<feFlood flood-opacity="0" result="BackgroundImageFix"/>
<feColorMatrix in="SourceAlpha" type="matrix" values="0 0 0 0 0 0 0 0 0 0 0 0 0 0 0 0 0 0 127 0"/>
<feOffset dy="2"/>
<feGaussianBlur stdDeviation="4"/>
<feColorMatrix type="matrix" values="0 0 0 0 0 0 0 0 0 0 0 0 0 0 0 0 0 0 0.08 0"/>
<feBlend mode="normal" in2="BackgroundImageFix" result="effect1_dropShadow"/>
<feBlend mode="normal" in="SourceGraphic" in2="effect1_dropShadow" result="shape"/>
</filter>
<clipPath id="clip0">
<rect width="18.0036" height="27" fill="white" transform="translate(20.0004 14)"/>
</clipPath>
</defs>
</svg>
