<svg width="60" height="22" viewBox="0 0 60 22" fill="none" xmlns="http://www.w3.org/2000/svg">
<rect x="0.827393" width="59.1724" height="22" rx="3.03448" fill="#FFF2C5"/>
<path d="M22.4316 6.24101V7.25149H18.2941V10.4605H21.6532V11.4709H18.2941V15.7587H17.0514V6.24101H22.4316ZM25.1955 9.49094C25.414 9.06308 25.7235 8.7308 26.124 8.49411C26.5337 8.25742 27.0298 8.13908 27.6124 8.13908V9.42267H27.2847C25.8919 9.42267 25.1955 10.1783 25.1955 11.6894V15.7587H23.9529V8.27563H25.1955V9.49094ZM35.8949 11.7304C35.8949 11.9671 35.8813 12.2174 35.854 12.4814H29.873C29.9185 13.2188 30.1689 13.7969 30.6241 14.2156C31.0883 14.6253 31.6482 14.8301 32.3036 14.8301C32.8407 14.8301 33.2868 14.7072 33.6418 14.4614C34.006 14.2065 34.2609 13.8697 34.4065 13.4509H35.7447C35.5445 14.1701 35.1439 14.7573 34.5431 15.2125C33.9423 15.6585 33.1958 15.8816 32.3036 15.8816C31.5936 15.8816 30.9563 15.7223 30.3919 15.4036C29.8366 15.085 29.3996 14.6344 29.081 14.0518C28.7624 13.46 28.6031 12.7773 28.6031 12.0035C28.6031 11.2297 28.7578 10.5515 29.0674 9.96887C29.3769 9.38625 29.8093 8.94018 30.3646 8.63067C30.929 8.31205 31.5754 8.15273 32.3036 8.15273C33.0137 8.15273 33.6418 8.30749 34.1881 8.61701C34.7343 8.92653 35.153 9.35439 35.4443 9.9006C35.7447 10.4377 35.8949 11.0476 35.8949 11.7304ZM34.6114 11.4709C34.6114 10.9976 34.5067 10.5925 34.2973 10.2556C34.0879 9.9097 33.8012 9.65025 33.437 9.47729C33.082 9.29522 32.686 9.20418 32.249 9.20418C31.6209 9.20418 31.0838 9.40446 30.6377 9.80501C30.2007 10.2056 29.9504 10.7609 29.8867 11.4709H34.6114ZM44.3832 11.7304C44.3832 11.9671 44.3696 12.2174 44.3423 12.4814H38.3613C38.4068 13.2188 38.6572 13.7969 39.1123 14.2156C39.5766 14.6253 40.1365 14.8301 40.7919 14.8301C41.329 14.8301 41.7751 14.7072 42.1301 14.4614C42.4943 14.2065 42.7492 13.8697 42.8948 13.4509H44.233C44.0328 14.1701 43.6322 14.7573 43.0314 15.2125C42.4305 15.6585 41.6841 15.8816 40.7919 15.8816C40.0819 15.8816 39.4446 15.7223 38.8802 15.4036C38.3249 15.085 37.8879 14.6344 37.5693 14.0518C37.2507 13.46 37.0914 12.7773 37.0914 12.0035C37.0914 11.2297 37.2461 10.5515 37.5557 9.96887C37.8652 9.38625 38.2976 8.94018 38.8529 8.63067C39.4173 8.31205 40.0637 8.15273 40.7919 8.15273C41.502 8.15273 42.1301 8.30749 42.6763 8.61701C43.2225 8.92653 43.6413 9.35439 43.9326 9.9006C44.233 10.4377 44.3832 11.0476 44.3832 11.7304ZM43.0997 11.4709C43.0997 10.9976 42.995 10.5925 42.7856 10.2556C42.5762 9.9097 42.2894 9.65025 41.9253 9.47729C41.5703 9.29522 41.1743 9.20418 40.7373 9.20418C40.1092 9.20418 39.5721 9.40446 39.126 9.80501C38.689 10.2056 38.4387 10.7609 38.375 11.4709H43.0997Z" fill="#1E272E"/>
</svg>
