<svg width="48" height="48" viewBox="0 0 48 48" fill="none" xmlns="http://www.w3.org/2000/svg">
<rect width="48" height="48" rx="4.68293" fill="white"/>
<path d="M23.8827 16.4152C26.169 16.4152 27.7113 17.4028 28.5906 18.228L32.0269 14.873C29.9164 12.9114 27.1702 11.7073 23.8827 11.7073C19.1207 11.7073 15.0081 14.4401 13.0059 18.4174L16.9426 21.4749C17.9302 18.5392 20.663 16.4152 23.8827 16.4152Z" fill="#EA4335"/>
<path d="M35.5709 24.1535C35.5709 23.1524 35.4897 22.4219 35.3139 21.6643H23.8823V26.1828H30.5924C30.4572 27.3056 29.7266 28.9967 28.1032 30.1331L31.9453 33.1093C34.2451 30.9854 35.5709 27.8603 35.5709 24.1535Z" fill="#4285F4"/>
<path d="M16.9561 26.291C16.699 25.5334 16.5502 24.7217 16.5502 23.883C16.5502 23.0442 16.699 22.2325 16.9425 21.4749L13.0058 18.4175C12.1805 20.0679 11.707 21.9213 11.707 23.883C11.707 25.8446 12.1805 27.698 13.0058 29.3485L16.9561 26.291Z" fill="#FBBC05"/>
<path d="M23.8829 36.0585C27.1703 36.0585 29.9301 34.9763 31.9458 33.1093L28.1038 30.1331C27.0756 30.8501 25.6957 31.3506 23.8829 31.3506C20.6631 31.3506 17.9304 29.2267 16.9563 26.291L13.0195 29.3484C15.0217 33.3258 19.1209 36.0585 23.8829 36.0585Z" fill="#34A853"/>
</svg>
