<svg width="176" height="175" viewBox="0 0 176 175" fill="none" xmlns="http://www.w3.org/2000/svg">
<g filter="url(#filter0_d)">
<path d="M78.9068 135.785L75.5936 113.918C75.3512 112.318 77.0507 111.136 78.4664 111.92L97.1395 122.262C98.6211 123.082 98.4242 125.272 96.8199 125.815L87.5037 128.968C87.0614 129.118 86.6875 129.421 86.45 129.823L82.5136 136.485C81.5805 138.064 79.1816 137.598 78.9068 135.785Z" fill="#FF3F34"/>
<path d="M78.9068 135.785L75.5936 113.918C75.3512 112.318 77.0507 111.136 78.4664 111.92L97.1395 122.262C98.6211 123.082 98.4242 125.272 96.8199 125.815L87.5037 128.968C87.0614 129.118 86.6875 129.421 86.45 129.823L82.5136 136.485C81.5805 138.064 79.1816 137.598 78.9068 135.785Z" stroke="white" stroke-width="1.3" stroke-linecap="round" stroke-linejoin="round"/>
</g>
<g filter="url(#filter1_d)">
<rect x="94.5" y="136" width="72.8" height="26" fill="#FF3F34"/>
</g>
<path d="M122.577 144.687V152.9H120.577V149.519H117.464V152.9H115.464V144.687H117.464V147.904H120.577V144.687H122.577ZM130.468 146.371V152.9H128.468V152.011C128.265 152.299 127.988 152.533 127.637 152.713C127.294 152.884 126.911 152.97 126.49 152.97C125.991 152.97 125.55 152.861 125.168 152.643C124.786 152.416 124.49 152.093 124.279 151.671C124.068 151.25 123.963 150.755 123.963 150.186V146.371H125.952V149.916C125.952 150.353 126.065 150.693 126.291 150.934C126.518 151.176 126.822 151.297 127.204 151.297C127.594 151.297 127.902 151.176 128.128 150.934C128.354 150.693 128.468 150.353 128.468 149.916V146.371H130.468ZM131.508 149.624C131.508 148.953 131.632 148.364 131.882 147.857C132.139 147.35 132.486 146.96 132.923 146.687C133.36 146.414 133.848 146.278 134.386 146.278C134.815 146.278 135.205 146.367 135.556 146.547C135.915 146.726 136.195 146.968 136.398 147.272V144.242H138.399V152.9H136.398V151.964C136.211 152.276 135.942 152.526 135.591 152.713C135.248 152.9 134.846 152.994 134.386 152.994C133.848 152.994 133.36 152.857 132.923 152.584C132.486 152.303 132.139 151.909 131.882 151.402C131.632 150.888 131.508 150.295 131.508 149.624ZM136.398 149.636C136.398 149.136 136.258 148.743 135.977 148.454C135.704 148.165 135.369 148.021 134.971 148.021C134.573 148.021 134.234 148.165 133.953 148.454C133.68 148.735 133.543 149.125 133.543 149.624C133.543 150.123 133.68 150.521 133.953 150.817C134.234 151.106 134.573 151.25 134.971 151.25C135.369 151.25 135.704 151.106 135.977 150.817C136.258 150.529 136.398 150.135 136.398 149.636ZM139.448 149.624C139.448 148.953 139.573 148.364 139.823 147.857C140.08 147.35 140.427 146.96 140.864 146.687C141.301 146.414 141.788 146.278 142.327 146.278C142.787 146.278 143.189 146.371 143.532 146.559C143.883 146.746 144.152 146.991 144.339 147.296V146.371H146.34V152.9H144.339V151.976C144.144 152.28 143.871 152.526 143.52 152.713C143.177 152.9 142.775 152.994 142.315 152.994C141.785 152.994 141.301 152.857 140.864 152.584C140.427 152.303 140.08 151.909 139.823 151.402C139.573 150.888 139.448 150.295 139.448 149.624ZM144.339 149.636C144.339 149.136 144.199 148.743 143.918 148.454C143.645 148.165 143.309 148.021 142.912 148.021C142.514 148.021 142.175 148.165 141.894 148.454C141.621 148.735 141.484 149.125 141.484 149.624C141.484 150.123 141.621 150.521 141.894 150.817C142.175 151.106 142.514 151.25 142.912 151.25C143.309 151.25 143.645 151.106 143.918 150.817C144.199 150.529 144.339 150.135 144.339 149.636Z" fill="white"/>
<g filter="url(#filter2_d)">
<g clip-path="url(#clip0)">
<path d="M86 42C86 19.9086 68.0914 2 46 2C23.9086 2 6 19.9086 6 42C6 64.0914 23.9086 82 46 82C68.0914 82 86 64.0914 86 42Z" fill="#FF3F34"/>
<path d="M28.5 54.5C31.9518 54.5 34.75 51.7018 34.75 48.25C34.75 44.7982 31.9518 42 28.5 42C25.0482 42 22.25 44.7982 22.25 48.25C22.25 51.7018 25.0482 54.5 28.5 54.5Z" fill="#F0BD70"/>
<path d="M28.5 53.25H49.75V84.3375C49.75 84.3375 45.1962 87 39.125 87C33.0538 87 28.5 82.6538 28.5 82.6538V53.25Z" fill="#F0BD70"/>
<path d="M49.75 69.335C49.75 76.4025 48.6475 75.7325 41.4787 75.7325C34.31 75.7325 31.0025 70.0037 31.0025 62.9362C31.0025 55.8688 30.73 49.5 36.515 49.5C52.875 50.125 49.75 62.2675 49.75 69.335Z" fill="#E9B05B"/>
<path d="M63.3575 47.125C63.3575 58.2775 67.965 71.9912 47.875 71.9912C27.785 71.9912 27.785 58.2775 27.785 47.125C24.75 33.875 25.375 18.25 46 18.25C66.625 18.25 63.3575 35.9712 63.3575 47.125Z" fill="#FFCB7E"/>
<path d="M53.5 53.25H52.25C51.5596 53.25 51 53.8096 51 54.5C51 55.1904 51.5596 55.75 52.25 55.75H53.5C54.1904 55.75 54.75 55.1904 54.75 54.5C54.75 53.8096 54.1904 53.25 53.5 53.25Z" fill="#F0BD70"/>
<path d="M53.5 77H26C19.7868 77 14.75 82.0368 14.75 88.25V94.5C14.75 100.713 19.7868 105.75 26 105.75H53.5C59.7132 105.75 64.75 100.713 64.75 94.5V88.25C64.75 82.0368 59.7132 77 53.5 77Z" fill="#E05A33"/>
<path fill-rule="evenodd" clip-rule="evenodd" d="M63.46 42.6038C64.4976 42.0182 65.2919 41.0814 65.6998 39.9621C66.1077 38.8428 66.1025 37.6146 65.685 36.4988C66.8261 35.9486 67.7159 34.9859 68.1745 33.8051C68.6331 32.6243 68.6265 31.3134 68.1559 30.1373C67.6853 28.9612 66.7858 28.0076 65.6392 27.4691C64.4926 26.9306 63.1844 26.8474 61.9788 27.2362C63.75 31.8287 63.62 37.5088 63.46 42.6038Z" fill="#47280B"/>
<path fill-rule="evenodd" clip-rule="evenodd" d="M51.3713 30.45C50.2321 31.4514 48.7667 32.0025 47.25 32C45.8667 32.0022 44.5222 31.5435 43.4288 30.6963C42.6174 31.5073 41.654 32.1504 40.5938 32.5886C39.5335 33.0268 38.3972 33.2516 37.25 33.25C36.3838 33.2506 35.5223 33.1225 34.6938 32.87C34.3679 33.2266 33.9924 33.5343 33.5788 33.7838C34.0708 34.3693 34.422 35.0599 34.6053 35.8025C34.7886 36.545 34.7991 37.3197 34.636 38.067C34.4729 38.8142 34.1405 39.5141 33.6644 40.1127C33.1884 40.7114 32.5813 41.1928 31.89 41.52C32.0963 41.8026 32.2194 42.1374 32.2454 42.4863C32.2714 42.8353 32.1992 43.1845 32.037 43.4946C31.8748 43.8046 31.6291 44.0631 31.3277 44.2408C31.0262 44.4185 30.6811 44.5083 30.3313 44.5C29.7185 45.5662 28.7343 46.3692 27.5668 46.7555C26.3993 47.1417 25.1303 47.0842 24.0026 46.5939C22.8748 46.1036 21.9673 45.2148 21.4535 44.0975C20.9397 42.9803 20.8557 41.7128 21.2175 40.5375C20.7517 40.0738 20.3822 39.5225 20.1304 38.9154C19.8785 38.3082 19.7493 37.6573 19.75 37C19.75 35.6175 20.3113 34.3663 21.2175 33.4625C20.9761 32.6729 20.934 31.8357 21.0949 31.0258C21.2559 30.216 21.615 29.4586 22.14 28.8213C21.4897 27.6754 21.1065 26.3976 21.0188 25.083C20.9312 23.7684 21.1414 22.451 21.6338 21.229C22.1263 20.007 22.8881 18.9119 23.8627 18.0253C24.8373 17.1388 25.9995 16.4836 27.2625 16.1088C27.1975 15.2104 27.3764 14.3112 27.7803 13.5062C28.1841 12.7011 28.798 12.0201 29.5569 11.5351C30.3158 11.05 31.1916 10.779 32.0919 10.7506C32.9921 10.7222 33.8833 10.9375 34.6713 11.3738C35.4392 10.0434 36.5439 8.93878 37.8743 8.17099C39.2048 7.40319 40.7139 6.99932 42.25 7.00001C43.9663 7.00001 45.5675 7.49376 46.9188 8.34876C47.8469 7.3489 49.0119 6.59877 50.3062 6.16752C51.6005 5.73626 52.9825 5.63776 54.3249 5.88108C55.6673 6.1244 56.9268 6.70173 57.9874 7.55984C59.048 8.41795 59.8756 9.52923 60.3938 10.7913C61.055 10.877 61.6925 11.0941 62.2686 11.4298C62.8447 11.7656 63.3479 12.2132 63.7484 12.7463C64.149 13.2794 64.4388 13.8872 64.601 14.534C64.7631 15.1808 64.7942 15.8535 64.6925 16.5125C67.0113 18.23 68.5 20.89 68.5 23.875C68.5 29.0525 64.0225 33.25 58.5 33.25C55.7088 33.25 53.185 32.1775 51.3713 30.45Z" fill="#47280B"/>
<path d="M42.1613 59.5C42.1613 59.1685 42.293 58.8505 42.5274 58.6161C42.7618 58.3817 43.0798 58.25 43.4113 58.25H54.84C55.1716 58.25 55.4895 58.3817 55.7239 58.6161C55.9583 58.8505 56.09 59.1685 56.09 59.5C56.09 61.1576 55.4316 62.7473 54.2594 63.9194C53.0873 65.0915 51.4976 65.75 49.84 65.75H48.4113C46.7537 65.75 45.164 65.0915 43.9919 63.9194C42.8198 62.7473 42.1613 61.1576 42.1613 59.5Z" fill="#66253C"/>
<path fill-rule="evenodd" clip-rule="evenodd" d="M51.9437 65.3875C51.2685 65.6283 50.5568 65.751 49.8399 65.75H48.4112C46.7969 65.75 45.2452 65.1254 44.0811 64.007C42.917 62.8885 42.2308 61.363 42.1662 59.75C43.1212 59.3925 44.5387 59.4338 45.9374 59.475C46.3824 59.4875 46.8249 59.5 47.2499 59.5C50.0124 59.5 52.25 61.4588 52.25 63.875C52.25 64.4063 52.1412 64.9163 51.9437 65.3875Z" fill="#B03E67"/>
<path d="M43.5 58.25H56V59.5C56 59.8315 55.8683 60.1495 55.6339 60.3839C55.3995 60.6183 55.0815 60.75 54.75 60.75H44.75C44.4185 60.75 44.1005 60.6183 43.8661 60.3839C43.6317 60.1495 43.5 59.8315 43.5 59.5V58.25Z" fill="white"/>
<path d="M47.25 48.875C47.25 47.8395 46.4105 47 45.375 47C44.3395 47 43.5 47.8395 43.5 48.875V50.125C43.5 51.1605 44.3395 52 45.375 52C46.4105 52 47.25 51.1605 47.25 50.125V48.875Z" fill="#1B0B47"/>
<path d="M59.75 48.875C59.75 47.8395 58.9105 47 57.875 47C56.8395 47 56 47.8395 56 48.875V50.125C56 51.1605 56.8395 52 57.875 52C58.9105 52 59.75 51.1605 59.75 50.125V48.875Z" fill="#1B0B47"/>
<path d="M40.375 50.75H37.875C36.8395 50.75 36 51.5895 36 52.625C36 53.6605 36.8395 54.5 37.875 54.5H40.375C41.4105 54.5 42.25 53.6605 42.25 52.625C42.25 51.5895 41.4105 50.75 40.375 50.75Z" fill="#FF859B"/>
<path d="M62.875 50.75H61.625C60.5895 50.75 59.75 51.5895 59.75 52.625C59.75 53.6605 60.5895 54.5 61.625 54.5H62.875C63.9105 54.5 64.75 53.6605 64.75 52.625C64.75 51.5895 63.9105 50.75 62.875 50.75Z" fill="#FF859B"/>
</g>
</g>
<defs>
<filter id="filter0_d" x="67.1199" y="108.42" width="39.4752" height="42.6747" filterUnits="userSpaceOnUse" color-interpolation-filters="sRGB">
<feFlood flood-opacity="0" result="BackgroundImageFix"/>
<feColorMatrix in="SourceAlpha" type="matrix" values="0 0 0 0 0 0 0 0 0 0 0 0 0 0 0 0 0 0 127 0"/>
<feOffset dy="5.2"/>
<feGaussianBlur stdDeviation="3.9"/>
<feColorMatrix type="matrix" values="0 0 0 0 0 0 0 0 0 0 0 0 0 0 0 0 0 0 0.15 0"/>
<feBlend mode="normal" in2="BackgroundImageFix" result="effect1_dropShadow"/>
<feBlend mode="normal" in="SourceGraphic" in2="effect1_dropShadow" result="shape"/>
</filter>
<filter id="filter1_d" x="86.7" y="133.4" width="88.4" height="41.6" filterUnits="userSpaceOnUse" color-interpolation-filters="sRGB">
<feFlood flood-opacity="0" result="BackgroundImageFix"/>
<feColorMatrix in="SourceAlpha" type="matrix" values="0 0 0 0 0 0 0 0 0 0 0 0 0 0 0 0 0 0 127 0"/>
<feOffset dy="5.2"/>
<feGaussianBlur stdDeviation="3.9"/>
<feColorMatrix type="matrix" values="0 0 0 0 0 0 0 0 0 0 0 0 0 0 0 0 0 0 0.15 0"/>
<feBlend mode="normal" in2="BackgroundImageFix" result="effect1_dropShadow"/>
<feBlend mode="normal" in="SourceGraphic" in2="effect1_dropShadow" result="shape"/>
</filter>
<filter id="filter2_d" x="0" y="0" width="92" height="92" filterUnits="userSpaceOnUse" color-interpolation-filters="sRGB">
<feFlood flood-opacity="0" result="BackgroundImageFix"/>
<feColorMatrix in="SourceAlpha" type="matrix" values="0 0 0 0 0 0 0 0 0 0 0 0 0 0 0 0 0 0 127 0"/>
<feOffset dy="4"/>
<feGaussianBlur stdDeviation="3"/>
<feColorMatrix type="matrix" values="0 0 0 0 0 0 0 0 0 0 0 0 0 0 0 0 0 0 0.15 0"/>
<feBlend mode="normal" in2="BackgroundImageFix" result="effect1_dropShadow"/>
<feBlend mode="normal" in="SourceGraphic" in2="effect1_dropShadow" result="shape"/>
</filter>
<clipPath id="clip0">
<rect x="6" y="2" width="80" height="80" rx="40" fill="white"/>
</clipPath>
</defs>
</svg>
