<svg width="48" height="48" viewBox="0 0 48 48" fill="none" xmlns="http://www.w3.org/2000/svg">
<circle cx="24" cy="24" r="24" fill="#1E272E"/>
<path fill-rule="evenodd" clip-rule="evenodd" d="M23.8012 11C20.3249 11 19.8886 11.0152 18.5233 11.0773C17.1606 11.1397 16.2305 11.3555 15.4166 11.672C14.5747 11.9989 13.8606 12.4363 13.1491 13.148C12.4371 13.8595 11.9997 14.5736 11.6717 15.4152C11.3544 16.2294 11.1384 17.1598 11.0771 18.5219C11.016 19.8873 11 20.3238 11 23.8001C11 27.2764 11.0155 27.7114 11.0773 29.0767C11.14 30.4394 11.3557 31.3695 11.672 32.1834C11.9992 33.0253 12.4365 33.7394 13.1483 34.4509C13.8595 35.1629 14.5736 35.6013 15.415 35.9283C16.2294 36.2448 17.1598 36.4605 18.5222 36.5229C19.8876 36.5851 20.3236 36.6003 23.7996 36.6003C27.2762 36.6003 27.7111 36.5851 29.0765 36.5229C30.4391 36.4605 31.3703 36.2448 32.1848 35.9283C33.0264 35.6013 33.7394 35.1629 34.4506 34.4509C35.1627 33.7394 35.6 33.0253 35.928 32.1837C36.2427 31.3695 36.4587 30.4391 36.5227 29.077C36.584 27.7116 36.6 27.2764 36.6 23.8001C36.6 20.3238 36.584 19.8876 36.5227 18.5222C36.4587 17.1595 36.2427 16.2294 35.928 15.4155C35.6 14.5736 35.1627 13.8595 34.4506 13.148C33.7386 12.436 33.0266 11.9987 32.184 11.672C31.3679 11.3555 30.4373 11.1397 29.0746 11.0773C27.7092 11.0152 27.2746 11 23.7972 11H23.8012ZM23.3745 13.3065H23.3746L23.8012 13.3067C27.2188 13.3067 27.6239 13.3189 28.9735 13.3803C30.2215 13.4373 30.8989 13.6459 31.3501 13.8211C31.9474 14.0531 32.3733 14.3304 32.821 14.7784C33.269 15.2264 33.5463 15.6531 33.7789 16.2504C33.9541 16.7011 34.1629 17.3784 34.2197 18.6265C34.281 19.9758 34.2944 20.3811 34.2944 23.7972C34.2944 27.2132 34.281 27.6185 34.2197 28.9679C34.1626 30.2159 33.9541 30.8932 33.7789 31.3439C33.5469 31.9413 33.269 32.3666 32.821 32.8143C32.373 33.2623 31.9477 33.5397 31.3501 33.7717C30.8994 33.9477 30.2215 34.1557 28.9735 34.2128C27.6242 34.2741 27.2188 34.2874 23.8012 34.2874C20.3833 34.2874 19.9782 34.2741 18.6289 34.2128C17.3808 34.1552 16.7035 33.9466 16.252 33.7714C15.6547 33.5394 15.228 33.2621 14.78 32.8141C14.332 32.3661 14.0547 31.9405 13.8221 31.3429C13.6469 30.8922 13.4381 30.2148 13.3813 28.9668C13.32 27.6175 13.3077 27.2121 13.3077 23.794C13.3077 20.3758 13.32 19.9726 13.3813 18.6233C13.4384 17.3752 13.6469 16.6979 13.8221 16.2467C14.0541 15.6494 14.332 15.2227 14.78 14.7747C15.228 14.3267 15.6547 14.0493 16.252 13.8168C16.7032 13.6408 17.3808 13.4328 18.6289 13.3755C19.8097 13.3221 20.2673 13.3061 22.6529 13.3035V13.3067C22.8758 13.3063 23.1156 13.3064 23.3743 13.3065H23.3744H23.3745ZM29.0978 16.9674C29.0978 16.1191 29.7858 15.4319 30.6338 15.4319V15.4314C31.4818 15.4314 32.1698 16.1194 32.1698 16.9674C32.1698 17.8154 31.4818 18.5034 30.6338 18.5034C29.7858 18.5034 29.0978 17.8154 29.0978 16.9674ZM23.8009 17.2268C20.1709 17.2269 17.2278 20.1701 17.2278 23.8002C17.2278 27.4304 20.171 30.3723 23.8012 30.3723C27.4314 30.3723 30.3735 27.4304 30.3735 23.8002C30.3735 20.17 27.4311 17.2268 23.8009 17.2268ZM28.0679 23.8002C28.0679 21.4436 26.1575 19.5334 23.8012 19.5334C21.4446 19.5334 19.5345 21.4436 19.5345 23.8002C19.5345 26.1565 21.4446 28.0669 23.8012 28.0669C26.1575 28.0669 28.0679 26.1565 28.0679 23.8002Z" fill="white"/>
</svg>
