<svg width="200" height="100" viewBox="0 0 200 100" fill="none" xmlns="http://www.w3.org/2000/svg">
<path d="M47.8778 64.1887H23.9889C19.5784 64.1887 16 61.6586 16 58.5383V41.6504C16 38.5321 19.5784 36 23.9889 36H47.8778C52.2911 36 55.8667 38.53 55.8667 41.6504V58.5383C55.8667 61.6607 52.2911 64.1887 47.8778 64.1887Z" fill="#415163"/>
<path d="M41.075 43.9239L40.7843 43.4781C40.1883 42.5642 39.1116 41.8722 37.8277 41.5261C37.963 40.9786 38.461 40.4962 39.1376 40.2377C39.3794 40.484 39.7824 40.6468 40.2402 40.6468C40.9772 40.6468 41.576 40.2235 41.576 39.7024C41.576 39.1813 40.9772 38.7559 40.2402 38.7559C39.5521 38.7559 38.9821 39.1264 38.9101 39.6006C37.9313 39.9019 37.1742 40.5329 36.9611 41.3491C36.6243 41.3023 36.2817 41.2758 35.9334 41.2758C35.6368 41.2758 35.3403 41.2961 35.0495 41.3307C34.8307 40.5206 34.0794 39.8958 33.1034 39.5986C33.0286 39.1264 32.4614 38.758 31.7734 38.758C31.0364 38.758 30.4376 39.1813 30.4376 39.7044C30.4376 40.2255 31.0364 40.6489 31.7734 40.6489C32.2311 40.6489 32.637 40.486 32.876 40.2357C33.5352 40.4901 34.0275 40.9583 34.1772 41.4915C32.8299 41.8254 31.6928 42.5337 31.0767 43.4802L30.7859 43.9259C26.2171 45.3345 23.0129 48.5565 23.0129 52.3017C23.0129 57.3374 28.8081 61.4348 35.9305 61.4348C43.0528 61.4348 48.848 57.3374 48.848 52.3017C48.8509 48.5565 45.6467 45.3324 41.075 43.9239ZM35.3461 53.639C35.3461 55.6562 34.6839 57.6448 33.469 59.4522C33.1696 59.898 32.4413 60.1178 31.7878 59.9407C27.3629 58.7419 24.4121 55.7477 24.4121 52.2997C24.4121 48.5077 27.9704 45.31 33.0055 44.3819C34.1888 44.1641 35.3461 44.7849 35.3461 45.6499V53.639ZM40.1596 59.9407C39.5061 60.1178 38.7748 59.896 38.4783 59.4482C37.2807 57.6407 36.6819 55.6541 36.6819 53.639V45.6662C36.6819 44.7951 37.8536 44.1681 39.0397 44.4002C43.9223 45.3467 47.5727 48.5301 47.5727 52.3017C47.5727 55.7477 44.5902 58.7398 40.1596 59.9407Z" fill="white"/>
<path d="M31.3675 57.1819C32.1016 57.1819 32.7062 56.7588 32.7062 56.2379C32.7062 55.7171 32.1045 55.2939 31.3675 55.2939C30.6304 55.2939 30.0316 55.7171 30.0316 56.2379C30.0316 56.7567 30.6276 57.1819 31.3675 57.1819Z" fill="white"/>
<path d="M26.6893 52.1426C26.6893 52.6635 27.2881 53.0867 28.0251 53.0867C28.7621 53.0867 29.361 52.6635 29.361 52.1426C29.361 51.6197 28.7621 51.1985 28.0251 51.1985C27.2881 51.1985 26.6893 51.6197 26.6893 52.1426Z" fill="white"/>
<path d="M31.3675 49.1501C32.1016 49.1501 32.7062 48.7269 32.7062 48.2061C32.7062 47.6852 32.1045 47.262 31.3675 47.262C30.6304 47.262 30.0316 47.6852 30.0316 48.2061C30.0316 48.7249 30.6276 49.1501 31.3675 49.1501Z" fill="white"/>
<path d="M40.4993 47.26C39.7623 47.26 39.1635 47.6832 39.1635 48.2041C39.1635 48.7249 39.7623 49.1481 40.4993 49.1481C41.2363 49.1481 41.8351 48.7249 41.8351 48.2041C41.8351 47.6832 41.2363 47.26 40.4993 47.26Z" fill="white"/>
<path d="M43.8387 51.1985C43.1017 51.1985 42.5029 51.6218 42.5029 52.1426C42.5029 52.6635 43.1017 53.0867 43.8387 53.0867C44.5757 53.0867 45.1746 52.6635 45.1746 52.1426C45.1774 51.6197 44.5757 51.1985 43.8387 51.1985Z" fill="white"/>
<path d="M40.4993 55.133C39.7623 55.133 39.1635 55.5562 39.1635 56.0792C39.1635 56.598 39.7623 57.0233 40.4993 57.0233C41.2363 57.0233 41.8351 56.598 41.8351 56.0792C41.8351 55.5583 41.2363 55.133 40.4993 55.133Z" fill="white"/>
<path d="M69.8063 42.0656H65.7441V57.7465H69.8063V42.0656Z" fill="#415163"/>
<path d="M77.3749 47.9723H77.4411C77.6743 47.7383 77.9651 47.5083 78.3192 47.2803C78.6733 47.0544 79.0763 46.8549 79.5283 46.6819C79.9832 46.5089 80.4812 46.3704 81.0282 46.2646C81.5752 46.1588 82.1596 46.1058 82.7785 46.1058C83.363 46.1058 83.9301 46.1526 84.4771 46.2463C85.0241 46.3399 85.525 46.4865 85.977 46.6859C86.429 46.8854 86.832 47.1419 87.1803 47.4594C87.5287 47.7749 87.8022 48.1535 88.0008 48.5911C88.1131 48.8333 88.1851 49.0959 88.2254 49.3829C88.2628 49.6679 88.283 49.9976 88.283 50.3742V57.7465H84.3533V50.8077C84.3533 50.5024 84.3389 50.2418 84.3043 50.022C84.2698 49.8042 84.2094 49.6109 84.123 49.448C83.9243 49.0898 83.6221 48.8313 83.219 48.6746C82.816 48.5178 82.3266 48.4405 81.7508 48.4405C80.9879 48.4405 80.2566 48.5667 79.5542 48.8211C78.8518 49.0755 78.2299 49.444 77.6887 49.9284V57.7445H73.759V46.3888H77.0093L77.3749 47.9723Z" fill="#415163"/>
<path d="M98.8543 54.4532C98.8543 54.211 98.7593 54.0115 98.5635 53.8548C98.3706 53.6981 98.1115 53.5678 97.7919 53.462C97.4695 53.3561 97.1039 53.2645 96.6893 53.1872C96.2748 53.1098 95.8401 53.0304 95.3881 52.9531C94.8152 52.8432 94.2595 52.717 93.7298 52.5725C93.2001 52.428 92.7337 52.2387 92.3307 52.0046C91.9276 51.7685 91.6052 51.4754 91.3691 51.1192C91.1302 50.765 91.0121 50.3274 91.0121 49.8125C91.0121 49.1794 91.1734 48.6299 91.4929 48.1658C91.8125 47.7017 92.2472 47.317 92.7942 47.0117C93.3412 46.7064 93.9774 46.4805 94.7 46.3319C95.4255 46.1833 96.1884 46.11 96.9974 46.11C97.982 46.11 98.9032 46.167 99.764 46.279C100.628 46.393 101.405 46.5395 102.102 46.7186V48.98C101.736 48.8945 101.353 48.8151 100.95 48.7398C100.547 48.6665 100.138 48.6014 99.7237 48.5464C99.3091 48.4915 98.8974 48.4467 98.4886 48.4121C98.0798 48.3775 97.6941 48.3592 97.3284 48.3592C96.8649 48.3592 96.4705 48.3897 96.151 48.4528C95.8285 48.5159 95.5723 48.5994 95.3708 48.7052C95.1722 48.811 95.0282 48.9311 94.939 49.0695C94.8497 49.2059 94.8065 49.3484 94.8065 49.497C94.8065 49.7555 94.9044 49.9651 95.0973 50.13C95.2902 50.2949 95.5579 50.4272 95.9005 50.5289C96.2431 50.6307 96.603 50.7141 96.9772 50.7813C97.3515 50.8464 97.7171 50.9116 98.0712 50.9747C98.6239 51.0683 99.1767 51.1823 99.7294 51.3146C100.282 51.4469 100.78 51.6342 101.221 51.8723C101.664 52.1104 102.024 52.4198 102.306 52.7984C102.588 53.177 102.729 53.6594 102.729 54.2456C102.729 54.8867 102.557 55.4444 102.217 55.9207C101.874 56.397 101.396 56.7939 100.783 57.1094C100.17 57.4249 99.4358 57.661 98.5808 57.8137C97.7229 57.9663 96.7815 58.0416 95.7537 58.0416C94.7374 58.0416 93.8219 57.9846 93.0101 57.8707C92.1983 57.7567 91.5275 57.6142 90.9949 57.4432V55.2043C91.8585 55.4322 92.6531 55.5849 93.3815 55.6663C94.1127 55.7477 94.7921 55.7905 95.4197 55.7905C95.9063 55.7905 96.3583 55.766 96.7786 55.7131C97.196 55.6622 97.5588 55.5829 97.8639 55.4729C98.1691 55.363 98.408 55.2246 98.5865 55.0557C98.7679 54.8888 98.8543 54.6873 98.8543 54.4532Z" fill="#415163"/>
<path d="M115.097 57.7342C114.656 57.8279 114.127 57.9011 113.513 57.9561C112.9 58.0111 112.327 58.0396 111.798 58.0396C110.447 58.0396 109.348 57.8849 108.49 57.5755C107.635 57.2681 107.03 56.8244 106.673 56.2463C106.42 55.8331 106.293 55.2693 106.293 54.559V48.6766H103.293V46.3888H106.293V43.2135H110.223V46.3888H114.864V48.6746H110.223V54.1946C110.223 54.6322 110.315 54.9559 110.505 55.1676C110.836 55.5258 111.495 55.7049 112.477 55.7049C112.929 55.7049 113.381 55.6805 113.827 55.6296C114.273 55.5787 114.697 55.5136 115.094 55.4362L115.097 57.7342Z" fill="#415163"/>
<path d="M126.762 56.5375H126.696C126.474 56.7024 126.209 56.8693 125.901 57.0423C125.593 57.2133 125.239 57.3761 124.842 57.5288C124.442 57.6815 124.001 57.8036 123.515 57.8972C123.028 57.9908 122.504 58.0377 121.94 58.0377C121.177 58.0377 120.466 57.9542 119.801 57.7853C119.139 57.6184 118.569 57.3761 118.094 57.0586C117.619 56.7431 117.245 56.3584 116.974 55.9106C116.703 55.4608 116.568 54.9601 116.568 54.4044C116.568 53.7938 116.726 53.2483 117.04 52.7638C117.354 52.2794 117.794 51.8703 118.359 51.5324C118.92 51.1965 119.597 50.9401 120.38 50.765C121.166 50.59 122.032 50.5004 122.982 50.5004C123.679 50.5004 124.321 50.5309 124.905 50.594C125.493 50.6571 126.005 50.7304 126.445 50.8159V50.36C126.445 50.0953 126.382 49.8389 126.255 49.5926C126.129 49.3463 125.924 49.1285 125.642 48.9372C125.36 48.7458 124.992 48.5932 124.54 48.4792C124.088 48.3652 123.535 48.3103 122.881 48.3103C122.087 48.3103 121.289 48.3734 120.495 48.4975C119.7 48.6217 118.837 48.811 117.91 49.0593V46.8936C118.716 46.6432 119.574 46.4519 120.48 46.3196C121.387 46.1873 122.337 46.1161 123.33 46.1079C124.502 46.1079 125.527 46.2097 126.405 46.4132C127.283 46.6168 128.02 46.8956 128.61 47.2498C129.201 47.606 129.644 48.0253 129.938 48.5097C130.231 48.9942 130.378 49.5214 130.378 50.0913V54.3698C130.378 55.1188 130.39 55.7641 130.413 56.3035C130.436 56.8428 130.456 57.3232 130.479 57.7446H126.932L126.762 56.5375ZM126.445 52.9063C126.071 52.8432 125.639 52.7862 125.153 52.7353C124.666 52.6844 124.174 52.66 123.676 52.66C122.714 52.66 121.954 52.7943 121.396 53.0651C120.837 53.3337 120.561 53.7469 120.561 54.3006C120.561 54.5591 120.624 54.783 120.751 54.9743C120.878 55.1656 121.05 55.3244 121.266 55.4486C121.482 55.5727 121.733 55.6684 122.021 55.7295C122.308 55.7926 122.611 55.8231 122.93 55.8231C123.328 55.8231 123.702 55.7865 124.059 55.7111C124.413 55.6379 124.738 55.5442 125.038 55.4303C125.337 55.3163 125.605 55.1901 125.841 55.0496C126.077 54.9092 126.281 54.7728 126.445 54.6405V52.9063Z" fill="#415163"/>
<path d="M149.367 51.8742C149.367 52.8981 149.157 53.8038 148.737 54.5936C148.316 55.3833 147.766 56.0326 147.087 56.5394C146.408 57.0483 145.642 57.4249 144.79 57.6711C143.938 57.9174 143.082 58.0396 142.219 58.0396C141.611 58.0396 141.064 57.9866 140.578 57.8808C140.091 57.7749 139.665 57.6447 139.303 57.4879C138.937 57.3333 138.632 57.1684 138.381 56.9954C138.134 56.8244 137.938 56.6717 137.791 56.5374H137.725L137.345 57.7444H134.098C134.121 57.4086 134.141 56.9933 134.155 56.4967C134.172 56.0021 134.181 55.5299 134.181 55.0841V40.775H138.114V45.4972C138.114 45.8331 138.111 46.1445 138.105 46.4295C138.099 46.7144 138.091 46.9363 138.079 47.091H138.114C138.367 46.9668 138.643 46.8447 138.943 46.7287C139.242 46.6106 139.567 46.5068 139.921 46.4132C140.276 46.3195 140.656 46.2442 141.064 46.1893C141.473 46.1343 141.905 46.1079 142.357 46.1079C143.252 46.1079 144.122 46.2239 144.968 46.4539C145.815 46.6839 146.566 47.036 147.222 47.5082C147.879 47.9805 148.403 48.587 148.791 49.3238C149.174 50.0647 149.367 50.9135 149.367 51.8742ZM145.308 52.0147C145.308 51.3043 145.184 50.6916 144.942 50.1808C144.7 49.6699 144.381 49.277 143.989 49.0083C143.598 48.7397 143.189 48.5565 142.763 48.4628C142.337 48.3692 141.917 48.3224 141.493 48.3224C140.92 48.3224 140.333 48.4038 139.737 48.5687C139.138 48.7336 138.6 48.9514 138.114 49.2261V54.6648C138.266 54.789 138.459 54.9213 138.686 55.0576C138.914 55.194 139.167 55.3202 139.449 55.4322C139.731 55.5461 140.037 55.6398 140.371 55.7131C140.702 55.7884 141.056 55.825 141.43 55.825C142.072 55.825 142.631 55.7334 143.111 55.5502C143.592 55.367 143.995 55.1065 144.32 54.7706C144.646 54.4348 144.893 54.0338 145.057 53.5697C145.224 53.1036 145.308 52.5846 145.308 52.0147Z" fill="#415163"/>
<path d="M159.095 58.0396C157.48 58.0396 156.144 57.8462 155.082 57.4574C154.022 57.0727 153.219 56.5496 152.678 55.8942C152.39 55.5421 152.177 55.1554 152.039 54.734C151.901 54.3127 151.831 53.8425 151.831 53.3275V46.3888H155.761V53.0324C155.761 53.4151 155.799 53.7448 155.876 54.0237C155.954 54.3005 156.069 54.5407 156.225 54.7442C156.489 55.0882 156.867 55.3447 157.353 55.5116C157.84 55.6785 158.418 55.7639 159.095 55.7639C159.803 55.7639 160.408 55.6703 160.909 55.4831C161.412 55.2958 161.789 55.0108 162.043 54.6282C162.296 54.2618 162.426 53.7489 162.426 53.0935V46.3888H166.355V53.3255C166.355 54.2476 166.128 55.0251 165.676 55.6581C165.423 56.0163 165.092 56.342 164.691 56.6351C164.288 56.9282 163.813 57.1786 163.266 57.3862C162.719 57.5938 162.1 57.7526 161.409 57.8665C160.716 57.9826 159.947 58.0396 159.095 58.0396Z" fill="#415163"/>
<path d="M180.079 58.0396C180.079 57.8829 180.082 57.6895 180.088 57.4575C180.093 57.2275 180.105 57.0341 180.131 56.8774H180.096C179.852 57.0179 179.575 57.1563 179.258 57.2926C178.945 57.429 178.599 57.5552 178.222 57.6692C177.845 57.7832 177.433 57.8707 176.978 57.9379C176.524 58.005 176.06 58.0376 175.585 58.0376C174.733 58.0376 173.904 57.9297 173.089 57.716C172.277 57.5002 171.555 57.1603 170.924 56.6962C170.294 56.2322 169.787 55.6358 169.398 54.9091C169.013 54.1825 168.817 53.3072 168.817 52.2834C168.817 51.2596 169.013 50.364 169.404 49.5926C169.796 48.8232 170.317 48.18 170.97 47.665C171.621 47.15 172.372 46.7612 173.216 46.4987C174.059 46.2361 174.932 46.1058 175.827 46.1058C176.809 46.1058 177.684 46.2524 178.444 46.5455C179.207 46.8386 179.831 47.2111 180.318 47.665H180.384L180.551 46.3867H184V57.9542C184 58.6177 183.922 59.1897 183.767 59.666C183.611 60.1423 183.384 60.5636 183.087 60.932C182.733 61.3615 182.284 61.736 181.737 62.0576C181.19 62.3792 180.566 62.6438 179.863 62.8555C179.161 63.0672 178.389 63.226 177.551 63.3298C176.711 63.4356 175.821 63.4885 174.883 63.4885C174.353 63.4885 173.832 63.4743 173.325 63.4478C172.818 63.4214 172.341 63.3827 171.891 63.3298C171.445 63.2789 171.036 63.2198 170.665 63.1547C170.294 63.0875 169.983 63.0204 169.729 62.9491V60.6878C170.458 60.8587 171.224 60.991 172.024 61.0806C172.824 61.1702 173.668 61.2149 174.552 61.2149C176.308 61.2149 177.666 60.9748 178.628 60.4924C179.59 60.012 180.07 59.2833 180.07 58.3083L180.079 58.0396ZM176.564 55.823C176.961 55.823 177.338 55.7884 177.689 55.7172C178.044 55.648 178.369 55.5564 178.668 55.4485C178.968 55.3386 179.233 55.2185 179.472 55.0842C179.708 54.9519 179.909 54.8196 180.076 54.6873V49.6129C179.656 49.2608 179.138 48.9677 178.519 48.7336C177.9 48.4995 177.243 48.3794 176.547 48.3713C176.305 48.3713 176.046 48.3937 175.775 48.4364C175.504 48.4792 175.231 48.5545 174.955 48.6644C174.678 48.7743 174.416 48.9209 174.166 49.104C173.918 49.2872 173.699 49.5193 173.509 49.8022C173.322 50.0831 173.17 50.4189 173.054 50.8097C172.939 51.2006 172.882 51.6545 172.882 52.1694C172.882 52.7393 172.959 53.2482 173.115 53.698C173.27 54.1479 173.501 54.5305 173.812 54.846C174.12 55.1615 174.505 55.4037 174.963 55.5727C175.424 55.7396 175.956 55.823 176.564 55.823Z" fill="#415163"/>
</svg>
