<svg width="200" height="100" viewBox="0 0 200 100" fill="none" xmlns="http://www.w3.org/2000/svg">
<path d="M65.6797 38.0927H70.0897V57.8298H65.6797V38.0927ZM73.6156 57.8298V43.1944H77.6791V45.2245C78.4477 43.8345 80.1739 42.793 82.2718 42.793C83.7626 42.7646 85.204 43.3313 86.2807 44.3689C87.3685 45.4104 87.925 46.9335 87.925 48.8834V57.8298H83.7586V49.9776C83.7586 47.8419 82.6435 46.6399 80.9173 46.6399C79.0273 46.6399 77.7841 48.0278 77.7841 50.0854V57.8298H73.6156ZM89.8612 55.5314L91.9066 52.8084C93.154 54.0907 94.5337 54.7308 96.0751 54.7308C97.1104 54.7308 97.8538 54.2766 97.8538 53.5562C97.8538 53.1337 97.5598 52.7809 96.9508 52.4873C96.7408 52.3817 96.1528 52.1683 95.2246 51.8535C94.2964 51.5388 93.658 51.2663 93.3346 51.1057C91.6084 50.2776 90.7327 48.97 90.7327 47.2335C90.7147 46.6067 90.8448 45.9846 91.1124 45.4183C91.38 44.852 91.7774 44.3577 92.272 43.976C93.3073 43.1479 94.687 42.7191 96.4132 42.7191C98.5132 42.7191 100.263 43.3866 101.663 44.7492L99.7375 47.468C98.6497 46.5596 97.5073 46.1054 96.3397 46.1054C95.4115 46.1054 94.8256 46.5279 94.8256 47.1469C94.8256 47.6813 95.2456 48.0806 96.1276 48.3764C97.6942 48.8834 98.8345 49.3101 99.5779 49.7115C101.224 50.5924 102.048 51.824 102.048 53.4485C102.053 54.1073 101.908 54.7585 101.622 55.3514C101.337 55.9443 100.919 56.4628 100.401 56.8665C99.3133 57.7749 97.8811 58.2291 96.0751 58.2291C93.49 58.2291 91.4278 57.3207 89.8612 55.5314ZM115.08 57.0017C113.833 57.803 112.347 58.2037 110.622 58.2037C107.144 58.2037 105.418 56.2264 105.418 52.3014V46.6652H103.108V43.1944H105.445V38.0124H109.587V43.1944H114.259V46.6652H109.587V51.9042C109.587 53.5604 110.217 54.3885 111.525 54.3885C112.188 54.3885 112.984 54.1484 113.913 53.6682L115.08 57.0017ZM127.479 43.1944H131.408V57.8298H127.479V56.3405C126.898 56.9447 126.2 57.4223 125.428 57.7439C124.656 58.0655 123.826 58.2242 122.991 58.21C122.025 58.2316 121.067 58.0442 120.18 57.6604C119.293 57.2766 118.498 56.7054 117.85 55.9856C116.496 54.4899 115.832 52.6478 115.832 50.4318C115.832 48.2158 116.523 46.4181 117.875 44.9837C119.228 43.5493 120.948 42.8205 122.991 42.8205C123.831 42.8099 124.663 42.9754 125.436 43.3064C126.208 43.6374 126.904 44.1266 127.479 44.7429V43.1944ZM121.027 53.2626C121.37 53.6294 121.786 53.919 122.248 54.1123C122.709 54.3057 123.207 54.3984 123.707 54.3843C124.21 54.3998 124.71 54.305 125.173 54.1066C125.637 53.9081 126.051 53.6108 126.389 53.2351C127.097 52.4998 127.489 51.5129 127.479 50.4889C127.486 49.9849 127.394 49.4844 127.206 49.0168C127.019 48.5492 126.741 48.1239 126.389 47.7658C126.037 47.4104 125.62 47.1283 125.16 46.9358C124.7 46.7434 124.206 46.6443 123.708 46.6443C123.21 46.6443 122.716 46.7434 122.256 46.9358C121.796 47.1283 121.379 47.4104 121.027 47.7658C120.341 48.5022 119.969 49.4799 119.992 50.4889C119.97 51.5129 120.341 52.506 121.027 53.2626ZM148.157 45.0365C149.564 46.5152 150.257 48.3214 150.257 50.5121C150.257 52.7028 149.568 54.5449 148.187 56.0046C146.805 57.4643 145.081 58.1953 143.01 58.1953C142.181 58.2128 141.359 58.0416 140.605 57.6944C139.851 57.3472 139.185 56.8331 138.657 56.1905V57.8213H134.616V37.5054H138.785V44.6372C139.322 44.0527 139.975 43.5887 140.703 43.2756C141.43 42.9626 142.215 42.8075 143.006 42.8205C143.971 42.8023 144.93 42.9904 145.818 43.3724C146.706 43.7544 147.503 44.3216 148.157 45.0365ZM144.972 47.7827C144.635 47.415 144.223 47.1248 143.765 46.9319C143.306 46.739 142.812 46.6481 142.315 46.6652C141.815 46.6512 141.318 46.7439 140.856 46.9372C140.394 47.1306 139.978 47.4202 139.635 47.787C139.294 48.1454 139.027 48.5684 138.849 49.0314C138.671 49.4945 138.587 49.9884 138.6 50.4846C138.574 51.5013 138.945 52.4876 139.635 53.2309C139.978 53.5977 140.394 53.8873 140.856 54.0806C141.318 54.274 141.815 54.3667 142.315 54.3526C142.812 54.3693 143.307 54.2776 143.765 54.084C144.224 53.8904 144.635 53.5994 144.972 53.2309C145.661 52.487 146.032 51.5011 146.007 50.4846C146.02 49.9885 145.935 49.4947 145.757 49.0317C145.58 48.5687 145.313 48.1456 144.972 47.787V47.7827ZM152.536 51.5536V43.1944H156.7V51.5789C156.7 53.2689 157.681 54.3568 159.354 54.3568C161.028 54.3568 162.009 53.2626 162.009 51.5789V43.1944H166.177V51.5536C166.177 55.7997 163.601 58.2037 159.354 58.2037C155.108 58.2037 152.536 55.7469 152.536 51.5536ZM180.197 43.1944H184V56.387C184 58.7361 183.231 60.612 181.69 61.9682C180.149 63.3244 178.212 64.0511 175.85 64.0511C173.408 64.0844 171.023 63.3161 169.054 61.8626L170.648 58.7635C172.328 59.9127 174.008 60.4725 175.688 60.4725C178.448 60.4725 180.014 58.8713 180.014 56.7081V56.1461C178.926 57.2953 177.494 57.8551 175.713 57.8551C173.563 57.8551 171.837 57.1622 170.484 55.7426C169.132 54.323 168.46 52.538 168.46 50.379C168.46 48.1609 169.176 46.3462 170.583 44.9309C171.99 43.5155 173.769 42.8184 175.867 42.8184C176.674 42.7996 177.477 42.9516 178.222 43.2645C178.968 43.5775 179.64 44.0444 180.195 44.6351L180.197 43.1944ZM176.373 46.6652C175.88 46.6494 175.389 46.7361 174.93 46.9201C174.472 47.104 174.057 47.3812 173.71 47.7342C173.359 48.0802 173.083 48.4968 172.903 48.9569C172.722 49.4169 172.639 49.9101 172.66 50.4044C172.641 50.9066 172.725 51.4074 172.905 51.876C173.086 52.3446 173.36 52.7712 173.71 53.1295C174.055 53.4868 174.47 53.7688 174.928 53.9578C175.386 54.1468 175.878 54.2387 176.373 54.228C176.861 54.2455 177.348 54.1593 177.801 53.9752C178.254 53.791 178.663 53.5129 179.002 53.1591C179.352 52.7965 179.626 52.3661 179.807 51.8941C179.987 51.4221 180.071 50.9182 180.052 50.4128C180.062 48.2412 178.498 46.6652 176.373 46.6652Z" fill="#00287A"/>
<path d="M23.602 60.9204L35.7652 45.4188H30.5299L18.3604 60.9204H23.602Z" fill="#64B5F9"/>
<path opacity="0.2" d="M23.5999 60.9204L31.792 50.5057H26.5378L18.3436 60.9204H23.5999Z" fill="url(#paint0_linear)"/>
<path d="M41.0572 45.4188L28.894 60.9204H41.0194C42.0432 60.9201 43.0537 60.6866 43.975 60.2373C44.8962 59.788 45.7044 59.1346 46.3387 58.3262L56.467 45.4188H41.0572Z" fill="#00287A"/>
<path d="M41.0572 45.4188L28.894 60.9204H41.0194C42.0432 60.9201 43.0537 60.6866 43.975 60.2373C44.8962 59.788 45.7044 59.1346 46.3387 58.3262L56.467 45.4188H41.0572Z" fill="url(#paint1_linear)"/>
<path d="M28.8961 60.9204L41.0572 45.4188H35.761L23.5999 60.9204H28.8961Z" fill="#0098FF"/>
<path opacity="0.35" d="M28.8961 60.9204L41.0572 45.4188H35.761L23.5999 60.9204H28.8961Z" fill="url(#paint2_linear)"/>
<path opacity="0.8" d="M26.5378 50.5057L25.429 51.9169H35.9626L37.0651 50.5057H26.5378Z" fill="url(#paint3_linear)"/>
<path opacity="0.8" d="M45.9376 45.4188L43.9804 47.9116C43.3461 48.72 42.5379 49.3734 41.6167 49.8227C40.6954 50.2719 39.6849 50.5055 38.6611 50.5057H37.0651L35.9626 51.9169H38.8102C40.0011 51.9196 41.177 51.6494 42.2486 51.1267C43.3202 50.604 44.2594 49.8426 44.9947 48.9002L47.7247 45.4188H45.9376Z" fill="url(#paint4_linear)"/>
<path d="M21.2416 50.5051L33.4048 35.0036H28.1695L16 50.5051H21.2416Z" fill="#64B5F9"/>
<path opacity="0.2" d="M21.2413 50.5056L33.4024 35.004H28.1692L16.006 50.5056H21.2413Z" fill="url(#paint5_linear)"/>
<path d="M26.5378 50.5057L38.6989 35.0042H33.4027L21.2416 50.5057H26.5378Z" fill="#0098FF"/>
<path opacity="0.35" d="M26.5378 50.5057L38.6989 35.0042H33.4027L21.2416 50.5057H26.5378Z" fill="url(#paint6_linear)"/>
<path d="M43.9804 47.9116L54.1087 35.0042H38.6989L26.5378 50.5057H38.6611C39.6849 50.5055 40.6954 50.272 41.6166 49.8227C42.5379 49.3734 43.346 48.72 43.9804 47.9116Z" fill="#0E5FC1"/>
<path opacity="0.5" d="M43.9804 47.9116L54.1087 35.0042H38.6989L26.5378 50.5057H38.6611C39.6849 50.5055 40.6954 50.272 41.6166 49.8227C42.5379 49.3734 43.346 48.72 43.9804 47.9116Z" fill="url(#paint7_linear)"/>
<defs>
<linearGradient id="paint0_linear" x1="30.4585" y1="45.873" x2="16.4825" y2="71.0874" gradientUnits="userSpaceOnUse">
<stop stop-color="#00287A" stop-opacity="0"/>
<stop offset="1" stop-color="#00287A"/>
</linearGradient>
<linearGradient id="paint1_linear" x1="4395.9" y1="817.085" x2="2687.68" y2="4270.72" gradientUnits="userSpaceOnUse">
<stop stop-color="#00287A" stop-opacity="0"/>
<stop offset="1" stop-color="#00287A"/>
</linearGradient>
<linearGradient id="paint2_linear" x1="1948.09" y1="471.401" x2="694.832" y2="3013.39" gradientUnits="userSpaceOnUse">
<stop stop-color="#00287A" stop-opacity="0"/>
<stop offset="1" stop-color="#00287A"/>
</linearGradient>
<linearGradient id="paint3_linear" x1="22.1551" y1="51.2113" x2="36.2944" y2="51.2113" gradientUnits="userSpaceOnUse">
<stop stop-color="#19A3FF" stop-opacity="0"/>
<stop offset="1" stop-color="#0E5FC1"/>
</linearGradient>
<linearGradient id="paint4_linear" x1="27.7159" y1="50.1297" x2="45.5427" y2="48.3968" gradientUnits="userSpaceOnUse">
<stop stop-color="#002061" stop-opacity="0"/>
<stop offset="1" stop-color="#00143D"/>
</linearGradient>
<linearGradient id="paint5_linear" x1="1365.44" y1="-412.215" x2="19.0019" y2="2330.11" gradientUnits="userSpaceOnUse">
<stop stop-color="#00287A" stop-opacity="0"/>
<stop offset="1" stop-color="#00287A"/>
</linearGradient>
<linearGradient id="paint6_linear" x1="1749.69" y1="-303.239" x2="496.428" y2="2238.75" gradientUnits="userSpaceOnUse">
<stop stop-color="#00287A" stop-opacity="0"/>
<stop offset="1" stop-color="#00287A"/>
</linearGradient>
<linearGradient id="paint7_linear" x1="3701.46" y1="22.913" x2="3224.92" y2="1840.79" gradientUnits="userSpaceOnUse">
<stop stop-color="#00287A" stop-opacity="0"/>
<stop offset="1" stop-color="#00287A"/>
</linearGradient>
</defs>
</svg>
