<svg width="200" height="100" viewBox="0 0 200 100" fill="none" xmlns="http://www.w3.org/2000/svg">
<g clip-path="url(#clip0)">
<path d="M20.9056 58.0321C20.4688 58.2673 19.6624 58.4353 18.4696 58.4353C17.2768 58.4353 16.4704 58.2673 16 58.0321V41.8705C16.9072 41.3665 18.3688 41.0977 19.9984 41.0977L20.2672 43.8697H20.536C21.3088 42.2065 22.972 40.7449 26.0128 40.7449C28.012 40.7449 30.0112 41.3161 30.9184 43.7017H31.1872C31.8928 42.1057 33.556 40.7449 36.5632 40.7449C39.1 40.7449 42.0736 41.6521 42.0736 47.2465V58.0321C41.6368 58.2673 40.8304 58.4353 39.6376 58.4353C38.4616 58.4353 37.6384 58.2673 37.168 58.0321V48.1369C37.168 46.3729 36.5968 45.2473 34.6648 45.2473C32.968 45.2473 31.9936 46.1209 31.4224 47.1793C31.456 47.4817 31.4896 48.2041 31.4896 48.9097V58.0321C31.0528 58.2673 30.2632 58.4353 29.0872 58.4353C27.9112 58.4353 27.1216 58.2673 26.6512 58.0321V48.1369C26.6512 46.3729 26.08 45.2473 24.148 45.2473C22.4176 45.2473 21.4768 46.1209 20.9056 47.1793V58.0321ZM54.2536 54.9409C56.5888 54.9409 57.6304 52.9753 57.6304 49.6153C57.6304 46.6249 56.4208 44.7601 54.2536 44.7601C51.9856 44.7601 50.8768 46.6249 50.8768 49.6153C50.8768 52.9753 52.0192 54.9409 54.2536 54.9409ZM62.6872 49.5985C62.6872 55.6969 59.4784 58.9897 54.2704 58.9897C48.8272 58.9897 45.8536 55.8649 45.8536 49.5985C45.8536 44.0377 49.264 40.7449 54.2704 40.7449C59.3608 40.7449 62.6872 43.8361 62.6872 49.5985ZM71.3728 58.0321C70.936 58.2673 70.1296 58.4353 68.9368 58.4353C67.7608 58.4353 66.9376 58.2673 66.4672 58.0321V41.8705C67.3744 41.3665 68.836 41.0977 70.4656 41.0977L70.7344 43.8697H71.0032C71.8096 42.1057 73.54 40.7449 76.6144 40.7449C79.1848 40.7449 82.2256 41.6521 82.2256 47.2465V58.0321C81.7888 58.2673 80.9824 58.4353 79.7896 58.4353C78.6136 58.4353 77.7904 58.2673 77.32 58.0321V48.1369C77.32 46.3729 76.7152 45.2473 74.716 45.2473C72.952 45.2473 71.9776 46.1209 71.3728 47.1793V58.0321ZM97.0096 47.9017C97.2784 46.1377 96.64 44.4073 94.204 44.4073C92.104 44.4073 90.8272 45.7681 90.6928 47.9017H97.0096ZM90.8272 51.4633C91.0288 53.8321 92.7256 54.9913 96.0688 54.9913C98.236 54.9913 100.134 54.5209 101.344 53.9665C101.445 55.2601 100.907 56.9233 100.118 57.7969C99.0088 58.4353 97.1104 58.9897 94.7752 58.9897C88.8616 58.9897 85.7032 55.5625 85.7032 50.0689C85.7032 44.4073 89.08 40.7449 94.3888 40.7449C99.328 40.7449 101.596 43.8025 101.596 48.2713C101.596 49.3633 101.394 50.5729 101.092 51.4633H90.8272ZM130.106 54.6385C130.576 54.7729 131.366 54.8737 132.105 54.8737C135.28 54.8737 136.607 52.9417 136.607 49.6153C136.607 46.5241 135.398 45.0457 133.23 45.0457C131.668 45.0457 130.761 45.7513 130.122 46.6081V54.6385H130.106ZM130.072 43.4497C130.677 42.0553 132.206 40.7449 134.776 40.7449C138.254 40.7449 141.647 42.9121 141.647 49.1785C141.647 55.6129 138.102 58.9729 131.97 58.9729C129.568 58.9729 127.065 58.4689 125.267 57.6793V34.0081C126.41 33.3529 128.006 33.0169 130.173 33.0169V38.4769C130.173 39.9721 130.038 42.0721 129.803 43.4665H130.072V43.4497ZM145.36 41.7025C145.83 41.4673 146.654 41.2993 147.83 41.2993C149.006 41.2993 149.829 41.4673 150.266 41.7025V58.0489C149.829 58.2841 149.006 58.4521 147.83 58.4521C146.654 58.4521 145.83 58.2841 145.36 58.0489V41.7025ZM163.958 40.7449C164.596 40.7449 165.134 40.8457 165.554 41.0473C166.024 41.8873 166.259 42.8449 166.259 44.1385C166.259 45.1129 166.125 45.7345 165.957 46.2049C165.318 45.8353 164.663 45.6337 163.622 45.6337C161.891 45.6337 160.614 46.8265 159.976 48.5905V58.0489C159.539 58.2841 158.716 58.4521 157.54 58.4521C156.364 58.4521 155.541 58.2841 155.07 58.0489V41.8705C155.978 41.3665 157.406 41.0977 159.035 41.0977L159.371 44.2225H159.64C160.11 42.3409 161.186 40.7449 163.958 40.7449ZM118.732 41.1481C117.556 41.1481 116.733 41.3161 116.296 41.5513V52.4041C115.658 53.4961 114.666 54.4033 112.852 54.4033C110.819 54.4033 110.181 53.2441 110.181 51.4465V41.5513C109.71 41.3161 108.887 41.1481 107.711 41.1481C106.535 41.1481 105.712 41.3161 105.275 41.5513V52.3369C105.275 57.9313 108.35 58.8385 110.987 58.8385C114.095 58.8385 115.406 57.8809 116.145 56.1841H116.363C116.363 59.6113 116.38 59.4433 116.346 59.9977C116.229 62.2489 114.498 63.2905 111.323 63.2905C109.24 63.2905 107.426 62.8369 106.266 62.3161C106.166 63.5593 106.686 65.1385 107.442 65.9953C108.518 66.6169 110.332 67.1377 112.566 67.1377C117.522 67.1377 121.185 64.4329 121.185 60.2161V41.5513C120.714 41.3161 119.908 41.1481 118.732 41.1481ZM179.162 46.6081C178.523 45.7681 177.599 45.0457 176.054 45.0457C173.886 45.0457 172.677 46.5409 172.677 49.6153C172.677 52.9417 174.004 54.8737 177.179 54.8737C177.918 54.8737 178.708 54.7729 179.178 54.6385V46.6081H179.162ZM179.464 43.4497C179.229 42.0553 179.094 39.9553 179.094 38.4601V33.0169C181.262 33.0169 182.841 33.3529 184 34.0081V57.6961C182.202 58.4689 179.699 58.9897 177.297 58.9897C171.182 58.9897 167.62 55.6297 167.62 49.1953C167.62 42.9289 170.997 40.7617 174.491 40.7617C177.062 40.7617 178.59 42.0889 179.195 43.4665H179.464V43.4497Z" fill="#141E28"/>
</g>
<defs>
<clipPath id="clip0">
<rect width="168" height="34.1376" fill="white" transform="translate(16 33)"/>
</clipPath>
</defs>
</svg>
