<svg width="200" height="100" viewBox="0 0 200 100" fill="none" xmlns="http://www.w3.org/2000/svg">
<path fill-rule="evenodd" clip-rule="evenodd" d="M70.9184 59.0408L51.9651 35.4082C51.2278 34.489 50.1458 33.5914 52.786 31.0038C56.6793 27.1888 62.8727 27.3261 66.9167 32.4125L81.4243 50.6635C83.729 53.563 83.2592 57.8572 80.3983 60.1888C77.5375 62.5223 73.2351 61.931 70.9184 59.0408ZM16.3034 50.0516L16.991 49.3389C17.8083 48.4926 17.9406 48.1339 19.5099 50.0591L25.5222 57.4387C26.3964 58.513 26.1124 59.0062 25.8035 59.3817L25.3493 59.9347C22.9978 62.7941 18.2817 62.569 15.7601 59.8768C13.232 57.1762 13.4397 53.0203 16.3034 50.0516ZM28.657 35.8678L54.2441 68.0719C54.9768 68.9949 58.2697 70.765 55.9135 72.5819C51.6057 75.9046 43.4238 76.1652 39.3963 71.0677L16.3833 41.935C13.7541 38.6076 14.4418 31.2028 17.6428 28.6302C19.9135 26.8058 21.7815 25.7381 24.0816 25.3215C25.8724 24.9964 26.2328 24.9787 26.105 26.8796C25.9781 28.7787 25.5056 31.9015 28.657 35.8678ZM71.2126 33.3644L78.6213 42.5048C79.8256 43.991 80.4066 43.8453 81.4482 41.8098C84.8386 35.1831 79.8992 26.3911 72.9446 25.1309C71.1538 24.8059 71.0775 24.9805 71.2053 26.8815C71.2853 28.0678 71.4995 29.3962 70.8798 31.4457C70.5075 32.675 70.5066 32.4928 71.2126 33.3644ZM58.2182 68.5754L31.494 35.1187C30.7585 34.1976 29.5533 33.1953 32.1927 30.6087C36.085 26.7937 42.3243 27.3448 46.3748 32.4246L66.4488 57.5957C67.8636 59.3686 67.5915 59.052 66.8441 59.9964L60.2104 68.3746C59.7581 68.9481 59.0208 69.8188 58.2182 68.5754ZM124.087 43.5819L129.282 59.2528C130.053 61.1809 130.473 62.6558 130.554 63.675C130.554 64.7717 130.215 65.6871 129.534 66.4176C128.854 67.1453 127.897 67.5395 126.665 67.5909C124.825 67.5909 123.625 66.6147 123.065 64.6521L119.313 51.706H119.216L115.812 62.965C115.567 63.8478 115.309 64.611 115.026 65.2602C114.75 65.891 114.33 66.4461 113.801 66.88C113.266 67.3256 112.569 67.5572 111.726 67.5918C110.542 67.5918 109.691 67.1976 109.165 66.4092C108.638 65.6283 108.137 64.4718 107.641 62.9641L104.244 51.705H104.14L100.444 64.6511C99.9327 66.6147 98.7174 67.5899 96.8043 67.5899C95.6129 67.5899 94.6807 67.2209 94.0078 66.4932C93.3348 65.7562 93.003 64.8221 93.003 63.674C93.003 63.2705 93.06 62.8511 93.1648 62.4064C93.2705 61.959 93.4001 61.5143 93.5619 61.0529C93.7163 60.5896 93.9269 59.9889 94.1787 59.2519L99.3829 43.5809C99.8932 42.1928 100.509 41.1727 101.24 40.5301C101.962 39.8874 102.965 39.5623 104.246 39.5623C105.512 39.5623 106.469 39.8874 107.117 40.5301C107.756 41.1727 108.291 42.2264 108.713 43.6837L111.727 53.2454H111.833L114.792 43.6837C115.231 42.2433 115.789 41.1905 116.446 40.5385C117.111 39.8874 118.068 39.5623 119.315 39.5623C120.596 39.5623 121.594 39.8874 122.314 40.5385C123.026 41.1821 123.616 42.2022 124.087 43.5819ZM150.017 64.9688C149.369 65.9104 148.502 66.6726 147.416 67.2471C146.329 67.8216 144.782 68.1046 142.762 68.1046C140.299 67.9841 138.223 67.1611 136.538 65.6273C134.852 64.1037 134.01 61.7722 134.01 58.6447V43.6762C134.01 42.5188 134.358 41.5427 135.063 40.7458C135.767 39.9574 136.666 39.5632 137.746 39.5632C138.872 39.5632 139.789 39.9565 140.492 40.7458C141.199 41.5343 141.546 42.5113 141.546 43.6846V56.4336C141.546 57.3509 141.717 58.1739 142.065 58.9184C142.387 59.6296 142.905 60.231 143.557 60.6503C144.197 61.0604 144.917 61.2668 145.729 61.2668C147.066 61.2668 148.112 60.796 148.873 59.8525C149.636 58.9091 150.017 57.7704 150.017 56.4336V43.6846C150.017 42.5104 150.365 41.5333 151.07 40.7458C151.767 39.9574 152.682 39.5632 153.801 39.5632C154.888 39.5632 155.796 39.9565 156.516 40.7458C157.238 41.5427 157.604 42.5188 157.604 43.6762V63.3742C157.604 64.5306 157.231 65.5162 156.484 66.3485C155.747 67.1808 154.847 67.5909 153.801 67.5909C152.837 67.5909 152.027 67.3246 151.37 66.8024C150.714 66.2719 150.26 65.6619 150.017 64.9688ZM162.8 63.6404L162.906 43.3016C162.913 42.0079 163.289 40.9813 164.041 40.2255C164.796 39.4661 165.678 39.0859 166.691 39.0859C167.712 39.0859 168.603 39.482 169.359 40.2601C170.118 41.041 170.491 42.1368 170.491 43.5501V49.2885L177.738 41.5249C178.842 40.4628 179.878 39.9313 180.845 39.9313C181.961 39.9313 182.87 40.3171 183.576 41.0877C184.282 41.8593 184.682 42.7085 184.637 43.6332C184.584 44.7243 184.032 45.6239 183.235 46.4608L177.191 52.8204L184.93 61.7311C185.632 62.5372 186 63.419 186 64.4036C186 65.4582 185.578 66.3139 184.743 66.9743C183.901 67.6329 182.896 67.9598 181.729 67.9598C181.047 67.8907 180.456 67.6693 179.969 67.2919C179.474 66.9071 179.007 66.1607 178.226 65.3377L170.493 57.1893H170.389V63.5293C170.389 64.9174 170.005 66.0028 169.246 66.7838C168.49 67.5628 167.576 67.9589 166.506 67.9589C165.493 67.9589 164.626 67.574 163.897 66.8024C163.164 66.0309 162.8 64.9762 162.8 63.6404Z" fill="#CC2229"/>
</svg>
