<svg width="417" height="30" viewBox="0 0 417 30" fill="none" xmlns="http://www.w3.org/2000/svg">
<path d="M204.3 22.18C203.233 22.18 202.273 21.9467 201.42 21.48C200.567 21 199.893 20.3267 199.4 19.46C198.92 18.5933 198.68 17.5933 198.68 16.46C198.68 15.3267 198.927 14.3267 199.42 13.46C199.927 12.5933 200.613 11.9267 201.48 11.46C202.347 10.98 203.313 10.74 204.38 10.74C205.447 10.74 206.413 10.98 207.28 11.46C208.147 11.9267 208.827 12.5933 209.32 13.46C209.827 14.3267 210.08 15.3267 210.08 16.46C210.08 17.5933 209.82 18.5933 209.3 19.46C208.793 20.3267 208.1 21 207.22 21.48C206.353 21.9467 205.38 22.18 204.3 22.18ZM204.3 19.74C204.807 19.74 205.28 19.62 205.72 19.38C206.173 19.1267 206.533 18.7533 206.8 18.26C207.067 17.7667 207.2 17.1667 207.2 16.46C207.2 15.4067 206.92 14.6 206.36 14.04C205.813 13.4667 205.14 13.18 204.34 13.18C203.54 13.18 202.867 13.4667 202.32 14.04C201.787 14.6 201.52 15.4067 201.52 16.46C201.52 17.5133 201.78 18.3267 202.3 18.9C202.833 19.46 203.5 19.74 204.3 19.74ZM214.964 12.64C215.324 12.0533 215.791 11.5933 216.364 11.26C216.951 10.9267 217.617 10.76 218.364 10.76V13.7H217.624C216.744 13.7 216.077 13.9067 215.624 14.32C215.184 14.7333 214.964 15.4533 214.964 16.48V22H212.164V10.92H214.964V12.64Z" fill="#1E272E"/>
<line x1="231" y1="17.25" x2="417" y2="17.25" stroke="#808E9B" stroke-width="1.5"/>
<line y1="17.25" x2="186" y2="17.25" stroke="#808E9B" stroke-width="1.5"/>
</svg>
