<svg width="56" height="56" viewBox="0 0 56 56" fill="none" xmlns="http://www.w3.org/2000/svg">
<g filter="url(#filter0_d)">
<circle cx="28" cy="26" r="20" fill="white"/>
</g>
<g clip-path="url(#clip0)">
<path d="M43.748 25.5214C43.748 23.4844 41.1972 21.5541 37.2863 20.357C38.1888 16.3709 37.7877 13.1996 36.0203 12.1843C35.6129 11.9461 35.1366 11.8333 34.6164 11.8333V13.2309C34.9047 13.2309 35.1366 13.2873 35.3308 13.3939C36.1832 13.8827 36.553 15.7442 36.2647 18.1383C36.1958 18.7275 36.0829 19.3479 35.9451 19.981C34.7166 19.6801 33.3754 19.4482 31.9652 19.2978C31.1191 18.1383 30.2417 17.0854 29.358 16.1641C31.4012 14.2651 33.319 13.2247 34.6226 13.2247V11.827C32.8991 11.827 30.6428 13.0554 28.3615 15.1864C26.0801 13.068 23.8238 11.8521 22.1003 11.8521V13.2497C23.3977 13.2497 25.3218 14.2839 27.3649 16.1704C26.4875 17.0917 25.6101 18.1383 24.7765 19.2978C23.3601 19.4482 22.0188 19.6801 20.7904 19.9872C20.6463 19.3605 20.5397 18.7525 20.4645 18.1697C20.1699 15.7755 20.5334 13.9141 21.3796 13.419C21.5676 13.3061 21.812 13.256 22.1003 13.256V11.8584C21.5738 11.8584 21.0975 11.9712 20.6839 12.2093C18.9227 13.2247 18.5279 16.3897 19.4366 20.3633C15.5383 21.5666 13 23.4907 13 25.5214C13 27.5583 15.5508 29.4886 19.4617 30.6857C18.5592 34.6718 18.9603 37.8431 20.7277 38.8584C21.1351 39.0966 21.6114 39.2094 22.1379 39.2094C23.8615 39.2094 26.1177 37.981 28.3991 35.8501C30.6804 37.9685 32.9367 39.1844 34.6602 39.1844C35.1867 39.1844 35.663 39.0715 36.0767 38.8334C37.8378 37.8181 38.2327 34.653 37.3239 30.6795C41.2097 29.4824 43.748 27.552 43.748 25.5214ZM35.5878 21.341C35.3559 22.1495 35.0676 22.983 34.7417 23.8166C34.4847 23.3152 34.2152 22.8138 33.9207 22.3124C33.6324 21.811 33.3253 21.3222 33.0182 20.8459C33.9081 20.9775 34.7668 21.1404 35.5878 21.341ZM32.7173 28.0158C32.2285 28.8619 31.7271 29.6641 31.2069 30.41C30.273 30.4914 29.3267 30.5353 28.374 30.5353C27.4276 30.5353 26.4812 30.4914 25.5537 30.4162C25.0335 29.6704 24.5258 28.8744 24.0369 28.0346C23.5606 27.2136 23.1282 26.38 22.7333 25.5402C23.1219 24.7003 23.5606 23.8605 24.0307 23.0395C24.5195 22.1934 25.0209 21.3911 25.5411 20.6453C26.475 20.5638 27.4214 20.5199 28.374 20.5199C29.3204 20.5199 30.2668 20.5638 31.1943 20.639C31.7145 21.3849 32.2222 22.1808 32.7111 23.0207C33.1874 23.8417 33.6198 24.6753 34.0147 25.5151C33.6198 26.3549 33.1874 27.1948 32.7173 28.0158ZM34.7417 27.201C35.0801 28.0409 35.3685 28.8807 35.6066 29.6955C34.7856 29.896 33.9207 30.0652 33.0244 30.1969C33.3315 29.7143 33.6386 29.2191 33.9269 28.7115C34.2152 28.2101 34.4847 27.7024 34.7417 27.201ZM28.3865 33.8884C27.8037 33.2867 27.2208 32.6161 26.6442 31.8828C27.2083 31.9079 27.7849 31.9267 28.3677 31.9267C28.9569 31.9267 29.5397 31.9141 30.1101 31.8828C29.546 32.6161 28.9631 33.2867 28.3865 33.8884ZM23.7236 30.1969C22.8336 30.0652 21.975 29.9023 21.1539 29.7017C21.3858 28.8932 21.6741 28.0597 22 27.2261C22.257 27.7275 22.5265 28.2289 22.8211 28.7303C23.1156 29.2317 23.4165 29.7205 23.7236 30.1969ZM28.3552 17.1543C28.9381 17.756 29.5209 18.4266 30.0975 19.1599C29.5335 19.1348 28.9569 19.116 28.374 19.116C27.7849 19.116 27.202 19.1286 26.6317 19.1599C27.1957 18.4266 27.7786 17.756 28.3552 17.1543ZM23.7173 20.8459C23.4102 21.3284 23.1031 21.8236 22.8148 22.3312C22.5265 22.8326 22.257 23.334 22 23.8354C21.6616 22.9956 21.3733 22.1557 21.1351 21.341C21.9562 21.1467 22.8211 20.9775 23.7173 20.8459ZM18.0453 28.6927C15.8266 27.7463 14.3914 26.5053 14.3914 25.5214C14.3914 24.5374 15.8266 23.2902 18.0453 22.35C18.5843 22.1181 19.1734 21.9113 19.7814 21.717C20.1386 22.9454 20.6087 24.224 21.1915 25.5339C20.6149 26.8375 20.1511 28.1098 19.8002 29.332C19.1797 29.1377 18.5905 28.9246 18.0453 28.6927ZM21.4172 37.6488C20.5648 37.16 20.195 35.2985 20.4833 32.9044C20.5523 32.3152 20.6651 31.6948 20.8029 31.0618C22.0314 31.3626 23.3726 31.5945 24.7828 31.7449C25.6289 32.9044 26.5063 33.9573 27.39 34.8786C25.3468 36.7777 23.429 37.8181 22.1254 37.8181C21.8433 37.8118 21.6052 37.7554 21.4172 37.6488ZM36.2835 32.8731C36.5781 35.2672 36.2146 37.1286 35.3685 37.6238C35.1804 37.7366 34.936 37.7867 34.6477 37.7867C33.3503 37.7867 31.4262 36.7526 29.3831 34.8661C30.2605 33.9448 31.1379 32.8981 31.9715 31.7386C33.3879 31.5882 34.7292 31.3563 35.9576 31.0492C36.1017 31.6822 36.2146 32.2902 36.2835 32.8731ZM38.6965 28.6927C38.1575 28.9246 37.5683 29.1314 36.9604 29.3257C36.6031 28.0973 36.1331 26.8187 35.5502 25.5088C36.1268 24.2052 36.5906 22.9329 36.9416 21.7108C37.5621 21.9051 38.1512 22.1181 38.7027 22.35C40.9214 23.2964 42.3566 24.5374 42.3566 25.5214C42.3504 26.5053 40.9151 27.7526 38.6965 28.6927Z" fill="#61DAFB"/>
<path d="M28.3678 28.3856C29.9496 28.3856 31.232 27.1032 31.232 25.5214C31.232 23.9395 29.9496 22.6572 28.3678 22.6572C26.7859 22.6572 25.5035 23.9395 25.5035 25.5214C25.5035 27.1032 26.7859 28.3856 28.3678 28.3856Z" fill="#61DAFB"/>
</g>
<defs>
<filter id="filter0_d" x="0" y="0" width="56" height="56" filterUnits="userSpaceOnUse" color-interpolation-filters="sRGB">
<feFlood flood-opacity="0" result="BackgroundImageFix"/>
<feColorMatrix in="SourceAlpha" type="matrix" values="0 0 0 0 0 0 0 0 0 0 0 0 0 0 0 0 0 0 127 0"/>
<feOffset dy="2"/>
<feGaussianBlur stdDeviation="4"/>
<feColorMatrix type="matrix" values="0 0 0 0 0 0 0 0 0 0 0 0 0 0 0 0 0 0 0.08 0"/>
<feBlend mode="normal" in2="BackgroundImageFix" result="effect1_dropShadow"/>
<feBlend mode="normal" in="SourceGraphic" in2="effect1_dropShadow" result="shape"/>
</filter>
<clipPath id="clip0">
<rect width="30.748" height="35.0365" fill="white" transform="translate(13 8)"/>
</clipPath>
</defs>
</svg>
