<svg width="157" height="143" viewBox="0 0 157 143" fill="none" xmlns="http://www.w3.org/2000/svg">
<g filter="url(#filter0_d)">
<path d="M59.9068 103.785L56.5936 81.9178C56.3512 80.3178 58.0507 79.1358 59.4664 79.9198L78.1395 90.2619C79.6211 91.0825 79.4242 93.2718 77.8199 93.8148L68.5037 96.968C68.0614 97.1177 67.6875 97.4211 67.45 97.823L63.5136 104.485C62.5805 106.064 60.1816 105.598 59.9068 103.785Z" fill="#7D5FFF"/>
<path d="M59.9068 103.785L56.5936 81.9178C56.3512 80.3178 58.0507 79.1358 59.4664 79.9198L78.1395 90.2619C79.6211 91.0825 79.4242 93.2718 77.8199 93.8148L68.5037 96.968C68.0614 97.1177 67.6875 97.4211 67.45 97.823L63.5136 104.485C62.5805 106.064 60.1816 105.598 59.9068 103.785Z" stroke="white" stroke-width="1.3" stroke-linecap="round" stroke-linejoin="round"/>
</g>
<g filter="url(#filter1_d)">
<rect x="75.5" y="104" width="72.8" height="26" fill="#7D5FFF"/>
</g>
<path d="M101.389 120.9L99.681 117.799H99.2013V120.9H97.2006V112.687H100.558C101.206 112.687 101.756 112.8 102.208 113.026C102.668 113.252 103.012 113.564 103.238 113.962C103.464 114.352 103.577 114.789 103.577 115.272C103.577 115.818 103.421 116.306 103.109 116.735C102.805 117.164 102.352 117.468 101.752 117.647L103.647 120.9H101.389ZM99.2013 116.384H100.441C100.808 116.384 101.081 116.294 101.26 116.115C101.448 115.935 101.541 115.682 101.541 115.354C101.541 115.042 101.448 114.796 101.26 114.617C101.081 114.438 100.808 114.348 100.441 114.348H99.2013V116.384ZM111.502 114.371L107.407 124H105.254L106.752 120.678L104.096 114.371H106.331L107.84 118.455L109.338 114.371H111.502ZM111.828 117.624C111.828 116.953 111.952 116.364 112.202 115.857C112.459 115.35 112.807 114.96 113.243 114.687C113.68 114.414 114.168 114.278 114.706 114.278C115.166 114.278 115.568 114.371 115.911 114.559C116.262 114.746 116.531 114.991 116.718 115.296V114.371H118.719V120.9H116.718V119.976C116.523 120.28 116.25 120.526 115.899 120.713C115.556 120.9 115.154 120.994 114.694 120.994C114.164 120.994 113.68 120.857 113.243 120.584C112.807 120.303 112.459 119.909 112.202 119.402C111.952 118.888 111.828 118.295 111.828 117.624ZM116.718 117.636C116.718 117.136 116.578 116.743 116.297 116.454C116.024 116.165 115.689 116.021 115.291 116.021C114.893 116.021 114.554 116.165 114.273 116.454C114 116.735 113.863 117.125 113.863 117.624C113.863 118.123 114 118.521 114.273 118.817C114.554 119.106 114.893 119.25 115.291 119.25C115.689 119.25 116.024 119.106 116.297 118.817C116.578 118.529 116.718 118.135 116.718 117.636ZM124.144 114.301C124.909 114.301 125.517 114.551 125.97 115.05C126.43 115.541 126.66 116.22 126.66 117.086V120.9H124.671V117.355C124.671 116.918 124.558 116.579 124.332 116.337C124.105 116.095 123.801 115.974 123.419 115.974C123.037 115.974 122.733 116.095 122.506 116.337C122.28 116.579 122.167 116.918 122.167 117.355V120.9H120.166V114.371H122.167V115.237C122.37 114.949 122.643 114.722 122.986 114.559C123.329 114.387 123.715 114.301 124.144 114.301Z" fill="white"/>
<g clip-path="url(#clip0)">
<path d="M64 32C64 14.3269 49.6731 0 32 0C14.3269 0 0 14.3269 0 32C0 49.6731 14.3269 64 32 64C49.6731 64 64 49.6731 64 32Z" fill="#6F6FFB"/>
<path d="M18 42C20.7614 42 23 39.7614 23 37C23 34.2386 20.7614 32 18 32C15.2386 32 13 34.2386 13 37C13 39.7614 15.2386 42 18 42Z" fill="#F0BD70"/>
<path d="M18 41H35V65.87C35 65.87 31.357 68 26.5 68C21.643 68 18 64.523 18 64.523V41Z" fill="#F0BD70"/>
<path d="M35 53.868C35 59.522 34.118 58.986 28.383 58.986C22.648 58.986 20.002 54.403 20.002 48.749C20.002 43.095 19.784 38 24.412 38C37.5 38.5 35 48.214 35 53.868Z" fill="#E9B05B"/>
<path d="M45.886 36.1C45.886 45.022 49.572 55.993 33.5 55.993C17.428 55.993 17.428 45.022 17.428 36.1C15 25.5 15.5 13 32 13C48.5 13 45.886 27.177 45.886 36.1Z" fill="#FFCB7E"/>
<path d="M38 41H37C36.4477 41 36 41.4477 36 42C36 42.5523 36.4477 43 37 43H38C38.5523 43 39 42.5523 39 42C39 41.4477 38.5523 41 38 41Z" fill="#F0BD70"/>
<path d="M38 60H16C11.0294 60 7 64.0294 7 69V74C7 78.9706 11.0294 83 16 83H38C42.9706 83 47 78.9706 47 74V69C47 64.0294 42.9706 60 38 60Z" fill="#E05A33"/>
<path fill-rule="evenodd" clip-rule="evenodd" d="M45.968 32.483C46.798 32.0146 47.4335 31.2651 47.7598 30.3697C48.0862 29.4742 48.082 28.4916 47.748 27.599C48.6609 27.1589 49.3727 26.3887 49.7396 25.4441C50.1065 24.4994 50.1012 23.4507 49.7247 22.5099C49.3482 21.569 48.6287 20.8061 47.7114 20.3753C46.7941 19.9445 45.7475 19.8779 44.783 20.189C46.2 23.863 46.096 28.407 45.968 32.483Z" fill="#47280B"/>
<path fill-rule="evenodd" clip-rule="evenodd" d="M36.297 22.76C35.3857 23.5611 34.2133 24.002 33 24C31.8934 24.0018 30.8177 23.6348 29.943 22.957C29.2939 23.6059 28.5232 24.1203 27.675 24.4709C26.8268 24.8215 25.9178 25.0013 25 25C24.307 25.0005 23.6179 24.898 22.955 24.696C22.6943 24.9813 22.3939 25.2275 22.063 25.427C22.4567 25.8954 22.7376 26.4479 22.8843 27.042C23.0309 27.636 23.0393 28.2558 22.9088 28.8536C22.7783 29.4514 22.5124 30.0113 22.1315 30.4902C21.7507 30.9691 21.2651 31.3542 20.712 31.616C20.8771 31.8421 20.9755 32.1099 20.9963 32.389C21.0171 32.6682 20.9594 32.9476 20.8296 33.1957C20.6999 33.4437 20.5033 33.6505 20.2621 33.7927C20.021 33.9348 19.7449 34.0066 19.465 34C18.9748 34.853 18.1874 35.4953 17.2534 35.8044C16.3194 36.1134 15.3043 36.0674 14.4021 35.6751C13.4999 35.2828 12.7738 34.5718 12.3628 33.678C11.9518 32.7842 11.8846 31.7703 12.174 30.83C11.8014 30.459 11.5058 30.018 11.3043 29.5323C11.1028 29.0466 10.9994 28.5258 11 28C11 26.894 11.449 25.893 12.174 25.17C11.9809 24.5383 11.9472 23.8686 12.076 23.2207C12.2047 22.5728 12.492 21.9668 12.912 21.457C12.3918 20.5403 12.0852 19.5181 12.0151 18.4664C11.945 17.4147 12.1131 16.3608 12.5071 15.3832C12.901 14.4056 13.5105 13.5295 14.2902 12.8202C15.0699 12.111 15.9996 11.5869 17.01 11.287C16.958 10.5683 17.1011 9.84898 17.4242 9.20493C17.7473 8.56088 18.2384 8.01607 18.8455 7.62804C19.4526 7.24001 20.1533 7.02319 20.8735 7.00048C21.5937 6.97776 22.3066 7.15 22.937 7.499C23.5513 6.43473 24.4351 5.55102 25.4995 4.93678C26.5638 4.32255 27.7711 3.99945 29 4C30.373 4 31.654 4.395 32.735 5.079C33.4775 4.27911 34.4095 3.67901 35.4449 3.334C36.4804 2.989 37.586 2.9102 38.6599 3.10486C39.7338 3.29952 40.7415 3.76137 41.59 4.44786C42.4384 5.13435 43.1005 6.02338 43.515 7.033C44.044 7.10157 44.554 7.27527 45.0149 7.54387C45.4758 7.81247 45.8783 8.17054 46.1987 8.59702C46.5192 9.0235 46.7511 9.50977 46.8808 10.0272C47.0105 10.5446 47.0354 11.0828 46.954 11.61C48.809 12.984 50 15.112 50 17.5C50 21.642 46.418 25 42 25C39.767 25 37.748 24.142 36.297 22.76Z" fill="#47280B"/>
<path d="M28.929 46C28.929 45.7348 29.0344 45.4804 29.2219 45.2929C29.4094 45.1054 29.6638 45 29.929 45H39.072C39.3372 45 39.5916 45.1054 39.7791 45.2929C39.9667 45.4804 40.072 45.7348 40.072 46C40.072 47.3261 39.5452 48.5979 38.6075 49.5355C37.6699 50.4732 36.3981 51 35.072 51H33.929C32.6029 51 31.3312 50.4732 30.3935 49.5355C29.4558 48.5979 28.929 47.3261 28.929 46Z" fill="#66253C"/>
<path fill-rule="evenodd" clip-rule="evenodd" d="M36.755 50.71C36.2148 50.9027 35.6455 51.0008 35.072 51H33.929C32.6375 51 31.3962 50.5003 30.4649 49.6056C29.5336 48.7108 28.9846 47.4904 28.933 46.2C29.697 45.914 30.831 45.947 31.95 45.98C32.306 45.99 32.66 46 33 46C35.21 46 37 47.567 37 49.5C37 49.925 36.913 50.333 36.755 50.71Z" fill="#B03E67"/>
<path d="M30 45H40V46C40 46.2652 39.8946 46.5196 39.7071 46.7071C39.5196 46.8946 39.2652 47 39 47H31C30.7348 47 30.4804 46.8946 30.2929 46.7071C30.1054 46.5196 30 46.2652 30 46V45Z" fill="white"/>
<path d="M33 37.5C33 36.6716 32.3284 36 31.5 36C30.6716 36 30 36.6716 30 37.5V38.5C30 39.3284 30.6716 40 31.5 40C32.3284 40 33 39.3284 33 38.5V37.5Z" fill="#1B0B47"/>
<path d="M43 37.5C43 36.6716 42.3284 36 41.5 36C40.6716 36 40 36.6716 40 37.5V38.5C40 39.3284 40.6716 40 41.5 40C42.3284 40 43 39.3284 43 38.5V37.5Z" fill="#1B0B47"/>
<path d="M27.5 39H25.5C24.6716 39 24 39.6716 24 40.5C24 41.3284 24.6716 42 25.5 42H27.5C28.3284 42 29 41.3284 29 40.5C29 39.6716 28.3284 39 27.5 39Z" fill="#FF859B"/>
<path d="M45.5 39H44.5C43.6716 39 43 39.6716 43 40.5C43 41.3284 43.6716 42 44.5 42H45.5C46.3284 42 47 41.3284 47 40.5C47 39.6716 46.3284 39 45.5 39Z" fill="#FF859B"/>
</g>
<defs>
<filter id="filter0_d" x="48.1199" y="76.4199" width="39.4752" height="42.6747" filterUnits="userSpaceOnUse" color-interpolation-filters="sRGB">
<feFlood flood-opacity="0" result="BackgroundImageFix"/>
<feColorMatrix in="SourceAlpha" type="matrix" values="0 0 0 0 0 0 0 0 0 0 0 0 0 0 0 0 0 0 127 0"/>
<feOffset dy="5.2"/>
<feGaussianBlur stdDeviation="3.9"/>
<feColorMatrix type="matrix" values="0 0 0 0 0 0 0 0 0 0 0 0 0 0 0 0 0 0 0.15 0"/>
<feBlend mode="normal" in2="BackgroundImageFix" result="effect1_dropShadow"/>
<feBlend mode="normal" in="SourceGraphic" in2="effect1_dropShadow" result="shape"/>
</filter>
<filter id="filter1_d" x="67.7" y="101.4" width="88.4" height="41.6" filterUnits="userSpaceOnUse" color-interpolation-filters="sRGB">
<feFlood flood-opacity="0" result="BackgroundImageFix"/>
<feColorMatrix in="SourceAlpha" type="matrix" values="0 0 0 0 0 0 0 0 0 0 0 0 0 0 0 0 0 0 127 0"/>
<feOffset dy="5.2"/>
<feGaussianBlur stdDeviation="3.9"/>
<feColorMatrix type="matrix" values="0 0 0 0 0 0 0 0 0 0 0 0 0 0 0 0 0 0 0.15 0"/>
<feBlend mode="normal" in2="BackgroundImageFix" result="effect1_dropShadow"/>
<feBlend mode="normal" in="SourceGraphic" in2="effect1_dropShadow" result="shape"/>
</filter>
<clipPath id="clip0">
<rect width="64" height="64" rx="32" fill="white"/>
</clipPath>
</defs>
</svg>
