<svg width="192" height="116" viewBox="0 0 192 116" fill="none" xmlns="http://www.w3.org/2000/svg">
<g filter="url(#filter0_d)">
<path d="M11.9068 27.7848L8.59361 5.9178C8.35118 4.31778 10.0507 3.13578 11.4664 3.91984L30.1395 14.2619C31.6211 15.0825 31.4242 17.2718 29.8199 17.8148L20.5037 20.968C20.0614 21.1177 19.6875 21.4211 19.45 21.823L15.5136 28.4847C14.5805 30.0638 12.1816 29.5983 11.9068 27.7848Z" fill="#05C46B"/>
<path d="M11.9068 27.7848L8.59361 5.9178C8.35118 4.31778 10.0507 3.13578 11.4664 3.91984L30.1395 14.2619C31.6211 15.0825 31.4242 17.2718 29.8199 17.8148L20.5037 20.968C20.0614 21.1177 19.6875 21.4211 19.45 21.823L15.5136 28.4847C14.5805 30.0638 12.1816 29.5983 11.9068 27.7848Z" stroke="white" stroke-width="1.3" stroke-linecap="round" stroke-linejoin="round"/>
</g>
<g filter="url(#filter1_d)">
<rect x="27.5" y="28" width="72.8" height="26" fill="#05C46B"/>
</g>
<path d="M54.229 44.9819C53.6284 44.9819 53.0902 44.8844 52.6144 44.6894C52.1386 44.4944 51.7564 44.2058 51.4678 43.8236C51.187 43.4414 51.0388 42.9812 51.0232 42.443H53.1526C53.1838 42.7472 53.2891 42.9812 53.4685 43.145C53.6479 43.301 53.8819 43.379 54.1705 43.379C54.4669 43.379 54.7009 43.3127 54.8725 43.1801C55.0441 43.0397 55.1299 42.8486 55.1299 42.6068C55.1299 42.404 55.0597 42.2363 54.9193 42.1037C54.7867 41.9711 54.619 41.8619 54.4162 41.7761C54.2212 41.6903 53.9404 41.5928 53.5738 41.4836C53.0434 41.3198 52.6105 41.156 52.2751 40.9922C51.9397 40.8284 51.6511 40.5866 51.4093 40.2668C51.1675 39.947 51.0466 39.5297 51.0466 39.0149C51.0466 38.2505 51.3235 37.6538 51.8773 37.2248C52.4311 36.788 53.1526 36.5696 54.0418 36.5696C54.9466 36.5696 55.6759 36.788 56.2297 37.2248C56.7835 37.6538 57.0799 38.2544 57.1189 39.0266H54.9544C54.9388 38.7614 54.8413 38.5547 54.6619 38.4065C54.4825 38.2505 54.2524 38.1725 53.9716 38.1725C53.7298 38.1725 53.5348 38.2388 53.3866 38.3714C53.2384 38.4962 53.1643 38.6795 53.1643 38.9213C53.1643 39.1865 53.2891 39.3932 53.5387 39.5414C53.7883 39.6896 54.1783 39.8495 54.7087 40.0211C55.2391 40.2005 55.6681 40.3721 55.9957 40.5359C56.3311 40.6997 56.6197 40.9376 56.8615 41.2496C57.1033 41.5616 57.2242 41.9633 57.2242 42.4547C57.2242 42.9227 57.1033 43.3478 56.8615 43.73C56.6275 44.1122 56.2843 44.4164 55.8319 44.6426C55.3795 44.8688 54.8452 44.9819 54.229 44.9819ZM59.4617 37.6928C59.1107 37.6928 58.8221 37.5914 58.5959 37.3886C58.3775 37.178 58.2683 36.9206 58.2683 36.6164C58.2683 36.3044 58.3775 36.047 58.5959 35.8442C58.8221 35.6336 59.1107 35.5283 59.4617 35.5283C59.8049 35.5283 60.0857 35.6336 60.3041 35.8442C60.5303 36.047 60.6434 36.3044 60.6434 36.6164C60.6434 36.9206 60.5303 37.178 60.3041 37.3886C60.0857 37.5914 59.8049 37.6928 59.4617 37.6928ZM60.4562 38.3714V44.9H58.4555V38.3714H60.4562ZM65.8841 38.3012C66.6485 38.3012 67.2569 38.5508 67.7093 39.05C68.1695 39.5414 68.3996 40.22 68.3996 41.0858V44.9H66.4106V41.3549C66.4106 40.9181 66.2975 40.5788 66.0713 40.337C65.8451 40.0952 65.5409 39.9743 65.1587 39.9743C64.7765 39.9743 64.4723 40.0952 64.2461 40.337C64.0199 40.5788 63.9068 40.9181 63.9068 41.3549V44.9H61.9061V38.3714H63.9068V39.2372C64.1096 38.9486 64.3826 38.7224 64.7258 38.5586C65.069 38.387 65.4551 38.3012 65.8841 38.3012ZM70.7961 37.6928C70.4451 37.6928 70.1565 37.5914 69.9303 37.3886C69.7119 37.178 69.6027 36.9206 69.6027 36.6164C69.6027 36.3044 69.7119 36.047 69.9303 35.8442C70.1565 35.6336 70.4451 35.5283 70.7961 35.5283C71.1393 35.5283 71.4201 35.6336 71.6385 35.8442C71.8647 36.047 71.9778 36.3044 71.9778 36.6164C71.9778 36.9206 71.8647 37.178 71.6385 37.3886C71.4201 37.5914 71.1393 37.6928 70.7961 37.6928ZM71.7906 38.3714V44.9H69.7899V38.3714H71.7906ZM76.8791 43.2035V44.9H75.8612C75.1358 44.9 74.5703 44.7245 74.1647 44.3735C73.7591 44.0147 73.5563 43.4336 73.5563 42.6302V40.0328H72.7607V38.3714H73.5563V36.7802H75.557V38.3714H76.8674V40.0328H75.557V42.6536C75.557 42.8486 75.6038 42.989 75.6974 43.0748C75.791 43.1606 75.947 43.2035 76.1654 43.2035H76.8791Z" fill="white"/>
<g filter="url(#filter2_d)">
<g clip-path="url(#clip0)">
<path d="M186 78C186 62.536 173.464 50 158 50C142.536 50 130 62.536 130 78C130 93.464 142.536 106 158 106C173.464 106 186 93.464 186 78Z" fill="#0BE881"/>
<path d="M145.75 86.75C148.166 86.75 150.125 84.7912 150.125 82.375C150.125 79.9588 148.166 78 145.75 78C143.334 78 141.375 79.9588 141.375 82.375C141.375 84.7912 143.334 86.75 145.75 86.75Z" fill="#F5D0C5"/>
<path d="M145.75 85.875H160.625V107.636C160.625 107.636 157.437 109.5 153.188 109.5C148.938 109.5 145.75 106.458 145.75 106.458V85.875Z" fill="#F5D0C5"/>
<path d="M160.625 97.1345C160.625 102.082 157.562 102.5 154.835 101.613C152.109 100.727 146.625 93.0097 146.625 88.0625C146.625 83.1152 147.311 83.25 151.361 83.25C162.813 83.6875 160.625 92.1872 160.625 97.1345Z" fill="#C99688"/>
<path d="M170.15 81.5875C170.15 89.3942 166.748 98.125 161.061 99.4375C152.748 98.5625 145.25 89.3942 145.25 81.5875C143.125 72.3125 143.563 61.375 158 61.375C172.438 61.375 170.15 73.7799 170.15 81.5875Z" fill="#F5D0C5"/>
<path d="M163.25 85.875H162.375C161.892 85.875 161.5 86.2668 161.5 86.75C161.5 87.2332 161.892 87.625 162.375 87.625H163.25C163.733 87.625 164.125 87.2332 164.125 86.75C164.125 86.2668 163.733 85.875 163.25 85.875Z" fill="#C99688"/>
<path d="M163.25 102.5H144C139.651 102.5 136.125 106.026 136.125 110.375V114.75C136.125 119.099 139.651 122.625 144 122.625H163.25C167.599 122.625 171.125 119.099 171.125 114.75V110.375C171.125 106.026 167.599 102.5 163.25 102.5Z" fill="#E05A33"/>
<path d="M129.999 58.7482C136.996 51.7517 141.375 61.3741 141.375 61.3741L139.623 68.3741C139.623 68.3741 137.873 70.5616 139.623 77.1241C141.373 83.6866 137.436 87.1866 137.436 87.1866C137.436 87.1866 134.373 89.375 131.748 87.625C129.123 85.875 128.776 84.1932 129.123 81.0625C129.561 77.125 130.873 78.4357 130.873 74.4982C130.873 70.5607 123.001 65.7447 129.998 58.7482H129.999Z" fill="#1B0B47"/>
<path d="M141.401 61.5334L146.221 63.6176L143.095 70.8451L138.277 68.7626C138.277 68.7626 137.437 67.0625 138.749 64.4384C140.059 61.8134 141.402 61.5334 141.402 61.5334H141.401Z" fill="#FF6C98"/>
<path fill-rule="evenodd" clip-rule="evenodd" d="M145.75 85.875L144.592 78.1549C143.57 78.4344 142.684 79.0754 142.099 79.959C141.513 80.8426 141.269 81.9086 141.41 82.959C141.552 84.0093 142.07 84.9726 142.868 85.6698C143.666 86.3671 144.69 86.7509 145.75 86.75V94.0125C144.363 92.782 143.16 91.3587 142.177 89.7862C140.69 87.4202 139.65 84.7077 139.131 81.8299C138.611 78.9441 138.623 75.9877 139.166 73.1061C139.708 70.2335 140.769 67.5324 142.277 65.183C143.784 62.8345 145.703 60.8929 147.903 59.4902C150.103 58.0867 152.534 57.2546 155.032 57.0499C155.576 57.0054 156.121 56.9908 156.666 57.0061C158.994 56.9446 161.311 57.3384 163.487 58.1655C165.504 58.9355 167.337 60.0634 168.881 61.4852C170.405 62.8805 171.631 64.5703 172.485 66.4526C173.134 67.8917 173.541 69.4282 173.689 71H173.75V74.7502C173.75 74.7502 173.462 74.8832 172.877 75.0705V82.4975C172.877 82.4975 172.877 83.726 171.564 84.6465C171.109 84.9659 170.498 85.2109 169.893 85.3955C170.065 84.1331 170.151 82.8606 170.153 81.5866C170.153 80.6819 170.183 79.715 170.215 78.7131C170.246 77.7349 170.279 76.7225 170.285 75.7022C168.664 75.9989 166.464 76.25 163.654 76.25C156.787 76.25 152.75 74.7502 152.75 74.7502V73.8761C152.155 74.8071 151.511 75.9324 151 77.125C150.344 78.6562 150.344 80.226 150.344 81.5446C150.344 82.8641 150.344 83.9334 149.687 84.4627C148.375 85.5215 145.75 85.875 145.75 85.875Z" fill="#1B0B47"/>
<path d="M158.875 82.8125C158.875 82.0876 158.287 81.5 157.562 81.5C156.838 81.5 156.25 82.0876 156.25 82.8125V83.6875C156.25 84.4124 156.838 85 157.562 85C158.287 85 158.875 84.4124 158.875 83.6875V82.8125Z" fill="#1B0B47"/>
<path d="M167.625 82.8125C167.625 82.0876 167.037 81.5 166.312 81.5C165.588 81.5 165 82.0876 165 82.8125V83.6875C165 84.4124 165.588 85 166.312 85C167.037 85 167.625 84.4124 167.625 83.6875V82.8125Z" fill="#1B0B47"/>
<path d="M154.062 84.125H152.312C151.588 84.125 151 84.7126 151 85.4375C151 86.1624 151.588 86.75 152.312 86.75H154.062C154.787 86.75 155.375 86.1624 155.375 85.4375C155.375 84.7126 154.787 84.125 154.062 84.125Z" fill="#FF859B"/>
<path d="M169.812 84.125H168.938C168.213 84.125 167.625 84.7126 167.625 85.4375C167.625 86.1624 168.213 86.75 168.938 86.75H169.812C170.537 86.75 171.125 86.1624 171.125 85.4375C171.125 84.7126 170.537 84.125 169.812 84.125Z" fill="#FF859B"/>
</g>
</g>
<defs>
<filter id="filter0_d" x="0.119922" y="0.419867" width="39.4752" height="42.6747" filterUnits="userSpaceOnUse" color-interpolation-filters="sRGB">
<feFlood flood-opacity="0" result="BackgroundImageFix"/>
<feColorMatrix in="SourceAlpha" type="matrix" values="0 0 0 0 0 0 0 0 0 0 0 0 0 0 0 0 0 0 127 0"/>
<feOffset dy="5.2"/>
<feGaussianBlur stdDeviation="3.9"/>
<feColorMatrix type="matrix" values="0 0 0 0 0 0 0 0 0 0 0 0 0 0 0 0 0 0 0.15 0"/>
<feBlend mode="normal" in2="BackgroundImageFix" result="effect1_dropShadow"/>
<feBlend mode="normal" in="SourceGraphic" in2="effect1_dropShadow" result="shape"/>
</filter>
<filter id="filter1_d" x="19.7" y="25.4" width="88.4" height="41.6" filterUnits="userSpaceOnUse" color-interpolation-filters="sRGB">
<feFlood flood-opacity="0" result="BackgroundImageFix"/>
<feColorMatrix in="SourceAlpha" type="matrix" values="0 0 0 0 0 0 0 0 0 0 0 0 0 0 0 0 0 0 127 0"/>
<feOffset dy="5.2"/>
<feGaussianBlur stdDeviation="3.9"/>
<feColorMatrix type="matrix" values="0 0 0 0 0 0 0 0 0 0 0 0 0 0 0 0 0 0 0.15 0"/>
<feBlend mode="normal" in2="BackgroundImageFix" result="effect1_dropShadow"/>
<feBlend mode="normal" in="SourceGraphic" in2="effect1_dropShadow" result="shape"/>
</filter>
<filter id="filter2_d" x="124" y="48" width="68" height="68" filterUnits="userSpaceOnUse" color-interpolation-filters="sRGB">
<feFlood flood-opacity="0" result="BackgroundImageFix"/>
<feColorMatrix in="SourceAlpha" type="matrix" values="0 0 0 0 0 0 0 0 0 0 0 0 0 0 0 0 0 0 127 0"/>
<feOffset dy="4"/>
<feGaussianBlur stdDeviation="3"/>
<feColorMatrix type="matrix" values="0 0 0 0 0 0 0 0 0 0 0 0 0 0 0 0 0 0 0.15 0"/>
<feBlend mode="normal" in2="BackgroundImageFix" result="effect1_dropShadow"/>
<feBlend mode="normal" in="SourceGraphic" in2="effect1_dropShadow" result="shape"/>
</filter>
<clipPath id="clip0">
<rect x="130" y="50" width="56" height="56" rx="28" fill="white"/>
</clipPath>
</defs>
</svg>
