<svg width="186" height="149" viewBox="0 0 186 149" fill="none" xmlns="http://www.w3.org/2000/svg">
<g filter="url(#filter0_d)">
<path d="M88.9068 109.785L85.5936 87.9178C85.3512 86.3178 87.0507 85.1358 88.4664 85.9198L107.14 96.2619C108.621 97.0825 108.424 99.2718 106.82 99.8148L97.5037 102.968C97.0614 103.118 96.6875 103.421 96.45 103.823L92.5136 110.485C91.5805 112.064 89.1816 111.598 88.9068 109.785Z" fill="#0984E3"/>
<path d="M88.9068 109.785L85.5936 87.9178C85.3512 86.3178 87.0507 85.1358 88.4664 85.9198L107.14 96.2619C108.621 97.0825 108.424 99.2718 106.82 99.8148L97.5037 102.968C97.0614 103.118 96.6875 103.421 96.45 103.823L92.5136 110.485C91.5805 112.064 89.1816 111.598 88.9068 109.785Z" stroke="white" stroke-width="1.3" stroke-linecap="round" stroke-linejoin="round"/>
</g>
<g filter="url(#filter1_d)">
<rect x="104.5" y="110" width="72.8" height="26" fill="#0984E3"/>
</g>
<path d="M121.449 126.982C120.848 126.982 120.31 126.884 119.834 126.689C119.358 126.494 118.976 126.206 118.687 125.824C118.407 125.441 118.258 124.981 118.243 124.443H120.372C120.403 124.747 120.509 124.981 120.688 125.145C120.867 125.301 121.101 125.379 121.39 125.379C121.686 125.379 121.92 125.313 122.092 125.18C122.264 125.04 122.349 124.849 122.349 124.607C122.349 124.404 122.279 124.236 122.139 124.104C122.006 123.971 121.839 123.862 121.636 123.776C121.441 123.69 121.16 123.593 120.793 123.484C120.263 123.32 119.83 123.156 119.495 122.992C119.159 122.828 118.871 122.587 118.629 122.267C118.387 121.947 118.266 121.53 118.266 121.015C118.266 120.25 118.543 119.654 119.097 119.225C119.651 118.788 120.372 118.57 121.261 118.57C122.166 118.57 122.895 118.788 123.449 119.225C124.003 119.654 124.299 120.254 124.338 121.027H122.174C122.158 120.761 122.061 120.555 121.881 120.406C121.702 120.25 121.472 120.172 121.191 120.172C120.949 120.172 120.754 120.239 120.606 120.371C120.458 120.496 120.384 120.679 120.384 120.921C120.384 121.186 120.509 121.393 120.758 121.541C121.008 121.69 121.398 121.849 121.928 122.021C122.459 122.2 122.888 122.372 123.215 122.536C123.551 122.7 123.839 122.938 124.081 123.25C124.323 123.562 124.444 123.963 124.444 124.455C124.444 124.923 124.323 125.348 124.081 125.73C123.847 126.112 123.504 126.416 123.051 126.643C122.599 126.869 122.065 126.982 121.449 126.982ZM128.647 126.994C128.007 126.994 127.43 126.857 126.915 126.584C126.408 126.311 126.007 125.921 125.71 125.414C125.422 124.907 125.277 124.314 125.277 123.636C125.277 122.965 125.425 122.376 125.722 121.869C126.018 121.354 126.424 120.96 126.939 120.687C127.453 120.414 128.031 120.278 128.67 120.278C129.31 120.278 129.887 120.414 130.402 120.687C130.917 120.96 131.322 121.354 131.619 121.869C131.915 122.376 132.063 122.965 132.063 123.636C132.063 124.306 131.911 124.899 131.607 125.414C131.311 125.921 130.901 126.311 130.378 126.584C129.864 126.857 129.286 126.994 128.647 126.994ZM128.647 125.262C129.029 125.262 129.353 125.122 129.618 124.841C129.891 124.56 130.027 124.158 130.027 123.636C130.027 123.113 129.895 122.711 129.63 122.431C129.372 122.15 129.052 122.009 128.67 122.009C128.28 122.009 127.957 122.15 127.699 122.431C127.442 122.704 127.313 123.105 127.313 123.636C127.313 124.158 127.438 124.56 127.687 124.841C127.945 125.122 128.265 125.262 128.647 125.262ZM136.401 122.033H135.324V126.9H133.324V122.033H132.598V120.371H133.324V120.184C133.324 119.381 133.554 118.772 134.014 118.359C134.474 117.938 135.149 117.727 136.038 117.727C136.186 117.727 136.295 117.731 136.366 117.739V119.435C135.983 119.412 135.714 119.467 135.558 119.599C135.402 119.732 135.324 119.97 135.324 120.313V120.371H136.401V122.033ZM140.617 122.033H139.54V126.9H137.54V122.033H136.814V120.371H137.54V120.184C137.54 119.381 137.77 118.772 138.23 118.359C138.69 117.938 139.365 117.727 140.254 117.727C140.402 117.727 140.511 117.731 140.582 117.739V119.435C140.199 119.412 139.93 119.467 139.774 119.599C139.618 119.732 139.54 119.97 139.54 120.313V120.371H140.617V122.033ZM148.226 120.371L144.131 130H141.978L143.476 126.678L140.82 120.371H143.054L144.564 124.455L146.061 120.371H148.226ZM148.552 123.624C148.552 122.953 148.676 122.364 148.926 121.857C149.183 121.35 149.53 120.96 149.967 120.687C150.404 120.414 150.892 120.278 151.43 120.278C151.89 120.278 152.292 120.371 152.635 120.559C152.986 120.746 153.255 120.991 153.442 121.296V120.371H155.443V126.9H153.442V125.976C153.247 126.28 152.974 126.526 152.623 126.713C152.28 126.9 151.878 126.994 151.418 126.994C150.888 126.994 150.404 126.857 149.967 126.584C149.53 126.303 149.183 125.909 148.926 125.402C148.676 124.888 148.552 124.295 148.552 123.624ZM153.442 123.636C153.442 123.136 153.302 122.743 153.021 122.454C152.748 122.165 152.413 122.021 152.015 122.021C151.617 122.021 151.278 122.165 150.997 122.454C150.724 122.735 150.587 123.125 150.587 123.624C150.587 124.123 150.724 124.521 150.997 124.817C151.278 125.106 151.617 125.25 152.015 125.25C152.413 125.25 152.748 125.106 153.021 124.817C153.302 124.529 153.442 124.135 153.442 123.636ZM160.868 120.301C161.633 120.301 162.241 120.551 162.693 121.05C163.154 121.541 163.384 122.22 163.384 123.086V126.9H161.395V123.355C161.395 122.918 161.282 122.579 161.055 122.337C160.829 122.095 160.525 121.974 160.143 121.974C159.761 121.974 159.456 122.095 159.23 122.337C159.004 122.579 158.891 122.918 158.891 123.355V126.9H156.89V120.371H158.891V121.237C159.094 120.949 159.367 120.722 159.71 120.559C160.053 120.387 160.439 120.301 160.868 120.301Z" fill="white"/>
<g filter="url(#filter2_d)">
<g clip-path="url(#clip0)">
<path d="M78 38C78 18.1177 61.8823 2 42 2C22.1177 2 6 18.1177 6 38C6 57.8823 22.1177 74 42 74C61.8823 74 78 57.8823 78 38Z" fill="#68DBF2"/>
<path d="M26.25 49.25C29.3566 49.25 31.875 46.7316 31.875 43.625C31.875 40.5184 29.3566 38 26.25 38C23.1434 38 20.625 40.5184 20.625 43.625C20.625 46.7316 23.1434 49.25 26.25 49.25Z" fill="#EAC0B3"/>
<path d="M26.25 48.125H45.375V76.1038C45.375 76.1038 41.2766 78.5 35.8125 78.5C30.3484 78.5 26.25 74.5884 26.25 74.5884V48.125Z" fill="#EAC0B3"/>
<path d="M45.1623 61.751C45.1623 67.8091 44.1836 67.2354 37.8127 67.2354C31.4418 67.2354 28.5022 62.3247 28.5022 56.2666C28.5022 50.2096 28.2603 44.75 33.4016 44.75C47.94 45.2855 45.1623 55.6929 45.1623 61.751Z" fill="#C99688"/>
<path d="M57.6218 42.6125C57.6218 52.6497 56.0625 64.9921 43.6875 64.9921C31.3125 64.9921 25.6065 52.6497 25.6065 42.6125C22.875 30.6875 23.4375 16.625 42 16.625C60.5625 16.625 57.6218 32.5741 57.6218 42.6125Z" fill="#F5D0C5"/>
<path d="M48.75 48.125H47.625C47.0037 48.125 46.5 48.6287 46.5 49.25C46.5 49.8713 47.0037 50.375 47.625 50.375H48.75C49.3713 50.375 49.875 49.8713 49.875 49.25C49.875 48.6287 49.3713 48.125 48.75 48.125Z" fill="#EAC0B3"/>
<path d="M48.75 69.5H24C18.4081 69.5 13.875 74.0331 13.875 79.625V85.25C13.875 90.8419 18.4081 95.375 24 95.375H48.75C54.3419 95.375 58.875 90.8419 58.875 85.25V79.625C58.875 74.0331 54.3419 69.5 48.75 69.5Z" fill="#E05A33"/>
<path fill-rule="evenodd" clip-rule="evenodd" d="M38.5857 31.4761C44.8969 33.572 53.6483 36.4768 62.8125 27.3125C67.3125 22.8125 47.0625 3.6875 30.75 14.375C18.0004 16.2639 18.7283 23.9037 19.2908 29.7987C19.3988 30.9271 19.5 31.9903 19.5 32.9375C19.5 33.5371 19.5788 33.986 19.725 34.3078C19.5736 35.5326 19.4984 36.7658 19.5 38C19.5 39.1935 19.9741 40.3381 20.818 41.182C21.662 42.0259 22.8066 42.5 24 42.5C25.1935 42.5 26.3381 42.0259 27.182 41.182C28.0259 40.3381 28.5 39.1935 28.5 38C29.1871 38.0001 29.865 37.8429 30.4818 37.5404C31.0987 37.2379 31.6381 36.7982 32.0587 36.255C32.4793 35.7118 32.77 35.0795 32.9084 34.4065C33.0468 33.7336 33.0293 33.0379 32.8572 32.3728L33 32.375C34.377 32.375 35.6089 31.7563 36.4347 30.7831C37.1142 30.9879 37.833 31.2264 38.5857 31.4761Z" fill="#1B0B47"/>
<path d="M40.0526 47.6052C42.705 47.6052 44.8552 45.455 44.8552 42.8026C44.8552 40.1502 42.705 38 40.0526 38C37.4002 38 35.25 40.1502 35.25 42.8026C35.25 45.455 37.4002 47.6052 40.0526 47.6052Z" stroke="black" stroke-width="2"/>
<path d="M55.8026 47.6052C58.455 47.6052 60.6052 45.455 60.6052 42.8026C60.6052 40.1502 58.455 38 55.8026 38C53.1502 38 51 40.1502 51 42.8026C51 45.455 53.1502 47.6052 55.8026 47.6052Z" stroke="black" stroke-width="2"/>
<path d="M44.2331 41.492L52.1081 41.375" stroke="black" stroke-width="2"/>
<path d="M37.5 53.75C37.5 52.8549 37.8556 51.9965 38.4885 51.3635C39.1214 50.7306 39.9799 50.375 40.875 50.375H51C51.8951 50.375 52.7535 50.7306 53.3865 51.3635C54.0194 51.9965 54.375 52.8549 54.375 53.75H37.5Z" fill="#1B0B47"/>
</g>
</g>
<defs>
<filter id="filter0_d" x="77.1199" y="82.4199" width="39.4752" height="42.6747" filterUnits="userSpaceOnUse" color-interpolation-filters="sRGB">
<feFlood flood-opacity="0" result="BackgroundImageFix"/>
<feColorMatrix in="SourceAlpha" type="matrix" values="0 0 0 0 0 0 0 0 0 0 0 0 0 0 0 0 0 0 127 0"/>
<feOffset dy="5.2"/>
<feGaussianBlur stdDeviation="3.9"/>
<feColorMatrix type="matrix" values="0 0 0 0 0 0 0 0 0 0 0 0 0 0 0 0 0 0 0.15 0"/>
<feBlend mode="normal" in2="BackgroundImageFix" result="effect1_dropShadow"/>
<feBlend mode="normal" in="SourceGraphic" in2="effect1_dropShadow" result="shape"/>
</filter>
<filter id="filter1_d" x="96.7" y="107.4" width="88.4" height="41.6" filterUnits="userSpaceOnUse" color-interpolation-filters="sRGB">
<feFlood flood-opacity="0" result="BackgroundImageFix"/>
<feColorMatrix in="SourceAlpha" type="matrix" values="0 0 0 0 0 0 0 0 0 0 0 0 0 0 0 0 0 0 127 0"/>
<feOffset dy="5.2"/>
<feGaussianBlur stdDeviation="3.9"/>
<feColorMatrix type="matrix" values="0 0 0 0 0 0 0 0 0 0 0 0 0 0 0 0 0 0 0.15 0"/>
<feBlend mode="normal" in2="BackgroundImageFix" result="effect1_dropShadow"/>
<feBlend mode="normal" in="SourceGraphic" in2="effect1_dropShadow" result="shape"/>
</filter>
<filter id="filter2_d" x="0" y="0" width="84" height="84" filterUnits="userSpaceOnUse" color-interpolation-filters="sRGB">
<feFlood flood-opacity="0" result="BackgroundImageFix"/>
<feColorMatrix in="SourceAlpha" type="matrix" values="0 0 0 0 0 0 0 0 0 0 0 0 0 0 0 0 0 0 127 0"/>
<feOffset dy="4"/>
<feGaussianBlur stdDeviation="3"/>
<feColorMatrix type="matrix" values="0 0 0 0 0 0 0 0 0 0 0 0 0 0 0 0 0 0 0.15 0"/>
<feBlend mode="normal" in2="BackgroundImageFix" result="effect1_dropShadow"/>
<feBlend mode="normal" in="SourceGraphic" in2="effect1_dropShadow" result="shape"/>
</filter>
<clipPath id="clip0">
<rect x="6" y="2" width="72" height="72" rx="36" fill="white"/>
</clipPath>
</defs>
</svg>
