<svg width="200" height="100" viewBox="0 0 200 100" fill="none" xmlns="http://www.w3.org/2000/svg">
<path d="M28.5459 45.0128C36.0046 42.4083 37.2741 35.6238 36.3219 29.3859C36.3219 29.1608 36.5124 29 36.7028 29.0643C43.8441 32.6013 51.874 40.3183 51.874 51.8938C51.874 60.7684 45.0819 68.614 35.2111 68.614C31.6889 68.7763 28.2137 67.7456 25.3339 65.6847C22.4541 63.6237 20.3339 60.6499 19.3077 57.2326C18.2816 53.8152 18.408 50.149 19.667 46.8125C20.9261 43.4761 23.246 40.6594 26.2607 38.8071C26.4511 38.6784 26.7051 38.8071 26.7051 39.0321C26.8003 40.2218 27.1177 43.2122 28.419 45.0128H28.5459Z" fill="url(#paint0_radial)"/>
<path d="M72.8851 61.5722L73.4247 60.9292L75.1069 66.3311L74.8847 66.5561C73.6151 67.7458 71.7108 68.3568 69.2669 68.3568H69.1717C66.95 68.3568 65.2043 67.7137 63.9983 66.524C62.7922 65.3021 62.1574 63.4693 62.1574 61.1542V46.4276H57.8726V40.4791H62.1574V33.3087H68.7591V40.4791H73.996V46.4276H68.7274V59.7073C68.7274 60.3182 68.886 62.2796 70.7269 62.2796C71.6791 62.2796 72.5678 61.9259 72.8851 61.5401V61.5722ZM76.3764 67.7458V40.5112H82.9781V67.7458H76.3764ZM79.6455 29.3859C80.4288 29.3859 81.1946 29.6208 81.8464 30.0611C82.4981 30.5013 83.0066 31.1271 83.3078 31.8597C83.609 32.5923 83.6894 33.3987 83.5388 34.1775C83.3883 34.9563 83.0136 35.6725 82.4619 36.2359C81.9102 36.7992 81.2063 37.1845 80.4388 37.3432C79.6713 37.5019 78.8746 37.4269 78.1492 37.1276C77.4237 36.8283 76.8019 36.3182 76.3622 35.6615C75.9224 35.0047 75.6844 34.2308 75.6782 33.4373C75.6782 31.2508 77.4873 29.3859 79.6455 29.3859ZM100.72 39.836C106.433 39.836 109.575 42.9871 109.575 48.7427V67.7137H102.974V50.3504C102.847 47.2636 101.387 45.8488 98.2763 45.8488C95.4832 45.8488 93.2298 47.5852 92.0872 49.0642V67.7137H85.4855V40.5434H92.0872V43.4373C93.9915 41.5723 97.0385 39.9003 100.72 39.9003V39.836ZM131.539 43.3408V30.5434H138.14V67.778H131.539V64.9484C130.528 66.0278 129.313 66.8891 127.966 67.4803C126.619 68.0716 125.167 68.3807 123.699 68.3889C116.494 68.3889 111.67 62.6655 111.67 54.1446C111.67 45.5916 116.494 39.8681 123.699 39.8681C125.171 39.8749 126.625 40.1865 127.973 40.7837C129.321 41.3809 130.535 42.2511 131.539 43.3408ZM131.539 49.0964C130.803 48.1256 129.863 47.3333 128.787 46.777C127.711 46.2208 126.525 45.9147 125.318 45.881C121.224 45.881 118.494 49.1929 118.494 54.1446C118.494 59.0642 121.224 62.3761 125.318 62.3761C127.698 62.3761 130.301 61.0899 131.539 59.225V49.0964ZM153.565 39.8681C161.373 39.8681 166.801 45.9774 166.801 54.6591V56.4919H146.837C147.503 60.3182 150.487 62.7619 154.549 62.7619C157.12 62.7619 159.945 61.6365 161.564 59.9967L162.008 59.6108L165.15 64.1767L164.833 64.4661C161.859 67.1376 157.982 68.5428 154.01 68.3889C145.758 68.3889 139.949 62.5047 139.949 54.1125C139.885 52.2596 140.191 50.4127 140.849 48.6827C141.507 46.9526 142.503 45.3751 143.778 44.0447C145.053 42.7144 146.579 41.6587 148.267 40.9409C149.954 40.2232 151.767 39.8583 153.597 39.8681H153.565ZM146.805 51.4437H160.358C159.977 47.3601 156.644 45.4951 153.565 45.4951C148.932 45.4951 147.186 49.0321 146.805 51.4758V51.4437ZM182.765 39.8681H183.241V46.6205L182.67 46.5241C182.194 46.4276 181.591 46.3633 180.988 46.3633C178.861 46.3633 175.91 47.8745 174.799 49.4823V67.7137H168.197V40.5112H174.831V43.5337C177.021 41.2186 179.909 39.8681 182.765 39.8681Z" fill="#424242"/>
<defs>
<radialGradient id="paint0_radial" cx="0" cy="0" r="1" gradientUnits="userSpaceOnUse" gradientTransform="translate(35.2474 68.6306) scale(33.2533 39.5806)">
<stop stop-color="#FF7854"/>
<stop offset="1" stop-color="#FD267D"/>
</radialGradient>
</defs>
</svg>
