<svg width="122" height="35" viewBox="0 0 122 35" fill="none" xmlns="http://www.w3.org/2000/svg">
<rect width="122" height="35" rx="5.42657" fill="#7EFFF5"/>
<path d="M32.342 12.242L29.514 22H28.086L25.818 14.146L23.466 22L22.052 22.014L19.322 12.242H20.68L22.808 20.516L25.16 12.242H26.588L28.828 20.488L30.97 12.242H32.342ZM40.7572 17.87C40.7572 18.1127 40.7432 18.3693 40.7152 18.64H34.5832C34.6299 19.396 34.8865 19.9887 35.3532 20.418C35.8292 20.838 36.4032 21.048 37.0752 21.048C37.6259 21.048 38.0832 20.922 38.4472 20.67C38.8205 20.4087 39.0819 20.0633 39.2312 19.634H40.6032C40.3979 20.3713 39.9872 20.9733 39.3712 21.44C38.7552 21.8973 37.9899 22.126 37.0752 22.126C36.3472 22.126 35.6939 21.9627 35.1152 21.636C34.5459 21.3093 34.0979 20.8473 33.7712 20.25C33.4445 19.6433 33.2812 18.9433 33.2812 18.15C33.2812 17.3567 33.4399 16.6613 33.7572 16.064C34.0745 15.4667 34.5179 15.0093 35.0872 14.692C35.6659 14.3653 36.3285 14.202 37.0752 14.202C37.8032 14.202 38.4472 14.3607 39.0072 14.678C39.5672 14.9953 39.9965 15.434 40.2952 15.994C40.6032 16.5447 40.7572 17.17 40.7572 17.87ZM39.4412 17.604C39.4412 17.1187 39.3339 16.7033 39.1192 16.358C38.9045 16.0033 38.6105 15.7373 38.2372 15.56C37.8732 15.3733 37.4672 15.28 37.0192 15.28C36.3752 15.28 35.8245 15.4853 35.3672 15.896C34.9192 16.3067 34.6625 16.876 34.5972 17.604H39.4412ZM43.7338 15.756C43.9952 15.2987 44.3778 14.9253 44.8818 14.636C45.3858 14.3467 45.9598 14.202 46.6038 14.202C47.2945 14.202 47.9152 14.3653 48.4658 14.692C49.0165 15.0187 49.4505 15.4807 49.7678 16.078C50.0852 16.666 50.2438 17.352 50.2438 18.136C50.2438 18.9107 50.0852 19.6013 49.7678 20.208C49.4505 20.8147 49.0118 21.286 48.4518 21.622C47.9012 21.958 47.2852 22.126 46.6038 22.126C45.9412 22.126 45.3578 21.9813 44.8538 21.692C44.3592 21.4027 43.9858 21.034 43.7338 20.586V22H42.4598V11.64H43.7338V15.756ZM48.9418 18.136C48.9418 17.5573 48.8252 17.0533 48.5918 16.624C48.3585 16.1947 48.0412 15.868 47.6398 15.644C47.2478 15.42 46.8138 15.308 46.3378 15.308C45.8712 15.308 45.4372 15.4247 45.0358 15.658C44.6438 15.882 44.3265 16.2133 44.0838 16.652C43.8505 17.0813 43.7338 17.5807 43.7338 18.15C43.7338 18.7287 43.8505 19.2373 44.0838 19.676C44.3265 20.1053 44.6438 20.4367 45.0358 20.67C45.4372 20.894 45.8712 21.006 46.3378 21.006C46.8138 21.006 47.2478 20.894 47.6398 20.67C48.0412 20.4367 48.3585 20.1053 48.5918 19.676C48.8252 19.2373 48.9418 18.724 48.9418 18.136ZM55.2192 18.136C55.2192 17.352 55.3779 16.666 55.6952 16.078C56.0125 15.4807 56.4465 15.0187 56.9972 14.692C57.5572 14.3653 58.1825 14.202 58.8732 14.202C59.4705 14.202 60.0259 14.342 60.5392 14.622C61.0525 14.8927 61.4445 15.252 61.7152 15.7V11.64H63.0032V22H61.7152V20.558C61.4632 21.0153 61.0899 21.3933 60.5952 21.692C60.1005 21.9813 59.5219 22.126 58.8592 22.126C58.1779 22.126 57.5572 21.958 56.9972 21.622C56.4465 21.286 56.0125 20.8147 55.6952 20.208C55.3779 19.6013 55.2192 18.9107 55.2192 18.136ZM61.7152 18.15C61.7152 17.5713 61.5985 17.0673 61.3652 16.638C61.1319 16.2087 60.8145 15.882 60.4132 15.658C60.0212 15.4247 59.5872 15.308 59.1112 15.308C58.6352 15.308 58.2012 15.42 57.8092 15.644C57.4172 15.868 57.1045 16.1947 56.8712 16.624C56.6379 17.0533 56.5212 17.5573 56.5212 18.136C56.5212 18.724 56.6379 19.2373 56.8712 19.676C57.1045 20.1053 57.4172 20.4367 57.8092 20.67C58.2012 20.894 58.6352 21.006 59.1112 21.006C59.5872 21.006 60.0212 20.894 60.4132 20.67C60.8145 20.4367 61.1319 20.1053 61.3652 19.676C61.5985 19.2373 61.7152 18.7287 61.7152 18.15ZM72.1771 17.87C72.1771 18.1127 72.1631 18.3693 72.1351 18.64H66.0031C66.0498 19.396 66.3065 19.9887 66.7731 20.418C67.2491 20.838 67.8231 21.048 68.4951 21.048C69.0458 21.048 69.5031 20.922 69.8671 20.67C70.2405 20.4087 70.5018 20.0633 70.6511 19.634H72.0231C71.8178 20.3713 71.4071 20.9733 70.7911 21.44C70.1751 21.8973 69.4098 22.126 68.4951 22.126C67.7671 22.126 67.1138 21.9627 66.5351 21.636C65.9658 21.3093 65.5178 20.8473 65.1911 20.25C64.8645 19.6433 64.7011 18.9433 64.7011 18.15C64.7011 17.3567 64.8598 16.6613 65.1771 16.064C65.4945 15.4667 65.9378 15.0093 66.5071 14.692C67.0858 14.3653 67.7485 14.202 68.4951 14.202C69.2231 14.202 69.8671 14.3607 70.4271 14.678C70.9871 14.9953 71.4165 15.434 71.7151 15.994C72.0231 16.5447 72.1771 17.17 72.1771 17.87ZM70.8611 17.604C70.8611 17.1187 70.7538 16.7033 70.5391 16.358C70.3245 16.0033 70.0305 15.7373 69.6571 15.56C69.2931 15.3733 68.8871 15.28 68.4391 15.28C67.7951 15.28 67.2445 15.4853 66.7871 15.896C66.3391 16.3067 66.0825 16.876 66.0171 17.604H70.8611ZM76.5958 22.126C76.0078 22.126 75.4804 22.028 75.0138 21.832C74.5471 21.6267 74.1784 21.3467 73.9078 20.992C73.6371 20.628 73.4878 20.2127 73.4598 19.746H74.7758C74.8131 20.1287 74.9904 20.4413 75.3078 20.684C75.6344 20.9267 76.0591 21.048 76.5818 21.048C77.0671 21.048 77.4498 20.9407 77.7298 20.726C78.0098 20.5113 78.1498 20.2407 78.1498 19.914C78.1498 19.578 78.0004 19.3307 77.7018 19.172C77.4031 19.004 76.9411 18.8407 76.3158 18.682C75.7464 18.5327 75.2798 18.3833 74.9158 18.234C74.5611 18.0753 74.2531 17.8467 73.9918 17.548C73.7398 17.24 73.6138 16.8387 73.6138 16.344C73.6138 15.952 73.7304 15.5927 73.9638 15.266C74.1971 14.9393 74.5284 14.6827 74.9578 14.496C75.3871 14.3 75.8771 14.202 76.4278 14.202C77.2771 14.202 77.9631 14.4167 78.4858 14.846C79.0084 15.2753 79.2884 15.8633 79.3258 16.61H78.0518C78.0238 16.2087 77.8604 15.8867 77.5618 15.644C77.2724 15.4013 76.8804 15.28 76.3858 15.28C75.9284 15.28 75.5644 15.378 75.2938 15.574C75.0231 15.77 74.8878 16.0267 74.8878 16.344C74.8878 16.596 74.9671 16.806 75.1258 16.974C75.2938 17.1327 75.4991 17.2633 75.7418 17.366C75.9938 17.4593 76.3391 17.5667 76.7778 17.688C77.3284 17.8373 77.7764 17.9867 78.1218 18.136C78.4671 18.276 78.7611 18.4907 79.0038 18.78C79.2558 19.0693 79.3864 19.4473 79.3958 19.914C79.3958 20.334 79.2791 20.712 79.0458 21.048C78.8124 21.384 78.4811 21.65 78.0518 21.846C77.6318 22.0327 77.1464 22.126 76.5958 22.126ZM81.8732 13.082C81.6306 13.082 81.4252 12.998 81.2572 12.83C81.0892 12.662 81.0052 12.4567 81.0052 12.214C81.0052 11.9713 81.0892 11.766 81.2572 11.598C81.4252 11.43 81.6306 11.346 81.8732 11.346C82.1066 11.346 82.3026 11.43 82.4612 11.598C82.6292 11.766 82.7132 11.9713 82.7132 12.214C82.7132 12.4567 82.6292 12.662 82.4612 12.83C82.3026 12.998 82.1066 13.082 81.8732 13.082ZM82.4892 14.328V22H81.2152V14.328H82.4892ZM87.8455 14.202C88.5082 14.202 89.0869 14.3467 89.5815 14.636C90.0855 14.9253 90.4589 15.2893 90.7015 15.728V14.328H91.9895V22.168C91.9895 22.868 91.8402 23.4887 91.5415 24.03C91.2429 24.5807 90.8135 25.01 90.2535 25.318C89.7029 25.626 89.0589 25.78 88.3215 25.78C87.3135 25.78 86.4735 25.542 85.8015 25.066C85.1295 24.59 84.7329 23.9413 84.6115 23.12H85.8715C86.0115 23.5867 86.3009 23.96 86.7395 24.24C87.1782 24.5293 87.7055 24.674 88.3215 24.674C89.0215 24.674 89.5909 24.4547 90.0295 24.016C90.4775 23.5773 90.7015 22.9613 90.7015 22.168V20.558C90.4495 21.006 90.0762 21.3793 89.5815 21.678C89.0869 21.9767 88.5082 22.126 87.8455 22.126C87.1642 22.126 86.5435 21.958 85.9835 21.622C85.4329 21.286 84.9989 20.8147 84.6815 20.208C84.3642 19.6013 84.2055 18.9107 84.2055 18.136C84.2055 17.352 84.3642 16.666 84.6815 16.078C84.9989 15.4807 85.4329 15.0187 85.9835 14.692C86.5435 14.3653 87.1642 14.202 87.8455 14.202ZM90.7015 18.15C90.7015 17.5713 90.5849 17.0673 90.3515 16.638C90.1182 16.2087 89.8009 15.882 89.3995 15.658C89.0075 15.4247 88.5735 15.308 88.0975 15.308C87.6215 15.308 87.1875 15.42 86.7955 15.644C86.4035 15.868 86.0909 16.1947 85.8575 16.624C85.6242 17.0533 85.5075 17.5573 85.5075 18.136C85.5075 18.724 85.6242 19.2373 85.8575 19.676C86.0909 20.1053 86.4035 20.4367 86.7955 20.67C87.1875 20.894 87.6215 21.006 88.0975 21.006C88.5735 21.006 89.0075 20.894 89.3995 20.67C89.8009 20.4367 90.1182 20.1053 90.3515 19.676C90.5849 19.2373 90.7015 18.7287 90.7015 18.15ZM97.9015 14.188C98.8348 14.188 99.5908 14.4727 100.169 15.042C100.748 15.602 101.037 16.414 101.037 17.478V22H99.7775V17.66C99.7775 16.8947 99.5862 16.3113 99.2035 15.91C98.8208 15.4993 98.2982 15.294 97.6355 15.294C96.9635 15.294 96.4268 15.504 96.0255 15.924C95.6335 16.344 95.4375 16.9553 95.4375 17.758V22H94.1635V14.328H95.4375V15.42C95.6895 15.028 96.0302 14.7247 96.4595 14.51C96.8982 14.2953 97.3788 14.188 97.9015 14.188Z" fill="#1E272E"/>
</svg>
